%TF.GenerationSoftware,KiCad,Pcbnew,10.0.3*%
%TF.CreationDate,2026-06-25T17:13:28+01:00*%
%TF.ProjectId,FSR-array,4653522d-6172-4726-9179-2e6b69636164,2.3.1*%
%TF.SameCoordinates,Original*%
%TF.FileFunction,Copper,L1,Top*%
%TF.FilePolarity,Positive*%
%FSLAX46Y46*%
G04 Gerber Fmt 4.6, Leading zero omitted, Abs format (unit mm)*
G04 Created by KiCad (PCBNEW 10.0.3) date 2026-06-25 17:13:28*
%MOMM*%
%LPD*%
G01*
G04 APERTURE LIST*
G04 Aperture macros list*
%AMRoundRect*
0 Rectangle with rounded corners*
0 $1 Rounding radius*
0 $2 $3 $4 $5 $6 $7 $8 $9 X,Y pos of 4 corners*
0 Add a 4 corners polygon primitive as box body*
4,1,4,$2,$3,$4,$5,$6,$7,$8,$9,$2,$3,0*
0 Add four circle primitives for the rounded corners*
1,1,$1+$1,$2,$3*
1,1,$1+$1,$4,$5*
1,1,$1+$1,$6,$7*
1,1,$1+$1,$8,$9*
0 Add four rect primitives between the rounded corners*
20,1,$1+$1,$2,$3,$4,$5,0*
20,1,$1+$1,$4,$5,$6,$7,0*
20,1,$1+$1,$6,$7,$8,$9,0*
20,1,$1+$1,$8,$9,$2,$3,0*%
G04 Aperture macros list end*
%TA.AperFunction,ConnectorPad*%
%ADD10RoundRect,0.035000X-0.140000X-1.965000X0.140000X-1.965000X0.140000X1.965000X-0.140000X1.965000X0*%
%TD*%
%TA.AperFunction,Conductor*%
%ADD11C,0.100000*%
%TD*%
G04 APERTURE END LIST*
D10*
%TO.P,COL_FPC_Connector1,16,16_16*%
%TO.N,/ain15*%
X91956791Y-34009210D03*
%TO.P,COL_FPC_Connector1,15,15_15*%
%TO.N,/ain14*%
X91456792Y-34009210D03*
%TO.P,COL_FPC_Connector1,14,14_14*%
%TO.N,/ain13*%
X90956791Y-34009210D03*
%TO.P,COL_FPC_Connector1,13,13_13*%
%TO.N,/ain12*%
X90456791Y-34009210D03*
%TO.P,COL_FPC_Connector1,12,12_12*%
%TO.N,/ain11*%
X89956790Y-34009210D03*
%TO.P,COL_FPC_Connector1,11,11_11*%
%TO.N,/ain10*%
X89456791Y-34009210D03*
%TO.P,COL_FPC_Connector1,10,10_10*%
%TO.N,/ain9*%
X88956791Y-34009210D03*
%TO.P,COL_FPC_Connector1,9,9_9*%
%TO.N,/ain8*%
X88456791Y-34009210D03*
%TO.P,COL_FPC_Connector1,8,8_8*%
%TO.N,/ain7*%
X87956791Y-34009210D03*
%TO.P,COL_FPC_Connector1,7,7_7*%
%TO.N,/ain6*%
X87456791Y-34009210D03*
%TO.P,COL_FPC_Connector1,6,6_6*%
%TO.N,/ain5*%
X86956791Y-34009210D03*
%TO.P,COL_FPC_Connector1,5,5_5*%
%TO.N,/ain4*%
X86456791Y-34009211D03*
%TO.P,COL_FPC_Connector1,4,4_4*%
%TO.N,/ain3*%
X85956791Y-34009210D03*
%TO.P,COL_FPC_Connector1,3,3_3*%
%TO.N,/ain2*%
X85456791Y-34009210D03*
%TO.P,COL_FPC_Connector1,2,2_2*%
%TO.N,/ain1*%
X84956790Y-34009210D03*
%TO.P,COL_FPC_Connector1,1,1_1*%
%TO.N,/ain0*%
X84456791Y-34009210D03*
%TD*%
%TO.N,/ain13*%
D11*
X89423950Y-83114070D02*
X89423954Y-83114071D01*
X89306790Y-82996915D02*
X89423950Y-83114070D01*
X90956794Y-36059209D02*
X89306787Y-37709210D01*
X90417043Y-84107160D02*
X99565299Y-84107161D01*
X89423954Y-83114071D02*
X90317041Y-84007161D01*
%TO.N,/ain14*%
X101465298Y-83907163D02*
X101767682Y-84209539D01*
X89506788Y-82914071D02*
X90399879Y-83807162D01*
X90399879Y-83807162D02*
X90399888Y-83807163D01*
%TO.N,/ain15*%
X89706792Y-82831223D02*
X90582726Y-83707160D01*
X91956787Y-33914898D02*
X91956789Y-36059206D01*
X90582726Y-83707160D02*
X103465300Y-83707157D01*
%TO.N,/ain14*%
X90499883Y-83907160D02*
X101465298Y-83907163D01*
%TO.N,/ain13*%
X89306790Y-82996907D02*
X89306790Y-82996915D01*
%TO.N,/ain15*%
X91956789Y-36059206D02*
X89706788Y-38309202D01*
%TO.N,/ain14*%
X91456791Y-36059207D02*
X89506785Y-38009205D01*
%TO.N,/ain15*%
X105984286Y-86226148D02*
X105984286Y-86655557D01*
X103465300Y-83707157D02*
X103812993Y-84054852D01*
%TO.N,/ain14*%
X103584288Y-86026145D02*
X103584286Y-86655557D01*
X91456798Y-33914892D02*
X91456791Y-36059207D01*
%TO.N,/ain13*%
X90317043Y-84007157D02*
X90417043Y-84107160D01*
%TO.N,/ain14*%
X90399888Y-83807163D02*
X90499883Y-83907160D01*
X89506785Y-38009205D02*
X89506788Y-82914071D01*
%TO.N,/ain12*%
X89106787Y-37626365D02*
X89106789Y-83079747D01*
%TO.N,/ain13*%
X89306787Y-37709210D02*
X89306790Y-82996907D01*
X101184286Y-85726149D02*
X101184286Y-86855559D01*
X90956794Y-33914906D02*
X90956794Y-36059209D01*
X99565299Y-84107161D02*
X101184286Y-85726149D01*
%TO.N,/ain14*%
X101767682Y-84209539D02*
X103584288Y-86026145D01*
%TO.N,/ain15*%
X103812993Y-84054852D02*
X105984286Y-86226148D01*
X89706788Y-38309202D02*
X89706792Y-82831223D01*
%TO.N,/ain13*%
X90317041Y-84007161D02*
X90317043Y-84007157D01*
%TO.N,/ain0*%
X70684290Y-85788175D02*
X70684286Y-86955558D01*
%TO.N,/ain4*%
X87506793Y-37116583D02*
X87506797Y-83160686D01*
%TO.N,/ain0*%
X86706788Y-82829310D02*
X85828940Y-83707160D01*
%TO.N,/ain2*%
X87106791Y-82994999D02*
X86594629Y-83507158D01*
X86594624Y-83507161D02*
X85994629Y-84107156D01*
X75384289Y-85588176D02*
X75384289Y-86955556D01*
%TO.N,/ain5*%
X82384288Y-85388172D02*
X82384288Y-86955558D01*
%TO.N,/ain6*%
X87906792Y-83326374D02*
X86525999Y-84707161D01*
%TO.N,/ain4*%
X80084289Y-85488171D02*
X80084285Y-86955559D01*
%TO.N,/ain6*%
X87906793Y-82365670D02*
X87906794Y-82365665D01*
%TO.N,/ain1*%
X84956792Y-36059212D02*
X86906791Y-38009207D01*
%TO.N,/ain5*%
X86990337Y-36057542D02*
X87706790Y-36773995D01*
%TO.N,/ain4*%
X81065300Y-84507158D02*
X80084289Y-85488171D01*
%TO.N,/ain3*%
X77684289Y-85488173D02*
X77684285Y-86955559D01*
%TO.N,/ain0*%
X72765300Y-83707158D02*
X72665302Y-83807163D01*
%TO.N,/ain3*%
X86677466Y-83707159D02*
X86077469Y-84307158D01*
%TO.N,/ain1*%
X84956791Y-33914897D02*
X84956792Y-36059212D01*
X85911785Y-83907162D02*
X74865300Y-83907162D01*
X73084286Y-85688176D02*
X73084286Y-86955558D01*
%TO.N,/ain2*%
X76865302Y-84107163D02*
X75384289Y-85588176D01*
%TO.N,/ain0*%
X72665302Y-83807163D02*
X70684290Y-85788175D01*
%TO.N,/ain3*%
X87306795Y-83077844D02*
X86677474Y-83707160D01*
X86677474Y-83707160D02*
X86677466Y-83707159D01*
%TO.N,/ain4*%
X86456792Y-36066590D02*
X87506793Y-37116583D01*
X86160310Y-84507158D02*
X81065300Y-84507158D01*
X87506797Y-83160686D02*
X86360313Y-84307159D01*
X86360308Y-84307158D02*
X86160310Y-84507158D01*
%TO.N,/ain0*%
X86706786Y-38309202D02*
X86706788Y-82829310D01*
%TO.N,/ain1*%
X86511784Y-83307160D02*
X86511781Y-83307159D01*
%TO.N,/ain2*%
X87106791Y-37709205D02*
X87106791Y-82994999D01*
%TO.N,/ain4*%
X86360313Y-84307159D02*
X86360308Y-84307158D01*
%TO.N,/ain5*%
X87706790Y-83243529D02*
X86443156Y-84507158D01*
%TO.N,/ain2*%
X86594629Y-83507158D02*
X86594624Y-83507161D01*
%TO.N,/ain3*%
X85956793Y-36059206D02*
X87306796Y-37409210D01*
X85956784Y-33914903D02*
X85956793Y-36059206D01*
%TO.N,/ain2*%
X85456798Y-36059208D02*
X87106791Y-37709205D01*
%TO.N,/ain3*%
X78865300Y-84307160D02*
X78801231Y-84371232D01*
X87306796Y-37409210D02*
X87306795Y-83077844D01*
%TO.N,/ain5*%
X83065301Y-84707159D02*
X82965299Y-84807158D01*
X82965299Y-84807158D02*
X82384288Y-85388172D01*
%TO.N,/ain6*%
X86525999Y-84707161D02*
X86525988Y-84707161D01*
%TO.N,/ain0*%
X85828940Y-83707160D02*
X72765300Y-83707158D01*
%TO.N,/ain2*%
X85994629Y-84107156D02*
X76865302Y-84107163D01*
%TO.N,/ain1*%
X86906796Y-82912155D02*
X86511784Y-83307160D01*
%TO.N,/ain6*%
X87456791Y-33809203D02*
X87456790Y-36091091D01*
%TO.N,/ain2*%
X85456792Y-33914901D02*
X85456798Y-36059208D01*
%TO.N,/ain0*%
X84456790Y-33914917D02*
X84456792Y-36059210D01*
%TO.N,/ain5*%
X86243147Y-84707161D02*
X83065301Y-84707159D01*
X86989143Y-33882543D02*
X86990337Y-36057542D01*
%TO.N,/ain1*%
X86511781Y-83307159D02*
X85911785Y-83907162D01*
X74865300Y-83907162D02*
X73084286Y-85688176D01*
%TO.N,/ain5*%
X86443156Y-84507158D02*
X86443151Y-84507157D01*
%TO.N,/ain0*%
X84456792Y-36059210D02*
X86706786Y-38309202D01*
%TO.N,/ain6*%
X87456790Y-36091091D02*
X87906791Y-36541089D01*
X84836701Y-86955557D02*
X84836702Y-86755558D01*
X84836701Y-85435755D02*
X84836701Y-86955557D01*
X87906794Y-82365665D02*
X87906792Y-83326374D01*
%TO.N,/ain3*%
X86077469Y-84307158D02*
X78865300Y-84307160D01*
X78801231Y-84371232D02*
X77684289Y-85488173D01*
%TO.N,/ain4*%
X86456791Y-33914894D02*
X86456792Y-36066590D01*
%TO.N,/ain5*%
X87706790Y-36773995D02*
X87706790Y-83243529D01*
%TO.N,/ain6*%
X86325997Y-84907160D02*
X85365297Y-84907159D01*
%TO.N,/ain5*%
X86443151Y-84507157D02*
X86243147Y-84707161D01*
%TO.N,/ain6*%
X87906791Y-36541089D02*
X87906793Y-82365670D01*
%TO.N,/ain1*%
X86906791Y-38009207D02*
X86906796Y-82912155D01*
%TO.N,/ain8*%
X88306791Y-36458247D02*
X88306788Y-36458253D01*
%TO.N,/ain6*%
X86525988Y-84707161D02*
X86325997Y-84907160D01*
%TO.N,/ain9*%
X88506786Y-83328277D02*
X89985670Y-84807161D01*
%TO.N,/ain11*%
X95565299Y-84507160D02*
X95631740Y-84573600D01*
%TO.N,/ain10*%
X88706789Y-37460682D02*
X88706789Y-83245436D01*
%TO.N,/ain9*%
X89985677Y-84807159D02*
X90085676Y-84907157D01*
X88990340Y-36057540D02*
X88506785Y-36541097D01*
%TO.N,/ain11*%
X88906789Y-83162592D02*
X90151361Y-84407164D01*
X95631740Y-84573600D02*
X96484287Y-85426148D01*
%TO.N,/ain12*%
X90234199Y-84207157D02*
X90334199Y-84307162D01*
X98984286Y-85726149D02*
X98984286Y-86955558D01*
%TO.N,/ain9*%
X88989149Y-33882543D02*
X88989152Y-36056348D01*
%TO.N,/ain10*%
X90168517Y-84707161D02*
X93465300Y-84707158D01*
%TO.N,/ain9*%
X88506785Y-36541097D02*
X88506788Y-82248643D01*
%TO.N,/ain12*%
X97565297Y-84307160D02*
X98984286Y-85726149D01*
%TO.N,/ain7*%
X88106790Y-83409208D02*
X87084287Y-84431711D01*
X87084287Y-84431711D02*
X87084287Y-86955557D01*
%TO.N,/ain10*%
X89490344Y-36057542D02*
X88706792Y-36841096D01*
%TO.N,/ain11*%
X88906791Y-37358253D02*
X88906793Y-37358256D01*
%TO.N,/ain10*%
X94084289Y-85326148D02*
X94084289Y-86955556D01*
%TO.N,/ain9*%
X88989152Y-36056348D02*
X88990340Y-36057540D01*
%TO.N,/ain11*%
X88906790Y-37543522D02*
X88906787Y-37543520D01*
%TO.N,/ain6*%
X84836702Y-86755558D02*
X84836704Y-86755557D01*
%TO.N,/ain8*%
X88306788Y-83411120D02*
X89436701Y-84541033D01*
%TO.N,/ain9*%
X91784287Y-85526146D02*
X91784284Y-86955557D01*
%TO.N,/ain7*%
X87956790Y-33914895D02*
X87956792Y-36059205D01*
%TO.N,/ain10*%
X93465300Y-84707158D02*
X93565296Y-84807161D01*
%TO.N,/ain11*%
X89956790Y-36059210D02*
X88906790Y-37109208D01*
%TO.N,/ain7*%
X87956792Y-36059205D02*
X88106791Y-36209207D01*
%TO.N,/ain10*%
X88706792Y-37460676D02*
X88706789Y-37460682D01*
%TO.N,/ain11*%
X90251359Y-84507155D02*
X95565299Y-84507160D01*
%TO.N,/ain12*%
X90456789Y-36091101D02*
X89106787Y-37441103D01*
%TO.N,/ain8*%
X89436701Y-84541033D02*
X89436700Y-86955555D01*
%TO.N,/ain11*%
X96484287Y-85426148D02*
X96484289Y-86955556D01*
%TO.N,/ain6*%
X85365297Y-84907159D02*
X84836701Y-85435755D01*
%TO.N,/ain12*%
X90234202Y-84207164D02*
X90234199Y-84207157D01*
%TO.N,/ain8*%
X88456799Y-36059209D02*
X88306791Y-36209202D01*
%TO.N,/ain11*%
X90151361Y-84407164D02*
X90251359Y-84507155D01*
%TO.N,/ain8*%
X89436700Y-86955555D02*
X89436703Y-86955558D01*
X88306788Y-36458253D02*
X88306788Y-83411120D01*
%TO.N,/ain12*%
X89106789Y-83079747D02*
X90234202Y-84207164D01*
X89106791Y-37626363D02*
X89106787Y-37626365D01*
%TO.N,/ain9*%
X89985670Y-84807161D02*
X89985677Y-84807159D01*
%TO.N,/ain11*%
X88906790Y-37109208D02*
X88906791Y-37358253D01*
%TO.N,/ain10*%
X90068515Y-84607159D02*
X90168517Y-84707161D01*
%TO.N,/ain11*%
X89956793Y-33914898D02*
X89956790Y-36059210D01*
%TO.N,/ain10*%
X93565296Y-84807161D02*
X94084289Y-85326148D01*
%TO.N,/ain12*%
X89106787Y-37441103D02*
X89106791Y-37626363D01*
%TO.N,/ain8*%
X88306791Y-36209202D02*
X88306791Y-36458247D01*
%TO.N,/ain9*%
X90085676Y-84907157D02*
X91165301Y-84907162D01*
X91165301Y-84907162D02*
X91784287Y-85526146D01*
%TO.N,/ain10*%
X89489146Y-33882544D02*
X89490344Y-36057542D01*
%TO.N,/ain7*%
X88106791Y-36209207D02*
X88106790Y-83409208D01*
%TO.N,/ain10*%
X88706792Y-36841096D02*
X88706792Y-37460676D01*
%TO.N,/ain11*%
X88906787Y-37543520D02*
X88906789Y-83162592D01*
X88906793Y-37358256D02*
X88906790Y-37543522D01*
%TO.N,/ain10*%
X88706789Y-83245436D02*
X90068515Y-84607159D01*
%TO.N,/ain12*%
X90456789Y-33914905D02*
X90456789Y-36091101D01*
%TO.N,/ain9*%
X88506792Y-82248650D02*
X88506786Y-83328277D01*
%TO.N,/ain8*%
X88456791Y-33914897D02*
X88456799Y-36059209D01*
%TO.N,/ain9*%
X88506788Y-82248643D02*
X88506792Y-82248650D01*
%TO.N,/ain12*%
X90334199Y-84307162D02*
X97565297Y-84307160D01*
%TD*%
%TA.AperFunction,Conductor*%
%TO.N,/ain0*%
G36*
X71973794Y-86156358D02*
G01*
X71975102Y-86156899D01*
X71980688Y-86159213D01*
X71994478Y-86173000D01*
X72004232Y-86180099D01*
X72004727Y-86183246D01*
X72007209Y-86185727D01*
X72007215Y-86185740D01*
X72007704Y-86186921D01*
X72010067Y-86217146D01*
X72009793Y-86218283D01*
X72005804Y-86229072D01*
X55795820Y-117999998D01*
X55795820Y-118000000D01*
X55795842Y-118000088D01*
X55796273Y-118000901D01*
X71758497Y-149710835D01*
X71763596Y-149729263D01*
X71764072Y-149735713D01*
X71764145Y-149736703D01*
X71752383Y-149772306D01*
X71751499Y-149773331D01*
X71725749Y-149788995D01*
X71724889Y-149789199D01*
X71724727Y-149789238D01*
X71713373Y-149790572D01*
X69753327Y-149790574D01*
X69734576Y-149786844D01*
X69721841Y-149781569D01*
X69697956Y-149760447D01*
X51728316Y-118032805D01*
X51722320Y-118014649D01*
X51720611Y-118000779D01*
X51726750Y-117970388D01*
X69952456Y-86229072D01*
X69977369Y-86185683D01*
X69989933Y-86171287D01*
X70000903Y-86162829D01*
X70030817Y-86152635D01*
X71955049Y-86152631D01*
X71973794Y-86156358D01*
G37*
%TD.AperFunction*%
%TD*%
%TA.AperFunction,Conductor*%
%TO.N,/ain12*%
G36*
X99620359Y-86152635D02*
G01*
X99639107Y-86156365D01*
X99650406Y-86161046D01*
X99673086Y-86180158D01*
X99673367Y-86180602D01*
X99678074Y-86190270D01*
X111035424Y-117975687D01*
X111038281Y-117992069D01*
X111038315Y-118007971D01*
X111035529Y-118024363D01*
X99855219Y-149748664D01*
X99845469Y-149765108D01*
X99837341Y-149774163D01*
X99811757Y-149789209D01*
X99811151Y-149789347D01*
X99803942Y-149790157D01*
X99803517Y-149790361D01*
X99803181Y-149790242D01*
X99800271Y-149790570D01*
X97831786Y-149790578D01*
X97813041Y-149786851D01*
X97808474Y-149784960D01*
X97806146Y-149783996D01*
X97806143Y-149783993D01*
X97806139Y-149783993D01*
X97792885Y-149770737D01*
X97779626Y-149757482D01*
X97778427Y-149754588D01*
X97776631Y-149722220D01*
X106958051Y-118000002D01*
X97637326Y-86224775D01*
X97635628Y-86205737D01*
X97636427Y-86198318D01*
X97654405Y-86165410D01*
X97656818Y-86163466D01*
X97687547Y-86152633D01*
X99620359Y-86152635D01*
G37*
%TD.AperFunction*%
%TD*%
%TA.AperFunction,Conductor*%
%TO.N,/ain7*%
G36*
X88097421Y-86152635D02*
G01*
X88116165Y-86156364D01*
X88123066Y-86159222D01*
X88133673Y-86169831D01*
X88149580Y-86185740D01*
X88149581Y-86185744D01*
X88152395Y-86192540D01*
X88156123Y-86211490D01*
X88023993Y-118000001D01*
X88156123Y-149731616D01*
X88152471Y-149750382D01*
X88149645Y-149757286D01*
X88123532Y-149783619D01*
X88123238Y-149783915D01*
X88116455Y-149786758D01*
X88097514Y-149790567D01*
X86128319Y-149790567D01*
X86109572Y-149786839D01*
X86101796Y-149783619D01*
X86075927Y-149758605D01*
X86073358Y-149752947D01*
X86069087Y-149735980D01*
X83938254Y-118004931D01*
X83938145Y-118001662D01*
X83938147Y-117998338D01*
X83938260Y-117995045D01*
X86104138Y-86208024D01*
X86109134Y-86189570D01*
X86112882Y-86182019D01*
X86139570Y-86157923D01*
X86145368Y-86155749D01*
X86162568Y-86152631D01*
X88097421Y-86152635D01*
G37*
%TD.AperFunction*%
%TD*%
%TA.AperFunction,Conductor*%
%TO.N,/ain1*%
G36*
X74261760Y-86152632D02*
G01*
X74280502Y-86156360D01*
X74287402Y-86159218D01*
X74301442Y-86173259D01*
X74313918Y-86185735D01*
X74314698Y-86187618D01*
X74314698Y-86225121D01*
X74314313Y-86226026D01*
X60399840Y-118000003D01*
X74102025Y-149713183D01*
X74106038Y-149731876D01*
X74106151Y-149739333D01*
X74092332Y-149774188D01*
X74090887Y-149775678D01*
X74056463Y-149790559D01*
X74055712Y-149790565D01*
X72092003Y-149790566D01*
X72073252Y-149786836D01*
X72060990Y-149781757D01*
X72035828Y-149758227D01*
X56328927Y-118030638D01*
X56323951Y-118012181D01*
X56322924Y-117996876D01*
X56328020Y-117971615D01*
X72280074Y-86188342D01*
X72291815Y-86173262D01*
X72301893Y-86164548D01*
X72333939Y-86152616D01*
X74261760Y-86152632D01*
G37*
%TD.AperFunction*%
%TD*%
%TA.AperFunction,Conductor*%
%TO.N,/ain15*%
G36*
X106550211Y-86156359D02*
G01*
X106563000Y-86161656D01*
X106586743Y-86182528D01*
X124837426Y-117967312D01*
X124843529Y-117985432D01*
X124845320Y-117999293D01*
X124839360Y-118029720D01*
X106869789Y-149757236D01*
X106857306Y-149771712D01*
X106846441Y-149780194D01*
X106816288Y-149790570D01*
X104856560Y-149790574D01*
X104837815Y-149786847D01*
X104833248Y-149784956D01*
X104830921Y-149783992D01*
X104804400Y-149757478D01*
X104804395Y-149757466D01*
X104803877Y-149756215D01*
X104801472Y-149726164D01*
X104801717Y-149725132D01*
X104805618Y-149714430D01*
X120770114Y-118000011D01*
X104561920Y-86232581D01*
X104556722Y-86214187D01*
X104556132Y-86206746D01*
X104567701Y-86171076D01*
X104568536Y-86170098D01*
X104594340Y-86154266D01*
X104595483Y-86153991D01*
X104606931Y-86152632D01*
X106531461Y-86152630D01*
X106550211Y-86156359D01*
G37*
%TD.AperFunction*%
%TD*%
%TA.AperFunction,Conductor*%
%TO.N,/ain4*%
G36*
X81180654Y-86152632D02*
G01*
X81199398Y-86156361D01*
X81206296Y-86159218D01*
X81218752Y-86171675D01*
X81232812Y-86185736D01*
X81234263Y-86189238D01*
X81236837Y-86218564D01*
X74211920Y-117999988D01*
X74211920Y-118000000D01*
X81130868Y-149721616D01*
X81131221Y-149740730D01*
X81129901Y-149748071D01*
X81109644Y-149779632D01*
X81109639Y-149779635D01*
X81106501Y-149781816D01*
X81078536Y-149790580D01*
X79109169Y-149790576D01*
X79090418Y-149786846D01*
X79079986Y-149782525D01*
X79056447Y-149762004D01*
X79055425Y-149760259D01*
X79050545Y-149748772D01*
X79050348Y-149748071D01*
X70131429Y-118019897D01*
X70129602Y-118006550D01*
X70129626Y-117993457D01*
X70131502Y-117980124D01*
X79184166Y-86218564D01*
X79185978Y-86212208D01*
X79190148Y-86197573D01*
X79198875Y-86180560D01*
X79205920Y-86171674D01*
X79232018Y-86154685D01*
X79233905Y-86154195D01*
X79238350Y-86153628D01*
X79238690Y-86153440D01*
X79239042Y-86153540D01*
X79246194Y-86152629D01*
X81180654Y-86152632D01*
G37*
%TD.AperFunction*%
%TD*%
%TA.AperFunction,Conductor*%
%TO.N,/ain9*%
G36*
X92726071Y-86156359D02*
G01*
X92734788Y-86159969D01*
X92759893Y-86183380D01*
X92762034Y-86187675D01*
X92766705Y-86202721D01*
X97230615Y-117989867D01*
X97231091Y-117996637D01*
X97231097Y-118003371D01*
X97230634Y-118010136D01*
X92837194Y-149738637D01*
X92830927Y-149756700D01*
X92826169Y-149764815D01*
X92799500Y-149786481D01*
X92794915Y-149788021D01*
X92779314Y-149790571D01*
X90808969Y-149790574D01*
X90790224Y-149786847D01*
X90785657Y-149784956D01*
X90783330Y-149783992D01*
X90783325Y-149783988D01*
X90783320Y-149783988D01*
X90770066Y-149770732D01*
X90756809Y-149757478D01*
X90754571Y-149752076D01*
X90750983Y-149729642D01*
X93145967Y-117999999D01*
X90715993Y-86215084D01*
X90718279Y-86196112D01*
X90720602Y-86189017D01*
X90745015Y-86160557D01*
X90750218Y-86157920D01*
X90772354Y-86152632D01*
X92707323Y-86152630D01*
X92726071Y-86156359D01*
G37*
%TD.AperFunction*%
%TD*%
%TA.AperFunction,Conductor*%
%TO.N,/ain10*%
G36*
X95030658Y-86156360D02*
G01*
X95040273Y-86160342D01*
X95064585Y-86182231D01*
X95066195Y-86185196D01*
X95071062Y-86198383D01*
X101832853Y-117984859D01*
X101833925Y-117994990D01*
X101833938Y-118005007D01*
X101832894Y-118015132D01*
X95177002Y-149742092D01*
X95169503Y-149759676D01*
X95163655Y-149768234D01*
X95137179Y-149787552D01*
X95133887Y-149788532D01*
X95119906Y-149790569D01*
X93149668Y-149790577D01*
X93130923Y-149786850D01*
X93126356Y-149784959D01*
X93124029Y-149783995D01*
X93124024Y-149783991D01*
X93124019Y-149783991D01*
X93110765Y-149770735D01*
X93097508Y-149757481D01*
X93095704Y-149753127D01*
X93092497Y-149727264D01*
X97750000Y-117999999D01*
X97750000Y-117999997D01*
X96182275Y-107460302D01*
X93022665Y-86218475D01*
X93023596Y-86199383D01*
X93025407Y-86192143D01*
X93047729Y-86162021D01*
X93051738Y-86159616D01*
X93076944Y-86152632D01*
X95011909Y-86152631D01*
X95030658Y-86156360D01*
G37*
%TD.AperFunction*%
%TD*%
%TA.AperFunction,Conductor*%
%TO.N,/ain14*%
G36*
X104246691Y-86156359D02*
G01*
X104259000Y-86161458D01*
X104284042Y-86184748D01*
X120236835Y-117969464D01*
X120241912Y-117987894D01*
X120243023Y-118003190D01*
X120238065Y-118028480D01*
X104531907Y-149754568D01*
X104520246Y-149769717D01*
X104510255Y-149778452D01*
X104478003Y-149790563D01*
X102514772Y-149790568D01*
X102496027Y-149786841D01*
X102491460Y-149784950D01*
X102489133Y-149783986D01*
X102462612Y-149757472D01*
X102461811Y-149755537D01*
X102461821Y-149718034D01*
X102462072Y-149717440D01*
X116166095Y-118000006D01*
X102253446Y-86230210D01*
X102249342Y-86211540D01*
X102249193Y-86204081D01*
X102262834Y-86169170D01*
X102264249Y-86167697D01*
X102298594Y-86152641D01*
X102299496Y-86152631D01*
X104227942Y-86152631D01*
X104246691Y-86156359D01*
G37*
%TD.AperFunction*%
%TD*%
%TA.AperFunction,Conductor*%
%TO.N,/ain8*%
G36*
X90412252Y-86152635D02*
G01*
X90446899Y-86166987D01*
X90461138Y-86198304D01*
X92627784Y-117996702D01*
X92627787Y-118003316D01*
X90496250Y-149744850D01*
X90479609Y-149778459D01*
X90447360Y-149790567D01*
X88458768Y-149790575D01*
X88424120Y-149776223D01*
X88409768Y-149741575D01*
X88541947Y-117999997D01*
X88409776Y-86201829D01*
X88423984Y-86167123D01*
X88458571Y-86152627D01*
X90412252Y-86152635D01*
G37*
%TD.AperFunction*%
%TD*%
%TA.AperFunction,Conductor*%
%TO.N,/ain6*%
G36*
X85836467Y-86166979D02*
G01*
X85850819Y-86201627D01*
X85850676Y-86205362D01*
X83419966Y-117999990D01*
X83419966Y-117999996D01*
X85815564Y-149737887D01*
X85803861Y-149773517D01*
X85770391Y-149790436D01*
X85766703Y-149790575D01*
X83778610Y-149790569D01*
X83743962Y-149776217D01*
X83730073Y-149748291D01*
X79334838Y-118006765D01*
X79334851Y-117993232D01*
X83800342Y-86194814D01*
X83819372Y-86162501D01*
X83848862Y-86152631D01*
X85801819Y-86152627D01*
X85836467Y-86166979D01*
G37*
%TD.AperFunction*%
%TD*%
%TA.AperFunction,Conductor*%
%TO.N,/ain11*%
G36*
X97325986Y-86152635D02*
G01*
X97360634Y-86166987D01*
X97373108Y-86188204D01*
X106436289Y-117986663D01*
X106436338Y-118013354D01*
X97513686Y-149754833D01*
X97490493Y-149784305D01*
X97466514Y-149790573D01*
X95480859Y-149790570D01*
X95446211Y-149776218D01*
X95431859Y-149741570D01*
X95432985Y-149731128D01*
X102354029Y-117999998D01*
X102354029Y-117999995D01*
X98690259Y-101424767D01*
X95327690Y-86212193D01*
X95334225Y-86175265D01*
X95364959Y-86153774D01*
X95375530Y-86152619D01*
X97325986Y-86152635D01*
G37*
%TD.AperFunction*%
%TD*%
%TA.AperFunction,Conductor*%
%TO.N,/ain2*%
G36*
X76612672Y-86166979D02*
G01*
X76627024Y-86201627D01*
X76624044Y-86218453D01*
X65003870Y-117999993D01*
X65003870Y-117999996D01*
X76448604Y-149724946D01*
X76446862Y-149762409D01*
X76419140Y-149787666D01*
X76402512Y-149790574D01*
X74421119Y-149790575D01*
X74386471Y-149776223D01*
X74376002Y-149760693D01*
X74360855Y-149724946D01*
X60925950Y-118019251D01*
X60925647Y-117981751D01*
X60926020Y-117980858D01*
X74586910Y-86182286D01*
X74613772Y-86156118D01*
X74631925Y-86152629D01*
X76578024Y-86152627D01*
X76612672Y-86166979D01*
G37*
%TD.AperFunction*%
%TD*%
%TA.AperFunction,Conductor*%
%TO.N,/ain13*%
G36*
X101968641Y-86166982D02*
G01*
X101979014Y-86182289D01*
X115639889Y-117980789D01*
X115640379Y-118018288D01*
X115639985Y-118019248D01*
X102189926Y-149760689D01*
X102163193Y-149786992D01*
X102144809Y-149790571D01*
X100163423Y-149790578D01*
X100128775Y-149776226D01*
X100114423Y-149741578D01*
X100117330Y-149724953D01*
X111562067Y-118000000D01*
X99941897Y-86218458D01*
X99943478Y-86180990D01*
X99971091Y-86155613D01*
X99987912Y-86152633D01*
X101933993Y-86152630D01*
X101968641Y-86166982D01*
G37*
%TD.AperFunction*%
%TD*%
%TA.AperFunction,Conductor*%
%TO.N,/ain5*%
G36*
X83505234Y-86156354D02*
G01*
X83506542Y-86156895D01*
X83512137Y-86159213D01*
X83526862Y-86173939D01*
X83538649Y-86185723D01*
X83538653Y-86185731D01*
X83540441Y-86190048D01*
X83543637Y-86216007D01*
X78818197Y-117984884D01*
X78815947Y-118000008D01*
X78815947Y-118000013D01*
X83473081Y-149724809D01*
X83472115Y-149743903D01*
X83470291Y-149751139D01*
X83447908Y-149781226D01*
X83443872Y-149783637D01*
X83418743Y-149790572D01*
X81448647Y-149790572D01*
X81429899Y-149786843D01*
X81420320Y-149782876D01*
X81395975Y-149760929D01*
X81394341Y-149757910D01*
X81389478Y-149744647D01*
X80338007Y-144732560D01*
X74733041Y-118015145D01*
X74731998Y-118005028D01*
X74732012Y-117995008D01*
X74733084Y-117984884D01*
X81492653Y-86208836D01*
X81494327Y-86200962D01*
X81501876Y-86183400D01*
X81507774Y-86174823D01*
X81534227Y-86155604D01*
X81537468Y-86154645D01*
X81551376Y-86152627D01*
X83486489Y-86152627D01*
X83505234Y-86156354D01*
G37*
%TD.AperFunction*%
%TD*%
%TA.AperFunction,Conductor*%
%TO.N,/ain3*%
G36*
X78893319Y-86156358D02*
G01*
X78894627Y-86156899D01*
X78900214Y-86159214D01*
X78900217Y-86159216D01*
X78900220Y-86159216D01*
X78900223Y-86159217D01*
X78913476Y-86172472D01*
X78926734Y-86185727D01*
X78926739Y-86185738D01*
X78927920Y-86188590D01*
X78929667Y-86221129D01*
X69607893Y-117999999D01*
X78788251Y-149718583D01*
X78789882Y-149737631D01*
X78789056Y-149745046D01*
X78770961Y-149777888D01*
X78768524Y-149779837D01*
X78737920Y-149790570D01*
X76769908Y-149790574D01*
X76751160Y-149786846D01*
X76745299Y-149784419D01*
X76739915Y-149782188D01*
X76717193Y-149763015D01*
X76716862Y-149762489D01*
X76712120Y-149752679D01*
X65530398Y-118024366D01*
X65527612Y-118007977D01*
X65527629Y-117999999D01*
X65527645Y-117992071D01*
X65530500Y-117975698D01*
X76886410Y-86194316D01*
X76896228Y-86177920D01*
X76904441Y-86168851D01*
X76929945Y-86153953D01*
X76930469Y-86153836D01*
X76937914Y-86153004D01*
X76938337Y-86152805D01*
X76938662Y-86152921D01*
X76941254Y-86152631D01*
X78874574Y-86152631D01*
X78893319Y-86156358D01*
G37*
%TD.AperFunction*%
%TD*%
M02*
