%TF.GenerationSoftware,KiCad,Pcbnew,10.0.3*%
%TF.CreationDate,2026-06-25T17:13:28+01:00*%
%TF.ProjectId,FSR-array,4653522d-6172-4726-9179-2e6b69636164,2.3.1*%
%TF.SameCoordinates,Original*%
%TF.FileFunction,Legend,Top*%
%TF.FilePolarity,Positive*%
%FSLAX46Y46*%
G04 Gerber Fmt 4.6, Leading zero omitted, Abs format (unit mm)*
G04 Created by KiCad (PCBNEW 10.0.3) date 2026-06-25 17:13:28*
%MOMM*%
%LPD*%
G01*
G04 APERTURE LIST*
G04 Aperture macros list*
%AMRoundRect*
0 Rectangle with rounded corners*
0 $1 Rounding radius*
0 $2 $3 $4 $5 $6 $7 $8 $9 X,Y pos of 4 corners*
0 Add a 4 corners polygon primitive as box body*
4,1,4,$2,$3,$4,$5,$6,$7,$8,$9,$2,$3,0*
0 Add four circle primitives for the rounded corners*
1,1,$1+$1,$2,$3*
1,1,$1+$1,$4,$5*
1,1,$1+$1,$6,$7*
1,1,$1+$1,$8,$9*
0 Add four rect primitives between the rounded corners*
20,1,$1+$1,$2,$3,$4,$5,0*
20,1,$1+$1,$4,$5,$6,$7,0*
20,1,$1+$1,$6,$7,$8,$9,0*
20,1,$1+$1,$8,$9,$2,$3,0*%
G04 Aperture macros list end*
%ADD10C,0.010000*%
%ADD11C,0.150000*%
%ADD12RoundRect,0.035000X-0.140000X-1.965000X0.140000X-1.965000X0.140000X1.965000X-0.140000X1.965000X0*%
G04 APERTURE END LIST*
D10*
X84456792Y-36059210D02*
X92206788Y-36059209D01*
D11*
X78699764Y-85033326D02*
X78699764Y-85699993D01*
X78485478Y-84652374D02*
X78271192Y-85366659D01*
X78271192Y-85366659D02*
X78828335Y-85366659D01*
X105517719Y-85825378D02*
X105003433Y-85825378D01*
X105260576Y-85825378D02*
X105260576Y-84825378D01*
X105260576Y-84825378D02*
X105174862Y-84968235D01*
X105174862Y-84968235D02*
X105089147Y-85063473D01*
X105089147Y-85063473D02*
X105003433Y-85111092D01*
X106289148Y-84825378D02*
X106117719Y-84825378D01*
X106117719Y-84825378D02*
X106032005Y-84872997D01*
X106032005Y-84872997D02*
X105989148Y-84920616D01*
X105989148Y-84920616D02*
X105903433Y-85063473D01*
X105903433Y-85063473D02*
X105860576Y-85253949D01*
X105860576Y-85253949D02*
X105860576Y-85634901D01*
X105860576Y-85634901D02*
X105903433Y-85730139D01*
X105903433Y-85730139D02*
X105946290Y-85777759D01*
X105946290Y-85777759D02*
X106032005Y-85825378D01*
X106032005Y-85825378D02*
X106203433Y-85825378D01*
X106203433Y-85825378D02*
X106289148Y-85777759D01*
X106289148Y-85777759D02*
X106332005Y-85730139D01*
X106332005Y-85730139D02*
X106374862Y-85634901D01*
X106374862Y-85634901D02*
X106374862Y-85396806D01*
X106374862Y-85396806D02*
X106332005Y-85301568D01*
X106332005Y-85301568D02*
X106289148Y-85253949D01*
X106289148Y-85253949D02*
X106203433Y-85206330D01*
X106203433Y-85206330D02*
X106032005Y-85206330D01*
X106032005Y-85206330D02*
X105946290Y-85253949D01*
X105946290Y-85253949D02*
X105903433Y-85301568D01*
X105903433Y-85301568D02*
X105860576Y-85396806D01*
X96217720Y-85817529D02*
X95703434Y-85817529D01*
X95960577Y-85817529D02*
X95960577Y-84817529D01*
X95960577Y-84817529D02*
X95874863Y-84960386D01*
X95874863Y-84960386D02*
X95789148Y-85055624D01*
X95789148Y-85055624D02*
X95703434Y-85103243D01*
X96560577Y-84912767D02*
X96603434Y-84865148D01*
X96603434Y-84865148D02*
X96689149Y-84817529D01*
X96689149Y-84817529D02*
X96903434Y-84817529D01*
X96903434Y-84817529D02*
X96989149Y-84865148D01*
X96989149Y-84865148D02*
X97032006Y-84912767D01*
X97032006Y-84912767D02*
X97074863Y-85008005D01*
X97074863Y-85008005D02*
X97074863Y-85103243D01*
X97074863Y-85103243D02*
X97032006Y-85246100D01*
X97032006Y-85246100D02*
X96517720Y-85817529D01*
X96517720Y-85817529D02*
X97074863Y-85817529D01*
X100817721Y-85846915D02*
X100303435Y-85846915D01*
X100560578Y-85846915D02*
X100560578Y-84846915D01*
X100560578Y-84846915D02*
X100474864Y-84989772D01*
X100474864Y-84989772D02*
X100389149Y-85085010D01*
X100389149Y-85085010D02*
X100303435Y-85132629D01*
X101589150Y-85180248D02*
X101589150Y-85846915D01*
X101374864Y-84799296D02*
X101160578Y-85513581D01*
X101160578Y-85513581D02*
X101717721Y-85513581D01*
X76042886Y-84685299D02*
X76600029Y-84685299D01*
X76600029Y-84685299D02*
X76300029Y-85066251D01*
X76300029Y-85066251D02*
X76428600Y-85066251D01*
X76428600Y-85066251D02*
X76514315Y-85113870D01*
X76514315Y-85113870D02*
X76557172Y-85161489D01*
X76557172Y-85161489D02*
X76600029Y-85256727D01*
X76600029Y-85256727D02*
X76600029Y-85494822D01*
X76600029Y-85494822D02*
X76557172Y-85590060D01*
X76557172Y-85590060D02*
X76514315Y-85637680D01*
X76514315Y-85637680D02*
X76428600Y-85685299D01*
X76428600Y-85685299D02*
X76171457Y-85685299D01*
X76171457Y-85685299D02*
X76085743Y-85637680D01*
X76085743Y-85637680D02*
X76042886Y-85590060D01*
X72229140Y-85655914D02*
X71714854Y-85655914D01*
X71971997Y-85655914D02*
X71971997Y-84655914D01*
X71971997Y-84655914D02*
X71886283Y-84798771D01*
X71886283Y-84798771D02*
X71800568Y-84894009D01*
X71800568Y-84894009D02*
X71714854Y-84941628D01*
X73900295Y-84765843D02*
X73943152Y-84718224D01*
X73943152Y-84718224D02*
X74028867Y-84670605D01*
X74028867Y-84670605D02*
X74243152Y-84670605D01*
X74243152Y-84670605D02*
X74328867Y-84718224D01*
X74328867Y-84718224D02*
X74371724Y-84765843D01*
X74371724Y-84765843D02*
X74414581Y-84861081D01*
X74414581Y-84861081D02*
X74414581Y-84956319D01*
X74414581Y-84956319D02*
X74371724Y-85099176D01*
X74371724Y-85099176D02*
X73857438Y-85670605D01*
X73857438Y-85670605D02*
X74414581Y-85670605D01*
X80928070Y-84714683D02*
X80499498Y-84714683D01*
X80499498Y-84714683D02*
X80456641Y-85190873D01*
X80456641Y-85190873D02*
X80499498Y-85143254D01*
X80499498Y-85143254D02*
X80585213Y-85095635D01*
X80585213Y-85095635D02*
X80799498Y-85095635D01*
X80799498Y-85095635D02*
X80885213Y-85143254D01*
X80885213Y-85143254D02*
X80928070Y-85190873D01*
X80928070Y-85190873D02*
X80970927Y-85286111D01*
X80970927Y-85286111D02*
X80970927Y-85524206D01*
X80970927Y-85524206D02*
X80928070Y-85619444D01*
X80928070Y-85619444D02*
X80885213Y-85667064D01*
X80885213Y-85667064D02*
X80799498Y-85714683D01*
X80799498Y-85714683D02*
X80585213Y-85714683D01*
X80585213Y-85714683D02*
X80499498Y-85667064D01*
X80499498Y-85667064D02*
X80456641Y-85619444D01*
X83070662Y-84729374D02*
X82899233Y-84729374D01*
X82899233Y-84729374D02*
X82813519Y-84776993D01*
X82813519Y-84776993D02*
X82770662Y-84824612D01*
X82770662Y-84824612D02*
X82684947Y-84967469D01*
X82684947Y-84967469D02*
X82642090Y-85157945D01*
X82642090Y-85157945D02*
X82642090Y-85538897D01*
X82642090Y-85538897D02*
X82684947Y-85634135D01*
X82684947Y-85634135D02*
X82727804Y-85681755D01*
X82727804Y-85681755D02*
X82813519Y-85729374D01*
X82813519Y-85729374D02*
X82984947Y-85729374D01*
X82984947Y-85729374D02*
X83070662Y-85681755D01*
X83070662Y-85681755D02*
X83113519Y-85634135D01*
X83113519Y-85634135D02*
X83156376Y-85538897D01*
X83156376Y-85538897D02*
X83156376Y-85300802D01*
X83156376Y-85300802D02*
X83113519Y-85205564D01*
X83113519Y-85205564D02*
X83070662Y-85157945D01*
X83070662Y-85157945D02*
X82984947Y-85110326D01*
X82984947Y-85110326D02*
X82813519Y-85110326D01*
X82813519Y-85110326D02*
X82727804Y-85157945D01*
X82727804Y-85157945D02*
X82684947Y-85205564D01*
X82684947Y-85205564D02*
X82642090Y-85300802D01*
X84784680Y-84744069D02*
X85384680Y-84744069D01*
X85384680Y-84744069D02*
X84998966Y-85744069D01*
X89284150Y-85773452D02*
X89455579Y-85773452D01*
X89455579Y-85773452D02*
X89541293Y-85725833D01*
X89541293Y-85725833D02*
X89584150Y-85678213D01*
X89584150Y-85678213D02*
X89669865Y-85535356D01*
X89669865Y-85535356D02*
X89712722Y-85344880D01*
X89712722Y-85344880D02*
X89712722Y-84963928D01*
X89712722Y-84963928D02*
X89669865Y-84868690D01*
X89669865Y-84868690D02*
X89627008Y-84821071D01*
X89627008Y-84821071D02*
X89541293Y-84773452D01*
X89541293Y-84773452D02*
X89369865Y-84773452D01*
X89369865Y-84773452D02*
X89284150Y-84821071D01*
X89284150Y-84821071D02*
X89241293Y-84868690D01*
X89241293Y-84868690D02*
X89198436Y-84963928D01*
X89198436Y-84963928D02*
X89198436Y-85202023D01*
X89198436Y-85202023D02*
X89241293Y-85297261D01*
X89241293Y-85297261D02*
X89284150Y-85344880D01*
X89284150Y-85344880D02*
X89369865Y-85392499D01*
X89369865Y-85392499D02*
X89541293Y-85392499D01*
X89541293Y-85392499D02*
X89627008Y-85344880D01*
X89627008Y-85344880D02*
X89669865Y-85297261D01*
X89669865Y-85297261D02*
X89712722Y-85202023D01*
X91617720Y-85788149D02*
X91103434Y-85788149D01*
X91360577Y-85788149D02*
X91360577Y-84788149D01*
X91360577Y-84788149D02*
X91274863Y-84931006D01*
X91274863Y-84931006D02*
X91189148Y-85026244D01*
X91189148Y-85026244D02*
X91103434Y-85073863D01*
X92174863Y-84788149D02*
X92260577Y-84788149D01*
X92260577Y-84788149D02*
X92346291Y-84835768D01*
X92346291Y-84835768D02*
X92389149Y-84883387D01*
X92389149Y-84883387D02*
X92432006Y-84978625D01*
X92432006Y-84978625D02*
X92474863Y-85169101D01*
X92474863Y-85169101D02*
X92474863Y-85407196D01*
X92474863Y-85407196D02*
X92432006Y-85597672D01*
X92432006Y-85597672D02*
X92389149Y-85692910D01*
X92389149Y-85692910D02*
X92346291Y-85740530D01*
X92346291Y-85740530D02*
X92260577Y-85788149D01*
X92260577Y-85788149D02*
X92174863Y-85788149D01*
X92174863Y-85788149D02*
X92089149Y-85740530D01*
X92089149Y-85740530D02*
X92046291Y-85692910D01*
X92046291Y-85692910D02*
X92003434Y-85597672D01*
X92003434Y-85597672D02*
X91960577Y-85407196D01*
X91960577Y-85407196D02*
X91960577Y-85169101D01*
X91960577Y-85169101D02*
X92003434Y-84978625D01*
X92003434Y-84978625D02*
X92046291Y-84883387D01*
X92046291Y-84883387D02*
X92089149Y-84835768D01*
X92089149Y-84835768D02*
X92174863Y-84788149D01*
X94017720Y-85802844D02*
X93503434Y-85802844D01*
X93760577Y-85802844D02*
X93760577Y-84802844D01*
X93760577Y-84802844D02*
X93674863Y-84945701D01*
X93674863Y-84945701D02*
X93589148Y-85040939D01*
X93589148Y-85040939D02*
X93503434Y-85088558D01*
X94874863Y-85802844D02*
X94360577Y-85802844D01*
X94617720Y-85802844D02*
X94617720Y-84802844D01*
X94617720Y-84802844D02*
X94532006Y-84945701D01*
X94532006Y-84945701D02*
X94446291Y-85040939D01*
X94446291Y-85040939D02*
X94360577Y-85088558D01*
X98517719Y-85832224D02*
X98003433Y-85832224D01*
X98260576Y-85832224D02*
X98260576Y-84832224D01*
X98260576Y-84832224D02*
X98174862Y-84975081D01*
X98174862Y-84975081D02*
X98089147Y-85070319D01*
X98089147Y-85070319D02*
X98003433Y-85117938D01*
X98817719Y-84832224D02*
X99374862Y-84832224D01*
X99374862Y-84832224D02*
X99074862Y-85213176D01*
X99074862Y-85213176D02*
X99203433Y-85213176D01*
X99203433Y-85213176D02*
X99289148Y-85260795D01*
X99289148Y-85260795D02*
X99332005Y-85308414D01*
X99332005Y-85308414D02*
X99374862Y-85403652D01*
X99374862Y-85403652D02*
X99374862Y-85641747D01*
X99374862Y-85641747D02*
X99332005Y-85736985D01*
X99332005Y-85736985D02*
X99289148Y-85784605D01*
X99289148Y-85784605D02*
X99203433Y-85832224D01*
X99203433Y-85832224D02*
X98946290Y-85832224D01*
X98946290Y-85832224D02*
X98860576Y-85784605D01*
X98860576Y-85784605D02*
X98817719Y-85736985D01*
X103017720Y-85861610D02*
X102503434Y-85861610D01*
X102760577Y-85861610D02*
X102760577Y-84861610D01*
X102760577Y-84861610D02*
X102674863Y-85004467D01*
X102674863Y-85004467D02*
X102589148Y-85099705D01*
X102589148Y-85099705D02*
X102503434Y-85147324D01*
X103832006Y-84861610D02*
X103403434Y-84861610D01*
X103403434Y-84861610D02*
X103360577Y-85337800D01*
X103360577Y-85337800D02*
X103403434Y-85290181D01*
X103403434Y-85290181D02*
X103489149Y-85242562D01*
X103489149Y-85242562D02*
X103703434Y-85242562D01*
X103703434Y-85242562D02*
X103789149Y-85290181D01*
X103789149Y-85290181D02*
X103832006Y-85337800D01*
X103832006Y-85337800D02*
X103874863Y-85433038D01*
X103874863Y-85433038D02*
X103874863Y-85671133D01*
X103874863Y-85671133D02*
X103832006Y-85766371D01*
X103832006Y-85766371D02*
X103789149Y-85813991D01*
X103789149Y-85813991D02*
X103703434Y-85861610D01*
X103703434Y-85861610D02*
X103489149Y-85861610D01*
X103489149Y-85861610D02*
X103403434Y-85813991D01*
X103403434Y-85813991D02*
X103360577Y-85766371D01*
X87184415Y-85187331D02*
X87098700Y-85139712D01*
X87098700Y-85139712D02*
X87055843Y-85092093D01*
X87055843Y-85092093D02*
X87012986Y-84996855D01*
X87012986Y-84996855D02*
X87012986Y-84949236D01*
X87012986Y-84949236D02*
X87055843Y-84853998D01*
X87055843Y-84853998D02*
X87098700Y-84806379D01*
X87098700Y-84806379D02*
X87184415Y-84758760D01*
X87184415Y-84758760D02*
X87355843Y-84758760D01*
X87355843Y-84758760D02*
X87441558Y-84806379D01*
X87441558Y-84806379D02*
X87484415Y-84853998D01*
X87484415Y-84853998D02*
X87527272Y-84949236D01*
X87527272Y-84949236D02*
X87527272Y-84996855D01*
X87527272Y-84996855D02*
X87484415Y-85092093D01*
X87484415Y-85092093D02*
X87441558Y-85139712D01*
X87441558Y-85139712D02*
X87355843Y-85187331D01*
X87355843Y-85187331D02*
X87184415Y-85187331D01*
X87184415Y-85187331D02*
X87098700Y-85234950D01*
X87098700Y-85234950D02*
X87055843Y-85282569D01*
X87055843Y-85282569D02*
X87012986Y-85377807D01*
X87012986Y-85377807D02*
X87012986Y-85568283D01*
X87012986Y-85568283D02*
X87055843Y-85663521D01*
X87055843Y-85663521D02*
X87098700Y-85711141D01*
X87098700Y-85711141D02*
X87184415Y-85758760D01*
X87184415Y-85758760D02*
X87355843Y-85758760D01*
X87355843Y-85758760D02*
X87441558Y-85711141D01*
X87441558Y-85711141D02*
X87484415Y-85663521D01*
X87484415Y-85663521D02*
X87527272Y-85568283D01*
X87527272Y-85568283D02*
X87527272Y-85377807D01*
X87527272Y-85377807D02*
X87484415Y-85282569D01*
X87484415Y-85282569D02*
X87441558Y-85234950D01*
X87441558Y-85234950D02*
X87355843Y-85187331D01*
%LPC*%
D12*
%TO.C,COL_FPC_Connector1*%
X91956791Y-34009210D03*
X91456792Y-34009210D03*
X90956791Y-34009210D03*
X90456791Y-34009210D03*
X89956790Y-34009210D03*
X89456791Y-34009210D03*
X88956791Y-34009210D03*
X88456791Y-34009210D03*
X87956791Y-34009210D03*
X87456791Y-34009210D03*
X86956791Y-34009210D03*
X86456791Y-34009211D03*
X85956791Y-34009210D03*
X85456791Y-34009210D03*
X84956790Y-34009210D03*
X84456791Y-34009210D03*
%TD*%
G36*
X92260782Y-31809466D02*
G01*
X92280471Y-31810741D01*
X92334561Y-31827154D01*
X92371925Y-31848774D01*
X92417178Y-31894048D01*
X92438838Y-31931521D01*
X92455211Y-31985389D01*
X92456516Y-32005113D01*
X92456787Y-32013299D01*
X92456787Y-34785309D01*
X92437102Y-34852348D01*
X92384298Y-34898103D01*
X92332892Y-34909309D01*
X84083421Y-34916299D01*
X84016365Y-34896671D01*
X83970565Y-34843906D01*
X83959316Y-34792404D01*
X83956956Y-32007971D01*
X83957064Y-32002693D01*
X83957523Y-31991700D01*
X83966840Y-31949454D01*
X83979180Y-31919638D01*
X84006070Y-31879380D01*
X84026965Y-31858483D01*
X84067220Y-31831590D01*
X84097016Y-31819255D01*
X84139311Y-31809931D01*
X84154222Y-31809313D01*
X84159357Y-31809207D01*
X92252769Y-31809207D01*
X92260782Y-31809466D01*
G37*
G36*
X106564828Y-86172315D02*
G01*
X106605323Y-86214885D01*
X124820983Y-117938675D01*
X124837294Y-118006614D01*
X124821345Y-118061529D01*
X106893195Y-149715916D01*
X106843029Y-149764549D01*
X106785338Y-149778807D01*
X69787322Y-149790553D01*
X69720277Y-149770890D01*
X69679387Y-149727662D01*
X51744591Y-118061540D01*
X51728681Y-117993506D01*
X51744953Y-117938686D01*
X69960599Y-86214891D01*
X70011052Y-86166555D01*
X70068133Y-86152636D01*
X106497789Y-86152630D01*
X106564828Y-86172315D01*
G37*
%LPD*%
M02*
