%TF.GenerationSoftware,KiCad,Pcbnew,10.0.3*%
%TF.CreationDate,2026-06-25T17:13:28+01:00*%
%TF.ProjectId,FSR-array,4653522d-6172-4726-9179-2e6b69636164,2.3.1*%
%TF.SameCoordinates,Original*%
%TF.FileFunction,Other,ECO1*%
%FSLAX46Y46*%
G04 Gerber Fmt 4.6, Leading zero omitted, Abs format (unit mm)*
G04 Created by KiCad (PCBNEW 10.0.3) date 2026-06-25 17:13:28*
%MOMM*%
%LPD*%
G01*
G04 APERTURE LIST*
%ADD10C,0.150000*%
%ADD11C,0.125000*%
G04 APERTURE END LIST*
D10*
X96521065Y-16665713D02*
X96521065Y-15665713D01*
X96521065Y-15665713D02*
X96902017Y-15665713D01*
X96902017Y-15665713D02*
X96997255Y-15713332D01*
X96997255Y-15713332D02*
X97044874Y-15760951D01*
X97044874Y-15760951D02*
X97092493Y-15856189D01*
X97092493Y-15856189D02*
X97092493Y-15999046D01*
X97092493Y-15999046D02*
X97044874Y-16094284D01*
X97044874Y-16094284D02*
X96997255Y-16141903D01*
X96997255Y-16141903D02*
X96902017Y-16189522D01*
X96902017Y-16189522D02*
X96521065Y-16189522D01*
X97521065Y-16665713D02*
X97521065Y-15665713D01*
X98711541Y-16618094D02*
X98854398Y-16665713D01*
X98854398Y-16665713D02*
X99092493Y-16665713D01*
X99092493Y-16665713D02*
X99187731Y-16618094D01*
X99187731Y-16618094D02*
X99235350Y-16570474D01*
X99235350Y-16570474D02*
X99282969Y-16475236D01*
X99282969Y-16475236D02*
X99282969Y-16379998D01*
X99282969Y-16379998D02*
X99235350Y-16284760D01*
X99235350Y-16284760D02*
X99187731Y-16237141D01*
X99187731Y-16237141D02*
X99092493Y-16189522D01*
X99092493Y-16189522D02*
X98902017Y-16141903D01*
X98902017Y-16141903D02*
X98806779Y-16094284D01*
X98806779Y-16094284D02*
X98759160Y-16046665D01*
X98759160Y-16046665D02*
X98711541Y-15951427D01*
X98711541Y-15951427D02*
X98711541Y-15856189D01*
X98711541Y-15856189D02*
X98759160Y-15760951D01*
X98759160Y-15760951D02*
X98806779Y-15713332D01*
X98806779Y-15713332D02*
X98902017Y-15665713D01*
X98902017Y-15665713D02*
X99140112Y-15665713D01*
X99140112Y-15665713D02*
X99282969Y-15713332D01*
X99568684Y-15665713D02*
X100140112Y-15665713D01*
X99854398Y-16665713D02*
X99854398Y-15665713D01*
X100473446Y-16665713D02*
X100473446Y-15665713D01*
X101282969Y-16141903D02*
X100949636Y-16141903D01*
X100949636Y-16665713D02*
X100949636Y-15665713D01*
X100949636Y-15665713D02*
X101425826Y-15665713D01*
X102140112Y-16141903D02*
X101806779Y-16141903D01*
X101806779Y-16665713D02*
X101806779Y-15665713D01*
X101806779Y-15665713D02*
X102282969Y-15665713D01*
X102663922Y-16141903D02*
X102997255Y-16141903D01*
X103140112Y-16665713D02*
X102663922Y-16665713D01*
X102663922Y-16665713D02*
X102663922Y-15665713D01*
X102663922Y-15665713D02*
X103140112Y-15665713D01*
X103568684Y-16665713D02*
X103568684Y-15665713D01*
X103568684Y-15665713D02*
X104140112Y-16665713D01*
X104140112Y-16665713D02*
X104140112Y-15665713D01*
X104616303Y-16141903D02*
X104949636Y-16141903D01*
X105092493Y-16665713D02*
X104616303Y-16665713D01*
X104616303Y-16665713D02*
X104616303Y-15665713D01*
X104616303Y-15665713D02*
X105092493Y-15665713D01*
X106092493Y-16665713D02*
X105759160Y-16189522D01*
X105521065Y-16665713D02*
X105521065Y-15665713D01*
X105521065Y-15665713D02*
X105902017Y-15665713D01*
X105902017Y-15665713D02*
X105997255Y-15713332D01*
X105997255Y-15713332D02*
X106044874Y-15760951D01*
X106044874Y-15760951D02*
X106092493Y-15856189D01*
X106092493Y-15856189D02*
X106092493Y-15999046D01*
X106092493Y-15999046D02*
X106044874Y-16094284D01*
X106044874Y-16094284D02*
X105997255Y-16141903D01*
X105997255Y-16141903D02*
X105902017Y-16189522D01*
X105902017Y-16189522D02*
X105521065Y-16189522D01*
X96473446Y-19837982D02*
X96616303Y-19885601D01*
X96616303Y-19885601D02*
X96854398Y-19885601D01*
X96854398Y-19885601D02*
X96949636Y-19837982D01*
X96949636Y-19837982D02*
X96997255Y-19790362D01*
X96997255Y-19790362D02*
X97044874Y-19695124D01*
X97044874Y-19695124D02*
X97044874Y-19599886D01*
X97044874Y-19599886D02*
X96997255Y-19504648D01*
X96997255Y-19504648D02*
X96949636Y-19457029D01*
X96949636Y-19457029D02*
X96854398Y-19409410D01*
X96854398Y-19409410D02*
X96663922Y-19361791D01*
X96663922Y-19361791D02*
X96568684Y-19314172D01*
X96568684Y-19314172D02*
X96521065Y-19266553D01*
X96521065Y-19266553D02*
X96473446Y-19171315D01*
X96473446Y-19171315D02*
X96473446Y-19076077D01*
X96473446Y-19076077D02*
X96521065Y-18980839D01*
X96521065Y-18980839D02*
X96568684Y-18933220D01*
X96568684Y-18933220D02*
X96663922Y-18885601D01*
X96663922Y-18885601D02*
X96902017Y-18885601D01*
X96902017Y-18885601D02*
X97044874Y-18933220D01*
X97473446Y-19885601D02*
X97473446Y-18885601D01*
X97854398Y-18885601D02*
X98521064Y-18885601D01*
X98521064Y-18885601D02*
X97854398Y-19885601D01*
X97854398Y-19885601D02*
X98521064Y-19885601D01*
X98902017Y-19361791D02*
X99235350Y-19361791D01*
X99378207Y-19885601D02*
X98902017Y-19885601D01*
X98902017Y-19885601D02*
X98902017Y-18885601D01*
X98902017Y-18885601D02*
X99378207Y-18885601D01*
X99806779Y-19790362D02*
X99854398Y-19837982D01*
X99854398Y-19837982D02*
X99806779Y-19885601D01*
X99806779Y-19885601D02*
X99759160Y-19837982D01*
X99759160Y-19837982D02*
X99806779Y-19790362D01*
X99806779Y-19790362D02*
X99806779Y-19885601D01*
X99806779Y-19266553D02*
X99854398Y-19314172D01*
X99854398Y-19314172D02*
X99806779Y-19361791D01*
X99806779Y-19361791D02*
X99759160Y-19314172D01*
X99759160Y-19314172D02*
X99806779Y-19266553D01*
X99806779Y-19266553D02*
X99806779Y-19361791D01*
X101187731Y-19314172D02*
X101092493Y-19266553D01*
X101092493Y-19266553D02*
X101044874Y-19218934D01*
X101044874Y-19218934D02*
X100997255Y-19123696D01*
X100997255Y-19123696D02*
X100997255Y-19076077D01*
X100997255Y-19076077D02*
X101044874Y-18980839D01*
X101044874Y-18980839D02*
X101092493Y-18933220D01*
X101092493Y-18933220D02*
X101187731Y-18885601D01*
X101187731Y-18885601D02*
X101378207Y-18885601D01*
X101378207Y-18885601D02*
X101473445Y-18933220D01*
X101473445Y-18933220D02*
X101521064Y-18980839D01*
X101521064Y-18980839D02*
X101568683Y-19076077D01*
X101568683Y-19076077D02*
X101568683Y-19123696D01*
X101568683Y-19123696D02*
X101521064Y-19218934D01*
X101521064Y-19218934D02*
X101473445Y-19266553D01*
X101473445Y-19266553D02*
X101378207Y-19314172D01*
X101378207Y-19314172D02*
X101187731Y-19314172D01*
X101187731Y-19314172D02*
X101092493Y-19361791D01*
X101092493Y-19361791D02*
X101044874Y-19409410D01*
X101044874Y-19409410D02*
X100997255Y-19504648D01*
X100997255Y-19504648D02*
X100997255Y-19695124D01*
X100997255Y-19695124D02*
X101044874Y-19790362D01*
X101044874Y-19790362D02*
X101092493Y-19837982D01*
X101092493Y-19837982D02*
X101187731Y-19885601D01*
X101187731Y-19885601D02*
X101378207Y-19885601D01*
X101378207Y-19885601D02*
X101473445Y-19837982D01*
X101473445Y-19837982D02*
X101521064Y-19790362D01*
X101521064Y-19790362D02*
X101568683Y-19695124D01*
X101568683Y-19695124D02*
X101568683Y-19504648D01*
X101568683Y-19504648D02*
X101521064Y-19409410D01*
X101521064Y-19409410D02*
X101473445Y-19361791D01*
X101473445Y-19361791D02*
X101378207Y-19314172D01*
X101997255Y-19790362D02*
X102044874Y-19837982D01*
X102044874Y-19837982D02*
X101997255Y-19885601D01*
X101997255Y-19885601D02*
X101949636Y-19837982D01*
X101949636Y-19837982D02*
X101997255Y-19790362D01*
X101997255Y-19790362D02*
X101997255Y-19885601D01*
X102949635Y-18885601D02*
X102473445Y-18885601D01*
X102473445Y-18885601D02*
X102425826Y-19361791D01*
X102425826Y-19361791D02*
X102473445Y-19314172D01*
X102473445Y-19314172D02*
X102568683Y-19266553D01*
X102568683Y-19266553D02*
X102806778Y-19266553D01*
X102806778Y-19266553D02*
X102902016Y-19314172D01*
X102902016Y-19314172D02*
X102949635Y-19361791D01*
X102949635Y-19361791D02*
X102997254Y-19457029D01*
X102997254Y-19457029D02*
X102997254Y-19695124D01*
X102997254Y-19695124D02*
X102949635Y-19790362D01*
X102949635Y-19790362D02*
X102902016Y-19837982D01*
X102902016Y-19837982D02*
X102806778Y-19885601D01*
X102806778Y-19885601D02*
X102568683Y-19885601D01*
X102568683Y-19885601D02*
X102473445Y-19837982D01*
X102473445Y-19837982D02*
X102425826Y-19790362D01*
X104282969Y-19218934D02*
X104854397Y-19790362D01*
X104854397Y-19218934D02*
X104282969Y-19790362D01*
X106616302Y-18885601D02*
X106425826Y-18885601D01*
X106425826Y-18885601D02*
X106330588Y-18933220D01*
X106330588Y-18933220D02*
X106282969Y-18980839D01*
X106282969Y-18980839D02*
X106187731Y-19123696D01*
X106187731Y-19123696D02*
X106140112Y-19314172D01*
X106140112Y-19314172D02*
X106140112Y-19695124D01*
X106140112Y-19695124D02*
X106187731Y-19790362D01*
X106187731Y-19790362D02*
X106235350Y-19837982D01*
X106235350Y-19837982D02*
X106330588Y-19885601D01*
X106330588Y-19885601D02*
X106521064Y-19885601D01*
X106521064Y-19885601D02*
X106616302Y-19837982D01*
X106616302Y-19837982D02*
X106663921Y-19790362D01*
X106663921Y-19790362D02*
X106711540Y-19695124D01*
X106711540Y-19695124D02*
X106711540Y-19457029D01*
X106711540Y-19457029D02*
X106663921Y-19361791D01*
X106663921Y-19361791D02*
X106616302Y-19314172D01*
X106616302Y-19314172D02*
X106521064Y-19266553D01*
X106521064Y-19266553D02*
X106330588Y-19266553D01*
X106330588Y-19266553D02*
X106235350Y-19314172D01*
X106235350Y-19314172D02*
X106187731Y-19361791D01*
X106187731Y-19361791D02*
X106140112Y-19457029D01*
X107140112Y-19790362D02*
X107187731Y-19837982D01*
X107187731Y-19837982D02*
X107140112Y-19885601D01*
X107140112Y-19885601D02*
X107092493Y-19837982D01*
X107092493Y-19837982D02*
X107140112Y-19790362D01*
X107140112Y-19790362D02*
X107140112Y-19885601D01*
X107806778Y-18885601D02*
X107902016Y-18885601D01*
X107902016Y-18885601D02*
X107997254Y-18933220D01*
X107997254Y-18933220D02*
X108044873Y-18980839D01*
X108044873Y-18980839D02*
X108092492Y-19076077D01*
X108092492Y-19076077D02*
X108140111Y-19266553D01*
X108140111Y-19266553D02*
X108140111Y-19504648D01*
X108140111Y-19504648D02*
X108092492Y-19695124D01*
X108092492Y-19695124D02*
X108044873Y-19790362D01*
X108044873Y-19790362D02*
X107997254Y-19837982D01*
X107997254Y-19837982D02*
X107902016Y-19885601D01*
X107902016Y-19885601D02*
X107806778Y-19885601D01*
X107806778Y-19885601D02*
X107711540Y-19837982D01*
X107711540Y-19837982D02*
X107663921Y-19790362D01*
X107663921Y-19790362D02*
X107616302Y-19695124D01*
X107616302Y-19695124D02*
X107568683Y-19504648D01*
X107568683Y-19504648D02*
X107568683Y-19266553D01*
X107568683Y-19266553D02*
X107616302Y-19076077D01*
X107616302Y-19076077D02*
X107663921Y-18980839D01*
X107663921Y-18980839D02*
X107711540Y-18933220D01*
X107711540Y-18933220D02*
X107806778Y-18885601D01*
X109330588Y-19885601D02*
X109330588Y-19218934D01*
X109330588Y-19314172D02*
X109378207Y-19266553D01*
X109378207Y-19266553D02*
X109473445Y-19218934D01*
X109473445Y-19218934D02*
X109616302Y-19218934D01*
X109616302Y-19218934D02*
X109711540Y-19266553D01*
X109711540Y-19266553D02*
X109759159Y-19361791D01*
X109759159Y-19361791D02*
X109759159Y-19885601D01*
X109759159Y-19361791D02*
X109806778Y-19266553D01*
X109806778Y-19266553D02*
X109902016Y-19218934D01*
X109902016Y-19218934D02*
X110044873Y-19218934D01*
X110044873Y-19218934D02*
X110140112Y-19266553D01*
X110140112Y-19266553D02*
X110187731Y-19361791D01*
X110187731Y-19361791D02*
X110187731Y-19885601D01*
X110663921Y-19885601D02*
X110663921Y-19218934D01*
X110663921Y-19314172D02*
X110711540Y-19266553D01*
X110711540Y-19266553D02*
X110806778Y-19218934D01*
X110806778Y-19218934D02*
X110949635Y-19218934D01*
X110949635Y-19218934D02*
X111044873Y-19266553D01*
X111044873Y-19266553D02*
X111092492Y-19361791D01*
X111092492Y-19361791D02*
X111092492Y-19885601D01*
X111092492Y-19361791D02*
X111140111Y-19266553D01*
X111140111Y-19266553D02*
X111235349Y-19218934D01*
X111235349Y-19218934D02*
X111378206Y-19218934D01*
X111378206Y-19218934D02*
X111473445Y-19266553D01*
X111473445Y-19266553D02*
X111521064Y-19361791D01*
X111521064Y-19361791D02*
X111521064Y-19885601D01*
X96521065Y-21495545D02*
X96521065Y-20495545D01*
X96521065Y-20495545D02*
X96902017Y-20495545D01*
X96902017Y-20495545D02*
X96997255Y-20543164D01*
X96997255Y-20543164D02*
X97044874Y-20590783D01*
X97044874Y-20590783D02*
X97092493Y-20686021D01*
X97092493Y-20686021D02*
X97092493Y-20828878D01*
X97092493Y-20828878D02*
X97044874Y-20924116D01*
X97044874Y-20924116D02*
X96997255Y-20971735D01*
X96997255Y-20971735D02*
X96902017Y-21019354D01*
X96902017Y-21019354D02*
X96521065Y-21019354D01*
X97521065Y-21495545D02*
X97521065Y-20495545D01*
X98711541Y-21447926D02*
X98806779Y-21495545D01*
X98806779Y-21495545D02*
X98997255Y-21495545D01*
X98997255Y-21495545D02*
X99092493Y-21447926D01*
X99092493Y-21447926D02*
X99140112Y-21352687D01*
X99140112Y-21352687D02*
X99140112Y-21305068D01*
X99140112Y-21305068D02*
X99092493Y-21209830D01*
X99092493Y-21209830D02*
X98997255Y-21162211D01*
X98997255Y-21162211D02*
X98854398Y-21162211D01*
X98854398Y-21162211D02*
X98759160Y-21114592D01*
X98759160Y-21114592D02*
X98711541Y-21019354D01*
X98711541Y-21019354D02*
X98711541Y-20971735D01*
X98711541Y-20971735D02*
X98759160Y-20876497D01*
X98759160Y-20876497D02*
X98854398Y-20828878D01*
X98854398Y-20828878D02*
X98997255Y-20828878D01*
X98997255Y-20828878D02*
X99092493Y-20876497D01*
X99425827Y-20828878D02*
X99806779Y-20828878D01*
X99568684Y-20495545D02*
X99568684Y-21352687D01*
X99568684Y-21352687D02*
X99616303Y-21447926D01*
X99616303Y-21447926D02*
X99711541Y-21495545D01*
X99711541Y-21495545D02*
X99806779Y-21495545D01*
X100140113Y-21495545D02*
X100140113Y-20828878D01*
X100140113Y-20495545D02*
X100092494Y-20543164D01*
X100092494Y-20543164D02*
X100140113Y-20590783D01*
X100140113Y-20590783D02*
X100187732Y-20543164D01*
X100187732Y-20543164D02*
X100140113Y-20495545D01*
X100140113Y-20495545D02*
X100140113Y-20590783D01*
X100473446Y-20828878D02*
X100854398Y-20828878D01*
X100616303Y-21495545D02*
X100616303Y-20638402D01*
X100616303Y-20638402D02*
X100663922Y-20543164D01*
X100663922Y-20543164D02*
X100759160Y-20495545D01*
X100759160Y-20495545D02*
X100854398Y-20495545D01*
X101044875Y-20828878D02*
X101425827Y-20828878D01*
X101187732Y-21495545D02*
X101187732Y-20638402D01*
X101187732Y-20638402D02*
X101235351Y-20543164D01*
X101235351Y-20543164D02*
X101330589Y-20495545D01*
X101330589Y-20495545D02*
X101425827Y-20495545D01*
X102140113Y-21447926D02*
X102044875Y-21495545D01*
X102044875Y-21495545D02*
X101854399Y-21495545D01*
X101854399Y-21495545D02*
X101759161Y-21447926D01*
X101759161Y-21447926D02*
X101711542Y-21352687D01*
X101711542Y-21352687D02*
X101711542Y-20971735D01*
X101711542Y-20971735D02*
X101759161Y-20876497D01*
X101759161Y-20876497D02*
X101854399Y-20828878D01*
X101854399Y-20828878D02*
X102044875Y-20828878D01*
X102044875Y-20828878D02*
X102140113Y-20876497D01*
X102140113Y-20876497D02*
X102187732Y-20971735D01*
X102187732Y-20971735D02*
X102187732Y-21066973D01*
X102187732Y-21066973D02*
X101711542Y-21162211D01*
X102616304Y-20828878D02*
X102616304Y-21495545D01*
X102616304Y-20924116D02*
X102663923Y-20876497D01*
X102663923Y-20876497D02*
X102759161Y-20828878D01*
X102759161Y-20828878D02*
X102902018Y-20828878D01*
X102902018Y-20828878D02*
X102997256Y-20876497D01*
X102997256Y-20876497D02*
X103044875Y-20971735D01*
X103044875Y-20971735D02*
X103044875Y-21495545D01*
X103902018Y-21447926D02*
X103806780Y-21495545D01*
X103806780Y-21495545D02*
X103616304Y-21495545D01*
X103616304Y-21495545D02*
X103521066Y-21447926D01*
X103521066Y-21447926D02*
X103473447Y-21352687D01*
X103473447Y-21352687D02*
X103473447Y-20971735D01*
X103473447Y-20971735D02*
X103521066Y-20876497D01*
X103521066Y-20876497D02*
X103616304Y-20828878D01*
X103616304Y-20828878D02*
X103806780Y-20828878D01*
X103806780Y-20828878D02*
X103902018Y-20876497D01*
X103902018Y-20876497D02*
X103949637Y-20971735D01*
X103949637Y-20971735D02*
X103949637Y-21066973D01*
X103949637Y-21066973D02*
X103473447Y-21162211D01*
X104378209Y-21495545D02*
X104378209Y-20828878D01*
X104378209Y-21019354D02*
X104425828Y-20924116D01*
X104425828Y-20924116D02*
X104473447Y-20876497D01*
X104473447Y-20876497D02*
X104568685Y-20828878D01*
X104568685Y-20828878D02*
X104663923Y-20828878D01*
X105616305Y-20828878D02*
X105997257Y-20828878D01*
X105759162Y-20495545D02*
X105759162Y-21352687D01*
X105759162Y-21352687D02*
X105806781Y-21447926D01*
X105806781Y-21447926D02*
X105902019Y-21495545D01*
X105902019Y-21495545D02*
X105997257Y-21495545D01*
X106330591Y-21495545D02*
X106330591Y-20495545D01*
X106759162Y-21495545D02*
X106759162Y-20971735D01*
X106759162Y-20971735D02*
X106711543Y-20876497D01*
X106711543Y-20876497D02*
X106616305Y-20828878D01*
X106616305Y-20828878D02*
X106473448Y-20828878D01*
X106473448Y-20828878D02*
X106378210Y-20876497D01*
X106378210Y-20876497D02*
X106330591Y-20924116D01*
X107616305Y-21447926D02*
X107521067Y-21495545D01*
X107521067Y-21495545D02*
X107330591Y-21495545D01*
X107330591Y-21495545D02*
X107235353Y-21447926D01*
X107235353Y-21447926D02*
X107187734Y-21352687D01*
X107187734Y-21352687D02*
X107187734Y-20971735D01*
X107187734Y-20971735D02*
X107235353Y-20876497D01*
X107235353Y-20876497D02*
X107330591Y-20828878D01*
X107330591Y-20828878D02*
X107521067Y-20828878D01*
X107521067Y-20828878D02*
X107616305Y-20876497D01*
X107616305Y-20876497D02*
X107663924Y-20971735D01*
X107663924Y-20971735D02*
X107663924Y-21066973D01*
X107663924Y-21066973D02*
X107187734Y-21162211D01*
X108235353Y-21495545D02*
X108140115Y-21447926D01*
X108140115Y-21447926D02*
X108092496Y-21400306D01*
X108092496Y-21400306D02*
X108044877Y-21305068D01*
X108044877Y-21305068D02*
X108044877Y-21019354D01*
X108044877Y-21019354D02*
X108092496Y-20924116D01*
X108092496Y-20924116D02*
X108140115Y-20876497D01*
X108140115Y-20876497D02*
X108235353Y-20828878D01*
X108235353Y-20828878D02*
X108378210Y-20828878D01*
X108378210Y-20828878D02*
X108473448Y-20876497D01*
X108473448Y-20876497D02*
X108521067Y-20924116D01*
X108521067Y-20924116D02*
X108568686Y-21019354D01*
X108568686Y-21019354D02*
X108568686Y-21305068D01*
X108568686Y-21305068D02*
X108521067Y-21400306D01*
X108521067Y-21400306D02*
X108473448Y-21447926D01*
X108473448Y-21447926D02*
X108378210Y-21495545D01*
X108378210Y-21495545D02*
X108235353Y-21495545D01*
X108997258Y-21495545D02*
X108997258Y-20828878D01*
X108997258Y-21019354D02*
X109044877Y-20924116D01*
X109044877Y-20924116D02*
X109092496Y-20876497D01*
X109092496Y-20876497D02*
X109187734Y-20828878D01*
X109187734Y-20828878D02*
X109282972Y-20828878D01*
X109997258Y-21447926D02*
X109902020Y-21495545D01*
X109902020Y-21495545D02*
X109711544Y-21495545D01*
X109711544Y-21495545D02*
X109616306Y-21447926D01*
X109616306Y-21447926D02*
X109568687Y-21352687D01*
X109568687Y-21352687D02*
X109568687Y-20971735D01*
X109568687Y-20971735D02*
X109616306Y-20876497D01*
X109616306Y-20876497D02*
X109711544Y-20828878D01*
X109711544Y-20828878D02*
X109902020Y-20828878D01*
X109902020Y-20828878D02*
X109997258Y-20876497D01*
X109997258Y-20876497D02*
X110044877Y-20971735D01*
X110044877Y-20971735D02*
X110044877Y-21066973D01*
X110044877Y-21066973D02*
X109568687Y-21162211D01*
X110330592Y-20828878D02*
X110711544Y-20828878D01*
X110473449Y-20495545D02*
X110473449Y-21352687D01*
X110473449Y-21352687D02*
X110521068Y-21447926D01*
X110521068Y-21447926D02*
X110616306Y-21495545D01*
X110616306Y-21495545D02*
X110711544Y-21495545D01*
X111044878Y-21495545D02*
X111044878Y-20828878D01*
X111044878Y-20495545D02*
X110997259Y-20543164D01*
X110997259Y-20543164D02*
X111044878Y-20590783D01*
X111044878Y-20590783D02*
X111092497Y-20543164D01*
X111092497Y-20543164D02*
X111044878Y-20495545D01*
X111044878Y-20495545D02*
X111044878Y-20590783D01*
X111949639Y-21447926D02*
X111854401Y-21495545D01*
X111854401Y-21495545D02*
X111663925Y-21495545D01*
X111663925Y-21495545D02*
X111568687Y-21447926D01*
X111568687Y-21447926D02*
X111521068Y-21400306D01*
X111521068Y-21400306D02*
X111473449Y-21305068D01*
X111473449Y-21305068D02*
X111473449Y-21019354D01*
X111473449Y-21019354D02*
X111521068Y-20924116D01*
X111521068Y-20924116D02*
X111568687Y-20876497D01*
X111568687Y-20876497D02*
X111663925Y-20828878D01*
X111663925Y-20828878D02*
X111854401Y-20828878D01*
X111854401Y-20828878D02*
X111949639Y-20876497D01*
X112806782Y-21495545D02*
X112806782Y-20971735D01*
X112806782Y-20971735D02*
X112759163Y-20876497D01*
X112759163Y-20876497D02*
X112663925Y-20828878D01*
X112663925Y-20828878D02*
X112473449Y-20828878D01*
X112473449Y-20828878D02*
X112378211Y-20876497D01*
X112806782Y-21447926D02*
X112711544Y-21495545D01*
X112711544Y-21495545D02*
X112473449Y-21495545D01*
X112473449Y-21495545D02*
X112378211Y-21447926D01*
X112378211Y-21447926D02*
X112330592Y-21352687D01*
X112330592Y-21352687D02*
X112330592Y-21257449D01*
X112330592Y-21257449D02*
X112378211Y-21162211D01*
X112378211Y-21162211D02*
X112473449Y-21114592D01*
X112473449Y-21114592D02*
X112711544Y-21114592D01*
X112711544Y-21114592D02*
X112806782Y-21066973D01*
X113425830Y-21495545D02*
X113330592Y-21447926D01*
X113330592Y-21447926D02*
X113282973Y-21352687D01*
X113282973Y-21352687D02*
X113282973Y-20495545D01*
X114425831Y-20828878D02*
X114806783Y-20828878D01*
X114568688Y-20495545D02*
X114568688Y-21352687D01*
X114568688Y-21352687D02*
X114616307Y-21447926D01*
X114616307Y-21447926D02*
X114711545Y-21495545D01*
X114711545Y-21495545D02*
X114806783Y-21495545D01*
X115140117Y-21495545D02*
X115140117Y-20495545D01*
X115568688Y-21495545D02*
X115568688Y-20971735D01*
X115568688Y-20971735D02*
X115521069Y-20876497D01*
X115521069Y-20876497D02*
X115425831Y-20828878D01*
X115425831Y-20828878D02*
X115282974Y-20828878D01*
X115282974Y-20828878D02*
X115187736Y-20876497D01*
X115187736Y-20876497D02*
X115140117Y-20924116D01*
X116044879Y-21495545D02*
X116044879Y-20828878D01*
X116044879Y-20495545D02*
X115997260Y-20543164D01*
X115997260Y-20543164D02*
X116044879Y-20590783D01*
X116044879Y-20590783D02*
X116092498Y-20543164D01*
X116092498Y-20543164D02*
X116044879Y-20495545D01*
X116044879Y-20495545D02*
X116044879Y-20590783D01*
X116949640Y-21447926D02*
X116854402Y-21495545D01*
X116854402Y-21495545D02*
X116663926Y-21495545D01*
X116663926Y-21495545D02*
X116568688Y-21447926D01*
X116568688Y-21447926D02*
X116521069Y-21400306D01*
X116521069Y-21400306D02*
X116473450Y-21305068D01*
X116473450Y-21305068D02*
X116473450Y-21019354D01*
X116473450Y-21019354D02*
X116521069Y-20924116D01*
X116521069Y-20924116D02*
X116568688Y-20876497D01*
X116568688Y-20876497D02*
X116663926Y-20828878D01*
X116663926Y-20828878D02*
X116854402Y-20828878D01*
X116854402Y-20828878D02*
X116949640Y-20876497D01*
X117378212Y-21495545D02*
X117378212Y-20495545D01*
X117473450Y-21114592D02*
X117759164Y-21495545D01*
X117759164Y-20828878D02*
X117378212Y-21209830D01*
X118187736Y-20828878D02*
X118187736Y-21495545D01*
X118187736Y-20924116D02*
X118235355Y-20876497D01*
X118235355Y-20876497D02*
X118330593Y-20828878D01*
X118330593Y-20828878D02*
X118473450Y-20828878D01*
X118473450Y-20828878D02*
X118568688Y-20876497D01*
X118568688Y-20876497D02*
X118616307Y-20971735D01*
X118616307Y-20971735D02*
X118616307Y-21495545D01*
X119473450Y-21447926D02*
X119378212Y-21495545D01*
X119378212Y-21495545D02*
X119187736Y-21495545D01*
X119187736Y-21495545D02*
X119092498Y-21447926D01*
X119092498Y-21447926D02*
X119044879Y-21352687D01*
X119044879Y-21352687D02*
X119044879Y-20971735D01*
X119044879Y-20971735D02*
X119092498Y-20876497D01*
X119092498Y-20876497D02*
X119187736Y-20828878D01*
X119187736Y-20828878D02*
X119378212Y-20828878D01*
X119378212Y-20828878D02*
X119473450Y-20876497D01*
X119473450Y-20876497D02*
X119521069Y-20971735D01*
X119521069Y-20971735D02*
X119521069Y-21066973D01*
X119521069Y-21066973D02*
X119044879Y-21162211D01*
X119902022Y-21447926D02*
X119997260Y-21495545D01*
X119997260Y-21495545D02*
X120187736Y-21495545D01*
X120187736Y-21495545D02*
X120282974Y-21447926D01*
X120282974Y-21447926D02*
X120330593Y-21352687D01*
X120330593Y-21352687D02*
X120330593Y-21305068D01*
X120330593Y-21305068D02*
X120282974Y-21209830D01*
X120282974Y-21209830D02*
X120187736Y-21162211D01*
X120187736Y-21162211D02*
X120044879Y-21162211D01*
X120044879Y-21162211D02*
X119949641Y-21114592D01*
X119949641Y-21114592D02*
X119902022Y-21019354D01*
X119902022Y-21019354D02*
X119902022Y-20971735D01*
X119902022Y-20971735D02*
X119949641Y-20876497D01*
X119949641Y-20876497D02*
X120044879Y-20828878D01*
X120044879Y-20828878D02*
X120187736Y-20828878D01*
X120187736Y-20828878D02*
X120282974Y-20876497D01*
X120711546Y-21447926D02*
X120806784Y-21495545D01*
X120806784Y-21495545D02*
X120997260Y-21495545D01*
X120997260Y-21495545D02*
X121092498Y-21447926D01*
X121092498Y-21447926D02*
X121140117Y-21352687D01*
X121140117Y-21352687D02*
X121140117Y-21305068D01*
X121140117Y-21305068D02*
X121092498Y-21209830D01*
X121092498Y-21209830D02*
X120997260Y-21162211D01*
X120997260Y-21162211D02*
X120854403Y-21162211D01*
X120854403Y-21162211D02*
X120759165Y-21114592D01*
X120759165Y-21114592D02*
X120711546Y-21019354D01*
X120711546Y-21019354D02*
X120711546Y-20971735D01*
X120711546Y-20971735D02*
X120759165Y-20876497D01*
X120759165Y-20876497D02*
X120854403Y-20828878D01*
X120854403Y-20828878D02*
X120997260Y-20828878D01*
X120997260Y-20828878D02*
X121092498Y-20876497D01*
X121854403Y-21162211D02*
X121902022Y-21209830D01*
X121902022Y-21209830D02*
X121854403Y-21257449D01*
X121854403Y-21257449D02*
X121806784Y-21209830D01*
X121806784Y-21209830D02*
X121854403Y-21162211D01*
X121854403Y-21162211D02*
X121854403Y-21257449D01*
X121854403Y-20638402D02*
X121902022Y-20686021D01*
X121902022Y-20686021D02*
X121854403Y-20733640D01*
X121854403Y-20733640D02*
X121806784Y-20686021D01*
X121806784Y-20686021D02*
X121854403Y-20638402D01*
X121854403Y-20638402D02*
X121854403Y-20733640D01*
X123568689Y-20495545D02*
X123663927Y-20495545D01*
X123663927Y-20495545D02*
X123759165Y-20543164D01*
X123759165Y-20543164D02*
X123806784Y-20590783D01*
X123806784Y-20590783D02*
X123854403Y-20686021D01*
X123854403Y-20686021D02*
X123902022Y-20876497D01*
X123902022Y-20876497D02*
X123902022Y-21114592D01*
X123902022Y-21114592D02*
X123854403Y-21305068D01*
X123854403Y-21305068D02*
X123806784Y-21400306D01*
X123806784Y-21400306D02*
X123759165Y-21447926D01*
X123759165Y-21447926D02*
X123663927Y-21495545D01*
X123663927Y-21495545D02*
X123568689Y-21495545D01*
X123568689Y-21495545D02*
X123473451Y-21447926D01*
X123473451Y-21447926D02*
X123425832Y-21400306D01*
X123425832Y-21400306D02*
X123378213Y-21305068D01*
X123378213Y-21305068D02*
X123330594Y-21114592D01*
X123330594Y-21114592D02*
X123330594Y-20876497D01*
X123330594Y-20876497D02*
X123378213Y-20686021D01*
X123378213Y-20686021D02*
X123425832Y-20590783D01*
X123425832Y-20590783D02*
X123473451Y-20543164D01*
X123473451Y-20543164D02*
X123568689Y-20495545D01*
X124330594Y-21400306D02*
X124378213Y-21447926D01*
X124378213Y-21447926D02*
X124330594Y-21495545D01*
X124330594Y-21495545D02*
X124282975Y-21447926D01*
X124282975Y-21447926D02*
X124330594Y-21400306D01*
X124330594Y-21400306D02*
X124330594Y-21495545D01*
X125330593Y-21495545D02*
X124759165Y-21495545D01*
X125044879Y-21495545D02*
X125044879Y-20495545D01*
X125044879Y-20495545D02*
X124949641Y-20638402D01*
X124949641Y-20638402D02*
X124854403Y-20733640D01*
X124854403Y-20733640D02*
X124759165Y-20781259D01*
X125663927Y-20495545D02*
X126330593Y-20495545D01*
X126330593Y-20495545D02*
X125902022Y-21495545D01*
X126854403Y-20924116D02*
X126759165Y-20876497D01*
X126759165Y-20876497D02*
X126711546Y-20828878D01*
X126711546Y-20828878D02*
X126663927Y-20733640D01*
X126663927Y-20733640D02*
X126663927Y-20686021D01*
X126663927Y-20686021D02*
X126711546Y-20590783D01*
X126711546Y-20590783D02*
X126759165Y-20543164D01*
X126759165Y-20543164D02*
X126854403Y-20495545D01*
X126854403Y-20495545D02*
X127044879Y-20495545D01*
X127044879Y-20495545D02*
X127140117Y-20543164D01*
X127140117Y-20543164D02*
X127187736Y-20590783D01*
X127187736Y-20590783D02*
X127235355Y-20686021D01*
X127235355Y-20686021D02*
X127235355Y-20733640D01*
X127235355Y-20733640D02*
X127187736Y-20828878D01*
X127187736Y-20828878D02*
X127140117Y-20876497D01*
X127140117Y-20876497D02*
X127044879Y-20924116D01*
X127044879Y-20924116D02*
X126854403Y-20924116D01*
X126854403Y-20924116D02*
X126759165Y-20971735D01*
X126759165Y-20971735D02*
X126711546Y-21019354D01*
X126711546Y-21019354D02*
X126663927Y-21114592D01*
X126663927Y-21114592D02*
X126663927Y-21305068D01*
X126663927Y-21305068D02*
X126711546Y-21400306D01*
X126711546Y-21400306D02*
X126759165Y-21447926D01*
X126759165Y-21447926D02*
X126854403Y-21495545D01*
X126854403Y-21495545D02*
X127044879Y-21495545D01*
X127044879Y-21495545D02*
X127140117Y-21447926D01*
X127140117Y-21447926D02*
X127187736Y-21400306D01*
X127187736Y-21400306D02*
X127235355Y-21305068D01*
X127235355Y-21305068D02*
X127235355Y-21114592D01*
X127235355Y-21114592D02*
X127187736Y-21019354D01*
X127187736Y-21019354D02*
X127140117Y-20971735D01*
X127140117Y-20971735D02*
X127044879Y-20924116D01*
X128425832Y-21495545D02*
X128425832Y-20828878D01*
X128425832Y-20924116D02*
X128473451Y-20876497D01*
X128473451Y-20876497D02*
X128568689Y-20828878D01*
X128568689Y-20828878D02*
X128711546Y-20828878D01*
X128711546Y-20828878D02*
X128806784Y-20876497D01*
X128806784Y-20876497D02*
X128854403Y-20971735D01*
X128854403Y-20971735D02*
X128854403Y-21495545D01*
X128854403Y-20971735D02*
X128902022Y-20876497D01*
X128902022Y-20876497D02*
X128997260Y-20828878D01*
X128997260Y-20828878D02*
X129140117Y-20828878D01*
X129140117Y-20828878D02*
X129235356Y-20876497D01*
X129235356Y-20876497D02*
X129282975Y-20971735D01*
X129282975Y-20971735D02*
X129282975Y-21495545D01*
X129759165Y-21495545D02*
X129759165Y-20828878D01*
X129759165Y-20924116D02*
X129806784Y-20876497D01*
X129806784Y-20876497D02*
X129902022Y-20828878D01*
X129902022Y-20828878D02*
X130044879Y-20828878D01*
X130044879Y-20828878D02*
X130140117Y-20876497D01*
X130140117Y-20876497D02*
X130187736Y-20971735D01*
X130187736Y-20971735D02*
X130187736Y-21495545D01*
X130187736Y-20971735D02*
X130235355Y-20876497D01*
X130235355Y-20876497D02*
X130330593Y-20828878D01*
X130330593Y-20828878D02*
X130473450Y-20828878D01*
X130473450Y-20828878D02*
X130568689Y-20876497D01*
X130568689Y-20876497D02*
X130616308Y-20971735D01*
X130616308Y-20971735D02*
X130616308Y-21495545D01*
X97092493Y-23105489D02*
X96759160Y-22629298D01*
X96521065Y-23105489D02*
X96521065Y-22105489D01*
X96521065Y-22105489D02*
X96902017Y-22105489D01*
X96902017Y-22105489D02*
X96997255Y-22153108D01*
X96997255Y-22153108D02*
X97044874Y-22200727D01*
X97044874Y-22200727D02*
X97092493Y-22295965D01*
X97092493Y-22295965D02*
X97092493Y-22438822D01*
X97092493Y-22438822D02*
X97044874Y-22534060D01*
X97044874Y-22534060D02*
X96997255Y-22581679D01*
X96997255Y-22581679D02*
X96902017Y-22629298D01*
X96902017Y-22629298D02*
X96521065Y-22629298D01*
X97902017Y-23057870D02*
X97806779Y-23105489D01*
X97806779Y-23105489D02*
X97616303Y-23105489D01*
X97616303Y-23105489D02*
X97521065Y-23057870D01*
X97521065Y-23057870D02*
X97473446Y-22962631D01*
X97473446Y-22962631D02*
X97473446Y-22581679D01*
X97473446Y-22581679D02*
X97521065Y-22486441D01*
X97521065Y-22486441D02*
X97616303Y-22438822D01*
X97616303Y-22438822D02*
X97806779Y-22438822D01*
X97806779Y-22438822D02*
X97902017Y-22486441D01*
X97902017Y-22486441D02*
X97949636Y-22581679D01*
X97949636Y-22581679D02*
X97949636Y-22676917D01*
X97949636Y-22676917D02*
X97473446Y-22772155D01*
X98806779Y-23057870D02*
X98711541Y-23105489D01*
X98711541Y-23105489D02*
X98521065Y-23105489D01*
X98521065Y-23105489D02*
X98425827Y-23057870D01*
X98425827Y-23057870D02*
X98378208Y-23010250D01*
X98378208Y-23010250D02*
X98330589Y-22915012D01*
X98330589Y-22915012D02*
X98330589Y-22629298D01*
X98330589Y-22629298D02*
X98378208Y-22534060D01*
X98378208Y-22534060D02*
X98425827Y-22486441D01*
X98425827Y-22486441D02*
X98521065Y-22438822D01*
X98521065Y-22438822D02*
X98711541Y-22438822D01*
X98711541Y-22438822D02*
X98806779Y-22486441D01*
X99378208Y-23105489D02*
X99282970Y-23057870D01*
X99282970Y-23057870D02*
X99235351Y-23010250D01*
X99235351Y-23010250D02*
X99187732Y-22915012D01*
X99187732Y-22915012D02*
X99187732Y-22629298D01*
X99187732Y-22629298D02*
X99235351Y-22534060D01*
X99235351Y-22534060D02*
X99282970Y-22486441D01*
X99282970Y-22486441D02*
X99378208Y-22438822D01*
X99378208Y-22438822D02*
X99521065Y-22438822D01*
X99521065Y-22438822D02*
X99616303Y-22486441D01*
X99616303Y-22486441D02*
X99663922Y-22534060D01*
X99663922Y-22534060D02*
X99711541Y-22629298D01*
X99711541Y-22629298D02*
X99711541Y-22915012D01*
X99711541Y-22915012D02*
X99663922Y-23010250D01*
X99663922Y-23010250D02*
X99616303Y-23057870D01*
X99616303Y-23057870D02*
X99521065Y-23105489D01*
X99521065Y-23105489D02*
X99378208Y-23105489D01*
X100140113Y-23105489D02*
X100140113Y-22438822D01*
X100140113Y-22534060D02*
X100187732Y-22486441D01*
X100187732Y-22486441D02*
X100282970Y-22438822D01*
X100282970Y-22438822D02*
X100425827Y-22438822D01*
X100425827Y-22438822D02*
X100521065Y-22486441D01*
X100521065Y-22486441D02*
X100568684Y-22581679D01*
X100568684Y-22581679D02*
X100568684Y-23105489D01*
X100568684Y-22581679D02*
X100616303Y-22486441D01*
X100616303Y-22486441D02*
X100711541Y-22438822D01*
X100711541Y-22438822D02*
X100854398Y-22438822D01*
X100854398Y-22438822D02*
X100949637Y-22486441D01*
X100949637Y-22486441D02*
X100997256Y-22581679D01*
X100997256Y-22581679D02*
X100997256Y-23105489D01*
X101473446Y-23105489D02*
X101473446Y-22438822D01*
X101473446Y-22534060D02*
X101521065Y-22486441D01*
X101521065Y-22486441D02*
X101616303Y-22438822D01*
X101616303Y-22438822D02*
X101759160Y-22438822D01*
X101759160Y-22438822D02*
X101854398Y-22486441D01*
X101854398Y-22486441D02*
X101902017Y-22581679D01*
X101902017Y-22581679D02*
X101902017Y-23105489D01*
X101902017Y-22581679D02*
X101949636Y-22486441D01*
X101949636Y-22486441D02*
X102044874Y-22438822D01*
X102044874Y-22438822D02*
X102187731Y-22438822D01*
X102187731Y-22438822D02*
X102282970Y-22486441D01*
X102282970Y-22486441D02*
X102330589Y-22581679D01*
X102330589Y-22581679D02*
X102330589Y-23105489D01*
X103187731Y-23057870D02*
X103092493Y-23105489D01*
X103092493Y-23105489D02*
X102902017Y-23105489D01*
X102902017Y-23105489D02*
X102806779Y-23057870D01*
X102806779Y-23057870D02*
X102759160Y-22962631D01*
X102759160Y-22962631D02*
X102759160Y-22581679D01*
X102759160Y-22581679D02*
X102806779Y-22486441D01*
X102806779Y-22486441D02*
X102902017Y-22438822D01*
X102902017Y-22438822D02*
X103092493Y-22438822D01*
X103092493Y-22438822D02*
X103187731Y-22486441D01*
X103187731Y-22486441D02*
X103235350Y-22581679D01*
X103235350Y-22581679D02*
X103235350Y-22676917D01*
X103235350Y-22676917D02*
X102759160Y-22772155D01*
X103663922Y-22438822D02*
X103663922Y-23105489D01*
X103663922Y-22534060D02*
X103711541Y-22486441D01*
X103711541Y-22486441D02*
X103806779Y-22438822D01*
X103806779Y-22438822D02*
X103949636Y-22438822D01*
X103949636Y-22438822D02*
X104044874Y-22486441D01*
X104044874Y-22486441D02*
X104092493Y-22581679D01*
X104092493Y-22581679D02*
X104092493Y-23105489D01*
X104997255Y-23105489D02*
X104997255Y-22105489D01*
X104997255Y-23057870D02*
X104902017Y-23105489D01*
X104902017Y-23105489D02*
X104711541Y-23105489D01*
X104711541Y-23105489D02*
X104616303Y-23057870D01*
X104616303Y-23057870D02*
X104568684Y-23010250D01*
X104568684Y-23010250D02*
X104521065Y-22915012D01*
X104521065Y-22915012D02*
X104521065Y-22629298D01*
X104521065Y-22629298D02*
X104568684Y-22534060D01*
X104568684Y-22534060D02*
X104616303Y-22486441D01*
X104616303Y-22486441D02*
X104711541Y-22438822D01*
X104711541Y-22438822D02*
X104902017Y-22438822D01*
X104902017Y-22438822D02*
X104997255Y-22486441D01*
X105854398Y-23057870D02*
X105759160Y-23105489D01*
X105759160Y-23105489D02*
X105568684Y-23105489D01*
X105568684Y-23105489D02*
X105473446Y-23057870D01*
X105473446Y-23057870D02*
X105425827Y-22962631D01*
X105425827Y-22962631D02*
X105425827Y-22581679D01*
X105425827Y-22581679D02*
X105473446Y-22486441D01*
X105473446Y-22486441D02*
X105568684Y-22438822D01*
X105568684Y-22438822D02*
X105759160Y-22438822D01*
X105759160Y-22438822D02*
X105854398Y-22486441D01*
X105854398Y-22486441D02*
X105902017Y-22581679D01*
X105902017Y-22581679D02*
X105902017Y-22676917D01*
X105902017Y-22676917D02*
X105425827Y-22772155D01*
X106759160Y-23105489D02*
X106759160Y-22105489D01*
X106759160Y-23057870D02*
X106663922Y-23105489D01*
X106663922Y-23105489D02*
X106473446Y-23105489D01*
X106473446Y-23105489D02*
X106378208Y-23057870D01*
X106378208Y-23057870D02*
X106330589Y-23010250D01*
X106330589Y-23010250D02*
X106282970Y-22915012D01*
X106282970Y-22915012D02*
X106282970Y-22629298D01*
X106282970Y-22629298D02*
X106330589Y-22534060D01*
X106330589Y-22534060D02*
X106378208Y-22486441D01*
X106378208Y-22486441D02*
X106473446Y-22438822D01*
X106473446Y-22438822D02*
X106663922Y-22438822D01*
X106663922Y-22438822D02*
X106759160Y-22486441D01*
X107997256Y-23105489D02*
X107997256Y-22105489D01*
X107997256Y-22105489D02*
X108378208Y-22105489D01*
X108378208Y-22105489D02*
X108473446Y-22153108D01*
X108473446Y-22153108D02*
X108521065Y-22200727D01*
X108521065Y-22200727D02*
X108568684Y-22295965D01*
X108568684Y-22295965D02*
X108568684Y-22438822D01*
X108568684Y-22438822D02*
X108521065Y-22534060D01*
X108521065Y-22534060D02*
X108473446Y-22581679D01*
X108473446Y-22581679D02*
X108378208Y-22629298D01*
X108378208Y-22629298D02*
X107997256Y-22629298D01*
X108997256Y-23105489D02*
X108997256Y-22105489D01*
X110187732Y-23057870D02*
X110282970Y-23105489D01*
X110282970Y-23105489D02*
X110473446Y-23105489D01*
X110473446Y-23105489D02*
X110568684Y-23057870D01*
X110568684Y-23057870D02*
X110616303Y-22962631D01*
X110616303Y-22962631D02*
X110616303Y-22915012D01*
X110616303Y-22915012D02*
X110568684Y-22819774D01*
X110568684Y-22819774D02*
X110473446Y-22772155D01*
X110473446Y-22772155D02*
X110330589Y-22772155D01*
X110330589Y-22772155D02*
X110235351Y-22724536D01*
X110235351Y-22724536D02*
X110187732Y-22629298D01*
X110187732Y-22629298D02*
X110187732Y-22581679D01*
X110187732Y-22581679D02*
X110235351Y-22486441D01*
X110235351Y-22486441D02*
X110330589Y-22438822D01*
X110330589Y-22438822D02*
X110473446Y-22438822D01*
X110473446Y-22438822D02*
X110568684Y-22486441D01*
X110902018Y-22438822D02*
X111282970Y-22438822D01*
X111044875Y-22105489D02*
X111044875Y-22962631D01*
X111044875Y-22962631D02*
X111092494Y-23057870D01*
X111092494Y-23057870D02*
X111187732Y-23105489D01*
X111187732Y-23105489D02*
X111282970Y-23105489D01*
X111616304Y-23105489D02*
X111616304Y-22438822D01*
X111616304Y-22105489D02*
X111568685Y-22153108D01*
X111568685Y-22153108D02*
X111616304Y-22200727D01*
X111616304Y-22200727D02*
X111663923Y-22153108D01*
X111663923Y-22153108D02*
X111616304Y-22105489D01*
X111616304Y-22105489D02*
X111616304Y-22200727D01*
X111949637Y-22438822D02*
X112330589Y-22438822D01*
X112092494Y-23105489D02*
X112092494Y-22248346D01*
X112092494Y-22248346D02*
X112140113Y-22153108D01*
X112140113Y-22153108D02*
X112235351Y-22105489D01*
X112235351Y-22105489D02*
X112330589Y-22105489D01*
X112521066Y-22438822D02*
X112902018Y-22438822D01*
X112663923Y-23105489D02*
X112663923Y-22248346D01*
X112663923Y-22248346D02*
X112711542Y-22153108D01*
X112711542Y-22153108D02*
X112806780Y-22105489D01*
X112806780Y-22105489D02*
X112902018Y-22105489D01*
X113616304Y-23057870D02*
X113521066Y-23105489D01*
X113521066Y-23105489D02*
X113330590Y-23105489D01*
X113330590Y-23105489D02*
X113235352Y-23057870D01*
X113235352Y-23057870D02*
X113187733Y-22962631D01*
X113187733Y-22962631D02*
X113187733Y-22581679D01*
X113187733Y-22581679D02*
X113235352Y-22486441D01*
X113235352Y-22486441D02*
X113330590Y-22438822D01*
X113330590Y-22438822D02*
X113521066Y-22438822D01*
X113521066Y-22438822D02*
X113616304Y-22486441D01*
X113616304Y-22486441D02*
X113663923Y-22581679D01*
X113663923Y-22581679D02*
X113663923Y-22676917D01*
X113663923Y-22676917D02*
X113187733Y-22772155D01*
X114092495Y-22438822D02*
X114092495Y-23105489D01*
X114092495Y-22534060D02*
X114140114Y-22486441D01*
X114140114Y-22486441D02*
X114235352Y-22438822D01*
X114235352Y-22438822D02*
X114378209Y-22438822D01*
X114378209Y-22438822D02*
X114473447Y-22486441D01*
X114473447Y-22486441D02*
X114521066Y-22581679D01*
X114521066Y-22581679D02*
X114521066Y-23105489D01*
X115378209Y-23057870D02*
X115282971Y-23105489D01*
X115282971Y-23105489D02*
X115092495Y-23105489D01*
X115092495Y-23105489D02*
X114997257Y-23057870D01*
X114997257Y-23057870D02*
X114949638Y-22962631D01*
X114949638Y-22962631D02*
X114949638Y-22581679D01*
X114949638Y-22581679D02*
X114997257Y-22486441D01*
X114997257Y-22486441D02*
X115092495Y-22438822D01*
X115092495Y-22438822D02*
X115282971Y-22438822D01*
X115282971Y-22438822D02*
X115378209Y-22486441D01*
X115378209Y-22486441D02*
X115425828Y-22581679D01*
X115425828Y-22581679D02*
X115425828Y-22676917D01*
X115425828Y-22676917D02*
X114949638Y-22772155D01*
X115854400Y-23105489D02*
X115854400Y-22438822D01*
X115854400Y-22629298D02*
X115902019Y-22534060D01*
X115902019Y-22534060D02*
X115949638Y-22486441D01*
X115949638Y-22486441D02*
X116044876Y-22438822D01*
X116044876Y-22438822D02*
X116140114Y-22438822D01*
X117092496Y-22438822D02*
X117473448Y-22438822D01*
X117235353Y-22105489D02*
X117235353Y-22962631D01*
X117235353Y-22962631D02*
X117282972Y-23057870D01*
X117282972Y-23057870D02*
X117378210Y-23105489D01*
X117378210Y-23105489D02*
X117473448Y-23105489D01*
X117806782Y-23105489D02*
X117806782Y-22105489D01*
X118235353Y-23105489D02*
X118235353Y-22581679D01*
X118235353Y-22581679D02*
X118187734Y-22486441D01*
X118187734Y-22486441D02*
X118092496Y-22438822D01*
X118092496Y-22438822D02*
X117949639Y-22438822D01*
X117949639Y-22438822D02*
X117854401Y-22486441D01*
X117854401Y-22486441D02*
X117806782Y-22534060D01*
X118711544Y-23105489D02*
X118711544Y-22438822D01*
X118711544Y-22105489D02*
X118663925Y-22153108D01*
X118663925Y-22153108D02*
X118711544Y-22200727D01*
X118711544Y-22200727D02*
X118759163Y-22153108D01*
X118759163Y-22153108D02*
X118711544Y-22105489D01*
X118711544Y-22105489D02*
X118711544Y-22200727D01*
X119616305Y-23057870D02*
X119521067Y-23105489D01*
X119521067Y-23105489D02*
X119330591Y-23105489D01*
X119330591Y-23105489D02*
X119235353Y-23057870D01*
X119235353Y-23057870D02*
X119187734Y-23010250D01*
X119187734Y-23010250D02*
X119140115Y-22915012D01*
X119140115Y-22915012D02*
X119140115Y-22629298D01*
X119140115Y-22629298D02*
X119187734Y-22534060D01*
X119187734Y-22534060D02*
X119235353Y-22486441D01*
X119235353Y-22486441D02*
X119330591Y-22438822D01*
X119330591Y-22438822D02*
X119521067Y-22438822D01*
X119521067Y-22438822D02*
X119616305Y-22486441D01*
X120044877Y-23105489D02*
X120044877Y-22105489D01*
X120140115Y-22724536D02*
X120425829Y-23105489D01*
X120425829Y-22438822D02*
X120044877Y-22819774D01*
X120854401Y-22438822D02*
X120854401Y-23105489D01*
X120854401Y-22534060D02*
X120902020Y-22486441D01*
X120902020Y-22486441D02*
X120997258Y-22438822D01*
X120997258Y-22438822D02*
X121140115Y-22438822D01*
X121140115Y-22438822D02*
X121235353Y-22486441D01*
X121235353Y-22486441D02*
X121282972Y-22581679D01*
X121282972Y-22581679D02*
X121282972Y-23105489D01*
X122140115Y-23057870D02*
X122044877Y-23105489D01*
X122044877Y-23105489D02*
X121854401Y-23105489D01*
X121854401Y-23105489D02*
X121759163Y-23057870D01*
X121759163Y-23057870D02*
X121711544Y-22962631D01*
X121711544Y-22962631D02*
X121711544Y-22581679D01*
X121711544Y-22581679D02*
X121759163Y-22486441D01*
X121759163Y-22486441D02*
X121854401Y-22438822D01*
X121854401Y-22438822D02*
X122044877Y-22438822D01*
X122044877Y-22438822D02*
X122140115Y-22486441D01*
X122140115Y-22486441D02*
X122187734Y-22581679D01*
X122187734Y-22581679D02*
X122187734Y-22676917D01*
X122187734Y-22676917D02*
X121711544Y-22772155D01*
X122568687Y-23057870D02*
X122663925Y-23105489D01*
X122663925Y-23105489D02*
X122854401Y-23105489D01*
X122854401Y-23105489D02*
X122949639Y-23057870D01*
X122949639Y-23057870D02*
X122997258Y-22962631D01*
X122997258Y-22962631D02*
X122997258Y-22915012D01*
X122997258Y-22915012D02*
X122949639Y-22819774D01*
X122949639Y-22819774D02*
X122854401Y-22772155D01*
X122854401Y-22772155D02*
X122711544Y-22772155D01*
X122711544Y-22772155D02*
X122616306Y-22724536D01*
X122616306Y-22724536D02*
X122568687Y-22629298D01*
X122568687Y-22629298D02*
X122568687Y-22581679D01*
X122568687Y-22581679D02*
X122616306Y-22486441D01*
X122616306Y-22486441D02*
X122711544Y-22438822D01*
X122711544Y-22438822D02*
X122854401Y-22438822D01*
X122854401Y-22438822D02*
X122949639Y-22486441D01*
X123378211Y-23057870D02*
X123473449Y-23105489D01*
X123473449Y-23105489D02*
X123663925Y-23105489D01*
X123663925Y-23105489D02*
X123759163Y-23057870D01*
X123759163Y-23057870D02*
X123806782Y-22962631D01*
X123806782Y-22962631D02*
X123806782Y-22915012D01*
X123806782Y-22915012D02*
X123759163Y-22819774D01*
X123759163Y-22819774D02*
X123663925Y-22772155D01*
X123663925Y-22772155D02*
X123521068Y-22772155D01*
X123521068Y-22772155D02*
X123425830Y-22724536D01*
X123425830Y-22724536D02*
X123378211Y-22629298D01*
X123378211Y-22629298D02*
X123378211Y-22581679D01*
X123378211Y-22581679D02*
X123425830Y-22486441D01*
X123425830Y-22486441D02*
X123521068Y-22438822D01*
X123521068Y-22438822D02*
X123663925Y-22438822D01*
X123663925Y-22438822D02*
X123759163Y-22486441D01*
X124521068Y-22772155D02*
X124568687Y-22819774D01*
X124568687Y-22819774D02*
X124521068Y-22867393D01*
X124521068Y-22867393D02*
X124473449Y-22819774D01*
X124473449Y-22819774D02*
X124521068Y-22772155D01*
X124521068Y-22772155D02*
X124521068Y-22867393D01*
X124521068Y-22248346D02*
X124568687Y-22295965D01*
X124568687Y-22295965D02*
X124521068Y-22343584D01*
X124521068Y-22343584D02*
X124473449Y-22295965D01*
X124473449Y-22295965D02*
X124521068Y-22248346D01*
X124521068Y-22248346D02*
X124521068Y-22343584D01*
X126235354Y-22105489D02*
X126330592Y-22105489D01*
X126330592Y-22105489D02*
X126425830Y-22153108D01*
X126425830Y-22153108D02*
X126473449Y-22200727D01*
X126473449Y-22200727D02*
X126521068Y-22295965D01*
X126521068Y-22295965D02*
X126568687Y-22486441D01*
X126568687Y-22486441D02*
X126568687Y-22724536D01*
X126568687Y-22724536D02*
X126521068Y-22915012D01*
X126521068Y-22915012D02*
X126473449Y-23010250D01*
X126473449Y-23010250D02*
X126425830Y-23057870D01*
X126425830Y-23057870D02*
X126330592Y-23105489D01*
X126330592Y-23105489D02*
X126235354Y-23105489D01*
X126235354Y-23105489D02*
X126140116Y-23057870D01*
X126140116Y-23057870D02*
X126092497Y-23010250D01*
X126092497Y-23010250D02*
X126044878Y-22915012D01*
X126044878Y-22915012D02*
X125997259Y-22724536D01*
X125997259Y-22724536D02*
X125997259Y-22486441D01*
X125997259Y-22486441D02*
X126044878Y-22295965D01*
X126044878Y-22295965D02*
X126092497Y-22200727D01*
X126092497Y-22200727D02*
X126140116Y-22153108D01*
X126140116Y-22153108D02*
X126235354Y-22105489D01*
X126997259Y-23010250D02*
X127044878Y-23057870D01*
X127044878Y-23057870D02*
X126997259Y-23105489D01*
X126997259Y-23105489D02*
X126949640Y-23057870D01*
X126949640Y-23057870D02*
X126997259Y-23010250D01*
X126997259Y-23010250D02*
X126997259Y-23105489D01*
X127425830Y-22200727D02*
X127473449Y-22153108D01*
X127473449Y-22153108D02*
X127568687Y-22105489D01*
X127568687Y-22105489D02*
X127806782Y-22105489D01*
X127806782Y-22105489D02*
X127902020Y-22153108D01*
X127902020Y-22153108D02*
X127949639Y-22200727D01*
X127949639Y-22200727D02*
X127997258Y-22295965D01*
X127997258Y-22295965D02*
X127997258Y-22391203D01*
X127997258Y-22391203D02*
X127949639Y-22534060D01*
X127949639Y-22534060D02*
X127378211Y-23105489D01*
X127378211Y-23105489D02*
X127997258Y-23105489D01*
X129187735Y-23105489D02*
X129187735Y-22438822D01*
X129187735Y-22534060D02*
X129235354Y-22486441D01*
X129235354Y-22486441D02*
X129330592Y-22438822D01*
X129330592Y-22438822D02*
X129473449Y-22438822D01*
X129473449Y-22438822D02*
X129568687Y-22486441D01*
X129568687Y-22486441D02*
X129616306Y-22581679D01*
X129616306Y-22581679D02*
X129616306Y-23105489D01*
X129616306Y-22581679D02*
X129663925Y-22486441D01*
X129663925Y-22486441D02*
X129759163Y-22438822D01*
X129759163Y-22438822D02*
X129902020Y-22438822D01*
X129902020Y-22438822D02*
X129997259Y-22486441D01*
X129997259Y-22486441D02*
X130044878Y-22581679D01*
X130044878Y-22581679D02*
X130044878Y-23105489D01*
X130521068Y-23105489D02*
X130521068Y-22438822D01*
X130521068Y-22534060D02*
X130568687Y-22486441D01*
X130568687Y-22486441D02*
X130663925Y-22438822D01*
X130663925Y-22438822D02*
X130806782Y-22438822D01*
X130806782Y-22438822D02*
X130902020Y-22486441D01*
X130902020Y-22486441D02*
X130949639Y-22581679D01*
X130949639Y-22581679D02*
X130949639Y-23105489D01*
X130949639Y-22581679D02*
X130997258Y-22486441D01*
X130997258Y-22486441D02*
X131092496Y-22438822D01*
X131092496Y-22438822D02*
X131235353Y-22438822D01*
X131235353Y-22438822D02*
X131330592Y-22486441D01*
X131330592Y-22486441D02*
X131378211Y-22581679D01*
X131378211Y-22581679D02*
X131378211Y-23105489D01*
X97092493Y-24715433D02*
X96759160Y-24239242D01*
X96521065Y-24715433D02*
X96521065Y-23715433D01*
X96521065Y-23715433D02*
X96902017Y-23715433D01*
X96902017Y-23715433D02*
X96997255Y-23763052D01*
X96997255Y-23763052D02*
X97044874Y-23810671D01*
X97044874Y-23810671D02*
X97092493Y-23905909D01*
X97092493Y-23905909D02*
X97092493Y-24048766D01*
X97092493Y-24048766D02*
X97044874Y-24144004D01*
X97044874Y-24144004D02*
X96997255Y-24191623D01*
X96997255Y-24191623D02*
X96902017Y-24239242D01*
X96902017Y-24239242D02*
X96521065Y-24239242D01*
X97902017Y-24667814D02*
X97806779Y-24715433D01*
X97806779Y-24715433D02*
X97616303Y-24715433D01*
X97616303Y-24715433D02*
X97521065Y-24667814D01*
X97521065Y-24667814D02*
X97473446Y-24572575D01*
X97473446Y-24572575D02*
X97473446Y-24191623D01*
X97473446Y-24191623D02*
X97521065Y-24096385D01*
X97521065Y-24096385D02*
X97616303Y-24048766D01*
X97616303Y-24048766D02*
X97806779Y-24048766D01*
X97806779Y-24048766D02*
X97902017Y-24096385D01*
X97902017Y-24096385D02*
X97949636Y-24191623D01*
X97949636Y-24191623D02*
X97949636Y-24286861D01*
X97949636Y-24286861D02*
X97473446Y-24382099D01*
X98806779Y-24048766D02*
X98806779Y-25048766D01*
X98806779Y-24667814D02*
X98711541Y-24715433D01*
X98711541Y-24715433D02*
X98521065Y-24715433D01*
X98521065Y-24715433D02*
X98425827Y-24667814D01*
X98425827Y-24667814D02*
X98378208Y-24620194D01*
X98378208Y-24620194D02*
X98330589Y-24524956D01*
X98330589Y-24524956D02*
X98330589Y-24239242D01*
X98330589Y-24239242D02*
X98378208Y-24144004D01*
X98378208Y-24144004D02*
X98425827Y-24096385D01*
X98425827Y-24096385D02*
X98521065Y-24048766D01*
X98521065Y-24048766D02*
X98711541Y-24048766D01*
X98711541Y-24048766D02*
X98806779Y-24096385D01*
X99711541Y-24048766D02*
X99711541Y-24715433D01*
X99282970Y-24048766D02*
X99282970Y-24572575D01*
X99282970Y-24572575D02*
X99330589Y-24667814D01*
X99330589Y-24667814D02*
X99425827Y-24715433D01*
X99425827Y-24715433D02*
X99568684Y-24715433D01*
X99568684Y-24715433D02*
X99663922Y-24667814D01*
X99663922Y-24667814D02*
X99711541Y-24620194D01*
X100187732Y-24715433D02*
X100187732Y-24048766D01*
X100187732Y-23715433D02*
X100140113Y-23763052D01*
X100140113Y-23763052D02*
X100187732Y-23810671D01*
X100187732Y-23810671D02*
X100235351Y-23763052D01*
X100235351Y-23763052D02*
X100187732Y-23715433D01*
X100187732Y-23715433D02*
X100187732Y-23810671D01*
X100663922Y-24715433D02*
X100663922Y-24048766D01*
X100663922Y-24239242D02*
X100711541Y-24144004D01*
X100711541Y-24144004D02*
X100759160Y-24096385D01*
X100759160Y-24096385D02*
X100854398Y-24048766D01*
X100854398Y-24048766D02*
X100949636Y-24048766D01*
X101663922Y-24667814D02*
X101568684Y-24715433D01*
X101568684Y-24715433D02*
X101378208Y-24715433D01*
X101378208Y-24715433D02*
X101282970Y-24667814D01*
X101282970Y-24667814D02*
X101235351Y-24572575D01*
X101235351Y-24572575D02*
X101235351Y-24191623D01*
X101235351Y-24191623D02*
X101282970Y-24096385D01*
X101282970Y-24096385D02*
X101378208Y-24048766D01*
X101378208Y-24048766D02*
X101568684Y-24048766D01*
X101568684Y-24048766D02*
X101663922Y-24096385D01*
X101663922Y-24096385D02*
X101711541Y-24191623D01*
X101711541Y-24191623D02*
X101711541Y-24286861D01*
X101711541Y-24286861D02*
X101235351Y-24382099D01*
X102568684Y-24715433D02*
X102568684Y-23715433D01*
X102568684Y-24667814D02*
X102473446Y-24715433D01*
X102473446Y-24715433D02*
X102282970Y-24715433D01*
X102282970Y-24715433D02*
X102187732Y-24667814D01*
X102187732Y-24667814D02*
X102140113Y-24620194D01*
X102140113Y-24620194D02*
X102092494Y-24524956D01*
X102092494Y-24524956D02*
X102092494Y-24239242D01*
X102092494Y-24239242D02*
X102140113Y-24144004D01*
X102140113Y-24144004D02*
X102187732Y-24096385D01*
X102187732Y-24096385D02*
X102282970Y-24048766D01*
X102282970Y-24048766D02*
X102473446Y-24048766D01*
X102473446Y-24048766D02*
X102568684Y-24096385D01*
X103663923Y-24048766D02*
X104044875Y-24048766D01*
X103806780Y-24715433D02*
X103806780Y-23858290D01*
X103806780Y-23858290D02*
X103854399Y-23763052D01*
X103854399Y-23763052D02*
X103949637Y-23715433D01*
X103949637Y-23715433D02*
X104044875Y-23715433D01*
X104378209Y-24715433D02*
X104378209Y-24048766D01*
X104378209Y-23715433D02*
X104330590Y-23763052D01*
X104330590Y-23763052D02*
X104378209Y-23810671D01*
X104378209Y-23810671D02*
X104425828Y-23763052D01*
X104425828Y-23763052D02*
X104378209Y-23715433D01*
X104378209Y-23715433D02*
X104378209Y-23810671D01*
X104854399Y-24048766D02*
X104854399Y-24715433D01*
X104854399Y-24144004D02*
X104902018Y-24096385D01*
X104902018Y-24096385D02*
X104997256Y-24048766D01*
X104997256Y-24048766D02*
X105140113Y-24048766D01*
X105140113Y-24048766D02*
X105235351Y-24096385D01*
X105235351Y-24096385D02*
X105282970Y-24191623D01*
X105282970Y-24191623D02*
X105282970Y-24715433D01*
X106187732Y-24715433D02*
X106187732Y-24191623D01*
X106187732Y-24191623D02*
X106140113Y-24096385D01*
X106140113Y-24096385D02*
X106044875Y-24048766D01*
X106044875Y-24048766D02*
X105854399Y-24048766D01*
X105854399Y-24048766D02*
X105759161Y-24096385D01*
X106187732Y-24667814D02*
X106092494Y-24715433D01*
X106092494Y-24715433D02*
X105854399Y-24715433D01*
X105854399Y-24715433D02*
X105759161Y-24667814D01*
X105759161Y-24667814D02*
X105711542Y-24572575D01*
X105711542Y-24572575D02*
X105711542Y-24477337D01*
X105711542Y-24477337D02*
X105759161Y-24382099D01*
X105759161Y-24382099D02*
X105854399Y-24334480D01*
X105854399Y-24334480D02*
X106092494Y-24334480D01*
X106092494Y-24334480D02*
X106187732Y-24286861D01*
X106806780Y-24715433D02*
X106711542Y-24667814D01*
X106711542Y-24667814D02*
X106663923Y-24572575D01*
X106663923Y-24572575D02*
X106663923Y-23715433D01*
X107949638Y-24715433D02*
X107949638Y-24048766D01*
X107949638Y-23715433D02*
X107902019Y-23763052D01*
X107902019Y-23763052D02*
X107949638Y-23810671D01*
X107949638Y-23810671D02*
X107997257Y-23763052D01*
X107997257Y-23763052D02*
X107949638Y-23715433D01*
X107949638Y-23715433D02*
X107949638Y-23810671D01*
X108425828Y-24048766D02*
X108425828Y-24715433D01*
X108425828Y-24144004D02*
X108473447Y-24096385D01*
X108473447Y-24096385D02*
X108568685Y-24048766D01*
X108568685Y-24048766D02*
X108711542Y-24048766D01*
X108711542Y-24048766D02*
X108806780Y-24096385D01*
X108806780Y-24096385D02*
X108854399Y-24191623D01*
X108854399Y-24191623D02*
X108854399Y-24715433D01*
X109282971Y-24667814D02*
X109378209Y-24715433D01*
X109378209Y-24715433D02*
X109568685Y-24715433D01*
X109568685Y-24715433D02*
X109663923Y-24667814D01*
X109663923Y-24667814D02*
X109711542Y-24572575D01*
X109711542Y-24572575D02*
X109711542Y-24524956D01*
X109711542Y-24524956D02*
X109663923Y-24429718D01*
X109663923Y-24429718D02*
X109568685Y-24382099D01*
X109568685Y-24382099D02*
X109425828Y-24382099D01*
X109425828Y-24382099D02*
X109330590Y-24334480D01*
X109330590Y-24334480D02*
X109282971Y-24239242D01*
X109282971Y-24239242D02*
X109282971Y-24191623D01*
X109282971Y-24191623D02*
X109330590Y-24096385D01*
X109330590Y-24096385D02*
X109425828Y-24048766D01*
X109425828Y-24048766D02*
X109568685Y-24048766D01*
X109568685Y-24048766D02*
X109663923Y-24096385D01*
X110521066Y-24667814D02*
X110425828Y-24715433D01*
X110425828Y-24715433D02*
X110235352Y-24715433D01*
X110235352Y-24715433D02*
X110140114Y-24667814D01*
X110140114Y-24667814D02*
X110092495Y-24572575D01*
X110092495Y-24572575D02*
X110092495Y-24191623D01*
X110092495Y-24191623D02*
X110140114Y-24096385D01*
X110140114Y-24096385D02*
X110235352Y-24048766D01*
X110235352Y-24048766D02*
X110425828Y-24048766D01*
X110425828Y-24048766D02*
X110521066Y-24096385D01*
X110521066Y-24096385D02*
X110568685Y-24191623D01*
X110568685Y-24191623D02*
X110568685Y-24286861D01*
X110568685Y-24286861D02*
X110092495Y-24382099D01*
X110997257Y-24715433D02*
X110997257Y-24048766D01*
X110997257Y-24239242D02*
X111044876Y-24144004D01*
X111044876Y-24144004D02*
X111092495Y-24096385D01*
X111092495Y-24096385D02*
X111187733Y-24048766D01*
X111187733Y-24048766D02*
X111282971Y-24048766D01*
X111473448Y-24048766D02*
X111854400Y-24048766D01*
X111616305Y-23715433D02*
X111616305Y-24572575D01*
X111616305Y-24572575D02*
X111663924Y-24667814D01*
X111663924Y-24667814D02*
X111759162Y-24715433D01*
X111759162Y-24715433D02*
X111854400Y-24715433D01*
X112187734Y-24715433D02*
X112187734Y-24048766D01*
X112187734Y-23715433D02*
X112140115Y-23763052D01*
X112140115Y-23763052D02*
X112187734Y-23810671D01*
X112187734Y-23810671D02*
X112235353Y-23763052D01*
X112235353Y-23763052D02*
X112187734Y-23715433D01*
X112187734Y-23715433D02*
X112187734Y-23810671D01*
X112806781Y-24715433D02*
X112711543Y-24667814D01*
X112711543Y-24667814D02*
X112663924Y-24620194D01*
X112663924Y-24620194D02*
X112616305Y-24524956D01*
X112616305Y-24524956D02*
X112616305Y-24239242D01*
X112616305Y-24239242D02*
X112663924Y-24144004D01*
X112663924Y-24144004D02*
X112711543Y-24096385D01*
X112711543Y-24096385D02*
X112806781Y-24048766D01*
X112806781Y-24048766D02*
X112949638Y-24048766D01*
X112949638Y-24048766D02*
X113044876Y-24096385D01*
X113044876Y-24096385D02*
X113092495Y-24144004D01*
X113092495Y-24144004D02*
X113140114Y-24239242D01*
X113140114Y-24239242D02*
X113140114Y-24524956D01*
X113140114Y-24524956D02*
X113092495Y-24620194D01*
X113092495Y-24620194D02*
X113044876Y-24667814D01*
X113044876Y-24667814D02*
X112949638Y-24715433D01*
X112949638Y-24715433D02*
X112806781Y-24715433D01*
X113568686Y-24048766D02*
X113568686Y-24715433D01*
X113568686Y-24144004D02*
X113616305Y-24096385D01*
X113616305Y-24096385D02*
X113711543Y-24048766D01*
X113711543Y-24048766D02*
X113854400Y-24048766D01*
X113854400Y-24048766D02*
X113949638Y-24096385D01*
X113949638Y-24096385D02*
X113997257Y-24191623D01*
X113997257Y-24191623D02*
X113997257Y-24715433D01*
X115092496Y-24048766D02*
X115473448Y-24048766D01*
X115235353Y-23715433D02*
X115235353Y-24572575D01*
X115235353Y-24572575D02*
X115282972Y-24667814D01*
X115282972Y-24667814D02*
X115378210Y-24715433D01*
X115378210Y-24715433D02*
X115473448Y-24715433D01*
X115806782Y-24715433D02*
X115806782Y-23715433D01*
X116235353Y-24715433D02*
X116235353Y-24191623D01*
X116235353Y-24191623D02*
X116187734Y-24096385D01*
X116187734Y-24096385D02*
X116092496Y-24048766D01*
X116092496Y-24048766D02*
X115949639Y-24048766D01*
X115949639Y-24048766D02*
X115854401Y-24096385D01*
X115854401Y-24096385D02*
X115806782Y-24144004D01*
X116711544Y-24715433D02*
X116711544Y-24048766D01*
X116711544Y-23715433D02*
X116663925Y-23763052D01*
X116663925Y-23763052D02*
X116711544Y-23810671D01*
X116711544Y-23810671D02*
X116759163Y-23763052D01*
X116759163Y-23763052D02*
X116711544Y-23715433D01*
X116711544Y-23715433D02*
X116711544Y-23810671D01*
X117616305Y-24667814D02*
X117521067Y-24715433D01*
X117521067Y-24715433D02*
X117330591Y-24715433D01*
X117330591Y-24715433D02*
X117235353Y-24667814D01*
X117235353Y-24667814D02*
X117187734Y-24620194D01*
X117187734Y-24620194D02*
X117140115Y-24524956D01*
X117140115Y-24524956D02*
X117140115Y-24239242D01*
X117140115Y-24239242D02*
X117187734Y-24144004D01*
X117187734Y-24144004D02*
X117235353Y-24096385D01*
X117235353Y-24096385D02*
X117330591Y-24048766D01*
X117330591Y-24048766D02*
X117521067Y-24048766D01*
X117521067Y-24048766D02*
X117616305Y-24096385D01*
X118044877Y-24715433D02*
X118044877Y-23715433D01*
X118140115Y-24334480D02*
X118425829Y-24715433D01*
X118425829Y-24048766D02*
X118044877Y-24429718D01*
X118854401Y-24048766D02*
X118854401Y-24715433D01*
X118854401Y-24144004D02*
X118902020Y-24096385D01*
X118902020Y-24096385D02*
X118997258Y-24048766D01*
X118997258Y-24048766D02*
X119140115Y-24048766D01*
X119140115Y-24048766D02*
X119235353Y-24096385D01*
X119235353Y-24096385D02*
X119282972Y-24191623D01*
X119282972Y-24191623D02*
X119282972Y-24715433D01*
X120140115Y-24667814D02*
X120044877Y-24715433D01*
X120044877Y-24715433D02*
X119854401Y-24715433D01*
X119854401Y-24715433D02*
X119759163Y-24667814D01*
X119759163Y-24667814D02*
X119711544Y-24572575D01*
X119711544Y-24572575D02*
X119711544Y-24191623D01*
X119711544Y-24191623D02*
X119759163Y-24096385D01*
X119759163Y-24096385D02*
X119854401Y-24048766D01*
X119854401Y-24048766D02*
X120044877Y-24048766D01*
X120044877Y-24048766D02*
X120140115Y-24096385D01*
X120140115Y-24096385D02*
X120187734Y-24191623D01*
X120187734Y-24191623D02*
X120187734Y-24286861D01*
X120187734Y-24286861D02*
X119711544Y-24382099D01*
X120568687Y-24667814D02*
X120663925Y-24715433D01*
X120663925Y-24715433D02*
X120854401Y-24715433D01*
X120854401Y-24715433D02*
X120949639Y-24667814D01*
X120949639Y-24667814D02*
X120997258Y-24572575D01*
X120997258Y-24572575D02*
X120997258Y-24524956D01*
X120997258Y-24524956D02*
X120949639Y-24429718D01*
X120949639Y-24429718D02*
X120854401Y-24382099D01*
X120854401Y-24382099D02*
X120711544Y-24382099D01*
X120711544Y-24382099D02*
X120616306Y-24334480D01*
X120616306Y-24334480D02*
X120568687Y-24239242D01*
X120568687Y-24239242D02*
X120568687Y-24191623D01*
X120568687Y-24191623D02*
X120616306Y-24096385D01*
X120616306Y-24096385D02*
X120711544Y-24048766D01*
X120711544Y-24048766D02*
X120854401Y-24048766D01*
X120854401Y-24048766D02*
X120949639Y-24096385D01*
X121378211Y-24667814D02*
X121473449Y-24715433D01*
X121473449Y-24715433D02*
X121663925Y-24715433D01*
X121663925Y-24715433D02*
X121759163Y-24667814D01*
X121759163Y-24667814D02*
X121806782Y-24572575D01*
X121806782Y-24572575D02*
X121806782Y-24524956D01*
X121806782Y-24524956D02*
X121759163Y-24429718D01*
X121759163Y-24429718D02*
X121663925Y-24382099D01*
X121663925Y-24382099D02*
X121521068Y-24382099D01*
X121521068Y-24382099D02*
X121425830Y-24334480D01*
X121425830Y-24334480D02*
X121378211Y-24239242D01*
X121378211Y-24239242D02*
X121378211Y-24191623D01*
X121378211Y-24191623D02*
X121425830Y-24096385D01*
X121425830Y-24096385D02*
X121521068Y-24048766D01*
X121521068Y-24048766D02*
X121663925Y-24048766D01*
X121663925Y-24048766D02*
X121759163Y-24096385D01*
X122235354Y-24620194D02*
X122282973Y-24667814D01*
X122282973Y-24667814D02*
X122235354Y-24715433D01*
X122235354Y-24715433D02*
X122187735Y-24667814D01*
X122187735Y-24667814D02*
X122235354Y-24620194D01*
X122235354Y-24620194D02*
X122235354Y-24715433D01*
X122235354Y-24096385D02*
X122282973Y-24144004D01*
X122282973Y-24144004D02*
X122235354Y-24191623D01*
X122235354Y-24191623D02*
X122187735Y-24144004D01*
X122187735Y-24144004D02*
X122235354Y-24096385D01*
X122235354Y-24096385D02*
X122235354Y-24191623D01*
X123663925Y-23715433D02*
X123759163Y-23715433D01*
X123759163Y-23715433D02*
X123854401Y-23763052D01*
X123854401Y-23763052D02*
X123902020Y-23810671D01*
X123902020Y-23810671D02*
X123949639Y-23905909D01*
X123949639Y-23905909D02*
X123997258Y-24096385D01*
X123997258Y-24096385D02*
X123997258Y-24334480D01*
X123997258Y-24334480D02*
X123949639Y-24524956D01*
X123949639Y-24524956D02*
X123902020Y-24620194D01*
X123902020Y-24620194D02*
X123854401Y-24667814D01*
X123854401Y-24667814D02*
X123759163Y-24715433D01*
X123759163Y-24715433D02*
X123663925Y-24715433D01*
X123663925Y-24715433D02*
X123568687Y-24667814D01*
X123568687Y-24667814D02*
X123521068Y-24620194D01*
X123521068Y-24620194D02*
X123473449Y-24524956D01*
X123473449Y-24524956D02*
X123425830Y-24334480D01*
X123425830Y-24334480D02*
X123425830Y-24096385D01*
X123425830Y-24096385D02*
X123473449Y-23905909D01*
X123473449Y-23905909D02*
X123521068Y-23810671D01*
X123521068Y-23810671D02*
X123568687Y-23763052D01*
X123568687Y-23763052D02*
X123663925Y-23715433D01*
X124425830Y-24620194D02*
X124473449Y-24667814D01*
X124473449Y-24667814D02*
X124425830Y-24715433D01*
X124425830Y-24715433D02*
X124378211Y-24667814D01*
X124378211Y-24667814D02*
X124425830Y-24620194D01*
X124425830Y-24620194D02*
X124425830Y-24715433D01*
X124806782Y-23715433D02*
X125425829Y-23715433D01*
X125425829Y-23715433D02*
X125092496Y-24096385D01*
X125092496Y-24096385D02*
X125235353Y-24096385D01*
X125235353Y-24096385D02*
X125330591Y-24144004D01*
X125330591Y-24144004D02*
X125378210Y-24191623D01*
X125378210Y-24191623D02*
X125425829Y-24286861D01*
X125425829Y-24286861D02*
X125425829Y-24524956D01*
X125425829Y-24524956D02*
X125378210Y-24620194D01*
X125378210Y-24620194D02*
X125330591Y-24667814D01*
X125330591Y-24667814D02*
X125235353Y-24715433D01*
X125235353Y-24715433D02*
X124949639Y-24715433D01*
X124949639Y-24715433D02*
X124854401Y-24667814D01*
X124854401Y-24667814D02*
X124806782Y-24620194D01*
X126044877Y-23715433D02*
X126140115Y-23715433D01*
X126140115Y-23715433D02*
X126235353Y-23763052D01*
X126235353Y-23763052D02*
X126282972Y-23810671D01*
X126282972Y-23810671D02*
X126330591Y-23905909D01*
X126330591Y-23905909D02*
X126378210Y-24096385D01*
X126378210Y-24096385D02*
X126378210Y-24334480D01*
X126378210Y-24334480D02*
X126330591Y-24524956D01*
X126330591Y-24524956D02*
X126282972Y-24620194D01*
X126282972Y-24620194D02*
X126235353Y-24667814D01*
X126235353Y-24667814D02*
X126140115Y-24715433D01*
X126140115Y-24715433D02*
X126044877Y-24715433D01*
X126044877Y-24715433D02*
X125949639Y-24667814D01*
X125949639Y-24667814D02*
X125902020Y-24620194D01*
X125902020Y-24620194D02*
X125854401Y-24524956D01*
X125854401Y-24524956D02*
X125806782Y-24334480D01*
X125806782Y-24334480D02*
X125806782Y-24096385D01*
X125806782Y-24096385D02*
X125854401Y-23905909D01*
X125854401Y-23905909D02*
X125902020Y-23810671D01*
X125902020Y-23810671D02*
X125949639Y-23763052D01*
X125949639Y-23763052D02*
X126044877Y-23715433D01*
X127568687Y-24144004D02*
X128330592Y-24144004D01*
X127949639Y-24524956D02*
X127949639Y-23763052D01*
X128330592Y-24715433D02*
X127568687Y-24715433D01*
X129759163Y-23715433D02*
X129854401Y-23715433D01*
X129854401Y-23715433D02*
X129949639Y-23763052D01*
X129949639Y-23763052D02*
X129997258Y-23810671D01*
X129997258Y-23810671D02*
X130044877Y-23905909D01*
X130044877Y-23905909D02*
X130092496Y-24096385D01*
X130092496Y-24096385D02*
X130092496Y-24334480D01*
X130092496Y-24334480D02*
X130044877Y-24524956D01*
X130044877Y-24524956D02*
X129997258Y-24620194D01*
X129997258Y-24620194D02*
X129949639Y-24667814D01*
X129949639Y-24667814D02*
X129854401Y-24715433D01*
X129854401Y-24715433D02*
X129759163Y-24715433D01*
X129759163Y-24715433D02*
X129663925Y-24667814D01*
X129663925Y-24667814D02*
X129616306Y-24620194D01*
X129616306Y-24620194D02*
X129568687Y-24524956D01*
X129568687Y-24524956D02*
X129521068Y-24334480D01*
X129521068Y-24334480D02*
X129521068Y-24096385D01*
X129521068Y-24096385D02*
X129568687Y-23905909D01*
X129568687Y-23905909D02*
X129616306Y-23810671D01*
X129616306Y-23810671D02*
X129663925Y-23763052D01*
X129663925Y-23763052D02*
X129759163Y-23715433D01*
X130521068Y-24620194D02*
X130568687Y-24667814D01*
X130568687Y-24667814D02*
X130521068Y-24715433D01*
X130521068Y-24715433D02*
X130473449Y-24667814D01*
X130473449Y-24667814D02*
X130521068Y-24620194D01*
X130521068Y-24620194D02*
X130521068Y-24715433D01*
X131187734Y-23715433D02*
X131282972Y-23715433D01*
X131282972Y-23715433D02*
X131378210Y-23763052D01*
X131378210Y-23763052D02*
X131425829Y-23810671D01*
X131425829Y-23810671D02*
X131473448Y-23905909D01*
X131473448Y-23905909D02*
X131521067Y-24096385D01*
X131521067Y-24096385D02*
X131521067Y-24334480D01*
X131521067Y-24334480D02*
X131473448Y-24524956D01*
X131473448Y-24524956D02*
X131425829Y-24620194D01*
X131425829Y-24620194D02*
X131378210Y-24667814D01*
X131378210Y-24667814D02*
X131282972Y-24715433D01*
X131282972Y-24715433D02*
X131187734Y-24715433D01*
X131187734Y-24715433D02*
X131092496Y-24667814D01*
X131092496Y-24667814D02*
X131044877Y-24620194D01*
X131044877Y-24620194D02*
X130997258Y-24524956D01*
X130997258Y-24524956D02*
X130949639Y-24334480D01*
X130949639Y-24334480D02*
X130949639Y-24096385D01*
X130949639Y-24096385D02*
X130997258Y-23905909D01*
X130997258Y-23905909D02*
X131044877Y-23810671D01*
X131044877Y-23810671D02*
X131092496Y-23763052D01*
X131092496Y-23763052D02*
X131187734Y-23715433D01*
X132473448Y-24715433D02*
X131902020Y-24715433D01*
X132187734Y-24715433D02*
X132187734Y-23715433D01*
X132187734Y-23715433D02*
X132092496Y-23858290D01*
X132092496Y-23858290D02*
X131997258Y-23953528D01*
X131997258Y-23953528D02*
X131902020Y-24001147D01*
X133663925Y-24715433D02*
X133663925Y-24048766D01*
X133663925Y-24144004D02*
X133711544Y-24096385D01*
X133711544Y-24096385D02*
X133806782Y-24048766D01*
X133806782Y-24048766D02*
X133949639Y-24048766D01*
X133949639Y-24048766D02*
X134044877Y-24096385D01*
X134044877Y-24096385D02*
X134092496Y-24191623D01*
X134092496Y-24191623D02*
X134092496Y-24715433D01*
X134092496Y-24191623D02*
X134140115Y-24096385D01*
X134140115Y-24096385D02*
X134235353Y-24048766D01*
X134235353Y-24048766D02*
X134378210Y-24048766D01*
X134378210Y-24048766D02*
X134473449Y-24096385D01*
X134473449Y-24096385D02*
X134521068Y-24191623D01*
X134521068Y-24191623D02*
X134521068Y-24715433D01*
X134997258Y-24715433D02*
X134997258Y-24048766D01*
X134997258Y-24144004D02*
X135044877Y-24096385D01*
X135044877Y-24096385D02*
X135140115Y-24048766D01*
X135140115Y-24048766D02*
X135282972Y-24048766D01*
X135282972Y-24048766D02*
X135378210Y-24096385D01*
X135378210Y-24096385D02*
X135425829Y-24191623D01*
X135425829Y-24191623D02*
X135425829Y-24715433D01*
X135425829Y-24191623D02*
X135473448Y-24096385D01*
X135473448Y-24096385D02*
X135568686Y-24048766D01*
X135568686Y-24048766D02*
X135711543Y-24048766D01*
X135711543Y-24048766D02*
X135806782Y-24096385D01*
X135806782Y-24096385D02*
X135854401Y-24191623D01*
X135854401Y-24191623D02*
X135854401Y-24715433D01*
X96854398Y-25801567D02*
X96997255Y-25849186D01*
X96997255Y-25849186D02*
X97044874Y-25896805D01*
X97044874Y-25896805D02*
X97092493Y-25992043D01*
X97092493Y-25992043D02*
X97092493Y-26134900D01*
X97092493Y-26134900D02*
X97044874Y-26230138D01*
X97044874Y-26230138D02*
X96997255Y-26277758D01*
X96997255Y-26277758D02*
X96902017Y-26325377D01*
X96902017Y-26325377D02*
X96521065Y-26325377D01*
X96521065Y-26325377D02*
X96521065Y-25325377D01*
X96521065Y-25325377D02*
X96854398Y-25325377D01*
X96854398Y-25325377D02*
X96949636Y-25372996D01*
X96949636Y-25372996D02*
X96997255Y-25420615D01*
X96997255Y-25420615D02*
X97044874Y-25515853D01*
X97044874Y-25515853D02*
X97044874Y-25611091D01*
X97044874Y-25611091D02*
X96997255Y-25706329D01*
X96997255Y-25706329D02*
X96949636Y-25753948D01*
X96949636Y-25753948D02*
X96854398Y-25801567D01*
X96854398Y-25801567D02*
X96521065Y-25801567D01*
X97711541Y-25325377D02*
X97902017Y-25325377D01*
X97902017Y-25325377D02*
X97997255Y-25372996D01*
X97997255Y-25372996D02*
X98092493Y-25468234D01*
X98092493Y-25468234D02*
X98140112Y-25658710D01*
X98140112Y-25658710D02*
X98140112Y-25992043D01*
X98140112Y-25992043D02*
X98092493Y-26182519D01*
X98092493Y-26182519D02*
X97997255Y-26277758D01*
X97997255Y-26277758D02*
X97902017Y-26325377D01*
X97902017Y-26325377D02*
X97711541Y-26325377D01*
X97711541Y-26325377D02*
X97616303Y-26277758D01*
X97616303Y-26277758D02*
X97521065Y-26182519D01*
X97521065Y-26182519D02*
X97473446Y-25992043D01*
X97473446Y-25992043D02*
X97473446Y-25658710D01*
X97473446Y-25658710D02*
X97521065Y-25468234D01*
X97521065Y-25468234D02*
X97616303Y-25372996D01*
X97616303Y-25372996D02*
X97711541Y-25325377D01*
X98425827Y-25325377D02*
X98997255Y-25325377D01*
X98711541Y-26325377D02*
X98711541Y-25325377D01*
X99187732Y-25325377D02*
X99759160Y-25325377D01*
X99473446Y-26325377D02*
X99473446Y-25325377D01*
X100282970Y-25325377D02*
X100473446Y-25325377D01*
X100473446Y-25325377D02*
X100568684Y-25372996D01*
X100568684Y-25372996D02*
X100663922Y-25468234D01*
X100663922Y-25468234D02*
X100711541Y-25658710D01*
X100711541Y-25658710D02*
X100711541Y-25992043D01*
X100711541Y-25992043D02*
X100663922Y-26182519D01*
X100663922Y-26182519D02*
X100568684Y-26277758D01*
X100568684Y-26277758D02*
X100473446Y-26325377D01*
X100473446Y-26325377D02*
X100282970Y-26325377D01*
X100282970Y-26325377D02*
X100187732Y-26277758D01*
X100187732Y-26277758D02*
X100092494Y-26182519D01*
X100092494Y-26182519D02*
X100044875Y-25992043D01*
X100044875Y-25992043D02*
X100044875Y-25658710D01*
X100044875Y-25658710D02*
X100092494Y-25468234D01*
X100092494Y-25468234D02*
X100187732Y-25372996D01*
X100187732Y-25372996D02*
X100282970Y-25325377D01*
X101140113Y-26325377D02*
X101140113Y-25325377D01*
X101140113Y-25325377D02*
X101473446Y-26039662D01*
X101473446Y-26039662D02*
X101806779Y-25325377D01*
X101806779Y-25325377D02*
X101806779Y-26325377D01*
X102997256Y-26277758D02*
X103140113Y-26325377D01*
X103140113Y-26325377D02*
X103378208Y-26325377D01*
X103378208Y-26325377D02*
X103473446Y-26277758D01*
X103473446Y-26277758D02*
X103521065Y-26230138D01*
X103521065Y-26230138D02*
X103568684Y-26134900D01*
X103568684Y-26134900D02*
X103568684Y-26039662D01*
X103568684Y-26039662D02*
X103521065Y-25944424D01*
X103521065Y-25944424D02*
X103473446Y-25896805D01*
X103473446Y-25896805D02*
X103378208Y-25849186D01*
X103378208Y-25849186D02*
X103187732Y-25801567D01*
X103187732Y-25801567D02*
X103092494Y-25753948D01*
X103092494Y-25753948D02*
X103044875Y-25706329D01*
X103044875Y-25706329D02*
X102997256Y-25611091D01*
X102997256Y-25611091D02*
X102997256Y-25515853D01*
X102997256Y-25515853D02*
X103044875Y-25420615D01*
X103044875Y-25420615D02*
X103092494Y-25372996D01*
X103092494Y-25372996D02*
X103187732Y-25325377D01*
X103187732Y-25325377D02*
X103425827Y-25325377D01*
X103425827Y-25325377D02*
X103568684Y-25372996D01*
X103997256Y-26325377D02*
X103997256Y-25325377D01*
X104473446Y-26325377D02*
X104473446Y-25325377D01*
X104473446Y-25325377D02*
X104711541Y-25325377D01*
X104711541Y-25325377D02*
X104854398Y-25372996D01*
X104854398Y-25372996D02*
X104949636Y-25468234D01*
X104949636Y-25468234D02*
X104997255Y-25563472D01*
X104997255Y-25563472D02*
X105044874Y-25753948D01*
X105044874Y-25753948D02*
X105044874Y-25896805D01*
X105044874Y-25896805D02*
X104997255Y-26087281D01*
X104997255Y-26087281D02*
X104949636Y-26182519D01*
X104949636Y-26182519D02*
X104854398Y-26277758D01*
X104854398Y-26277758D02*
X104711541Y-26325377D01*
X104711541Y-26325377D02*
X104473446Y-26325377D01*
X105473446Y-25801567D02*
X105806779Y-25801567D01*
X105949636Y-26325377D02*
X105473446Y-26325377D01*
X105473446Y-26325377D02*
X105473446Y-25325377D01*
X105473446Y-25325377D02*
X105949636Y-25325377D01*
D11*
X16353686Y-58988739D02*
X16353686Y-57988739D01*
X16353686Y-57988739D02*
X16734638Y-57988739D01*
X16734638Y-57988739D02*
X16829876Y-58036358D01*
X16829876Y-58036358D02*
X16877495Y-58083977D01*
X16877495Y-58083977D02*
X16925114Y-58179215D01*
X16925114Y-58179215D02*
X16925114Y-58322072D01*
X16925114Y-58322072D02*
X16877495Y-58417310D01*
X16877495Y-58417310D02*
X16829876Y-58464929D01*
X16829876Y-58464929D02*
X16734638Y-58512548D01*
X16734638Y-58512548D02*
X16353686Y-58512548D01*
X17353686Y-58988739D02*
X17353686Y-57988739D01*
X18544162Y-58941120D02*
X18687019Y-58988739D01*
X18687019Y-58988739D02*
X18925114Y-58988739D01*
X18925114Y-58988739D02*
X19020352Y-58941120D01*
X19020352Y-58941120D02*
X19067971Y-58893500D01*
X19067971Y-58893500D02*
X19115590Y-58798262D01*
X19115590Y-58798262D02*
X19115590Y-58703024D01*
X19115590Y-58703024D02*
X19067971Y-58607786D01*
X19067971Y-58607786D02*
X19020352Y-58560167D01*
X19020352Y-58560167D02*
X18925114Y-58512548D01*
X18925114Y-58512548D02*
X18734638Y-58464929D01*
X18734638Y-58464929D02*
X18639400Y-58417310D01*
X18639400Y-58417310D02*
X18591781Y-58369691D01*
X18591781Y-58369691D02*
X18544162Y-58274453D01*
X18544162Y-58274453D02*
X18544162Y-58179215D01*
X18544162Y-58179215D02*
X18591781Y-58083977D01*
X18591781Y-58083977D02*
X18639400Y-58036358D01*
X18639400Y-58036358D02*
X18734638Y-57988739D01*
X18734638Y-57988739D02*
X18972733Y-57988739D01*
X18972733Y-57988739D02*
X19115590Y-58036358D01*
X19401305Y-57988739D02*
X19972733Y-57988739D01*
X19687019Y-58988739D02*
X19687019Y-57988739D01*
X20306067Y-58988739D02*
X20306067Y-57988739D01*
X21115590Y-58464929D02*
X20782257Y-58464929D01*
X20782257Y-58988739D02*
X20782257Y-57988739D01*
X20782257Y-57988739D02*
X21258447Y-57988739D01*
X21972733Y-58464929D02*
X21639400Y-58464929D01*
X21639400Y-58988739D02*
X21639400Y-57988739D01*
X21639400Y-57988739D02*
X22115590Y-57988739D01*
X22496543Y-58464929D02*
X22829876Y-58464929D01*
X22972733Y-58988739D02*
X22496543Y-58988739D01*
X22496543Y-58988739D02*
X22496543Y-57988739D01*
X22496543Y-57988739D02*
X22972733Y-57988739D01*
X23401305Y-58988739D02*
X23401305Y-57988739D01*
X23401305Y-57988739D02*
X23972733Y-58988739D01*
X23972733Y-58988739D02*
X23972733Y-57988739D01*
X24448924Y-58464929D02*
X24782257Y-58464929D01*
X24925114Y-58988739D02*
X24448924Y-58988739D01*
X24448924Y-58988739D02*
X24448924Y-57988739D01*
X24448924Y-57988739D02*
X24925114Y-57988739D01*
X25925114Y-58988739D02*
X25591781Y-58512548D01*
X25353686Y-58988739D02*
X25353686Y-57988739D01*
X25353686Y-57988739D02*
X25734638Y-57988739D01*
X25734638Y-57988739D02*
X25829876Y-58036358D01*
X25829876Y-58036358D02*
X25877495Y-58083977D01*
X25877495Y-58083977D02*
X25925114Y-58179215D01*
X25925114Y-58179215D02*
X25925114Y-58322072D01*
X25925114Y-58322072D02*
X25877495Y-58417310D01*
X25877495Y-58417310D02*
X25829876Y-58464929D01*
X25829876Y-58464929D02*
X25734638Y-58512548D01*
X25734638Y-58512548D02*
X25353686Y-58512548D01*
X16306067Y-62161008D02*
X16448924Y-62208627D01*
X16448924Y-62208627D02*
X16687019Y-62208627D01*
X16687019Y-62208627D02*
X16782257Y-62161008D01*
X16782257Y-62161008D02*
X16829876Y-62113388D01*
X16829876Y-62113388D02*
X16877495Y-62018150D01*
X16877495Y-62018150D02*
X16877495Y-61922912D01*
X16877495Y-61922912D02*
X16829876Y-61827674D01*
X16829876Y-61827674D02*
X16782257Y-61780055D01*
X16782257Y-61780055D02*
X16687019Y-61732436D01*
X16687019Y-61732436D02*
X16496543Y-61684817D01*
X16496543Y-61684817D02*
X16401305Y-61637198D01*
X16401305Y-61637198D02*
X16353686Y-61589579D01*
X16353686Y-61589579D02*
X16306067Y-61494341D01*
X16306067Y-61494341D02*
X16306067Y-61399103D01*
X16306067Y-61399103D02*
X16353686Y-61303865D01*
X16353686Y-61303865D02*
X16401305Y-61256246D01*
X16401305Y-61256246D02*
X16496543Y-61208627D01*
X16496543Y-61208627D02*
X16734638Y-61208627D01*
X16734638Y-61208627D02*
X16877495Y-61256246D01*
X17306067Y-62208627D02*
X17306067Y-61208627D01*
X17687019Y-61208627D02*
X18353685Y-61208627D01*
X18353685Y-61208627D02*
X17687019Y-62208627D01*
X17687019Y-62208627D02*
X18353685Y-62208627D01*
X18734638Y-61684817D02*
X19067971Y-61684817D01*
X19210828Y-62208627D02*
X18734638Y-62208627D01*
X18734638Y-62208627D02*
X18734638Y-61208627D01*
X18734638Y-61208627D02*
X19210828Y-61208627D01*
X19639400Y-62113388D02*
X19687019Y-62161008D01*
X19687019Y-62161008D02*
X19639400Y-62208627D01*
X19639400Y-62208627D02*
X19591781Y-62161008D01*
X19591781Y-62161008D02*
X19639400Y-62113388D01*
X19639400Y-62113388D02*
X19639400Y-62208627D01*
X19639400Y-61589579D02*
X19687019Y-61637198D01*
X19687019Y-61637198D02*
X19639400Y-61684817D01*
X19639400Y-61684817D02*
X19591781Y-61637198D01*
X19591781Y-61637198D02*
X19639400Y-61589579D01*
X19639400Y-61589579D02*
X19639400Y-61684817D01*
X21020352Y-61637198D02*
X20925114Y-61589579D01*
X20925114Y-61589579D02*
X20877495Y-61541960D01*
X20877495Y-61541960D02*
X20829876Y-61446722D01*
X20829876Y-61446722D02*
X20829876Y-61399103D01*
X20829876Y-61399103D02*
X20877495Y-61303865D01*
X20877495Y-61303865D02*
X20925114Y-61256246D01*
X20925114Y-61256246D02*
X21020352Y-61208627D01*
X21020352Y-61208627D02*
X21210828Y-61208627D01*
X21210828Y-61208627D02*
X21306066Y-61256246D01*
X21306066Y-61256246D02*
X21353685Y-61303865D01*
X21353685Y-61303865D02*
X21401304Y-61399103D01*
X21401304Y-61399103D02*
X21401304Y-61446722D01*
X21401304Y-61446722D02*
X21353685Y-61541960D01*
X21353685Y-61541960D02*
X21306066Y-61589579D01*
X21306066Y-61589579D02*
X21210828Y-61637198D01*
X21210828Y-61637198D02*
X21020352Y-61637198D01*
X21020352Y-61637198D02*
X20925114Y-61684817D01*
X20925114Y-61684817D02*
X20877495Y-61732436D01*
X20877495Y-61732436D02*
X20829876Y-61827674D01*
X20829876Y-61827674D02*
X20829876Y-62018150D01*
X20829876Y-62018150D02*
X20877495Y-62113388D01*
X20877495Y-62113388D02*
X20925114Y-62161008D01*
X20925114Y-62161008D02*
X21020352Y-62208627D01*
X21020352Y-62208627D02*
X21210828Y-62208627D01*
X21210828Y-62208627D02*
X21306066Y-62161008D01*
X21306066Y-62161008D02*
X21353685Y-62113388D01*
X21353685Y-62113388D02*
X21401304Y-62018150D01*
X21401304Y-62018150D02*
X21401304Y-61827674D01*
X21401304Y-61827674D02*
X21353685Y-61732436D01*
X21353685Y-61732436D02*
X21306066Y-61684817D01*
X21306066Y-61684817D02*
X21210828Y-61637198D01*
X21829876Y-62113388D02*
X21877495Y-62161008D01*
X21877495Y-62161008D02*
X21829876Y-62208627D01*
X21829876Y-62208627D02*
X21782257Y-62161008D01*
X21782257Y-62161008D02*
X21829876Y-62113388D01*
X21829876Y-62113388D02*
X21829876Y-62208627D01*
X22782256Y-61208627D02*
X22306066Y-61208627D01*
X22306066Y-61208627D02*
X22258447Y-61684817D01*
X22258447Y-61684817D02*
X22306066Y-61637198D01*
X22306066Y-61637198D02*
X22401304Y-61589579D01*
X22401304Y-61589579D02*
X22639399Y-61589579D01*
X22639399Y-61589579D02*
X22734637Y-61637198D01*
X22734637Y-61637198D02*
X22782256Y-61684817D01*
X22782256Y-61684817D02*
X22829875Y-61780055D01*
X22829875Y-61780055D02*
X22829875Y-62018150D01*
X22829875Y-62018150D02*
X22782256Y-62113388D01*
X22782256Y-62113388D02*
X22734637Y-62161008D01*
X22734637Y-62161008D02*
X22639399Y-62208627D01*
X22639399Y-62208627D02*
X22401304Y-62208627D01*
X22401304Y-62208627D02*
X22306066Y-62161008D01*
X22306066Y-62161008D02*
X22258447Y-62113388D01*
X24115590Y-61541960D02*
X24687018Y-62113388D01*
X24687018Y-61541960D02*
X24115590Y-62113388D01*
X26448923Y-61208627D02*
X26258447Y-61208627D01*
X26258447Y-61208627D02*
X26163209Y-61256246D01*
X26163209Y-61256246D02*
X26115590Y-61303865D01*
X26115590Y-61303865D02*
X26020352Y-61446722D01*
X26020352Y-61446722D02*
X25972733Y-61637198D01*
X25972733Y-61637198D02*
X25972733Y-62018150D01*
X25972733Y-62018150D02*
X26020352Y-62113388D01*
X26020352Y-62113388D02*
X26067971Y-62161008D01*
X26067971Y-62161008D02*
X26163209Y-62208627D01*
X26163209Y-62208627D02*
X26353685Y-62208627D01*
X26353685Y-62208627D02*
X26448923Y-62161008D01*
X26448923Y-62161008D02*
X26496542Y-62113388D01*
X26496542Y-62113388D02*
X26544161Y-62018150D01*
X26544161Y-62018150D02*
X26544161Y-61780055D01*
X26544161Y-61780055D02*
X26496542Y-61684817D01*
X26496542Y-61684817D02*
X26448923Y-61637198D01*
X26448923Y-61637198D02*
X26353685Y-61589579D01*
X26353685Y-61589579D02*
X26163209Y-61589579D01*
X26163209Y-61589579D02*
X26067971Y-61637198D01*
X26067971Y-61637198D02*
X26020352Y-61684817D01*
X26020352Y-61684817D02*
X25972733Y-61780055D01*
X26972733Y-62113388D02*
X27020352Y-62161008D01*
X27020352Y-62161008D02*
X26972733Y-62208627D01*
X26972733Y-62208627D02*
X26925114Y-62161008D01*
X26925114Y-62161008D02*
X26972733Y-62113388D01*
X26972733Y-62113388D02*
X26972733Y-62208627D01*
X27639399Y-61208627D02*
X27734637Y-61208627D01*
X27734637Y-61208627D02*
X27829875Y-61256246D01*
X27829875Y-61256246D02*
X27877494Y-61303865D01*
X27877494Y-61303865D02*
X27925113Y-61399103D01*
X27925113Y-61399103D02*
X27972732Y-61589579D01*
X27972732Y-61589579D02*
X27972732Y-61827674D01*
X27972732Y-61827674D02*
X27925113Y-62018150D01*
X27925113Y-62018150D02*
X27877494Y-62113388D01*
X27877494Y-62113388D02*
X27829875Y-62161008D01*
X27829875Y-62161008D02*
X27734637Y-62208627D01*
X27734637Y-62208627D02*
X27639399Y-62208627D01*
X27639399Y-62208627D02*
X27544161Y-62161008D01*
X27544161Y-62161008D02*
X27496542Y-62113388D01*
X27496542Y-62113388D02*
X27448923Y-62018150D01*
X27448923Y-62018150D02*
X27401304Y-61827674D01*
X27401304Y-61827674D02*
X27401304Y-61589579D01*
X27401304Y-61589579D02*
X27448923Y-61399103D01*
X27448923Y-61399103D02*
X27496542Y-61303865D01*
X27496542Y-61303865D02*
X27544161Y-61256246D01*
X27544161Y-61256246D02*
X27639399Y-61208627D01*
X29163209Y-62208627D02*
X29163209Y-61541960D01*
X29163209Y-61637198D02*
X29210828Y-61589579D01*
X29210828Y-61589579D02*
X29306066Y-61541960D01*
X29306066Y-61541960D02*
X29448923Y-61541960D01*
X29448923Y-61541960D02*
X29544161Y-61589579D01*
X29544161Y-61589579D02*
X29591780Y-61684817D01*
X29591780Y-61684817D02*
X29591780Y-62208627D01*
X29591780Y-61684817D02*
X29639399Y-61589579D01*
X29639399Y-61589579D02*
X29734637Y-61541960D01*
X29734637Y-61541960D02*
X29877494Y-61541960D01*
X29877494Y-61541960D02*
X29972733Y-61589579D01*
X29972733Y-61589579D02*
X30020352Y-61684817D01*
X30020352Y-61684817D02*
X30020352Y-62208627D01*
X30496542Y-62208627D02*
X30496542Y-61541960D01*
X30496542Y-61637198D02*
X30544161Y-61589579D01*
X30544161Y-61589579D02*
X30639399Y-61541960D01*
X30639399Y-61541960D02*
X30782256Y-61541960D01*
X30782256Y-61541960D02*
X30877494Y-61589579D01*
X30877494Y-61589579D02*
X30925113Y-61684817D01*
X30925113Y-61684817D02*
X30925113Y-62208627D01*
X30925113Y-61684817D02*
X30972732Y-61589579D01*
X30972732Y-61589579D02*
X31067970Y-61541960D01*
X31067970Y-61541960D02*
X31210827Y-61541960D01*
X31210827Y-61541960D02*
X31306066Y-61589579D01*
X31306066Y-61589579D02*
X31353685Y-61684817D01*
X31353685Y-61684817D02*
X31353685Y-62208627D01*
X16353686Y-63818571D02*
X16353686Y-62818571D01*
X16353686Y-62818571D02*
X16734638Y-62818571D01*
X16734638Y-62818571D02*
X16829876Y-62866190D01*
X16829876Y-62866190D02*
X16877495Y-62913809D01*
X16877495Y-62913809D02*
X16925114Y-63009047D01*
X16925114Y-63009047D02*
X16925114Y-63151904D01*
X16925114Y-63151904D02*
X16877495Y-63247142D01*
X16877495Y-63247142D02*
X16829876Y-63294761D01*
X16829876Y-63294761D02*
X16734638Y-63342380D01*
X16734638Y-63342380D02*
X16353686Y-63342380D01*
X17353686Y-63818571D02*
X17353686Y-62818571D01*
X18544162Y-63770952D02*
X18639400Y-63818571D01*
X18639400Y-63818571D02*
X18829876Y-63818571D01*
X18829876Y-63818571D02*
X18925114Y-63770952D01*
X18925114Y-63770952D02*
X18972733Y-63675713D01*
X18972733Y-63675713D02*
X18972733Y-63628094D01*
X18972733Y-63628094D02*
X18925114Y-63532856D01*
X18925114Y-63532856D02*
X18829876Y-63485237D01*
X18829876Y-63485237D02*
X18687019Y-63485237D01*
X18687019Y-63485237D02*
X18591781Y-63437618D01*
X18591781Y-63437618D02*
X18544162Y-63342380D01*
X18544162Y-63342380D02*
X18544162Y-63294761D01*
X18544162Y-63294761D02*
X18591781Y-63199523D01*
X18591781Y-63199523D02*
X18687019Y-63151904D01*
X18687019Y-63151904D02*
X18829876Y-63151904D01*
X18829876Y-63151904D02*
X18925114Y-63199523D01*
X19258448Y-63151904D02*
X19639400Y-63151904D01*
X19401305Y-62818571D02*
X19401305Y-63675713D01*
X19401305Y-63675713D02*
X19448924Y-63770952D01*
X19448924Y-63770952D02*
X19544162Y-63818571D01*
X19544162Y-63818571D02*
X19639400Y-63818571D01*
X19972734Y-63818571D02*
X19972734Y-63151904D01*
X19972734Y-62818571D02*
X19925115Y-62866190D01*
X19925115Y-62866190D02*
X19972734Y-62913809D01*
X19972734Y-62913809D02*
X20020353Y-62866190D01*
X20020353Y-62866190D02*
X19972734Y-62818571D01*
X19972734Y-62818571D02*
X19972734Y-62913809D01*
X20306067Y-63151904D02*
X20687019Y-63151904D01*
X20448924Y-63818571D02*
X20448924Y-62961428D01*
X20448924Y-62961428D02*
X20496543Y-62866190D01*
X20496543Y-62866190D02*
X20591781Y-62818571D01*
X20591781Y-62818571D02*
X20687019Y-62818571D01*
X20877496Y-63151904D02*
X21258448Y-63151904D01*
X21020353Y-63818571D02*
X21020353Y-62961428D01*
X21020353Y-62961428D02*
X21067972Y-62866190D01*
X21067972Y-62866190D02*
X21163210Y-62818571D01*
X21163210Y-62818571D02*
X21258448Y-62818571D01*
X21972734Y-63770952D02*
X21877496Y-63818571D01*
X21877496Y-63818571D02*
X21687020Y-63818571D01*
X21687020Y-63818571D02*
X21591782Y-63770952D01*
X21591782Y-63770952D02*
X21544163Y-63675713D01*
X21544163Y-63675713D02*
X21544163Y-63294761D01*
X21544163Y-63294761D02*
X21591782Y-63199523D01*
X21591782Y-63199523D02*
X21687020Y-63151904D01*
X21687020Y-63151904D02*
X21877496Y-63151904D01*
X21877496Y-63151904D02*
X21972734Y-63199523D01*
X21972734Y-63199523D02*
X22020353Y-63294761D01*
X22020353Y-63294761D02*
X22020353Y-63389999D01*
X22020353Y-63389999D02*
X21544163Y-63485237D01*
X22448925Y-63151904D02*
X22448925Y-63818571D01*
X22448925Y-63247142D02*
X22496544Y-63199523D01*
X22496544Y-63199523D02*
X22591782Y-63151904D01*
X22591782Y-63151904D02*
X22734639Y-63151904D01*
X22734639Y-63151904D02*
X22829877Y-63199523D01*
X22829877Y-63199523D02*
X22877496Y-63294761D01*
X22877496Y-63294761D02*
X22877496Y-63818571D01*
X23734639Y-63770952D02*
X23639401Y-63818571D01*
X23639401Y-63818571D02*
X23448925Y-63818571D01*
X23448925Y-63818571D02*
X23353687Y-63770952D01*
X23353687Y-63770952D02*
X23306068Y-63675713D01*
X23306068Y-63675713D02*
X23306068Y-63294761D01*
X23306068Y-63294761D02*
X23353687Y-63199523D01*
X23353687Y-63199523D02*
X23448925Y-63151904D01*
X23448925Y-63151904D02*
X23639401Y-63151904D01*
X23639401Y-63151904D02*
X23734639Y-63199523D01*
X23734639Y-63199523D02*
X23782258Y-63294761D01*
X23782258Y-63294761D02*
X23782258Y-63389999D01*
X23782258Y-63389999D02*
X23306068Y-63485237D01*
X24210830Y-63818571D02*
X24210830Y-63151904D01*
X24210830Y-63342380D02*
X24258449Y-63247142D01*
X24258449Y-63247142D02*
X24306068Y-63199523D01*
X24306068Y-63199523D02*
X24401306Y-63151904D01*
X24401306Y-63151904D02*
X24496544Y-63151904D01*
X25448926Y-63151904D02*
X25829878Y-63151904D01*
X25591783Y-62818571D02*
X25591783Y-63675713D01*
X25591783Y-63675713D02*
X25639402Y-63770952D01*
X25639402Y-63770952D02*
X25734640Y-63818571D01*
X25734640Y-63818571D02*
X25829878Y-63818571D01*
X26163212Y-63818571D02*
X26163212Y-62818571D01*
X26591783Y-63818571D02*
X26591783Y-63294761D01*
X26591783Y-63294761D02*
X26544164Y-63199523D01*
X26544164Y-63199523D02*
X26448926Y-63151904D01*
X26448926Y-63151904D02*
X26306069Y-63151904D01*
X26306069Y-63151904D02*
X26210831Y-63199523D01*
X26210831Y-63199523D02*
X26163212Y-63247142D01*
X27448926Y-63770952D02*
X27353688Y-63818571D01*
X27353688Y-63818571D02*
X27163212Y-63818571D01*
X27163212Y-63818571D02*
X27067974Y-63770952D01*
X27067974Y-63770952D02*
X27020355Y-63675713D01*
X27020355Y-63675713D02*
X27020355Y-63294761D01*
X27020355Y-63294761D02*
X27067974Y-63199523D01*
X27067974Y-63199523D02*
X27163212Y-63151904D01*
X27163212Y-63151904D02*
X27353688Y-63151904D01*
X27353688Y-63151904D02*
X27448926Y-63199523D01*
X27448926Y-63199523D02*
X27496545Y-63294761D01*
X27496545Y-63294761D02*
X27496545Y-63389999D01*
X27496545Y-63389999D02*
X27020355Y-63485237D01*
X28067974Y-63818571D02*
X27972736Y-63770952D01*
X27972736Y-63770952D02*
X27925117Y-63723332D01*
X27925117Y-63723332D02*
X27877498Y-63628094D01*
X27877498Y-63628094D02*
X27877498Y-63342380D01*
X27877498Y-63342380D02*
X27925117Y-63247142D01*
X27925117Y-63247142D02*
X27972736Y-63199523D01*
X27972736Y-63199523D02*
X28067974Y-63151904D01*
X28067974Y-63151904D02*
X28210831Y-63151904D01*
X28210831Y-63151904D02*
X28306069Y-63199523D01*
X28306069Y-63199523D02*
X28353688Y-63247142D01*
X28353688Y-63247142D02*
X28401307Y-63342380D01*
X28401307Y-63342380D02*
X28401307Y-63628094D01*
X28401307Y-63628094D02*
X28353688Y-63723332D01*
X28353688Y-63723332D02*
X28306069Y-63770952D01*
X28306069Y-63770952D02*
X28210831Y-63818571D01*
X28210831Y-63818571D02*
X28067974Y-63818571D01*
X28829879Y-63818571D02*
X28829879Y-63151904D01*
X28829879Y-63342380D02*
X28877498Y-63247142D01*
X28877498Y-63247142D02*
X28925117Y-63199523D01*
X28925117Y-63199523D02*
X29020355Y-63151904D01*
X29020355Y-63151904D02*
X29115593Y-63151904D01*
X29829879Y-63770952D02*
X29734641Y-63818571D01*
X29734641Y-63818571D02*
X29544165Y-63818571D01*
X29544165Y-63818571D02*
X29448927Y-63770952D01*
X29448927Y-63770952D02*
X29401308Y-63675713D01*
X29401308Y-63675713D02*
X29401308Y-63294761D01*
X29401308Y-63294761D02*
X29448927Y-63199523D01*
X29448927Y-63199523D02*
X29544165Y-63151904D01*
X29544165Y-63151904D02*
X29734641Y-63151904D01*
X29734641Y-63151904D02*
X29829879Y-63199523D01*
X29829879Y-63199523D02*
X29877498Y-63294761D01*
X29877498Y-63294761D02*
X29877498Y-63389999D01*
X29877498Y-63389999D02*
X29401308Y-63485237D01*
X30163213Y-63151904D02*
X30544165Y-63151904D01*
X30306070Y-62818571D02*
X30306070Y-63675713D01*
X30306070Y-63675713D02*
X30353689Y-63770952D01*
X30353689Y-63770952D02*
X30448927Y-63818571D01*
X30448927Y-63818571D02*
X30544165Y-63818571D01*
X30877499Y-63818571D02*
X30877499Y-63151904D01*
X30877499Y-62818571D02*
X30829880Y-62866190D01*
X30829880Y-62866190D02*
X30877499Y-62913809D01*
X30877499Y-62913809D02*
X30925118Y-62866190D01*
X30925118Y-62866190D02*
X30877499Y-62818571D01*
X30877499Y-62818571D02*
X30877499Y-62913809D01*
X31782260Y-63770952D02*
X31687022Y-63818571D01*
X31687022Y-63818571D02*
X31496546Y-63818571D01*
X31496546Y-63818571D02*
X31401308Y-63770952D01*
X31401308Y-63770952D02*
X31353689Y-63723332D01*
X31353689Y-63723332D02*
X31306070Y-63628094D01*
X31306070Y-63628094D02*
X31306070Y-63342380D01*
X31306070Y-63342380D02*
X31353689Y-63247142D01*
X31353689Y-63247142D02*
X31401308Y-63199523D01*
X31401308Y-63199523D02*
X31496546Y-63151904D01*
X31496546Y-63151904D02*
X31687022Y-63151904D01*
X31687022Y-63151904D02*
X31782260Y-63199523D01*
X32639403Y-63818571D02*
X32639403Y-63294761D01*
X32639403Y-63294761D02*
X32591784Y-63199523D01*
X32591784Y-63199523D02*
X32496546Y-63151904D01*
X32496546Y-63151904D02*
X32306070Y-63151904D01*
X32306070Y-63151904D02*
X32210832Y-63199523D01*
X32639403Y-63770952D02*
X32544165Y-63818571D01*
X32544165Y-63818571D02*
X32306070Y-63818571D01*
X32306070Y-63818571D02*
X32210832Y-63770952D01*
X32210832Y-63770952D02*
X32163213Y-63675713D01*
X32163213Y-63675713D02*
X32163213Y-63580475D01*
X32163213Y-63580475D02*
X32210832Y-63485237D01*
X32210832Y-63485237D02*
X32306070Y-63437618D01*
X32306070Y-63437618D02*
X32544165Y-63437618D01*
X32544165Y-63437618D02*
X32639403Y-63389999D01*
X33258451Y-63818571D02*
X33163213Y-63770952D01*
X33163213Y-63770952D02*
X33115594Y-63675713D01*
X33115594Y-63675713D02*
X33115594Y-62818571D01*
X34258452Y-63151904D02*
X34639404Y-63151904D01*
X34401309Y-62818571D02*
X34401309Y-63675713D01*
X34401309Y-63675713D02*
X34448928Y-63770952D01*
X34448928Y-63770952D02*
X34544166Y-63818571D01*
X34544166Y-63818571D02*
X34639404Y-63818571D01*
X34972738Y-63818571D02*
X34972738Y-62818571D01*
X35401309Y-63818571D02*
X35401309Y-63294761D01*
X35401309Y-63294761D02*
X35353690Y-63199523D01*
X35353690Y-63199523D02*
X35258452Y-63151904D01*
X35258452Y-63151904D02*
X35115595Y-63151904D01*
X35115595Y-63151904D02*
X35020357Y-63199523D01*
X35020357Y-63199523D02*
X34972738Y-63247142D01*
X35877500Y-63818571D02*
X35877500Y-63151904D01*
X35877500Y-62818571D02*
X35829881Y-62866190D01*
X35829881Y-62866190D02*
X35877500Y-62913809D01*
X35877500Y-62913809D02*
X35925119Y-62866190D01*
X35925119Y-62866190D02*
X35877500Y-62818571D01*
X35877500Y-62818571D02*
X35877500Y-62913809D01*
X36782261Y-63770952D02*
X36687023Y-63818571D01*
X36687023Y-63818571D02*
X36496547Y-63818571D01*
X36496547Y-63818571D02*
X36401309Y-63770952D01*
X36401309Y-63770952D02*
X36353690Y-63723332D01*
X36353690Y-63723332D02*
X36306071Y-63628094D01*
X36306071Y-63628094D02*
X36306071Y-63342380D01*
X36306071Y-63342380D02*
X36353690Y-63247142D01*
X36353690Y-63247142D02*
X36401309Y-63199523D01*
X36401309Y-63199523D02*
X36496547Y-63151904D01*
X36496547Y-63151904D02*
X36687023Y-63151904D01*
X36687023Y-63151904D02*
X36782261Y-63199523D01*
X37210833Y-63818571D02*
X37210833Y-62818571D01*
X37306071Y-63437618D02*
X37591785Y-63818571D01*
X37591785Y-63151904D02*
X37210833Y-63532856D01*
X38020357Y-63151904D02*
X38020357Y-63818571D01*
X38020357Y-63247142D02*
X38067976Y-63199523D01*
X38067976Y-63199523D02*
X38163214Y-63151904D01*
X38163214Y-63151904D02*
X38306071Y-63151904D01*
X38306071Y-63151904D02*
X38401309Y-63199523D01*
X38401309Y-63199523D02*
X38448928Y-63294761D01*
X38448928Y-63294761D02*
X38448928Y-63818571D01*
X39306071Y-63770952D02*
X39210833Y-63818571D01*
X39210833Y-63818571D02*
X39020357Y-63818571D01*
X39020357Y-63818571D02*
X38925119Y-63770952D01*
X38925119Y-63770952D02*
X38877500Y-63675713D01*
X38877500Y-63675713D02*
X38877500Y-63294761D01*
X38877500Y-63294761D02*
X38925119Y-63199523D01*
X38925119Y-63199523D02*
X39020357Y-63151904D01*
X39020357Y-63151904D02*
X39210833Y-63151904D01*
X39210833Y-63151904D02*
X39306071Y-63199523D01*
X39306071Y-63199523D02*
X39353690Y-63294761D01*
X39353690Y-63294761D02*
X39353690Y-63389999D01*
X39353690Y-63389999D02*
X38877500Y-63485237D01*
X39734643Y-63770952D02*
X39829881Y-63818571D01*
X39829881Y-63818571D02*
X40020357Y-63818571D01*
X40020357Y-63818571D02*
X40115595Y-63770952D01*
X40115595Y-63770952D02*
X40163214Y-63675713D01*
X40163214Y-63675713D02*
X40163214Y-63628094D01*
X40163214Y-63628094D02*
X40115595Y-63532856D01*
X40115595Y-63532856D02*
X40020357Y-63485237D01*
X40020357Y-63485237D02*
X39877500Y-63485237D01*
X39877500Y-63485237D02*
X39782262Y-63437618D01*
X39782262Y-63437618D02*
X39734643Y-63342380D01*
X39734643Y-63342380D02*
X39734643Y-63294761D01*
X39734643Y-63294761D02*
X39782262Y-63199523D01*
X39782262Y-63199523D02*
X39877500Y-63151904D01*
X39877500Y-63151904D02*
X40020357Y-63151904D01*
X40020357Y-63151904D02*
X40115595Y-63199523D01*
X40544167Y-63770952D02*
X40639405Y-63818571D01*
X40639405Y-63818571D02*
X40829881Y-63818571D01*
X40829881Y-63818571D02*
X40925119Y-63770952D01*
X40925119Y-63770952D02*
X40972738Y-63675713D01*
X40972738Y-63675713D02*
X40972738Y-63628094D01*
X40972738Y-63628094D02*
X40925119Y-63532856D01*
X40925119Y-63532856D02*
X40829881Y-63485237D01*
X40829881Y-63485237D02*
X40687024Y-63485237D01*
X40687024Y-63485237D02*
X40591786Y-63437618D01*
X40591786Y-63437618D02*
X40544167Y-63342380D01*
X40544167Y-63342380D02*
X40544167Y-63294761D01*
X40544167Y-63294761D02*
X40591786Y-63199523D01*
X40591786Y-63199523D02*
X40687024Y-63151904D01*
X40687024Y-63151904D02*
X40829881Y-63151904D01*
X40829881Y-63151904D02*
X40925119Y-63199523D01*
X41687024Y-63485237D02*
X41734643Y-63532856D01*
X41734643Y-63532856D02*
X41687024Y-63580475D01*
X41687024Y-63580475D02*
X41639405Y-63532856D01*
X41639405Y-63532856D02*
X41687024Y-63485237D01*
X41687024Y-63485237D02*
X41687024Y-63580475D01*
X41687024Y-62961428D02*
X41734643Y-63009047D01*
X41734643Y-63009047D02*
X41687024Y-63056666D01*
X41687024Y-63056666D02*
X41639405Y-63009047D01*
X41639405Y-63009047D02*
X41687024Y-62961428D01*
X41687024Y-62961428D02*
X41687024Y-63056666D01*
X43401310Y-62818571D02*
X43496548Y-62818571D01*
X43496548Y-62818571D02*
X43591786Y-62866190D01*
X43591786Y-62866190D02*
X43639405Y-62913809D01*
X43639405Y-62913809D02*
X43687024Y-63009047D01*
X43687024Y-63009047D02*
X43734643Y-63199523D01*
X43734643Y-63199523D02*
X43734643Y-63437618D01*
X43734643Y-63437618D02*
X43687024Y-63628094D01*
X43687024Y-63628094D02*
X43639405Y-63723332D01*
X43639405Y-63723332D02*
X43591786Y-63770952D01*
X43591786Y-63770952D02*
X43496548Y-63818571D01*
X43496548Y-63818571D02*
X43401310Y-63818571D01*
X43401310Y-63818571D02*
X43306072Y-63770952D01*
X43306072Y-63770952D02*
X43258453Y-63723332D01*
X43258453Y-63723332D02*
X43210834Y-63628094D01*
X43210834Y-63628094D02*
X43163215Y-63437618D01*
X43163215Y-63437618D02*
X43163215Y-63199523D01*
X43163215Y-63199523D02*
X43210834Y-63009047D01*
X43210834Y-63009047D02*
X43258453Y-62913809D01*
X43258453Y-62913809D02*
X43306072Y-62866190D01*
X43306072Y-62866190D02*
X43401310Y-62818571D01*
X44163215Y-63723332D02*
X44210834Y-63770952D01*
X44210834Y-63770952D02*
X44163215Y-63818571D01*
X44163215Y-63818571D02*
X44115596Y-63770952D01*
X44115596Y-63770952D02*
X44163215Y-63723332D01*
X44163215Y-63723332D02*
X44163215Y-63818571D01*
X45163214Y-63818571D02*
X44591786Y-63818571D01*
X44877500Y-63818571D02*
X44877500Y-62818571D01*
X44877500Y-62818571D02*
X44782262Y-62961428D01*
X44782262Y-62961428D02*
X44687024Y-63056666D01*
X44687024Y-63056666D02*
X44591786Y-63104285D01*
X45496548Y-62818571D02*
X46163214Y-62818571D01*
X46163214Y-62818571D02*
X45734643Y-63818571D01*
X46687024Y-63247142D02*
X46591786Y-63199523D01*
X46591786Y-63199523D02*
X46544167Y-63151904D01*
X46544167Y-63151904D02*
X46496548Y-63056666D01*
X46496548Y-63056666D02*
X46496548Y-63009047D01*
X46496548Y-63009047D02*
X46544167Y-62913809D01*
X46544167Y-62913809D02*
X46591786Y-62866190D01*
X46591786Y-62866190D02*
X46687024Y-62818571D01*
X46687024Y-62818571D02*
X46877500Y-62818571D01*
X46877500Y-62818571D02*
X46972738Y-62866190D01*
X46972738Y-62866190D02*
X47020357Y-62913809D01*
X47020357Y-62913809D02*
X47067976Y-63009047D01*
X47067976Y-63009047D02*
X47067976Y-63056666D01*
X47067976Y-63056666D02*
X47020357Y-63151904D01*
X47020357Y-63151904D02*
X46972738Y-63199523D01*
X46972738Y-63199523D02*
X46877500Y-63247142D01*
X46877500Y-63247142D02*
X46687024Y-63247142D01*
X46687024Y-63247142D02*
X46591786Y-63294761D01*
X46591786Y-63294761D02*
X46544167Y-63342380D01*
X46544167Y-63342380D02*
X46496548Y-63437618D01*
X46496548Y-63437618D02*
X46496548Y-63628094D01*
X46496548Y-63628094D02*
X46544167Y-63723332D01*
X46544167Y-63723332D02*
X46591786Y-63770952D01*
X46591786Y-63770952D02*
X46687024Y-63818571D01*
X46687024Y-63818571D02*
X46877500Y-63818571D01*
X46877500Y-63818571D02*
X46972738Y-63770952D01*
X46972738Y-63770952D02*
X47020357Y-63723332D01*
X47020357Y-63723332D02*
X47067976Y-63628094D01*
X47067976Y-63628094D02*
X47067976Y-63437618D01*
X47067976Y-63437618D02*
X47020357Y-63342380D01*
X47020357Y-63342380D02*
X46972738Y-63294761D01*
X46972738Y-63294761D02*
X46877500Y-63247142D01*
X48258453Y-63818571D02*
X48258453Y-63151904D01*
X48258453Y-63247142D02*
X48306072Y-63199523D01*
X48306072Y-63199523D02*
X48401310Y-63151904D01*
X48401310Y-63151904D02*
X48544167Y-63151904D01*
X48544167Y-63151904D02*
X48639405Y-63199523D01*
X48639405Y-63199523D02*
X48687024Y-63294761D01*
X48687024Y-63294761D02*
X48687024Y-63818571D01*
X48687024Y-63294761D02*
X48734643Y-63199523D01*
X48734643Y-63199523D02*
X48829881Y-63151904D01*
X48829881Y-63151904D02*
X48972738Y-63151904D01*
X48972738Y-63151904D02*
X49067977Y-63199523D01*
X49067977Y-63199523D02*
X49115596Y-63294761D01*
X49115596Y-63294761D02*
X49115596Y-63818571D01*
X49591786Y-63818571D02*
X49591786Y-63151904D01*
X49591786Y-63247142D02*
X49639405Y-63199523D01*
X49639405Y-63199523D02*
X49734643Y-63151904D01*
X49734643Y-63151904D02*
X49877500Y-63151904D01*
X49877500Y-63151904D02*
X49972738Y-63199523D01*
X49972738Y-63199523D02*
X50020357Y-63294761D01*
X50020357Y-63294761D02*
X50020357Y-63818571D01*
X50020357Y-63294761D02*
X50067976Y-63199523D01*
X50067976Y-63199523D02*
X50163214Y-63151904D01*
X50163214Y-63151904D02*
X50306071Y-63151904D01*
X50306071Y-63151904D02*
X50401310Y-63199523D01*
X50401310Y-63199523D02*
X50448929Y-63294761D01*
X50448929Y-63294761D02*
X50448929Y-63818571D01*
X16925114Y-65428515D02*
X16591781Y-64952324D01*
X16353686Y-65428515D02*
X16353686Y-64428515D01*
X16353686Y-64428515D02*
X16734638Y-64428515D01*
X16734638Y-64428515D02*
X16829876Y-64476134D01*
X16829876Y-64476134D02*
X16877495Y-64523753D01*
X16877495Y-64523753D02*
X16925114Y-64618991D01*
X16925114Y-64618991D02*
X16925114Y-64761848D01*
X16925114Y-64761848D02*
X16877495Y-64857086D01*
X16877495Y-64857086D02*
X16829876Y-64904705D01*
X16829876Y-64904705D02*
X16734638Y-64952324D01*
X16734638Y-64952324D02*
X16353686Y-64952324D01*
X17734638Y-65380896D02*
X17639400Y-65428515D01*
X17639400Y-65428515D02*
X17448924Y-65428515D01*
X17448924Y-65428515D02*
X17353686Y-65380896D01*
X17353686Y-65380896D02*
X17306067Y-65285657D01*
X17306067Y-65285657D02*
X17306067Y-64904705D01*
X17306067Y-64904705D02*
X17353686Y-64809467D01*
X17353686Y-64809467D02*
X17448924Y-64761848D01*
X17448924Y-64761848D02*
X17639400Y-64761848D01*
X17639400Y-64761848D02*
X17734638Y-64809467D01*
X17734638Y-64809467D02*
X17782257Y-64904705D01*
X17782257Y-64904705D02*
X17782257Y-64999943D01*
X17782257Y-64999943D02*
X17306067Y-65095181D01*
X18639400Y-65380896D02*
X18544162Y-65428515D01*
X18544162Y-65428515D02*
X18353686Y-65428515D01*
X18353686Y-65428515D02*
X18258448Y-65380896D01*
X18258448Y-65380896D02*
X18210829Y-65333276D01*
X18210829Y-65333276D02*
X18163210Y-65238038D01*
X18163210Y-65238038D02*
X18163210Y-64952324D01*
X18163210Y-64952324D02*
X18210829Y-64857086D01*
X18210829Y-64857086D02*
X18258448Y-64809467D01*
X18258448Y-64809467D02*
X18353686Y-64761848D01*
X18353686Y-64761848D02*
X18544162Y-64761848D01*
X18544162Y-64761848D02*
X18639400Y-64809467D01*
X19210829Y-65428515D02*
X19115591Y-65380896D01*
X19115591Y-65380896D02*
X19067972Y-65333276D01*
X19067972Y-65333276D02*
X19020353Y-65238038D01*
X19020353Y-65238038D02*
X19020353Y-64952324D01*
X19020353Y-64952324D02*
X19067972Y-64857086D01*
X19067972Y-64857086D02*
X19115591Y-64809467D01*
X19115591Y-64809467D02*
X19210829Y-64761848D01*
X19210829Y-64761848D02*
X19353686Y-64761848D01*
X19353686Y-64761848D02*
X19448924Y-64809467D01*
X19448924Y-64809467D02*
X19496543Y-64857086D01*
X19496543Y-64857086D02*
X19544162Y-64952324D01*
X19544162Y-64952324D02*
X19544162Y-65238038D01*
X19544162Y-65238038D02*
X19496543Y-65333276D01*
X19496543Y-65333276D02*
X19448924Y-65380896D01*
X19448924Y-65380896D02*
X19353686Y-65428515D01*
X19353686Y-65428515D02*
X19210829Y-65428515D01*
X19972734Y-65428515D02*
X19972734Y-64761848D01*
X19972734Y-64857086D02*
X20020353Y-64809467D01*
X20020353Y-64809467D02*
X20115591Y-64761848D01*
X20115591Y-64761848D02*
X20258448Y-64761848D01*
X20258448Y-64761848D02*
X20353686Y-64809467D01*
X20353686Y-64809467D02*
X20401305Y-64904705D01*
X20401305Y-64904705D02*
X20401305Y-65428515D01*
X20401305Y-64904705D02*
X20448924Y-64809467D01*
X20448924Y-64809467D02*
X20544162Y-64761848D01*
X20544162Y-64761848D02*
X20687019Y-64761848D01*
X20687019Y-64761848D02*
X20782258Y-64809467D01*
X20782258Y-64809467D02*
X20829877Y-64904705D01*
X20829877Y-64904705D02*
X20829877Y-65428515D01*
X21306067Y-65428515D02*
X21306067Y-64761848D01*
X21306067Y-64857086D02*
X21353686Y-64809467D01*
X21353686Y-64809467D02*
X21448924Y-64761848D01*
X21448924Y-64761848D02*
X21591781Y-64761848D01*
X21591781Y-64761848D02*
X21687019Y-64809467D01*
X21687019Y-64809467D02*
X21734638Y-64904705D01*
X21734638Y-64904705D02*
X21734638Y-65428515D01*
X21734638Y-64904705D02*
X21782257Y-64809467D01*
X21782257Y-64809467D02*
X21877495Y-64761848D01*
X21877495Y-64761848D02*
X22020352Y-64761848D01*
X22020352Y-64761848D02*
X22115591Y-64809467D01*
X22115591Y-64809467D02*
X22163210Y-64904705D01*
X22163210Y-64904705D02*
X22163210Y-65428515D01*
X23020352Y-65380896D02*
X22925114Y-65428515D01*
X22925114Y-65428515D02*
X22734638Y-65428515D01*
X22734638Y-65428515D02*
X22639400Y-65380896D01*
X22639400Y-65380896D02*
X22591781Y-65285657D01*
X22591781Y-65285657D02*
X22591781Y-64904705D01*
X22591781Y-64904705D02*
X22639400Y-64809467D01*
X22639400Y-64809467D02*
X22734638Y-64761848D01*
X22734638Y-64761848D02*
X22925114Y-64761848D01*
X22925114Y-64761848D02*
X23020352Y-64809467D01*
X23020352Y-64809467D02*
X23067971Y-64904705D01*
X23067971Y-64904705D02*
X23067971Y-64999943D01*
X23067971Y-64999943D02*
X22591781Y-65095181D01*
X23496543Y-64761848D02*
X23496543Y-65428515D01*
X23496543Y-64857086D02*
X23544162Y-64809467D01*
X23544162Y-64809467D02*
X23639400Y-64761848D01*
X23639400Y-64761848D02*
X23782257Y-64761848D01*
X23782257Y-64761848D02*
X23877495Y-64809467D01*
X23877495Y-64809467D02*
X23925114Y-64904705D01*
X23925114Y-64904705D02*
X23925114Y-65428515D01*
X24829876Y-65428515D02*
X24829876Y-64428515D01*
X24829876Y-65380896D02*
X24734638Y-65428515D01*
X24734638Y-65428515D02*
X24544162Y-65428515D01*
X24544162Y-65428515D02*
X24448924Y-65380896D01*
X24448924Y-65380896D02*
X24401305Y-65333276D01*
X24401305Y-65333276D02*
X24353686Y-65238038D01*
X24353686Y-65238038D02*
X24353686Y-64952324D01*
X24353686Y-64952324D02*
X24401305Y-64857086D01*
X24401305Y-64857086D02*
X24448924Y-64809467D01*
X24448924Y-64809467D02*
X24544162Y-64761848D01*
X24544162Y-64761848D02*
X24734638Y-64761848D01*
X24734638Y-64761848D02*
X24829876Y-64809467D01*
X25687019Y-65380896D02*
X25591781Y-65428515D01*
X25591781Y-65428515D02*
X25401305Y-65428515D01*
X25401305Y-65428515D02*
X25306067Y-65380896D01*
X25306067Y-65380896D02*
X25258448Y-65285657D01*
X25258448Y-65285657D02*
X25258448Y-64904705D01*
X25258448Y-64904705D02*
X25306067Y-64809467D01*
X25306067Y-64809467D02*
X25401305Y-64761848D01*
X25401305Y-64761848D02*
X25591781Y-64761848D01*
X25591781Y-64761848D02*
X25687019Y-64809467D01*
X25687019Y-64809467D02*
X25734638Y-64904705D01*
X25734638Y-64904705D02*
X25734638Y-64999943D01*
X25734638Y-64999943D02*
X25258448Y-65095181D01*
X26591781Y-65428515D02*
X26591781Y-64428515D01*
X26591781Y-65380896D02*
X26496543Y-65428515D01*
X26496543Y-65428515D02*
X26306067Y-65428515D01*
X26306067Y-65428515D02*
X26210829Y-65380896D01*
X26210829Y-65380896D02*
X26163210Y-65333276D01*
X26163210Y-65333276D02*
X26115591Y-65238038D01*
X26115591Y-65238038D02*
X26115591Y-64952324D01*
X26115591Y-64952324D02*
X26163210Y-64857086D01*
X26163210Y-64857086D02*
X26210829Y-64809467D01*
X26210829Y-64809467D02*
X26306067Y-64761848D01*
X26306067Y-64761848D02*
X26496543Y-64761848D01*
X26496543Y-64761848D02*
X26591781Y-64809467D01*
X27829877Y-65428515D02*
X27829877Y-64428515D01*
X27829877Y-64428515D02*
X28210829Y-64428515D01*
X28210829Y-64428515D02*
X28306067Y-64476134D01*
X28306067Y-64476134D02*
X28353686Y-64523753D01*
X28353686Y-64523753D02*
X28401305Y-64618991D01*
X28401305Y-64618991D02*
X28401305Y-64761848D01*
X28401305Y-64761848D02*
X28353686Y-64857086D01*
X28353686Y-64857086D02*
X28306067Y-64904705D01*
X28306067Y-64904705D02*
X28210829Y-64952324D01*
X28210829Y-64952324D02*
X27829877Y-64952324D01*
X28829877Y-65428515D02*
X28829877Y-64428515D01*
X30020353Y-65380896D02*
X30115591Y-65428515D01*
X30115591Y-65428515D02*
X30306067Y-65428515D01*
X30306067Y-65428515D02*
X30401305Y-65380896D01*
X30401305Y-65380896D02*
X30448924Y-65285657D01*
X30448924Y-65285657D02*
X30448924Y-65238038D01*
X30448924Y-65238038D02*
X30401305Y-65142800D01*
X30401305Y-65142800D02*
X30306067Y-65095181D01*
X30306067Y-65095181D02*
X30163210Y-65095181D01*
X30163210Y-65095181D02*
X30067972Y-65047562D01*
X30067972Y-65047562D02*
X30020353Y-64952324D01*
X30020353Y-64952324D02*
X30020353Y-64904705D01*
X30020353Y-64904705D02*
X30067972Y-64809467D01*
X30067972Y-64809467D02*
X30163210Y-64761848D01*
X30163210Y-64761848D02*
X30306067Y-64761848D01*
X30306067Y-64761848D02*
X30401305Y-64809467D01*
X30734639Y-64761848D02*
X31115591Y-64761848D01*
X30877496Y-64428515D02*
X30877496Y-65285657D01*
X30877496Y-65285657D02*
X30925115Y-65380896D01*
X30925115Y-65380896D02*
X31020353Y-65428515D01*
X31020353Y-65428515D02*
X31115591Y-65428515D01*
X31448925Y-65428515D02*
X31448925Y-64761848D01*
X31448925Y-64428515D02*
X31401306Y-64476134D01*
X31401306Y-64476134D02*
X31448925Y-64523753D01*
X31448925Y-64523753D02*
X31496544Y-64476134D01*
X31496544Y-64476134D02*
X31448925Y-64428515D01*
X31448925Y-64428515D02*
X31448925Y-64523753D01*
X31782258Y-64761848D02*
X32163210Y-64761848D01*
X31925115Y-65428515D02*
X31925115Y-64571372D01*
X31925115Y-64571372D02*
X31972734Y-64476134D01*
X31972734Y-64476134D02*
X32067972Y-64428515D01*
X32067972Y-64428515D02*
X32163210Y-64428515D01*
X32353687Y-64761848D02*
X32734639Y-64761848D01*
X32496544Y-65428515D02*
X32496544Y-64571372D01*
X32496544Y-64571372D02*
X32544163Y-64476134D01*
X32544163Y-64476134D02*
X32639401Y-64428515D01*
X32639401Y-64428515D02*
X32734639Y-64428515D01*
X33448925Y-65380896D02*
X33353687Y-65428515D01*
X33353687Y-65428515D02*
X33163211Y-65428515D01*
X33163211Y-65428515D02*
X33067973Y-65380896D01*
X33067973Y-65380896D02*
X33020354Y-65285657D01*
X33020354Y-65285657D02*
X33020354Y-64904705D01*
X33020354Y-64904705D02*
X33067973Y-64809467D01*
X33067973Y-64809467D02*
X33163211Y-64761848D01*
X33163211Y-64761848D02*
X33353687Y-64761848D01*
X33353687Y-64761848D02*
X33448925Y-64809467D01*
X33448925Y-64809467D02*
X33496544Y-64904705D01*
X33496544Y-64904705D02*
X33496544Y-64999943D01*
X33496544Y-64999943D02*
X33020354Y-65095181D01*
X33925116Y-64761848D02*
X33925116Y-65428515D01*
X33925116Y-64857086D02*
X33972735Y-64809467D01*
X33972735Y-64809467D02*
X34067973Y-64761848D01*
X34067973Y-64761848D02*
X34210830Y-64761848D01*
X34210830Y-64761848D02*
X34306068Y-64809467D01*
X34306068Y-64809467D02*
X34353687Y-64904705D01*
X34353687Y-64904705D02*
X34353687Y-65428515D01*
X35210830Y-65380896D02*
X35115592Y-65428515D01*
X35115592Y-65428515D02*
X34925116Y-65428515D01*
X34925116Y-65428515D02*
X34829878Y-65380896D01*
X34829878Y-65380896D02*
X34782259Y-65285657D01*
X34782259Y-65285657D02*
X34782259Y-64904705D01*
X34782259Y-64904705D02*
X34829878Y-64809467D01*
X34829878Y-64809467D02*
X34925116Y-64761848D01*
X34925116Y-64761848D02*
X35115592Y-64761848D01*
X35115592Y-64761848D02*
X35210830Y-64809467D01*
X35210830Y-64809467D02*
X35258449Y-64904705D01*
X35258449Y-64904705D02*
X35258449Y-64999943D01*
X35258449Y-64999943D02*
X34782259Y-65095181D01*
X35687021Y-65428515D02*
X35687021Y-64761848D01*
X35687021Y-64952324D02*
X35734640Y-64857086D01*
X35734640Y-64857086D02*
X35782259Y-64809467D01*
X35782259Y-64809467D02*
X35877497Y-64761848D01*
X35877497Y-64761848D02*
X35972735Y-64761848D01*
X36925117Y-64761848D02*
X37306069Y-64761848D01*
X37067974Y-64428515D02*
X37067974Y-65285657D01*
X37067974Y-65285657D02*
X37115593Y-65380896D01*
X37115593Y-65380896D02*
X37210831Y-65428515D01*
X37210831Y-65428515D02*
X37306069Y-65428515D01*
X37639403Y-65428515D02*
X37639403Y-64428515D01*
X38067974Y-65428515D02*
X38067974Y-64904705D01*
X38067974Y-64904705D02*
X38020355Y-64809467D01*
X38020355Y-64809467D02*
X37925117Y-64761848D01*
X37925117Y-64761848D02*
X37782260Y-64761848D01*
X37782260Y-64761848D02*
X37687022Y-64809467D01*
X37687022Y-64809467D02*
X37639403Y-64857086D01*
X38544165Y-65428515D02*
X38544165Y-64761848D01*
X38544165Y-64428515D02*
X38496546Y-64476134D01*
X38496546Y-64476134D02*
X38544165Y-64523753D01*
X38544165Y-64523753D02*
X38591784Y-64476134D01*
X38591784Y-64476134D02*
X38544165Y-64428515D01*
X38544165Y-64428515D02*
X38544165Y-64523753D01*
X39448926Y-65380896D02*
X39353688Y-65428515D01*
X39353688Y-65428515D02*
X39163212Y-65428515D01*
X39163212Y-65428515D02*
X39067974Y-65380896D01*
X39067974Y-65380896D02*
X39020355Y-65333276D01*
X39020355Y-65333276D02*
X38972736Y-65238038D01*
X38972736Y-65238038D02*
X38972736Y-64952324D01*
X38972736Y-64952324D02*
X39020355Y-64857086D01*
X39020355Y-64857086D02*
X39067974Y-64809467D01*
X39067974Y-64809467D02*
X39163212Y-64761848D01*
X39163212Y-64761848D02*
X39353688Y-64761848D01*
X39353688Y-64761848D02*
X39448926Y-64809467D01*
X39877498Y-65428515D02*
X39877498Y-64428515D01*
X39972736Y-65047562D02*
X40258450Y-65428515D01*
X40258450Y-64761848D02*
X39877498Y-65142800D01*
X40687022Y-64761848D02*
X40687022Y-65428515D01*
X40687022Y-64857086D02*
X40734641Y-64809467D01*
X40734641Y-64809467D02*
X40829879Y-64761848D01*
X40829879Y-64761848D02*
X40972736Y-64761848D01*
X40972736Y-64761848D02*
X41067974Y-64809467D01*
X41067974Y-64809467D02*
X41115593Y-64904705D01*
X41115593Y-64904705D02*
X41115593Y-65428515D01*
X41972736Y-65380896D02*
X41877498Y-65428515D01*
X41877498Y-65428515D02*
X41687022Y-65428515D01*
X41687022Y-65428515D02*
X41591784Y-65380896D01*
X41591784Y-65380896D02*
X41544165Y-65285657D01*
X41544165Y-65285657D02*
X41544165Y-64904705D01*
X41544165Y-64904705D02*
X41591784Y-64809467D01*
X41591784Y-64809467D02*
X41687022Y-64761848D01*
X41687022Y-64761848D02*
X41877498Y-64761848D01*
X41877498Y-64761848D02*
X41972736Y-64809467D01*
X41972736Y-64809467D02*
X42020355Y-64904705D01*
X42020355Y-64904705D02*
X42020355Y-64999943D01*
X42020355Y-64999943D02*
X41544165Y-65095181D01*
X42401308Y-65380896D02*
X42496546Y-65428515D01*
X42496546Y-65428515D02*
X42687022Y-65428515D01*
X42687022Y-65428515D02*
X42782260Y-65380896D01*
X42782260Y-65380896D02*
X42829879Y-65285657D01*
X42829879Y-65285657D02*
X42829879Y-65238038D01*
X42829879Y-65238038D02*
X42782260Y-65142800D01*
X42782260Y-65142800D02*
X42687022Y-65095181D01*
X42687022Y-65095181D02*
X42544165Y-65095181D01*
X42544165Y-65095181D02*
X42448927Y-65047562D01*
X42448927Y-65047562D02*
X42401308Y-64952324D01*
X42401308Y-64952324D02*
X42401308Y-64904705D01*
X42401308Y-64904705D02*
X42448927Y-64809467D01*
X42448927Y-64809467D02*
X42544165Y-64761848D01*
X42544165Y-64761848D02*
X42687022Y-64761848D01*
X42687022Y-64761848D02*
X42782260Y-64809467D01*
X43210832Y-65380896D02*
X43306070Y-65428515D01*
X43306070Y-65428515D02*
X43496546Y-65428515D01*
X43496546Y-65428515D02*
X43591784Y-65380896D01*
X43591784Y-65380896D02*
X43639403Y-65285657D01*
X43639403Y-65285657D02*
X43639403Y-65238038D01*
X43639403Y-65238038D02*
X43591784Y-65142800D01*
X43591784Y-65142800D02*
X43496546Y-65095181D01*
X43496546Y-65095181D02*
X43353689Y-65095181D01*
X43353689Y-65095181D02*
X43258451Y-65047562D01*
X43258451Y-65047562D02*
X43210832Y-64952324D01*
X43210832Y-64952324D02*
X43210832Y-64904705D01*
X43210832Y-64904705D02*
X43258451Y-64809467D01*
X43258451Y-64809467D02*
X43353689Y-64761848D01*
X43353689Y-64761848D02*
X43496546Y-64761848D01*
X43496546Y-64761848D02*
X43591784Y-64809467D01*
X44353689Y-65095181D02*
X44401308Y-65142800D01*
X44401308Y-65142800D02*
X44353689Y-65190419D01*
X44353689Y-65190419D02*
X44306070Y-65142800D01*
X44306070Y-65142800D02*
X44353689Y-65095181D01*
X44353689Y-65095181D02*
X44353689Y-65190419D01*
X44353689Y-64571372D02*
X44401308Y-64618991D01*
X44401308Y-64618991D02*
X44353689Y-64666610D01*
X44353689Y-64666610D02*
X44306070Y-64618991D01*
X44306070Y-64618991D02*
X44353689Y-64571372D01*
X44353689Y-64571372D02*
X44353689Y-64666610D01*
X46067975Y-64428515D02*
X46163213Y-64428515D01*
X46163213Y-64428515D02*
X46258451Y-64476134D01*
X46258451Y-64476134D02*
X46306070Y-64523753D01*
X46306070Y-64523753D02*
X46353689Y-64618991D01*
X46353689Y-64618991D02*
X46401308Y-64809467D01*
X46401308Y-64809467D02*
X46401308Y-65047562D01*
X46401308Y-65047562D02*
X46353689Y-65238038D01*
X46353689Y-65238038D02*
X46306070Y-65333276D01*
X46306070Y-65333276D02*
X46258451Y-65380896D01*
X46258451Y-65380896D02*
X46163213Y-65428515D01*
X46163213Y-65428515D02*
X46067975Y-65428515D01*
X46067975Y-65428515D02*
X45972737Y-65380896D01*
X45972737Y-65380896D02*
X45925118Y-65333276D01*
X45925118Y-65333276D02*
X45877499Y-65238038D01*
X45877499Y-65238038D02*
X45829880Y-65047562D01*
X45829880Y-65047562D02*
X45829880Y-64809467D01*
X45829880Y-64809467D02*
X45877499Y-64618991D01*
X45877499Y-64618991D02*
X45925118Y-64523753D01*
X45925118Y-64523753D02*
X45972737Y-64476134D01*
X45972737Y-64476134D02*
X46067975Y-64428515D01*
X46829880Y-65333276D02*
X46877499Y-65380896D01*
X46877499Y-65380896D02*
X46829880Y-65428515D01*
X46829880Y-65428515D02*
X46782261Y-65380896D01*
X46782261Y-65380896D02*
X46829880Y-65333276D01*
X46829880Y-65333276D02*
X46829880Y-65428515D01*
X47258451Y-64523753D02*
X47306070Y-64476134D01*
X47306070Y-64476134D02*
X47401308Y-64428515D01*
X47401308Y-64428515D02*
X47639403Y-64428515D01*
X47639403Y-64428515D02*
X47734641Y-64476134D01*
X47734641Y-64476134D02*
X47782260Y-64523753D01*
X47782260Y-64523753D02*
X47829879Y-64618991D01*
X47829879Y-64618991D02*
X47829879Y-64714229D01*
X47829879Y-64714229D02*
X47782260Y-64857086D01*
X47782260Y-64857086D02*
X47210832Y-65428515D01*
X47210832Y-65428515D02*
X47829879Y-65428515D01*
X49020356Y-65428515D02*
X49020356Y-64761848D01*
X49020356Y-64857086D02*
X49067975Y-64809467D01*
X49067975Y-64809467D02*
X49163213Y-64761848D01*
X49163213Y-64761848D02*
X49306070Y-64761848D01*
X49306070Y-64761848D02*
X49401308Y-64809467D01*
X49401308Y-64809467D02*
X49448927Y-64904705D01*
X49448927Y-64904705D02*
X49448927Y-65428515D01*
X49448927Y-64904705D02*
X49496546Y-64809467D01*
X49496546Y-64809467D02*
X49591784Y-64761848D01*
X49591784Y-64761848D02*
X49734641Y-64761848D01*
X49734641Y-64761848D02*
X49829880Y-64809467D01*
X49829880Y-64809467D02*
X49877499Y-64904705D01*
X49877499Y-64904705D02*
X49877499Y-65428515D01*
X50353689Y-65428515D02*
X50353689Y-64761848D01*
X50353689Y-64857086D02*
X50401308Y-64809467D01*
X50401308Y-64809467D02*
X50496546Y-64761848D01*
X50496546Y-64761848D02*
X50639403Y-64761848D01*
X50639403Y-64761848D02*
X50734641Y-64809467D01*
X50734641Y-64809467D02*
X50782260Y-64904705D01*
X50782260Y-64904705D02*
X50782260Y-65428515D01*
X50782260Y-64904705D02*
X50829879Y-64809467D01*
X50829879Y-64809467D02*
X50925117Y-64761848D01*
X50925117Y-64761848D02*
X51067974Y-64761848D01*
X51067974Y-64761848D02*
X51163213Y-64809467D01*
X51163213Y-64809467D02*
X51210832Y-64904705D01*
X51210832Y-64904705D02*
X51210832Y-65428515D01*
X16925114Y-67038459D02*
X16591781Y-66562268D01*
X16353686Y-67038459D02*
X16353686Y-66038459D01*
X16353686Y-66038459D02*
X16734638Y-66038459D01*
X16734638Y-66038459D02*
X16829876Y-66086078D01*
X16829876Y-66086078D02*
X16877495Y-66133697D01*
X16877495Y-66133697D02*
X16925114Y-66228935D01*
X16925114Y-66228935D02*
X16925114Y-66371792D01*
X16925114Y-66371792D02*
X16877495Y-66467030D01*
X16877495Y-66467030D02*
X16829876Y-66514649D01*
X16829876Y-66514649D02*
X16734638Y-66562268D01*
X16734638Y-66562268D02*
X16353686Y-66562268D01*
X17734638Y-66990840D02*
X17639400Y-67038459D01*
X17639400Y-67038459D02*
X17448924Y-67038459D01*
X17448924Y-67038459D02*
X17353686Y-66990840D01*
X17353686Y-66990840D02*
X17306067Y-66895601D01*
X17306067Y-66895601D02*
X17306067Y-66514649D01*
X17306067Y-66514649D02*
X17353686Y-66419411D01*
X17353686Y-66419411D02*
X17448924Y-66371792D01*
X17448924Y-66371792D02*
X17639400Y-66371792D01*
X17639400Y-66371792D02*
X17734638Y-66419411D01*
X17734638Y-66419411D02*
X17782257Y-66514649D01*
X17782257Y-66514649D02*
X17782257Y-66609887D01*
X17782257Y-66609887D02*
X17306067Y-66705125D01*
X18639400Y-66371792D02*
X18639400Y-67371792D01*
X18639400Y-66990840D02*
X18544162Y-67038459D01*
X18544162Y-67038459D02*
X18353686Y-67038459D01*
X18353686Y-67038459D02*
X18258448Y-66990840D01*
X18258448Y-66990840D02*
X18210829Y-66943220D01*
X18210829Y-66943220D02*
X18163210Y-66847982D01*
X18163210Y-66847982D02*
X18163210Y-66562268D01*
X18163210Y-66562268D02*
X18210829Y-66467030D01*
X18210829Y-66467030D02*
X18258448Y-66419411D01*
X18258448Y-66419411D02*
X18353686Y-66371792D01*
X18353686Y-66371792D02*
X18544162Y-66371792D01*
X18544162Y-66371792D02*
X18639400Y-66419411D01*
X19544162Y-66371792D02*
X19544162Y-67038459D01*
X19115591Y-66371792D02*
X19115591Y-66895601D01*
X19115591Y-66895601D02*
X19163210Y-66990840D01*
X19163210Y-66990840D02*
X19258448Y-67038459D01*
X19258448Y-67038459D02*
X19401305Y-67038459D01*
X19401305Y-67038459D02*
X19496543Y-66990840D01*
X19496543Y-66990840D02*
X19544162Y-66943220D01*
X20020353Y-67038459D02*
X20020353Y-66371792D01*
X20020353Y-66038459D02*
X19972734Y-66086078D01*
X19972734Y-66086078D02*
X20020353Y-66133697D01*
X20020353Y-66133697D02*
X20067972Y-66086078D01*
X20067972Y-66086078D02*
X20020353Y-66038459D01*
X20020353Y-66038459D02*
X20020353Y-66133697D01*
X20496543Y-67038459D02*
X20496543Y-66371792D01*
X20496543Y-66562268D02*
X20544162Y-66467030D01*
X20544162Y-66467030D02*
X20591781Y-66419411D01*
X20591781Y-66419411D02*
X20687019Y-66371792D01*
X20687019Y-66371792D02*
X20782257Y-66371792D01*
X21496543Y-66990840D02*
X21401305Y-67038459D01*
X21401305Y-67038459D02*
X21210829Y-67038459D01*
X21210829Y-67038459D02*
X21115591Y-66990840D01*
X21115591Y-66990840D02*
X21067972Y-66895601D01*
X21067972Y-66895601D02*
X21067972Y-66514649D01*
X21067972Y-66514649D02*
X21115591Y-66419411D01*
X21115591Y-66419411D02*
X21210829Y-66371792D01*
X21210829Y-66371792D02*
X21401305Y-66371792D01*
X21401305Y-66371792D02*
X21496543Y-66419411D01*
X21496543Y-66419411D02*
X21544162Y-66514649D01*
X21544162Y-66514649D02*
X21544162Y-66609887D01*
X21544162Y-66609887D02*
X21067972Y-66705125D01*
X22401305Y-67038459D02*
X22401305Y-66038459D01*
X22401305Y-66990840D02*
X22306067Y-67038459D01*
X22306067Y-67038459D02*
X22115591Y-67038459D01*
X22115591Y-67038459D02*
X22020353Y-66990840D01*
X22020353Y-66990840D02*
X21972734Y-66943220D01*
X21972734Y-66943220D02*
X21925115Y-66847982D01*
X21925115Y-66847982D02*
X21925115Y-66562268D01*
X21925115Y-66562268D02*
X21972734Y-66467030D01*
X21972734Y-66467030D02*
X22020353Y-66419411D01*
X22020353Y-66419411D02*
X22115591Y-66371792D01*
X22115591Y-66371792D02*
X22306067Y-66371792D01*
X22306067Y-66371792D02*
X22401305Y-66419411D01*
X23496544Y-66371792D02*
X23877496Y-66371792D01*
X23639401Y-67038459D02*
X23639401Y-66181316D01*
X23639401Y-66181316D02*
X23687020Y-66086078D01*
X23687020Y-66086078D02*
X23782258Y-66038459D01*
X23782258Y-66038459D02*
X23877496Y-66038459D01*
X24210830Y-67038459D02*
X24210830Y-66371792D01*
X24210830Y-66038459D02*
X24163211Y-66086078D01*
X24163211Y-66086078D02*
X24210830Y-66133697D01*
X24210830Y-66133697D02*
X24258449Y-66086078D01*
X24258449Y-66086078D02*
X24210830Y-66038459D01*
X24210830Y-66038459D02*
X24210830Y-66133697D01*
X24687020Y-66371792D02*
X24687020Y-67038459D01*
X24687020Y-66467030D02*
X24734639Y-66419411D01*
X24734639Y-66419411D02*
X24829877Y-66371792D01*
X24829877Y-66371792D02*
X24972734Y-66371792D01*
X24972734Y-66371792D02*
X25067972Y-66419411D01*
X25067972Y-66419411D02*
X25115591Y-66514649D01*
X25115591Y-66514649D02*
X25115591Y-67038459D01*
X26020353Y-67038459D02*
X26020353Y-66514649D01*
X26020353Y-66514649D02*
X25972734Y-66419411D01*
X25972734Y-66419411D02*
X25877496Y-66371792D01*
X25877496Y-66371792D02*
X25687020Y-66371792D01*
X25687020Y-66371792D02*
X25591782Y-66419411D01*
X26020353Y-66990840D02*
X25925115Y-67038459D01*
X25925115Y-67038459D02*
X25687020Y-67038459D01*
X25687020Y-67038459D02*
X25591782Y-66990840D01*
X25591782Y-66990840D02*
X25544163Y-66895601D01*
X25544163Y-66895601D02*
X25544163Y-66800363D01*
X25544163Y-66800363D02*
X25591782Y-66705125D01*
X25591782Y-66705125D02*
X25687020Y-66657506D01*
X25687020Y-66657506D02*
X25925115Y-66657506D01*
X25925115Y-66657506D02*
X26020353Y-66609887D01*
X26639401Y-67038459D02*
X26544163Y-66990840D01*
X26544163Y-66990840D02*
X26496544Y-66895601D01*
X26496544Y-66895601D02*
X26496544Y-66038459D01*
X27782259Y-67038459D02*
X27782259Y-66371792D01*
X27782259Y-66038459D02*
X27734640Y-66086078D01*
X27734640Y-66086078D02*
X27782259Y-66133697D01*
X27782259Y-66133697D02*
X27829878Y-66086078D01*
X27829878Y-66086078D02*
X27782259Y-66038459D01*
X27782259Y-66038459D02*
X27782259Y-66133697D01*
X28258449Y-66371792D02*
X28258449Y-67038459D01*
X28258449Y-66467030D02*
X28306068Y-66419411D01*
X28306068Y-66419411D02*
X28401306Y-66371792D01*
X28401306Y-66371792D02*
X28544163Y-66371792D01*
X28544163Y-66371792D02*
X28639401Y-66419411D01*
X28639401Y-66419411D02*
X28687020Y-66514649D01*
X28687020Y-66514649D02*
X28687020Y-67038459D01*
X29115592Y-66990840D02*
X29210830Y-67038459D01*
X29210830Y-67038459D02*
X29401306Y-67038459D01*
X29401306Y-67038459D02*
X29496544Y-66990840D01*
X29496544Y-66990840D02*
X29544163Y-66895601D01*
X29544163Y-66895601D02*
X29544163Y-66847982D01*
X29544163Y-66847982D02*
X29496544Y-66752744D01*
X29496544Y-66752744D02*
X29401306Y-66705125D01*
X29401306Y-66705125D02*
X29258449Y-66705125D01*
X29258449Y-66705125D02*
X29163211Y-66657506D01*
X29163211Y-66657506D02*
X29115592Y-66562268D01*
X29115592Y-66562268D02*
X29115592Y-66514649D01*
X29115592Y-66514649D02*
X29163211Y-66419411D01*
X29163211Y-66419411D02*
X29258449Y-66371792D01*
X29258449Y-66371792D02*
X29401306Y-66371792D01*
X29401306Y-66371792D02*
X29496544Y-66419411D01*
X30353687Y-66990840D02*
X30258449Y-67038459D01*
X30258449Y-67038459D02*
X30067973Y-67038459D01*
X30067973Y-67038459D02*
X29972735Y-66990840D01*
X29972735Y-66990840D02*
X29925116Y-66895601D01*
X29925116Y-66895601D02*
X29925116Y-66514649D01*
X29925116Y-66514649D02*
X29972735Y-66419411D01*
X29972735Y-66419411D02*
X30067973Y-66371792D01*
X30067973Y-66371792D02*
X30258449Y-66371792D01*
X30258449Y-66371792D02*
X30353687Y-66419411D01*
X30353687Y-66419411D02*
X30401306Y-66514649D01*
X30401306Y-66514649D02*
X30401306Y-66609887D01*
X30401306Y-66609887D02*
X29925116Y-66705125D01*
X30829878Y-67038459D02*
X30829878Y-66371792D01*
X30829878Y-66562268D02*
X30877497Y-66467030D01*
X30877497Y-66467030D02*
X30925116Y-66419411D01*
X30925116Y-66419411D02*
X31020354Y-66371792D01*
X31020354Y-66371792D02*
X31115592Y-66371792D01*
X31306069Y-66371792D02*
X31687021Y-66371792D01*
X31448926Y-66038459D02*
X31448926Y-66895601D01*
X31448926Y-66895601D02*
X31496545Y-66990840D01*
X31496545Y-66990840D02*
X31591783Y-67038459D01*
X31591783Y-67038459D02*
X31687021Y-67038459D01*
X32020355Y-67038459D02*
X32020355Y-66371792D01*
X32020355Y-66038459D02*
X31972736Y-66086078D01*
X31972736Y-66086078D02*
X32020355Y-66133697D01*
X32020355Y-66133697D02*
X32067974Y-66086078D01*
X32067974Y-66086078D02*
X32020355Y-66038459D01*
X32020355Y-66038459D02*
X32020355Y-66133697D01*
X32639402Y-67038459D02*
X32544164Y-66990840D01*
X32544164Y-66990840D02*
X32496545Y-66943220D01*
X32496545Y-66943220D02*
X32448926Y-66847982D01*
X32448926Y-66847982D02*
X32448926Y-66562268D01*
X32448926Y-66562268D02*
X32496545Y-66467030D01*
X32496545Y-66467030D02*
X32544164Y-66419411D01*
X32544164Y-66419411D02*
X32639402Y-66371792D01*
X32639402Y-66371792D02*
X32782259Y-66371792D01*
X32782259Y-66371792D02*
X32877497Y-66419411D01*
X32877497Y-66419411D02*
X32925116Y-66467030D01*
X32925116Y-66467030D02*
X32972735Y-66562268D01*
X32972735Y-66562268D02*
X32972735Y-66847982D01*
X32972735Y-66847982D02*
X32925116Y-66943220D01*
X32925116Y-66943220D02*
X32877497Y-66990840D01*
X32877497Y-66990840D02*
X32782259Y-67038459D01*
X32782259Y-67038459D02*
X32639402Y-67038459D01*
X33401307Y-66371792D02*
X33401307Y-67038459D01*
X33401307Y-66467030D02*
X33448926Y-66419411D01*
X33448926Y-66419411D02*
X33544164Y-66371792D01*
X33544164Y-66371792D02*
X33687021Y-66371792D01*
X33687021Y-66371792D02*
X33782259Y-66419411D01*
X33782259Y-66419411D02*
X33829878Y-66514649D01*
X33829878Y-66514649D02*
X33829878Y-67038459D01*
X34925117Y-66371792D02*
X35306069Y-66371792D01*
X35067974Y-66038459D02*
X35067974Y-66895601D01*
X35067974Y-66895601D02*
X35115593Y-66990840D01*
X35115593Y-66990840D02*
X35210831Y-67038459D01*
X35210831Y-67038459D02*
X35306069Y-67038459D01*
X35639403Y-67038459D02*
X35639403Y-66038459D01*
X36067974Y-67038459D02*
X36067974Y-66514649D01*
X36067974Y-66514649D02*
X36020355Y-66419411D01*
X36020355Y-66419411D02*
X35925117Y-66371792D01*
X35925117Y-66371792D02*
X35782260Y-66371792D01*
X35782260Y-66371792D02*
X35687022Y-66419411D01*
X35687022Y-66419411D02*
X35639403Y-66467030D01*
X36544165Y-67038459D02*
X36544165Y-66371792D01*
X36544165Y-66038459D02*
X36496546Y-66086078D01*
X36496546Y-66086078D02*
X36544165Y-66133697D01*
X36544165Y-66133697D02*
X36591784Y-66086078D01*
X36591784Y-66086078D02*
X36544165Y-66038459D01*
X36544165Y-66038459D02*
X36544165Y-66133697D01*
X37448926Y-66990840D02*
X37353688Y-67038459D01*
X37353688Y-67038459D02*
X37163212Y-67038459D01*
X37163212Y-67038459D02*
X37067974Y-66990840D01*
X37067974Y-66990840D02*
X37020355Y-66943220D01*
X37020355Y-66943220D02*
X36972736Y-66847982D01*
X36972736Y-66847982D02*
X36972736Y-66562268D01*
X36972736Y-66562268D02*
X37020355Y-66467030D01*
X37020355Y-66467030D02*
X37067974Y-66419411D01*
X37067974Y-66419411D02*
X37163212Y-66371792D01*
X37163212Y-66371792D02*
X37353688Y-66371792D01*
X37353688Y-66371792D02*
X37448926Y-66419411D01*
X37877498Y-67038459D02*
X37877498Y-66038459D01*
X37972736Y-66657506D02*
X38258450Y-67038459D01*
X38258450Y-66371792D02*
X37877498Y-66752744D01*
X38687022Y-66371792D02*
X38687022Y-67038459D01*
X38687022Y-66467030D02*
X38734641Y-66419411D01*
X38734641Y-66419411D02*
X38829879Y-66371792D01*
X38829879Y-66371792D02*
X38972736Y-66371792D01*
X38972736Y-66371792D02*
X39067974Y-66419411D01*
X39067974Y-66419411D02*
X39115593Y-66514649D01*
X39115593Y-66514649D02*
X39115593Y-67038459D01*
X39972736Y-66990840D02*
X39877498Y-67038459D01*
X39877498Y-67038459D02*
X39687022Y-67038459D01*
X39687022Y-67038459D02*
X39591784Y-66990840D01*
X39591784Y-66990840D02*
X39544165Y-66895601D01*
X39544165Y-66895601D02*
X39544165Y-66514649D01*
X39544165Y-66514649D02*
X39591784Y-66419411D01*
X39591784Y-66419411D02*
X39687022Y-66371792D01*
X39687022Y-66371792D02*
X39877498Y-66371792D01*
X39877498Y-66371792D02*
X39972736Y-66419411D01*
X39972736Y-66419411D02*
X40020355Y-66514649D01*
X40020355Y-66514649D02*
X40020355Y-66609887D01*
X40020355Y-66609887D02*
X39544165Y-66705125D01*
X40401308Y-66990840D02*
X40496546Y-67038459D01*
X40496546Y-67038459D02*
X40687022Y-67038459D01*
X40687022Y-67038459D02*
X40782260Y-66990840D01*
X40782260Y-66990840D02*
X40829879Y-66895601D01*
X40829879Y-66895601D02*
X40829879Y-66847982D01*
X40829879Y-66847982D02*
X40782260Y-66752744D01*
X40782260Y-66752744D02*
X40687022Y-66705125D01*
X40687022Y-66705125D02*
X40544165Y-66705125D01*
X40544165Y-66705125D02*
X40448927Y-66657506D01*
X40448927Y-66657506D02*
X40401308Y-66562268D01*
X40401308Y-66562268D02*
X40401308Y-66514649D01*
X40401308Y-66514649D02*
X40448927Y-66419411D01*
X40448927Y-66419411D02*
X40544165Y-66371792D01*
X40544165Y-66371792D02*
X40687022Y-66371792D01*
X40687022Y-66371792D02*
X40782260Y-66419411D01*
X41210832Y-66990840D02*
X41306070Y-67038459D01*
X41306070Y-67038459D02*
X41496546Y-67038459D01*
X41496546Y-67038459D02*
X41591784Y-66990840D01*
X41591784Y-66990840D02*
X41639403Y-66895601D01*
X41639403Y-66895601D02*
X41639403Y-66847982D01*
X41639403Y-66847982D02*
X41591784Y-66752744D01*
X41591784Y-66752744D02*
X41496546Y-66705125D01*
X41496546Y-66705125D02*
X41353689Y-66705125D01*
X41353689Y-66705125D02*
X41258451Y-66657506D01*
X41258451Y-66657506D02*
X41210832Y-66562268D01*
X41210832Y-66562268D02*
X41210832Y-66514649D01*
X41210832Y-66514649D02*
X41258451Y-66419411D01*
X41258451Y-66419411D02*
X41353689Y-66371792D01*
X41353689Y-66371792D02*
X41496546Y-66371792D01*
X41496546Y-66371792D02*
X41591784Y-66419411D01*
X42067975Y-66943220D02*
X42115594Y-66990840D01*
X42115594Y-66990840D02*
X42067975Y-67038459D01*
X42067975Y-67038459D02*
X42020356Y-66990840D01*
X42020356Y-66990840D02*
X42067975Y-66943220D01*
X42067975Y-66943220D02*
X42067975Y-67038459D01*
X42067975Y-66419411D02*
X42115594Y-66467030D01*
X42115594Y-66467030D02*
X42067975Y-66514649D01*
X42067975Y-66514649D02*
X42020356Y-66467030D01*
X42020356Y-66467030D02*
X42067975Y-66419411D01*
X42067975Y-66419411D02*
X42067975Y-66514649D01*
X43496546Y-66038459D02*
X43591784Y-66038459D01*
X43591784Y-66038459D02*
X43687022Y-66086078D01*
X43687022Y-66086078D02*
X43734641Y-66133697D01*
X43734641Y-66133697D02*
X43782260Y-66228935D01*
X43782260Y-66228935D02*
X43829879Y-66419411D01*
X43829879Y-66419411D02*
X43829879Y-66657506D01*
X43829879Y-66657506D02*
X43782260Y-66847982D01*
X43782260Y-66847982D02*
X43734641Y-66943220D01*
X43734641Y-66943220D02*
X43687022Y-66990840D01*
X43687022Y-66990840D02*
X43591784Y-67038459D01*
X43591784Y-67038459D02*
X43496546Y-67038459D01*
X43496546Y-67038459D02*
X43401308Y-66990840D01*
X43401308Y-66990840D02*
X43353689Y-66943220D01*
X43353689Y-66943220D02*
X43306070Y-66847982D01*
X43306070Y-66847982D02*
X43258451Y-66657506D01*
X43258451Y-66657506D02*
X43258451Y-66419411D01*
X43258451Y-66419411D02*
X43306070Y-66228935D01*
X43306070Y-66228935D02*
X43353689Y-66133697D01*
X43353689Y-66133697D02*
X43401308Y-66086078D01*
X43401308Y-66086078D02*
X43496546Y-66038459D01*
X44258451Y-66943220D02*
X44306070Y-66990840D01*
X44306070Y-66990840D02*
X44258451Y-67038459D01*
X44258451Y-67038459D02*
X44210832Y-66990840D01*
X44210832Y-66990840D02*
X44258451Y-66943220D01*
X44258451Y-66943220D02*
X44258451Y-67038459D01*
X44639403Y-66038459D02*
X45258450Y-66038459D01*
X45258450Y-66038459D02*
X44925117Y-66419411D01*
X44925117Y-66419411D02*
X45067974Y-66419411D01*
X45067974Y-66419411D02*
X45163212Y-66467030D01*
X45163212Y-66467030D02*
X45210831Y-66514649D01*
X45210831Y-66514649D02*
X45258450Y-66609887D01*
X45258450Y-66609887D02*
X45258450Y-66847982D01*
X45258450Y-66847982D02*
X45210831Y-66943220D01*
X45210831Y-66943220D02*
X45163212Y-66990840D01*
X45163212Y-66990840D02*
X45067974Y-67038459D01*
X45067974Y-67038459D02*
X44782260Y-67038459D01*
X44782260Y-67038459D02*
X44687022Y-66990840D01*
X44687022Y-66990840D02*
X44639403Y-66943220D01*
X45877498Y-66038459D02*
X45972736Y-66038459D01*
X45972736Y-66038459D02*
X46067974Y-66086078D01*
X46067974Y-66086078D02*
X46115593Y-66133697D01*
X46115593Y-66133697D02*
X46163212Y-66228935D01*
X46163212Y-66228935D02*
X46210831Y-66419411D01*
X46210831Y-66419411D02*
X46210831Y-66657506D01*
X46210831Y-66657506D02*
X46163212Y-66847982D01*
X46163212Y-66847982D02*
X46115593Y-66943220D01*
X46115593Y-66943220D02*
X46067974Y-66990840D01*
X46067974Y-66990840D02*
X45972736Y-67038459D01*
X45972736Y-67038459D02*
X45877498Y-67038459D01*
X45877498Y-67038459D02*
X45782260Y-66990840D01*
X45782260Y-66990840D02*
X45734641Y-66943220D01*
X45734641Y-66943220D02*
X45687022Y-66847982D01*
X45687022Y-66847982D02*
X45639403Y-66657506D01*
X45639403Y-66657506D02*
X45639403Y-66419411D01*
X45639403Y-66419411D02*
X45687022Y-66228935D01*
X45687022Y-66228935D02*
X45734641Y-66133697D01*
X45734641Y-66133697D02*
X45782260Y-66086078D01*
X45782260Y-66086078D02*
X45877498Y-66038459D01*
X47401308Y-66467030D02*
X48163213Y-66467030D01*
X47782260Y-66847982D02*
X47782260Y-66086078D01*
X48163213Y-67038459D02*
X47401308Y-67038459D01*
X49591784Y-66038459D02*
X49687022Y-66038459D01*
X49687022Y-66038459D02*
X49782260Y-66086078D01*
X49782260Y-66086078D02*
X49829879Y-66133697D01*
X49829879Y-66133697D02*
X49877498Y-66228935D01*
X49877498Y-66228935D02*
X49925117Y-66419411D01*
X49925117Y-66419411D02*
X49925117Y-66657506D01*
X49925117Y-66657506D02*
X49877498Y-66847982D01*
X49877498Y-66847982D02*
X49829879Y-66943220D01*
X49829879Y-66943220D02*
X49782260Y-66990840D01*
X49782260Y-66990840D02*
X49687022Y-67038459D01*
X49687022Y-67038459D02*
X49591784Y-67038459D01*
X49591784Y-67038459D02*
X49496546Y-66990840D01*
X49496546Y-66990840D02*
X49448927Y-66943220D01*
X49448927Y-66943220D02*
X49401308Y-66847982D01*
X49401308Y-66847982D02*
X49353689Y-66657506D01*
X49353689Y-66657506D02*
X49353689Y-66419411D01*
X49353689Y-66419411D02*
X49401308Y-66228935D01*
X49401308Y-66228935D02*
X49448927Y-66133697D01*
X49448927Y-66133697D02*
X49496546Y-66086078D01*
X49496546Y-66086078D02*
X49591784Y-66038459D01*
X50353689Y-66943220D02*
X50401308Y-66990840D01*
X50401308Y-66990840D02*
X50353689Y-67038459D01*
X50353689Y-67038459D02*
X50306070Y-66990840D01*
X50306070Y-66990840D02*
X50353689Y-66943220D01*
X50353689Y-66943220D02*
X50353689Y-67038459D01*
X51020355Y-66038459D02*
X51115593Y-66038459D01*
X51115593Y-66038459D02*
X51210831Y-66086078D01*
X51210831Y-66086078D02*
X51258450Y-66133697D01*
X51258450Y-66133697D02*
X51306069Y-66228935D01*
X51306069Y-66228935D02*
X51353688Y-66419411D01*
X51353688Y-66419411D02*
X51353688Y-66657506D01*
X51353688Y-66657506D02*
X51306069Y-66847982D01*
X51306069Y-66847982D02*
X51258450Y-66943220D01*
X51258450Y-66943220D02*
X51210831Y-66990840D01*
X51210831Y-66990840D02*
X51115593Y-67038459D01*
X51115593Y-67038459D02*
X51020355Y-67038459D01*
X51020355Y-67038459D02*
X50925117Y-66990840D01*
X50925117Y-66990840D02*
X50877498Y-66943220D01*
X50877498Y-66943220D02*
X50829879Y-66847982D01*
X50829879Y-66847982D02*
X50782260Y-66657506D01*
X50782260Y-66657506D02*
X50782260Y-66419411D01*
X50782260Y-66419411D02*
X50829879Y-66228935D01*
X50829879Y-66228935D02*
X50877498Y-66133697D01*
X50877498Y-66133697D02*
X50925117Y-66086078D01*
X50925117Y-66086078D02*
X51020355Y-66038459D01*
X52306069Y-67038459D02*
X51734641Y-67038459D01*
X52020355Y-67038459D02*
X52020355Y-66038459D01*
X52020355Y-66038459D02*
X51925117Y-66181316D01*
X51925117Y-66181316D02*
X51829879Y-66276554D01*
X51829879Y-66276554D02*
X51734641Y-66324173D01*
X53496546Y-67038459D02*
X53496546Y-66371792D01*
X53496546Y-66467030D02*
X53544165Y-66419411D01*
X53544165Y-66419411D02*
X53639403Y-66371792D01*
X53639403Y-66371792D02*
X53782260Y-66371792D01*
X53782260Y-66371792D02*
X53877498Y-66419411D01*
X53877498Y-66419411D02*
X53925117Y-66514649D01*
X53925117Y-66514649D02*
X53925117Y-67038459D01*
X53925117Y-66514649D02*
X53972736Y-66419411D01*
X53972736Y-66419411D02*
X54067974Y-66371792D01*
X54067974Y-66371792D02*
X54210831Y-66371792D01*
X54210831Y-66371792D02*
X54306070Y-66419411D01*
X54306070Y-66419411D02*
X54353689Y-66514649D01*
X54353689Y-66514649D02*
X54353689Y-67038459D01*
X54829879Y-67038459D02*
X54829879Y-66371792D01*
X54829879Y-66467030D02*
X54877498Y-66419411D01*
X54877498Y-66419411D02*
X54972736Y-66371792D01*
X54972736Y-66371792D02*
X55115593Y-66371792D01*
X55115593Y-66371792D02*
X55210831Y-66419411D01*
X55210831Y-66419411D02*
X55258450Y-66514649D01*
X55258450Y-66514649D02*
X55258450Y-67038459D01*
X55258450Y-66514649D02*
X55306069Y-66419411D01*
X55306069Y-66419411D02*
X55401307Y-66371792D01*
X55401307Y-66371792D02*
X55544164Y-66371792D01*
X55544164Y-66371792D02*
X55639403Y-66419411D01*
X55639403Y-66419411D02*
X55687022Y-66514649D01*
X55687022Y-66514649D02*
X55687022Y-67038459D01*
X16687019Y-68124593D02*
X16353686Y-68124593D01*
X16353686Y-68648403D02*
X16353686Y-67648403D01*
X16353686Y-67648403D02*
X16829876Y-67648403D01*
X17782257Y-68648403D02*
X17448924Y-68172212D01*
X17210829Y-68648403D02*
X17210829Y-67648403D01*
X17210829Y-67648403D02*
X17591781Y-67648403D01*
X17591781Y-67648403D02*
X17687019Y-67696022D01*
X17687019Y-67696022D02*
X17734638Y-67743641D01*
X17734638Y-67743641D02*
X17782257Y-67838879D01*
X17782257Y-67838879D02*
X17782257Y-67981736D01*
X17782257Y-67981736D02*
X17734638Y-68076974D01*
X17734638Y-68076974D02*
X17687019Y-68124593D01*
X17687019Y-68124593D02*
X17591781Y-68172212D01*
X17591781Y-68172212D02*
X17210829Y-68172212D01*
X18401305Y-67648403D02*
X18591781Y-67648403D01*
X18591781Y-67648403D02*
X18687019Y-67696022D01*
X18687019Y-67696022D02*
X18782257Y-67791260D01*
X18782257Y-67791260D02*
X18829876Y-67981736D01*
X18829876Y-67981736D02*
X18829876Y-68315069D01*
X18829876Y-68315069D02*
X18782257Y-68505545D01*
X18782257Y-68505545D02*
X18687019Y-68600784D01*
X18687019Y-68600784D02*
X18591781Y-68648403D01*
X18591781Y-68648403D02*
X18401305Y-68648403D01*
X18401305Y-68648403D02*
X18306067Y-68600784D01*
X18306067Y-68600784D02*
X18210829Y-68505545D01*
X18210829Y-68505545D02*
X18163210Y-68315069D01*
X18163210Y-68315069D02*
X18163210Y-67981736D01*
X18163210Y-67981736D02*
X18210829Y-67791260D01*
X18210829Y-67791260D02*
X18306067Y-67696022D01*
X18306067Y-67696022D02*
X18401305Y-67648403D01*
X19258448Y-68648403D02*
X19258448Y-67648403D01*
X19258448Y-67648403D02*
X19829876Y-68648403D01*
X19829876Y-68648403D02*
X19829876Y-67648403D01*
X20163210Y-67648403D02*
X20734638Y-67648403D01*
X20448924Y-68648403D02*
X20448924Y-67648403D01*
X21782258Y-68600784D02*
X21925115Y-68648403D01*
X21925115Y-68648403D02*
X22163210Y-68648403D01*
X22163210Y-68648403D02*
X22258448Y-68600784D01*
X22258448Y-68600784D02*
X22306067Y-68553164D01*
X22306067Y-68553164D02*
X22353686Y-68457926D01*
X22353686Y-68457926D02*
X22353686Y-68362688D01*
X22353686Y-68362688D02*
X22306067Y-68267450D01*
X22306067Y-68267450D02*
X22258448Y-68219831D01*
X22258448Y-68219831D02*
X22163210Y-68172212D01*
X22163210Y-68172212D02*
X21972734Y-68124593D01*
X21972734Y-68124593D02*
X21877496Y-68076974D01*
X21877496Y-68076974D02*
X21829877Y-68029355D01*
X21829877Y-68029355D02*
X21782258Y-67934117D01*
X21782258Y-67934117D02*
X21782258Y-67838879D01*
X21782258Y-67838879D02*
X21829877Y-67743641D01*
X21829877Y-67743641D02*
X21877496Y-67696022D01*
X21877496Y-67696022D02*
X21972734Y-67648403D01*
X21972734Y-67648403D02*
X22210829Y-67648403D01*
X22210829Y-67648403D02*
X22353686Y-67696022D01*
X22782258Y-68648403D02*
X22782258Y-67648403D01*
X23258448Y-68648403D02*
X23258448Y-67648403D01*
X23258448Y-67648403D02*
X23496543Y-67648403D01*
X23496543Y-67648403D02*
X23639400Y-67696022D01*
X23639400Y-67696022D02*
X23734638Y-67791260D01*
X23734638Y-67791260D02*
X23782257Y-67886498D01*
X23782257Y-67886498D02*
X23829876Y-68076974D01*
X23829876Y-68076974D02*
X23829876Y-68219831D01*
X23829876Y-68219831D02*
X23782257Y-68410307D01*
X23782257Y-68410307D02*
X23734638Y-68505545D01*
X23734638Y-68505545D02*
X23639400Y-68600784D01*
X23639400Y-68600784D02*
X23496543Y-68648403D01*
X23496543Y-68648403D02*
X23258448Y-68648403D01*
X24258448Y-68124593D02*
X24591781Y-68124593D01*
X24734638Y-68648403D02*
X24258448Y-68648403D01*
X24258448Y-68648403D02*
X24258448Y-67648403D01*
X24258448Y-67648403D02*
X24734638Y-67648403D01*
G36*
X92260782Y-31809466D02*
G01*
X92280471Y-31810741D01*
X92334561Y-31827154D01*
X92371925Y-31848774D01*
X92417178Y-31894048D01*
X92438838Y-31931521D01*
X92455211Y-31985389D01*
X92456516Y-32005113D01*
X92456787Y-32013299D01*
X92456790Y-37685207D01*
X92437105Y-37752246D01*
X92384302Y-37798001D01*
X92332790Y-37809207D01*
X84080791Y-37809207D01*
X84013752Y-37789522D01*
X83967997Y-37736718D01*
X83956791Y-37685207D01*
X83956791Y-32011783D01*
X83956899Y-32006598D01*
X83957523Y-31991689D01*
X83966840Y-31949456D01*
X83979180Y-31919639D01*
X84006070Y-31879380D01*
X84026965Y-31858483D01*
X84067221Y-31831589D01*
X84097018Y-31819254D01*
X84139298Y-31809932D01*
X84154168Y-31809314D01*
X84159317Y-31809207D01*
X92252769Y-31809207D01*
X92260782Y-31809466D01*
G37*
G36*
X15893657Y-71381462D02*
G01*
X15934156Y-71394110D01*
X15947305Y-71400866D01*
X15952636Y-71403772D01*
X20865644Y-74240300D01*
X20913860Y-74290867D01*
X20927083Y-74359474D01*
X20911031Y-74409687D01*
X16785037Y-81556129D01*
X16734470Y-81604345D01*
X16665863Y-81617568D01*
X16615650Y-81601516D01*
X11702248Y-78764761D01*
X11697996Y-78762191D01*
X11685363Y-78754206D01*
X11653256Y-78724898D01*
X11633667Y-78699381D01*
X11612246Y-78655946D01*
X11604602Y-78627400D01*
X11601451Y-78579081D01*
X11605676Y-78547109D01*
X11618760Y-78505825D01*
X11625705Y-78492564D01*
X11628165Y-78488093D01*
X13637120Y-75008478D01*
X15675407Y-71478063D01*
X15678543Y-71472923D01*
X15686565Y-71460467D01*
X15715352Y-71429214D01*
X15741202Y-71409388D01*
X15784580Y-71388004D01*
X15813066Y-71380373D01*
X15861322Y-71377209D01*
X15893657Y-71381462D01*
G37*
M02*
