%TF.GenerationSoftware,KiCad,Pcbnew,10.0.3*%
%TF.CreationDate,2026-06-25T17:13:28+01:00*%
%TF.ProjectId,FSR-array,4653522d-6172-4726-9179-2e6b69636164,2.3.1*%
%TF.SameCoordinates,Original*%
%TF.FileFunction,Profile,NP*%
%FSLAX46Y46*%
G04 Gerber Fmt 4.6, Leading zero omitted, Abs format (unit mm)*
G04 Created by KiCad (PCBNEW 10.0.3) date 2026-06-25 17:13:28*
%MOMM*%
%LPD*%
G01*
G04 APERTURE LIST*
%TA.AperFunction,Profile*%
%ADD10C,0.010000*%
%TD*%
%ADD11C,0.010000*%
%TA.AperFunction,Profile*%
%ADD12C,0.038100*%
%TD*%
G04 APERTURE END LIST*
D10*
X21894792Y-77605768D02*
X20973031Y-74302300D01*
X49202417Y-119549260D02*
X67319926Y-150938820D01*
D11*
X49222249Y-116309684D02*
X49214324Y-116323414D01*
X49206476Y-116337168D01*
X49198708Y-116350946D01*
X49191017Y-116364747D01*
X49183405Y-116378573D01*
X49175870Y-116392422D01*
X49168413Y-116406296D01*
X49161034Y-116420194D01*
X49153732Y-116434116D01*
X49146508Y-116448062D01*
X49139361Y-116462033D01*
X49132291Y-116476028D01*
X49125298Y-116490048D01*
X49118382Y-116504092D01*
X49111543Y-116518161D01*
X49104781Y-116532255D01*
X49098095Y-116546374D01*
X49091486Y-116560517D01*
X49084953Y-116574686D01*
X49078497Y-116588879D01*
X49072116Y-116603098D01*
X49065813Y-116617341D01*
X49059585Y-116631610D01*
X49053433Y-116645905D01*
X49047357Y-116660224D01*
X49041357Y-116674570D01*
X49035433Y-116688940D01*
X49029585Y-116703337D01*
X49023812Y-116717759D01*
X49018115Y-116732207D01*
X49012494Y-116746681D01*
X49006948Y-116761180D01*
X49001478Y-116775706D01*
X48996083Y-116790258D01*
X48990764Y-116804836D01*
X48985520Y-116819440D01*
X48980351Y-116834071D01*
X48975258Y-116848728D01*
X48970240Y-116863412D01*
X48965297Y-116878122D01*
X48960429Y-116892858D01*
X48955637Y-116907622D01*
X48950920Y-116922412D01*
X48946278Y-116937229D01*
X48941711Y-116952073D01*
X48937220Y-116966943D01*
X48932804Y-116981841D01*
X48928463Y-116996766D01*
X48924197Y-117011719D01*
X48920006Y-117026698D01*
X48915891Y-117041705D01*
X48911851Y-117056739D01*
X48907886Y-117071801D01*
X48903996Y-117086890D01*
X48900182Y-117102007D01*
X48896443Y-117117151D01*
X48892779Y-117132323D01*
X48889191Y-117147523D01*
X48885678Y-117162750D01*
X48882241Y-117178005D01*
X48878879Y-117193289D01*
X48875593Y-117208600D01*
X48872382Y-117223939D01*
X48869247Y-117239306D01*
X48866188Y-117254702D01*
X48863205Y-117270125D01*
X48860297Y-117285577D01*
X48857465Y-117301057D01*
X48854709Y-117316565D01*
X48852029Y-117332101D01*
X48849425Y-117347665D01*
X48846898Y-117363258D01*
X48844446Y-117378879D01*
X48842071Y-117394529D01*
X48839773Y-117410207D01*
X48837550Y-117425913D01*
X48835405Y-117441648D01*
X48833336Y-117457411D01*
X48831343Y-117473202D01*
X48829428Y-117489022D01*
X48827589Y-117504870D01*
X48825828Y-117520747D01*
X48824143Y-117536652D01*
X48822536Y-117552585D01*
X48821006Y-117568547D01*
X48819554Y-117584537D01*
X48818178Y-117600555D01*
X48816881Y-117616601D01*
X48815661Y-117632676D01*
X48814520Y-117648778D01*
X48813456Y-117664909D01*
X48812470Y-117681068D01*
X48811562Y-117697255D01*
X48810733Y-117713469D01*
X48809982Y-117729712D01*
X48809310Y-117745982D01*
X48808716Y-117762280D01*
X48808201Y-117778605D01*
X48807765Y-117794958D01*
X48807408Y-117811338D01*
X48807131Y-117827746D01*
X48806932Y-117844180D01*
X48806813Y-117860642D01*
X48806773Y-117877130D01*
X48806813Y-117893645D01*
X48806933Y-117910186D01*
X48807133Y-117926754D01*
X48807413Y-117943348D01*
X48807772Y-117959968D01*
X48808213Y-117976614D01*
X48808733Y-117993285D01*
X48809334Y-118009982D01*
X48810016Y-118026704D01*
X48810778Y-118043450D01*
X48811622Y-118060221D01*
X48812546Y-118077017D01*
X48813552Y-118093837D01*
X48814638Y-118110680D01*
X48815806Y-118127548D01*
X48817056Y-118144438D01*
X48818387Y-118161351D01*
X48819800Y-118178287D01*
X48821294Y-118195244D01*
X48822871Y-118212224D01*
X48824529Y-118229225D01*
X48826269Y-118246246D01*
X48828092Y-118263289D01*
X48829997Y-118280351D01*
X48831984Y-118297433D01*
X48834053Y-118314534D01*
X48836205Y-118331654D01*
X48838439Y-118348792D01*
X48840756Y-118365947D01*
X48843156Y-118383120D01*
X48845638Y-118400308D01*
X48848203Y-118417512D01*
X48850850Y-118434732D01*
X48853580Y-118451965D01*
X48856393Y-118469213D01*
X48859289Y-118486473D01*
X48862267Y-118503745D01*
X48865328Y-118521029D01*
X48868471Y-118538323D01*
X48871697Y-118555627D01*
X48875006Y-118572940D01*
X48878397Y-118590260D01*
X48881870Y-118607587D01*
X48885426Y-118624920D01*
X48889063Y-118642257D01*
X48892783Y-118659598D01*
X48896584Y-118676941D01*
X48900467Y-118694285D01*
X48904431Y-118711630D01*
X48908476Y-118728972D01*
X48912602Y-118746312D01*
X48916809Y-118763647D01*
X48921096Y-118780976D01*
X48925463Y-118798298D01*
X48929909Y-118815611D01*
X48934434Y-118832912D01*
X48939038Y-118850201D01*
X48943720Y-118867475D01*
X48948480Y-118884732D01*
X48953316Y-118901970D01*
X48958229Y-118919187D01*
X48963218Y-118936381D01*
X48968281Y-118953549D01*
X48973419Y-118970688D01*
X48978630Y-118987796D01*
X48983913Y-119004869D01*
X48989268Y-119021905D01*
X48994692Y-119038901D01*
X49000186Y-119055853D01*
X49005747Y-119072758D01*
X49011375Y-119089611D01*
X49017067Y-119106409D01*
X49022822Y-119123147D01*
X49028639Y-119139821D01*
X49034515Y-119156425D01*
X49040448Y-119172955D01*
X49046436Y-119189406D01*
X49052476Y-119205770D01*
X49058567Y-119222042D01*
X49064703Y-119238214D01*
X49070884Y-119254279D01*
X49077104Y-119270230D01*
X49083359Y-119286056D01*
X49089646Y-119301749D01*
X49095960Y-119317298D01*
X49102295Y-119332692D01*
X49108644Y-119347917D01*
X49115002Y-119362960D01*
X49121361Y-119377805D01*
X49127711Y-119392434D01*
X49134044Y-119406828D01*
X49140347Y-119420963D01*
X49146607Y-119434813D01*
X49152808Y-119448348D01*
X49158933Y-119461533D01*
X49164957Y-119474323D01*
X49170855Y-119486667D01*
X49176589Y-119498498D01*
X49182115Y-119509730D01*
X49187370Y-119520248D01*
X49192262Y-119529885D01*
X49196647Y-119538375D01*
X49200251Y-119545227D01*
X49202417Y-119549260D01*
D12*
X11700088Y-78763514D02*
G75*
G02*
X11626876Y-78490307I99798J173156D01*
G01*
X11700088Y-78763514D02*
X16723038Y-81663517D01*
X15676884Y-71475503D02*
X11626885Y-78490312D01*
X15676884Y-71475503D02*
G75*
G02*
X15950080Y-71402321I173202J-100055D01*
G01*
X15950092Y-71402299D02*
X20973031Y-74302300D01*
D10*
X16723038Y-81663517D02*
X20001496Y-80785057D01*
D11*
X55898245Y-101510063D02*
X55904442Y-101513655D01*
X55910611Y-101517253D01*
X55916752Y-101520859D01*
X55922865Y-101524471D01*
X55928950Y-101528090D01*
X55935008Y-101531716D01*
X55941039Y-101535349D01*
X55947041Y-101538988D01*
X55953017Y-101542634D01*
X55958965Y-101546287D01*
X55964886Y-101549947D01*
X55970780Y-101553613D01*
X55976647Y-101557286D01*
X55982486Y-101560965D01*
X55988299Y-101564652D01*
X55994085Y-101568345D01*
X55999844Y-101572044D01*
X56005576Y-101575750D01*
X56011282Y-101579463D01*
X56016961Y-101583182D01*
X56022614Y-101586908D01*
X56028240Y-101590640D01*
X56033840Y-101594379D01*
X56039414Y-101598124D01*
X56044962Y-101601875D01*
X56050483Y-101605633D01*
X56055978Y-101609398D01*
X56061447Y-101613169D01*
X56066891Y-101616946D01*
X56072309Y-101620730D01*
X56077701Y-101624520D01*
X56083067Y-101628316D01*
X56088408Y-101632119D01*
X56093723Y-101635928D01*
X56099013Y-101639744D01*
X56104277Y-101643565D01*
X56109516Y-101647394D01*
X56114729Y-101651228D01*
X56119918Y-101655069D01*
X56125081Y-101658915D01*
X56130220Y-101662768D01*
X56135333Y-101666627D01*
X56140422Y-101670493D01*
X56145485Y-101674365D01*
X56150524Y-101678243D01*
X56155538Y-101682127D01*
X56160528Y-101686017D01*
X56165492Y-101689913D01*
X56170434Y-101693817D01*
X56175349Y-101697725D01*
X56180241Y-101701640D01*
X56185108Y-101705561D01*
X56189952Y-101709488D01*
X56194770Y-101713421D01*
X56199566Y-101717361D01*
X56204336Y-101721306D01*
X56209083Y-101725258D01*
X56213806Y-101729215D01*
X56218506Y-101733179D01*
X56223180Y-101737148D01*
X56227833Y-101741125D01*
X56232460Y-101745106D01*
X56237065Y-101749095D01*
X56241645Y-101753088D01*
X56246203Y-101757088D01*
X56250736Y-101761094D01*
X56255248Y-101765106D01*
X56259734Y-101769124D01*
X56264199Y-101773148D01*
X56268640Y-101777178D01*
X56273058Y-101781214D01*
X56277452Y-101785256D01*
X56281825Y-101789304D01*
X56286173Y-101793358D01*
X56290500Y-101797418D01*
X56294803Y-101801483D01*
X56299084Y-101805556D01*
X56303341Y-101809633D01*
X56307577Y-101813718D01*
X56311789Y-101817807D01*
X56315980Y-101821904D01*
X56320147Y-101826004D01*
X56324293Y-101830113D01*
X56328415Y-101834226D01*
X56332517Y-101838346D01*
X56336594Y-101842471D01*
X56340651Y-101846604D01*
X56344685Y-101850740D01*
X56348698Y-101854885D01*
X56352687Y-101859033D01*
X56356656Y-101863189D01*
X56360601Y-101867350D01*
X56364526Y-101871518D01*
X56368428Y-101875690D01*
X56372310Y-101879871D01*
X56376168Y-101884055D01*
X56380006Y-101888247D01*
X56383821Y-101892443D01*
X56387616Y-101896647D01*
X56391388Y-101900855D01*
X56398869Y-101909291D01*
X56406265Y-101917751D01*
X56413576Y-101926235D01*
X56420802Y-101934743D01*
X56427944Y-101943275D01*
X56435002Y-101951831D01*
X56441977Y-101960411D01*
X56448868Y-101969016D01*
X56455677Y-101977644D01*
X56462403Y-101986297D01*
X56469047Y-101994974D01*
X56475609Y-102003675D01*
X56482090Y-102012401D01*
X56488489Y-102021152D01*
X56494808Y-102029927D01*
X56501046Y-102038726D01*
X56507204Y-102047551D01*
X56513282Y-102056400D01*
X56519281Y-102065274D01*
X56525200Y-102074173D01*
X56531039Y-102083098D01*
X56536800Y-102092047D01*
X56542483Y-102101022D01*
X56548087Y-102110022D01*
X56553613Y-102119047D01*
X56559061Y-102128098D01*
X56564431Y-102137175D01*
X56569724Y-102146277D01*
X56574940Y-102155406D01*
X56580079Y-102164560D01*
X56585141Y-102173741D01*
X56590126Y-102182948D01*
X56595035Y-102192181D01*
X56599868Y-102201440D01*
X56604624Y-102210727D01*
X56609305Y-102220040D01*
X56613910Y-102229380D01*
X56618439Y-102238747D01*
X56622893Y-102248141D01*
X56627272Y-102257562D01*
X56631575Y-102267011D01*
X56635803Y-102276487D01*
X56639957Y-102285991D01*
X56644035Y-102295523D01*
X56648039Y-102305083D01*
X56651968Y-102314671D01*
X56655822Y-102324287D01*
X56659602Y-102333932D01*
X56663307Y-102343605D01*
X56666938Y-102353306D01*
X56670494Y-102363037D01*
X56673976Y-102372796D01*
X56677384Y-102382585D01*
X56680718Y-102392403D01*
X56683977Y-102402250D01*
X56687162Y-102412127D01*
X56690273Y-102422034D01*
X56693310Y-102431970D01*
X56696272Y-102441936D01*
X56699161Y-102451933D01*
X56701975Y-102461959D01*
X56704714Y-102472016D01*
X56707380Y-102482104D01*
X56709971Y-102492222D01*
X56712487Y-102502371D01*
X56714929Y-102512551D01*
X56717297Y-102522761D01*
X56719590Y-102533003D01*
X56721808Y-102543277D01*
X56723951Y-102553581D01*
X56726020Y-102563917D01*
X56728013Y-102574285D01*
X56729932Y-102584685D01*
X56731775Y-102595116D01*
X56733543Y-102605579D01*
X56735236Y-102616074D01*
X56736853Y-102626601D01*
X56738394Y-102637161D01*
X56739860Y-102647753D01*
X56741249Y-102658377D01*
X56742563Y-102669033D01*
X56743800Y-102679722D01*
X56744960Y-102690443D01*
X56746044Y-102701197D01*
X56747051Y-102711984D01*
X56747982Y-102722803D01*
X56748835Y-102733655D01*
X56749610Y-102744539D01*
X56750308Y-102755456D01*
X56750929Y-102766406D01*
X56751471Y-102777388D01*
X56751936Y-102788403D01*
X56752322Y-102799450D01*
X56752629Y-102810530D01*
X56752858Y-102821643D01*
X56753007Y-102832788D01*
X56753078Y-102843965D01*
X56753069Y-102855174D01*
X56752980Y-102866415D01*
X56752812Y-102877688D01*
X56752563Y-102888993D01*
X56752234Y-102900330D01*
X56751825Y-102911698D01*
X56751335Y-102923097D01*
X56750763Y-102934527D01*
X56750111Y-102945988D01*
X56749377Y-102957480D01*
X56748562Y-102969001D01*
X56747664Y-102980553D01*
X56746685Y-102992134D01*
X56745623Y-103003744D01*
X56744479Y-103015383D01*
X56743252Y-103027050D01*
X56741942Y-103038745D01*
X56740549Y-103050468D01*
X56739073Y-103062217D01*
X56737514Y-103073993D01*
X56735870Y-103085795D01*
X56734144Y-103097622D01*
X56732333Y-103109473D01*
X56730438Y-103121348D01*
X56728459Y-103133246D01*
X56726396Y-103145166D01*
X56724249Y-103157107D01*
X56722017Y-103169069D01*
X56719701Y-103181051D01*
X56717301Y-103193050D01*
X56714816Y-103205067D01*
X56712247Y-103217100D01*
X56709594Y-103229148D01*
X56706856Y-103241209D01*
X56704035Y-103253282D01*
X56701130Y-103265366D01*
X56698141Y-103277459D01*
X56695068Y-103289559D01*
X56691913Y-103301665D01*
X56688675Y-103313773D01*
X56685354Y-103325884D01*
X56681952Y-103337993D01*
X56678469Y-103350100D01*
X56674905Y-103362200D01*
X56671261Y-103374292D01*
X56667538Y-103386373D01*
X56663737Y-103398439D01*
X56659859Y-103410488D01*
X56655905Y-103422515D01*
X56651876Y-103434517D01*
X56647774Y-103446489D01*
X56643601Y-103458427D01*
X56639358Y-103470326D01*
X56635047Y-103482180D01*
X56630671Y-103493985D01*
X56626233Y-103505733D01*
X56621734Y-103517417D01*
X56617180Y-103529031D01*
X56612572Y-103540564D01*
X56607916Y-103552009D01*
X56603217Y-103563355D01*
X56598479Y-103574589D01*
X56593709Y-103585699D01*
X56588915Y-103596670D01*
X56584105Y-103607485D01*
X56579288Y-103618125D01*
X56574478Y-103628566D01*
X56569687Y-103638782D01*
X56564933Y-103648740D01*
X56560237Y-103658401D01*
X56555627Y-103667717D01*
X56551137Y-103676622D01*
X56546815Y-103685034D01*
X56542730Y-103692831D01*
X56538988Y-103699828D01*
X56535779Y-103705698D01*
X56533205Y-103710281D01*
D10*
X56533205Y-103710281D02*
X49222249Y-116309684D01*
D11*
X57748249Y-98305763D02*
X57754458Y-98309334D01*
X57760659Y-98312877D01*
X57766852Y-98316392D01*
X57773037Y-98319880D01*
X57779214Y-98323341D01*
X57785383Y-98326774D01*
X57791544Y-98330181D01*
X57797697Y-98333559D01*
X57803842Y-98336911D01*
X57809980Y-98340236D01*
X57816110Y-98343534D01*
X57822232Y-98346805D01*
X57828346Y-98350049D01*
X57834452Y-98353266D01*
X57840551Y-98356457D01*
X57846642Y-98359622D01*
X57852726Y-98362759D01*
X57858801Y-98365871D01*
X57864870Y-98368956D01*
X57870930Y-98372014D01*
X57876983Y-98375047D01*
X57883028Y-98378053D01*
X57889066Y-98381034D01*
X57895096Y-98383988D01*
X57901119Y-98386917D01*
X57907134Y-98389819D01*
X57913142Y-98392696D01*
X57919142Y-98395547D01*
X57925136Y-98398373D01*
X57931121Y-98401173D01*
X57937100Y-98403947D01*
X57943070Y-98406696D01*
X57949034Y-98409420D01*
X57954990Y-98412118D01*
X57960940Y-98414792D01*
X57966881Y-98417440D01*
X57972816Y-98420063D01*
X57978743Y-98422661D01*
X57984664Y-98425234D01*
X57990577Y-98427782D01*
X57996483Y-98430306D01*
X58002382Y-98432804D01*
X58008274Y-98435278D01*
X58014158Y-98437727D01*
X58020037Y-98440153D01*
X58025907Y-98442553D01*
X58031771Y-98444929D01*
X58037628Y-98447280D01*
X58043478Y-98449608D01*
X58049321Y-98451910D01*
X58055158Y-98454189D01*
X58060986Y-98456444D01*
X58066810Y-98458675D01*
X58072625Y-98460881D01*
X58078435Y-98463064D01*
X58084236Y-98465223D01*
X58090032Y-98467359D01*
X58095820Y-98469470D01*
X58101604Y-98471558D01*
X58107378Y-98473621D01*
X58113148Y-98475662D01*
X58118910Y-98477679D01*
X58124666Y-98479673D01*
X58130415Y-98481643D01*
X58136158Y-98483590D01*
X58141894Y-98485513D01*
X58147624Y-98487414D01*
X58153347Y-98489291D01*
X58159065Y-98491145D01*
X58164774Y-98492976D01*
X58170479Y-98494784D01*
X58176176Y-98496569D01*
X58181869Y-98498331D01*
X58187553Y-98500070D01*
X58193233Y-98501787D01*
X58198905Y-98503480D01*
X58204573Y-98505152D01*
X58210232Y-98506800D01*
X58215888Y-98508426D01*
X58221535Y-98510029D01*
X58227178Y-98511610D01*
X58232813Y-98513169D01*
X58238444Y-98514705D01*
X58244067Y-98516218D01*
X58249686Y-98517710D01*
X58255297Y-98519179D01*
X58260905Y-98520626D01*
X58266504Y-98522051D01*
X58272099Y-98523454D01*
X58277686Y-98524835D01*
X58283271Y-98526194D01*
X58288846Y-98527530D01*
X58294419Y-98528845D01*
X58299983Y-98530138D01*
X58305544Y-98531410D01*
X58311096Y-98532659D01*
X58316646Y-98533887D01*
X58322187Y-98535092D01*
X58327726Y-98536277D01*
X58333256Y-98537440D01*
X58344303Y-98539700D01*
X58355327Y-98541875D01*
X58366330Y-98543965D01*
X58377311Y-98545969D01*
X58388271Y-98547888D01*
X58399210Y-98549722D01*
X58410128Y-98551472D01*
X58421025Y-98553138D01*
X58431902Y-98554721D01*
X58442758Y-98556219D01*
X58453595Y-98557634D01*
X58464412Y-98558967D01*
X58475209Y-98560216D01*
X58485987Y-98561383D01*
X58496745Y-98562468D01*
X58507485Y-98563470D01*
X58518206Y-98564391D01*
X58528909Y-98565230D01*
X58539594Y-98565988D01*
X58550260Y-98566664D01*
X58560908Y-98567260D01*
X58571539Y-98567774D01*
X58582153Y-98568208D01*
X58592749Y-98568561D01*
X58603328Y-98568834D01*
X58613891Y-98569026D01*
X58624436Y-98569139D01*
X58634966Y-98569171D01*
X58645479Y-98569124D01*
X58655977Y-98568997D01*
X58666458Y-98568791D01*
X58676924Y-98568505D01*
X58687375Y-98568139D01*
X58697810Y-98567695D01*
X58708231Y-98567171D01*
X58718637Y-98566568D01*
X58729028Y-98565886D01*
X58739404Y-98565125D01*
X58749767Y-98564285D01*
X58760115Y-98563366D01*
X58770450Y-98562369D01*
X58780771Y-98561292D01*
X58791078Y-98560137D01*
X58801372Y-98558903D01*
X58811653Y-98557590D01*
X58821920Y-98556199D01*
X58832175Y-98554729D01*
X58842418Y-98553180D01*
X58852647Y-98551552D01*
X58862865Y-98549846D01*
X58873070Y-98548060D01*
X58883263Y-98546196D01*
X58893444Y-98544253D01*
X58903614Y-98542231D01*
X58913771Y-98540130D01*
X58923917Y-98537950D01*
X58934052Y-98535691D01*
X58944176Y-98533352D01*
X58954288Y-98530935D01*
X58964389Y-98528438D01*
X58974479Y-98525862D01*
X58984559Y-98523206D01*
X58994627Y-98520470D01*
X59004686Y-98517655D01*
X59014733Y-98514760D01*
X59024770Y-98511785D01*
X59034797Y-98508730D01*
X59044813Y-98505594D01*
X59054819Y-98502379D01*
X59064815Y-98499083D01*
X59074800Y-98495706D01*
X59084776Y-98492249D01*
X59094741Y-98488710D01*
X59104697Y-98485091D01*
X59114642Y-98481391D01*
X59124577Y-98477609D01*
X59134503Y-98473746D01*
X59144418Y-98469801D01*
X59154323Y-98465774D01*
X59164219Y-98461665D01*
X59174104Y-98457474D01*
X59183980Y-98453201D01*
X59193845Y-98448846D01*
X59203700Y-98444407D01*
X59213545Y-98439886D01*
X59223380Y-98435282D01*
X59233204Y-98430595D01*
X59243018Y-98425825D01*
X59252822Y-98420971D01*
X59262615Y-98416033D01*
X59272397Y-98411012D01*
X59282168Y-98405906D01*
X59291928Y-98400717D01*
X59301678Y-98395443D01*
X59311416Y-98390085D01*
X59321142Y-98384642D01*
X59330857Y-98379115D01*
X59340560Y-98373502D01*
X59350251Y-98367805D01*
X59359929Y-98362022D01*
X59369596Y-98356154D01*
X59379249Y-98350201D01*
X59388889Y-98344163D01*
X59398516Y-98338039D01*
X59408129Y-98331829D01*
X59417728Y-98325533D01*
X59427313Y-98319152D01*
X59436883Y-98312685D01*
X59446439Y-98306132D01*
X59455978Y-98299493D01*
X59465502Y-98292769D01*
X59475010Y-98285958D01*
X59484500Y-98279062D01*
X59493974Y-98272080D01*
X59503429Y-98265012D01*
X59512867Y-98257859D01*
X59522285Y-98250621D01*
X59531684Y-98243297D01*
X59541063Y-98235888D01*
X59550421Y-98228394D01*
X59559758Y-98220816D01*
X59569072Y-98213153D01*
X59578364Y-98205406D01*
X59587632Y-98197576D01*
X59596875Y-98189662D01*
X59606093Y-98181666D01*
X59615285Y-98173587D01*
X59624449Y-98165427D01*
X59633586Y-98157186D01*
X59642693Y-98148864D01*
X59651769Y-98140463D01*
X59660814Y-98131982D01*
X59669827Y-98123424D01*
X59678805Y-98114789D01*
X59687748Y-98106079D01*
X59696654Y-98097293D01*
X59705521Y-98088434D01*
X59714349Y-98079504D01*
X59723135Y-98070502D01*
X59731877Y-98061433D01*
X59740575Y-98052296D01*
X59749225Y-98043094D01*
X59757826Y-98033829D01*
X59766375Y-98024504D01*
X59774870Y-98015121D01*
X59783309Y-98005684D01*
X59791688Y-97996194D01*
X59800005Y-97986655D01*
X59808257Y-97977072D01*
X59816441Y-97967448D01*
X59824552Y-97957788D01*
X59832587Y-97948096D01*
X59840542Y-97938378D01*
X59848411Y-97928640D01*
X59856192Y-97918889D01*
X59863876Y-97909132D01*
X59871460Y-97899377D01*
X59878935Y-97889634D01*
X59886295Y-97879914D01*
X59893532Y-97870228D01*
X59900636Y-97860591D01*
X59907597Y-97851017D01*
X59914403Y-97841527D01*
X59921040Y-97832140D01*
X59927492Y-97822883D01*
X59933739Y-97813787D01*
X59939758Y-97804890D01*
X59945520Y-97796239D01*
X59950988Y-97787898D01*
X59956112Y-97779949D01*
X59960822Y-97772513D01*
X59965010Y-97765774D01*
X59968489Y-97760059D01*
X59971171Y-97755539D01*
D10*
X55898245Y-101510063D02*
X20001496Y-80785057D01*
X57748252Y-98305759D02*
X21894792Y-77605768D01*
D11*
X67319926Y-150938820D02*
X67328047Y-150952497D01*
X67336228Y-150966118D01*
X67344469Y-150979683D01*
X67352769Y-150993193D01*
X67361130Y-151006648D01*
X67369550Y-151020048D01*
X67378030Y-151033394D01*
X67386569Y-151046684D01*
X67395169Y-151059920D01*
X67403828Y-151073101D01*
X67412547Y-151086228D01*
X67421326Y-151099301D01*
X67430165Y-151112319D01*
X67439064Y-151125284D01*
X67448022Y-151138195D01*
X67457041Y-151151052D01*
X67466119Y-151163856D01*
X67475257Y-151176605D01*
X67484455Y-151189302D01*
X67493713Y-151201945D01*
X67503031Y-151214535D01*
X67512410Y-151227072D01*
X67521848Y-151239556D01*
X67531346Y-151251988D01*
X67540904Y-151264366D01*
X67550523Y-151276692D01*
X67560201Y-151288965D01*
X67569940Y-151301185D01*
X67579740Y-151313353D01*
X67589599Y-151325469D01*
X67599519Y-151337532D01*
X67609499Y-151349543D01*
X67619540Y-151361502D01*
X67629641Y-151373409D01*
X67639803Y-151385264D01*
X67650025Y-151397067D01*
X67660308Y-151408818D01*
X67670652Y-151420517D01*
X67681056Y-151432165D01*
X67691521Y-151443760D01*
X67702047Y-151455304D01*
X67712634Y-151466797D01*
X67723282Y-151478237D01*
X67733991Y-151489627D01*
X67744762Y-151500964D01*
X67755593Y-151512251D01*
X67766485Y-151523485D01*
X67777439Y-151534668D01*
X67788454Y-151545800D01*
X67799531Y-151556881D01*
X67810669Y-151567910D01*
X67821868Y-151578887D01*
X67833130Y-151589814D01*
X67844452Y-151600689D01*
X67855837Y-151611512D01*
X67867283Y-151622285D01*
X67878791Y-151633005D01*
X67890362Y-151643675D01*
X67901994Y-151654293D01*
X67913688Y-151664860D01*
X67925444Y-151675375D01*
X67937263Y-151685839D01*
X67949143Y-151696251D01*
X67961086Y-151706612D01*
X67973092Y-151716921D01*
X67985159Y-151727179D01*
X67997290Y-151737385D01*
X68009483Y-151747540D01*
X68021738Y-151757643D01*
X68034056Y-151767694D01*
X68046437Y-151777693D01*
X68058881Y-151787641D01*
X68071387Y-151797537D01*
X68083957Y-151807380D01*
X68096589Y-151817172D01*
X68109284Y-151826911D01*
X68122042Y-151836599D01*
X68134864Y-151846234D01*
X68147748Y-151855816D01*
X68160696Y-151865347D01*
X68173707Y-151874824D01*
X68186781Y-151884249D01*
X68199918Y-151893622D01*
X68213119Y-151902941D01*
X68226383Y-151912208D01*
X68239711Y-151921422D01*
X68253101Y-151930582D01*
X68266555Y-151939689D01*
X68280073Y-151948743D01*
X68293654Y-151957743D01*
X68307298Y-151966690D01*
X68321006Y-151975583D01*
X68334777Y-151984421D01*
X68348611Y-151993206D01*
X68362509Y-152001937D01*
X68376470Y-152010613D01*
X68390495Y-152019235D01*
X68404582Y-152027802D01*
X68418733Y-152036314D01*
X68432948Y-152044771D01*
X68447225Y-152053173D01*
X68461566Y-152061520D01*
X68475969Y-152069811D01*
X68490436Y-152078046D01*
X68504965Y-152086226D01*
X68519557Y-152094349D01*
X68534212Y-152102416D01*
X68548930Y-152110427D01*
X68563710Y-152118380D01*
X68578552Y-152126277D01*
X68593457Y-152134117D01*
X68608424Y-152141899D01*
X68623452Y-152149624D01*
X68638543Y-152157291D01*
X68653695Y-152164900D01*
X68668908Y-152172450D01*
X68684183Y-152179942D01*
X68699518Y-152187375D01*
X68714915Y-152194749D01*
X68730372Y-152202064D01*
X68745889Y-152209319D01*
X68761466Y-152216514D01*
X68777103Y-152223649D01*
X68792800Y-152230724D01*
X68808555Y-152237738D01*
X68824370Y-152244691D01*
X68840242Y-152251583D01*
X68856173Y-152258413D01*
X68872161Y-152265181D01*
X68888207Y-152271887D01*
X68904309Y-152278530D01*
X68920468Y-152285111D01*
X68936682Y-152291628D01*
X68952952Y-152298082D01*
X68969276Y-152304472D01*
X68985655Y-152310798D01*
X69002087Y-152317059D01*
X69018573Y-152323255D01*
X69035110Y-152329386D01*
X69051699Y-152335451D01*
X69068340Y-152341450D01*
X69085030Y-152347383D01*
X69101770Y-152353249D01*
X69118558Y-152359048D01*
X69135394Y-152364779D01*
X69152276Y-152370441D01*
X69169204Y-152376036D01*
X69186177Y-152381561D01*
X69203194Y-152387018D01*
X69220253Y-152392404D01*
X69237354Y-152397720D01*
X69254495Y-152402966D01*
X69271674Y-152408140D01*
X69288891Y-152413243D01*
X69306144Y-152418273D01*
X69323432Y-152423231D01*
X69340752Y-152428116D01*
X69358104Y-152432927D01*
X69375485Y-152437665D01*
X69392894Y-152442327D01*
X69410329Y-152446914D01*
X69427787Y-152451426D01*
X69445267Y-152455861D01*
X69462766Y-152460220D01*
X69480282Y-152464501D01*
X69497813Y-152468704D01*
X69515355Y-152472828D01*
X69532905Y-152476873D01*
X69550462Y-152480838D01*
X69568021Y-152484723D01*
X69585579Y-152488526D01*
X69603133Y-152492248D01*
X69620678Y-152495887D01*
X69638212Y-152499444D01*
X69655729Y-152502916D01*
X69673224Y-152506303D01*
X69690694Y-152509605D01*
X69708132Y-152512821D01*
X69725533Y-152515950D01*
X69742891Y-152518992D01*
X69760200Y-152521945D01*
X69777452Y-152524808D01*
X69794640Y-152527581D01*
X69811755Y-152530263D01*
X69828790Y-152532853D01*
X69845733Y-152535350D01*
X69862574Y-152537753D01*
X69879302Y-152540060D01*
X69895905Y-152542272D01*
X69912366Y-152544386D01*
X69928672Y-152546402D01*
X69944804Y-152548318D01*
X69960743Y-152550133D01*
X69976466Y-152551845D01*
X69991947Y-152553454D01*
X70007157Y-152554957D01*
X70022061Y-152556354D01*
X70036618Y-152557641D01*
X70050780Y-152558818D01*
X70064486Y-152559881D01*
X70077661Y-152560829D01*
X70090205Y-152561658D01*
X70101986Y-152562365D01*
X70112809Y-152562944D01*
X70122368Y-152563390D01*
X70130085Y-152563691D01*
X70134510Y-152563826D01*
D10*
X67346785Y-84922307D02*
X59971171Y-97755539D01*
X109220492Y-84924922D02*
X127351652Y-116310826D01*
D12*
X92456787Y-32009204D02*
X92456790Y-37809205D01*
D10*
X91067502Y-83309208D02*
X106249611Y-83297298D01*
D11*
X90065442Y-81809209D02*
X90065140Y-81817175D01*
X90064860Y-81825113D01*
X90064601Y-81833022D01*
X90064362Y-81840903D01*
X90064144Y-81848755D01*
X90063947Y-81856579D01*
X90063771Y-81864374D01*
X90063615Y-81872142D01*
X90063480Y-81879881D01*
X90063366Y-81887593D01*
X90063271Y-81895276D01*
X90063197Y-81902932D01*
X90063143Y-81910559D01*
X90063110Y-81918159D01*
X90063096Y-81925732D01*
X90063103Y-81933276D01*
X90063129Y-81940794D01*
X90063176Y-81948284D01*
X90063242Y-81955746D01*
X90063327Y-81963182D01*
X90063433Y-81970590D01*
X90063558Y-81977971D01*
X90063702Y-81985325D01*
X90063866Y-81992652D01*
X90064050Y-81999952D01*
X90064252Y-82007225D01*
X90064474Y-82014472D01*
X90064715Y-82021692D01*
X90064976Y-82028886D01*
X90065255Y-82036052D01*
X90065553Y-82043193D01*
X90065870Y-82050307D01*
X90066205Y-82057395D01*
X90066560Y-82064457D01*
X90066933Y-82071493D01*
X90067325Y-82078502D01*
X90067735Y-82085486D01*
X90068164Y-82092443D01*
X90068611Y-82099375D01*
X90069077Y-82106281D01*
X90069561Y-82113162D01*
X90070063Y-82120016D01*
X90070583Y-82126846D01*
X90071121Y-82133649D01*
X90071678Y-82140428D01*
X90072252Y-82147181D01*
X90072844Y-82153909D01*
X90073454Y-82160611D01*
X90074082Y-82167289D01*
X90074727Y-82173942D01*
X90075390Y-82180570D01*
X90076071Y-82187172D01*
X90076769Y-82193750D01*
X90077484Y-82200303D01*
X90078217Y-82206832D01*
X90078968Y-82213336D01*
X90079735Y-82219816D01*
X90080520Y-82226270D01*
X90081322Y-82232702D01*
X90082141Y-82239107D01*
X90082977Y-82245490D01*
X90083830Y-82251848D01*
X90084700Y-82258182D01*
X90085586Y-82264492D01*
X90086490Y-82270778D01*
X90087410Y-82277040D01*
X90088347Y-82283279D01*
X90089300Y-82289493D01*
X90090270Y-82295684D01*
X90091257Y-82301851D01*
X90092260Y-82307995D01*
X90093279Y-82314115D01*
X90094315Y-82320213D01*
X90095367Y-82326286D01*
X90096436Y-82332337D01*
X90097520Y-82338363D01*
X90098621Y-82344368D01*
X90099737Y-82350349D01*
X90100870Y-82356308D01*
X90102018Y-82362242D01*
X90103183Y-82368155D01*
X90104363Y-82374044D01*
X90105560Y-82379912D01*
X90106771Y-82385756D01*
X90107999Y-82391578D01*
X90109242Y-82397377D01*
X90110501Y-82403155D01*
X90111775Y-82408908D01*
X90113066Y-82414641D01*
X90114371Y-82420350D01*
X90115692Y-82426039D01*
X90117028Y-82431704D01*
X90118379Y-82437349D01*
X90119746Y-82442969D01*
X90121128Y-82448570D01*
X90122525Y-82454147D01*
X90123937Y-82459705D01*
X90125364Y-82465238D01*
X90126807Y-82470752D01*
X90128264Y-82476243D01*
X90129736Y-82481714D01*
X90131223Y-82487161D01*
X90132725Y-82492589D01*
X90134242Y-82497994D01*
X90135774Y-82503380D01*
X90137319Y-82508742D01*
X90138881Y-82514085D01*
X90140456Y-82519405D01*
X90142046Y-82524706D01*
X90143651Y-82529984D01*
X90145270Y-82535244D01*
X90146903Y-82540480D01*
X90148552Y-82545698D01*
X90150214Y-82550893D01*
X90151891Y-82556070D01*
X90153582Y-82561223D01*
X90155288Y-82566359D01*
X90157007Y-82571471D01*
X90158741Y-82576567D01*
X90160488Y-82581638D01*
X90162251Y-82586693D01*
X90164027Y-82591724D01*
X90165817Y-82596738D01*
X90167621Y-82601729D01*
X90169440Y-82606703D01*
X90171271Y-82611654D01*
X90173118Y-82616588D01*
X90174977Y-82621499D01*
X90176851Y-82626394D01*
X90178738Y-82631265D01*
X90180640Y-82636121D01*
X90182554Y-82640953D01*
X90184484Y-82645769D01*
X90186425Y-82650562D01*
X90188382Y-82655339D01*
X90190351Y-82660093D01*
X90194331Y-82669547D01*
X90198365Y-82678924D01*
X90202452Y-82688224D01*
X90206593Y-82697449D01*
X90210788Y-82706597D01*
X90215036Y-82715671D01*
X90219337Y-82724669D01*
X90223690Y-82733593D01*
X90228096Y-82742443D01*
X90232554Y-82751220D01*
X90237065Y-82759923D01*
X90241627Y-82768553D01*
X90246241Y-82777111D01*
X90250907Y-82785596D01*
X90255624Y-82794010D01*
X90260393Y-82802353D01*
X90265212Y-82810624D01*
X90270083Y-82818825D01*
X90275004Y-82826955D01*
X90279977Y-82835015D01*
X90285000Y-82843006D01*
X90290073Y-82850927D01*
X90295197Y-82858780D01*
X90300370Y-82866563D01*
X90305595Y-82874278D01*
X90310869Y-82881925D01*
X90316193Y-82889504D01*
X90321566Y-82897015D01*
X90326990Y-82904459D01*
X90332463Y-82911836D01*
X90337986Y-82919146D01*
X90343559Y-82926390D01*
X90349180Y-82933567D01*
X90354852Y-82940678D01*
X90360572Y-82947723D01*
X90366342Y-82954703D01*
X90372161Y-82961617D01*
X90378029Y-82968465D01*
X90383946Y-82975249D01*
X90389912Y-82981968D01*
X90395927Y-82988622D01*
X90401991Y-82995211D01*
X90408104Y-83001736D01*
X90414266Y-83008197D01*
X90420476Y-83014593D01*
X90426735Y-83020926D01*
X90433043Y-83027194D01*
X90439400Y-83033399D01*
X90445805Y-83039539D01*
X90452259Y-83045617D01*
X90458762Y-83051630D01*
X90465312Y-83057580D01*
X90471912Y-83063467D01*
X90478560Y-83069290D01*
X90485256Y-83075050D01*
X90492000Y-83080746D01*
X90498793Y-83086379D01*
X90505633Y-83091948D01*
X90512522Y-83097454D01*
X90519459Y-83102897D01*
X90526444Y-83108276D01*
X90533476Y-83113591D01*
X90540557Y-83118843D01*
X90547684Y-83124031D01*
X90554860Y-83129156D01*
X90562083Y-83134216D01*
X90569352Y-83139213D01*
X90576669Y-83144145D01*
X90584033Y-83149013D01*
X90591444Y-83153817D01*
X90598901Y-83158556D01*
X90606404Y-83163231D01*
X90613953Y-83167840D01*
X90621548Y-83172385D01*
X90629188Y-83176864D01*
X90636874Y-83181277D01*
X90644604Y-83185625D01*
X90652379Y-83189906D01*
X90660198Y-83194121D01*
X90668060Y-83198270D01*
X90675966Y-83202351D01*
X90683914Y-83206365D01*
X90691904Y-83210312D01*
X90699936Y-83214191D01*
X90708009Y-83218001D01*
X90716121Y-83221743D01*
X90724273Y-83225415D01*
X90732464Y-83229018D01*
X90740693Y-83232551D01*
X90748958Y-83236014D01*
X90757259Y-83239405D01*
X90765595Y-83242726D01*
X90773964Y-83245974D01*
X90782365Y-83249151D01*
X90790798Y-83252254D01*
X90799259Y-83255284D01*
X90807749Y-83258240D01*
X90816264Y-83261121D01*
X90824803Y-83263927D01*
X90833365Y-83266658D01*
X90841946Y-83269311D01*
X90850544Y-83271888D01*
X90859157Y-83274387D01*
X90867782Y-83276807D01*
X90876415Y-83279148D01*
X90885053Y-83281409D01*
X90893693Y-83283588D01*
X90902329Y-83285687D01*
X90910958Y-83287702D01*
X90919575Y-83289635D01*
X90928173Y-83291483D01*
X90936746Y-83293245D01*
X90945288Y-83294922D01*
X90953791Y-83296512D01*
X90962245Y-83298013D01*
X90970641Y-83299425D01*
X90978967Y-83300747D01*
X90987209Y-83301978D01*
X90995354Y-83303116D01*
X91003381Y-83304161D01*
X91011271Y-83305110D01*
X91018997Y-83305964D01*
X91026527Y-83306720D01*
X91033822Y-83307377D01*
X91040830Y-83307935D01*
X91047481Y-83308392D01*
X91053675Y-83308747D01*
X91059257Y-83308999D01*
X91063950Y-83309150D01*
X91067502Y-83309208D01*
X86315437Y-81806606D02*
X86315899Y-81814590D01*
X86316339Y-81822545D01*
X86316757Y-81830471D01*
X86317154Y-81838369D01*
X86317529Y-81846238D01*
X86317883Y-81854079D01*
X86318216Y-81861890D01*
X86318527Y-81869674D01*
X86318818Y-81877429D01*
X86319087Y-81885156D01*
X86319336Y-81892854D01*
X86319563Y-81900524D01*
X86319770Y-81908167D01*
X86319956Y-81915781D01*
X86320122Y-81923367D01*
X86320266Y-81930926D01*
X86320391Y-81938457D01*
X86320495Y-81945960D01*
X86320578Y-81953436D01*
X86320641Y-81960884D01*
X86320685Y-81968305D01*
X86320708Y-81975698D01*
X86320710Y-81983065D01*
X86320693Y-81990403D01*
X86320656Y-81997715D01*
X86320600Y-82005000D01*
X86320523Y-82012258D01*
X86320427Y-82019489D01*
X86320311Y-82026693D01*
X86320176Y-82033870D01*
X86320021Y-82041021D01*
X86319847Y-82048145D01*
X86319653Y-82055243D01*
X86319440Y-82062314D01*
X86319208Y-82069359D01*
X86318957Y-82076378D01*
X86318687Y-82083370D01*
X86318398Y-82090336D01*
X86318090Y-82097277D01*
X86317763Y-82104191D01*
X86317418Y-82111079D01*
X86317053Y-82117942D01*
X86316671Y-82124779D01*
X86316269Y-82131590D01*
X86315849Y-82138375D01*
X86315411Y-82145135D01*
X86314954Y-82151870D01*
X86314479Y-82158579D01*
X86313986Y-82165263D01*
X86313475Y-82171922D01*
X86312945Y-82178556D01*
X86312398Y-82185164D01*
X86311832Y-82191748D01*
X86311249Y-82198306D01*
X86310648Y-82204840D01*
X86310029Y-82211348D01*
X86309392Y-82217833D01*
X86308738Y-82224292D01*
X86308066Y-82230728D01*
X86307377Y-82237138D01*
X86306670Y-82243525D01*
X86305946Y-82249886D01*
X86305205Y-82256224D01*
X86304446Y-82262537D01*
X86303670Y-82268827D01*
X86302877Y-82275091D01*
X86302067Y-82281333D01*
X86301239Y-82287550D01*
X86300395Y-82293744D01*
X86299534Y-82299913D01*
X86298656Y-82306060D01*
X86297762Y-82312182D01*
X86296850Y-82318282D01*
X86295922Y-82324356D01*
X86294977Y-82330409D01*
X86294016Y-82336437D01*
X86293038Y-82342443D01*
X86292044Y-82348425D01*
X86291033Y-82354385D01*
X86290007Y-82360320D01*
X86288963Y-82366234D01*
X86287904Y-82372123D01*
X86286828Y-82377991D01*
X86285737Y-82383835D01*
X86284629Y-82389658D01*
X86283505Y-82395456D01*
X86282365Y-82401234D01*
X86281210Y-82406987D01*
X86280038Y-82412720D01*
X86278851Y-82418428D01*
X86277648Y-82424116D01*
X86276429Y-82429780D01*
X86275195Y-82435424D01*
X86273945Y-82441044D01*
X86272679Y-82446643D01*
X86271399Y-82452219D01*
X86270102Y-82457775D01*
X86268790Y-82463307D01*
X86267463Y-82468819D01*
X86266121Y-82474307D01*
X86264763Y-82479777D01*
X86263390Y-82485222D01*
X86262002Y-82490648D01*
X86260599Y-82496050D01*
X86259180Y-82501433D01*
X86257747Y-82506793D01*
X86256299Y-82512134D01*
X86254836Y-82517451D01*
X86253357Y-82522749D01*
X86251865Y-82528024D01*
X86250357Y-82533281D01*
X86248834Y-82538514D01*
X86247297Y-82543729D01*
X86245745Y-82548920D01*
X86244178Y-82554094D01*
X86242598Y-82559244D01*
X86241002Y-82564376D01*
X86239392Y-82569485D01*
X86237767Y-82574576D01*
X86236128Y-82579644D01*
X86234475Y-82584694D01*
X86232807Y-82589722D01*
X86231125Y-82594732D01*
X86229429Y-82599719D01*
X86227718Y-82604688D01*
X86225994Y-82609635D01*
X86224254Y-82614565D01*
X86222502Y-82619471D01*
X86220734Y-82624362D01*
X86218953Y-82629229D01*
X86217157Y-82634079D01*
X86215349Y-82638907D01*
X86213525Y-82643718D01*
X86211689Y-82648506D01*
X86209837Y-82653278D01*
X86207973Y-82658028D01*
X86206094Y-82662761D01*
X86204202Y-82667472D01*
X86202295Y-82672166D01*
X86200376Y-82676838D01*
X86196496Y-82686128D01*
X86192561Y-82695342D01*
X86188571Y-82704480D01*
X86184528Y-82713543D01*
X86180431Y-82722530D01*
X86176280Y-82731444D01*
X86172076Y-82740283D01*
X86167819Y-82749048D01*
X86163508Y-82757740D01*
X86159145Y-82766359D01*
X86154730Y-82774905D01*
X86150262Y-82783380D01*
X86145742Y-82791782D01*
X86141169Y-82800114D01*
X86136545Y-82808374D01*
X86131869Y-82816564D01*
X86127142Y-82824683D01*
X86122363Y-82832732D01*
X86117532Y-82840712D01*
X86112651Y-82848623D01*
X86107719Y-82856465D01*
X86102735Y-82864238D01*
X86097701Y-82871942D01*
X86092616Y-82879579D01*
X86087480Y-82887148D01*
X86082294Y-82894650D01*
X86077057Y-82902084D01*
X86071770Y-82909452D01*
X86066433Y-82916753D01*
X86061046Y-82923988D01*
X86055609Y-82931157D01*
X86050121Y-82938260D01*
X86044584Y-82945297D01*
X86038996Y-82952269D01*
X86033359Y-82959176D01*
X86027672Y-82966018D01*
X86021936Y-82972795D01*
X86016149Y-82979508D01*
X86010313Y-82986156D01*
X86004428Y-82992741D01*
X85998492Y-82999261D01*
X85992508Y-83005717D01*
X85986474Y-83012110D01*
X85980390Y-83018439D01*
X85974257Y-83024704D01*
X85968075Y-83030906D01*
X85961843Y-83037045D01*
X85955562Y-83043121D01*
X85949231Y-83049134D01*
X85942852Y-83055084D01*
X85936423Y-83060970D01*
X85929945Y-83066794D01*
X85923418Y-83072555D01*
X85916842Y-83078254D01*
X85910217Y-83083889D01*
X85903543Y-83089462D01*
X85896820Y-83094972D01*
X85890048Y-83100419D01*
X85883228Y-83105803D01*
X85876358Y-83111124D01*
X85869440Y-83116383D01*
X85862474Y-83121578D01*
X85855459Y-83126711D01*
X85848396Y-83131780D01*
X85841285Y-83136786D01*
X85834125Y-83141728D01*
X85826918Y-83146607D01*
X85819663Y-83151423D01*
X85812360Y-83156174D01*
X85805010Y-83160862D01*
X85797613Y-83165486D01*
X85790168Y-83170045D01*
X85782677Y-83174539D01*
X85775140Y-83178969D01*
X85767557Y-83183334D01*
X85759928Y-83187633D01*
X85752253Y-83191867D01*
X85744533Y-83196035D01*
X85736769Y-83200138D01*
X85728961Y-83204173D01*
X85721109Y-83208142D01*
X85713214Y-83212044D01*
X85705276Y-83215878D01*
X85697296Y-83219645D01*
X85689275Y-83223343D01*
X85681214Y-83226973D01*
X85673113Y-83230534D01*
X85664973Y-83234025D01*
X85656795Y-83237446D01*
X85648581Y-83240797D01*
X85640330Y-83244077D01*
X85632045Y-83247286D01*
X85623727Y-83250423D01*
X85615377Y-83253487D01*
X85606996Y-83256478D01*
X85598587Y-83259396D01*
X85590151Y-83262239D01*
X85581689Y-83265008D01*
X85573205Y-83267701D01*
X85564700Y-83270318D01*
X85556176Y-83272858D01*
X85547637Y-83275320D01*
X85539086Y-83277705D01*
X85530525Y-83280010D01*
X85521959Y-83282235D01*
X85513390Y-83284379D01*
X85504824Y-83286443D01*
X85496265Y-83288423D01*
X85487718Y-83290321D01*
X85479190Y-83292134D01*
X85470686Y-83293863D01*
X85462214Y-83295505D01*
X85453782Y-83297060D01*
X85445399Y-83298527D01*
X85437076Y-83299905D01*
X85428825Y-83301193D01*
X85420659Y-83302389D01*
X85412595Y-83303493D01*
X85404651Y-83304503D01*
X85396851Y-83305418D01*
X85389222Y-83306237D01*
X85381799Y-83306958D01*
X85374623Y-83307581D01*
X85367754Y-83308103D01*
X85361268Y-83308524D01*
X85355280Y-83308844D01*
X85349976Y-83309061D01*
X85345713Y-83309177D01*
X85343483Y-83309206D01*
D12*
X83956792Y-32009209D02*
X83956791Y-37809207D01*
X83956792Y-32009209D02*
G75*
G02*
X84156792Y-31809165I199993J51D01*
G01*
D10*
X90065439Y-40198021D02*
X92456790Y-37809205D01*
X90065442Y-81809209D02*
X90065439Y-40198021D01*
X106412061Y-152579254D02*
X70134510Y-152563826D01*
D11*
X127351654Y-119560834D02*
X127359438Y-119546963D01*
X127367143Y-119533067D01*
X127374771Y-119519148D01*
X127382320Y-119505204D01*
X127389793Y-119491236D01*
X127397187Y-119477244D01*
X127404504Y-119463228D01*
X127411744Y-119449187D01*
X127418907Y-119435121D01*
X127425992Y-119421031D01*
X127433001Y-119406917D01*
X127439933Y-119392778D01*
X127446788Y-119378613D01*
X127453566Y-119364425D01*
X127460268Y-119350211D01*
X127466893Y-119335972D01*
X127473442Y-119321708D01*
X127479914Y-119307419D01*
X127486311Y-119293105D01*
X127492631Y-119278766D01*
X127498875Y-119264401D01*
X127505043Y-119250011D01*
X127511136Y-119235595D01*
X127517152Y-119221154D01*
X127523093Y-119206686D01*
X127528958Y-119192194D01*
X127534747Y-119177675D01*
X127540461Y-119163131D01*
X127546099Y-119148560D01*
X127551661Y-119133964D01*
X127557148Y-119119341D01*
X127562560Y-119104692D01*
X127567896Y-119090017D01*
X127573157Y-119075316D01*
X127578343Y-119060588D01*
X127583454Y-119045833D01*
X127588489Y-119031052D01*
X127593448Y-119016245D01*
X127598333Y-119001411D01*
X127603143Y-118986549D01*
X127607877Y-118971661D01*
X127612536Y-118956747D01*
X127617120Y-118941805D01*
X127621629Y-118926836D01*
X127626062Y-118911839D01*
X127630420Y-118896816D01*
X127634704Y-118881765D01*
X127638912Y-118866687D01*
X127643044Y-118851582D01*
X127647102Y-118836449D01*
X127651084Y-118821289D01*
X127654991Y-118806101D01*
X127658823Y-118790885D01*
X127662580Y-118775641D01*
X127666261Y-118760370D01*
X127669866Y-118745071D01*
X127673397Y-118729744D01*
X127676852Y-118714389D01*
X127680231Y-118699006D01*
X127683535Y-118683595D01*
X127686763Y-118668156D01*
X127689916Y-118652689D01*
X127692993Y-118637194D01*
X127695994Y-118621670D01*
X127698919Y-118606118D01*
X127701769Y-118590538D01*
X127704542Y-118574930D01*
X127707240Y-118559293D01*
X127709862Y-118543628D01*
X127712407Y-118527934D01*
X127714876Y-118512212D01*
X127717269Y-118496462D01*
X127719585Y-118480683D01*
X127721826Y-118464876D01*
X127723989Y-118449040D01*
X127726076Y-118433176D01*
X127728086Y-118417283D01*
X127730020Y-118401361D01*
X127731876Y-118385411D01*
X127733655Y-118369433D01*
X127735358Y-118353426D01*
X127736983Y-118337391D01*
X127738531Y-118321327D01*
X127740002Y-118305235D01*
X127741395Y-118289115D01*
X127742710Y-118272966D01*
X127743948Y-118256789D01*
X127745108Y-118240584D01*
X127746190Y-118224350D01*
X127747194Y-118208088D01*
X127748119Y-118191799D01*
X127748967Y-118175481D01*
X127749736Y-118159135D01*
X127750426Y-118142762D01*
X127751038Y-118126360D01*
X127751571Y-118109931D01*
X127752026Y-118093474D01*
X127752401Y-118076990D01*
X127752697Y-118060479D01*
X127752914Y-118043940D01*
X127753052Y-118027374D01*
X127753110Y-118010782D01*
X127753088Y-117994162D01*
X127752987Y-117977516D01*
X127752805Y-117960843D01*
X127752544Y-117944144D01*
X127752203Y-117927419D01*
X127751781Y-117910667D01*
X127751279Y-117893890D01*
X127750697Y-117877088D01*
X127750034Y-117860260D01*
X127749290Y-117843407D01*
X127748465Y-117826529D01*
X127747560Y-117809627D01*
X127746573Y-117792700D01*
X127745505Y-117775750D01*
X127744356Y-117758775D01*
X127743125Y-117741777D01*
X127741813Y-117724756D01*
X127740419Y-117707713D01*
X127738944Y-117690646D01*
X127737386Y-117673558D01*
X127735747Y-117656448D01*
X127734025Y-117639317D01*
X127732222Y-117622166D01*
X127730336Y-117604993D01*
X127728368Y-117587801D01*
X127726318Y-117570589D01*
X127724185Y-117553359D01*
X127721969Y-117536110D01*
X127719672Y-117518843D01*
X127717291Y-117501559D01*
X127714828Y-117484258D01*
X127712282Y-117466940D01*
X127709654Y-117449608D01*
X127706942Y-117432260D01*
X127704148Y-117414899D01*
X127701272Y-117397524D01*
X127698312Y-117380136D01*
X127695270Y-117362736D01*
X127692146Y-117345326D01*
X127688938Y-117327905D01*
X127685648Y-117310475D01*
X127682276Y-117293036D01*
X127678821Y-117275590D01*
X127675284Y-117258138D01*
X127671664Y-117240680D01*
X127667963Y-117223218D01*
X127664180Y-117205753D01*
X127660315Y-117188286D01*
X127656368Y-117170818D01*
X127652341Y-117153351D01*
X127648232Y-117135885D01*
X127644042Y-117118424D01*
X127639772Y-117100966D01*
X127635422Y-117083516D01*
X127630992Y-117066073D01*
X127626483Y-117048640D01*
X127621895Y-117031219D01*
X127617228Y-117013811D01*
X127612483Y-116996418D01*
X127607661Y-116979043D01*
X127602762Y-116961687D01*
X127597787Y-116944353D01*
X127592736Y-116927043D01*
X127587611Y-116909759D01*
X127582412Y-116892505D01*
X127577139Y-116875283D01*
X127571795Y-116858096D01*
X127566380Y-116840947D01*
X127560894Y-116823839D01*
X127555341Y-116806776D01*
X127549719Y-116789761D01*
X127544032Y-116772799D01*
X127538281Y-116755893D01*
X127532466Y-116739047D01*
X127526591Y-116722267D01*
X127520657Y-116705557D01*
X127514667Y-116688922D01*
X127508621Y-116672369D01*
X127502524Y-116655903D01*
X127496378Y-116639530D01*
X127490186Y-116623258D01*
X127483950Y-116607095D01*
X127477676Y-116591048D01*
X127471367Y-116575126D01*
X127465027Y-116559340D01*
X127458661Y-116543699D01*
X127452275Y-116528216D01*
X127445875Y-116512902D01*
X127439468Y-116497773D01*
X127433061Y-116482845D01*
X127426664Y-116468134D01*
X127420286Y-116453662D01*
X127413939Y-116439451D01*
X127407636Y-116425527D01*
X127401393Y-116411922D01*
X127395230Y-116398672D01*
X127389168Y-116385819D01*
X127383236Y-116373419D01*
X127377470Y-116361536D01*
X127371917Y-116350259D01*
X127366639Y-116339705D01*
X127361730Y-116330043D01*
X127357337Y-116321545D01*
X127353742Y-116314715D01*
X127351652Y-116310826D01*
X70161378Y-83297305D02*
X70145473Y-83297500D01*
X70129587Y-83297774D01*
X70113718Y-83298128D01*
X70097867Y-83298562D01*
X70082035Y-83299074D01*
X70066220Y-83299666D01*
X70050423Y-83300338D01*
X70034643Y-83301088D01*
X70018881Y-83301918D01*
X70003136Y-83302826D01*
X69987408Y-83303814D01*
X69971697Y-83304880D01*
X69956003Y-83306026D01*
X69940326Y-83307250D01*
X69924665Y-83308553D01*
X69909022Y-83309934D01*
X69893394Y-83311394D01*
X69877783Y-83312933D01*
X69862189Y-83314551D01*
X69846610Y-83316247D01*
X69831048Y-83318022D01*
X69815501Y-83319875D01*
X69799971Y-83321807D01*
X69784456Y-83323817D01*
X69768957Y-83325905D01*
X69753473Y-83328072D01*
X69738005Y-83330318D01*
X69722552Y-83332642D01*
X69707115Y-83335044D01*
X69691693Y-83337525D01*
X69676286Y-83340084D01*
X69660893Y-83342722D01*
X69645516Y-83345438D01*
X69630154Y-83348232D01*
X69614806Y-83351105D01*
X69599474Y-83354057D01*
X69584155Y-83357086D01*
X69568852Y-83360195D01*
X69553562Y-83363381D01*
X69538288Y-83366647D01*
X69523027Y-83369991D01*
X69507781Y-83373413D01*
X69492549Y-83376914D01*
X69477331Y-83380494D01*
X69462127Y-83384152D01*
X69446937Y-83387889D01*
X69431762Y-83391705D01*
X69416600Y-83395600D01*
X69401452Y-83399573D01*
X69386317Y-83403626D01*
X69371197Y-83407757D01*
X69356090Y-83411967D01*
X69340997Y-83416257D01*
X69325918Y-83420625D01*
X69310852Y-83425073D01*
X69295800Y-83429599D01*
X69280761Y-83434205D01*
X69265736Y-83438891D01*
X69250724Y-83443655D01*
X69235726Y-83448499D01*
X69220742Y-83453423D01*
X69205770Y-83458426D01*
X69190813Y-83463509D01*
X69175868Y-83468671D01*
X69160937Y-83473914D01*
X69146020Y-83479236D01*
X69131116Y-83484638D01*
X69116225Y-83490120D01*
X69101348Y-83495682D01*
X69086484Y-83501324D01*
X69071634Y-83507047D01*
X69056798Y-83512850D01*
X69041975Y-83518733D01*
X69027165Y-83524696D01*
X69012369Y-83530741D01*
X68997587Y-83536865D01*
X68982818Y-83543071D01*
X68968063Y-83549357D01*
X68953322Y-83555724D01*
X68938595Y-83562172D01*
X68923881Y-83568701D01*
X68909182Y-83575311D01*
X68894496Y-83582002D01*
X68879825Y-83588774D01*
X68865168Y-83595628D01*
X68850525Y-83602563D01*
X68835896Y-83609579D01*
X68821282Y-83616677D01*
X68806683Y-83623857D01*
X68792098Y-83631118D01*
X68777528Y-83638461D01*
X68762972Y-83645886D01*
X68748432Y-83653393D01*
X68733907Y-83660981D01*
X68719397Y-83668652D01*
X68704903Y-83676405D01*
X68690424Y-83684239D01*
X68675961Y-83692156D01*
X68661513Y-83700155D01*
X68647082Y-83708237D01*
X68632667Y-83716400D01*
X68618268Y-83724646D01*
X68603886Y-83732974D01*
X68589521Y-83741385D01*
X68575173Y-83749878D01*
X68560842Y-83758454D01*
X68546528Y-83767112D01*
X68532232Y-83775853D01*
X68517954Y-83784676D01*
X68503693Y-83793581D01*
X68489452Y-83802569D01*
X68475229Y-83811639D01*
X68461025Y-83820792D01*
X68446840Y-83830028D01*
X68432674Y-83839345D01*
X68418529Y-83848745D01*
X68404403Y-83858228D01*
X68390298Y-83867792D01*
X68376214Y-83877439D01*
X68362150Y-83887168D01*
X68348109Y-83896978D01*
X68334089Y-83906871D01*
X68320091Y-83916846D01*
X68306116Y-83926902D01*
X68292164Y-83937039D01*
X68278235Y-83947258D01*
X68264330Y-83957559D01*
X68250450Y-83967940D01*
X68236594Y-83978402D01*
X68222764Y-83988945D01*
X68208960Y-83999568D01*
X68195181Y-84010272D01*
X68181430Y-84021055D01*
X68167706Y-84031918D01*
X68154010Y-84042861D01*
X68140342Y-84053882D01*
X68126704Y-84064983D01*
X68113095Y-84076161D01*
X68099517Y-84087418D01*
X68085969Y-84098752D01*
X68072454Y-84110163D01*
X68058971Y-84121651D01*
X68045521Y-84133215D01*
X68032105Y-84144855D01*
X68018724Y-84156570D01*
X68005379Y-84168359D01*
X67992069Y-84180222D01*
X67978798Y-84192158D01*
X67965564Y-84204167D01*
X67952370Y-84216248D01*
X67939216Y-84228399D01*
X67926102Y-84240621D01*
X67913032Y-84252911D01*
X67900004Y-84265270D01*
X67887021Y-84277697D01*
X67874083Y-84290189D01*
X67861193Y-84302747D01*
X67848350Y-84315368D01*
X67835557Y-84328052D01*
X67822815Y-84340798D01*
X67810125Y-84353603D01*
X67797488Y-84366466D01*
X67784907Y-84379387D01*
X67772383Y-84392362D01*
X67759918Y-84405391D01*
X67747513Y-84418471D01*
X67735170Y-84431601D01*
X67722891Y-84444778D01*
X67710679Y-84457999D01*
X67698535Y-84471264D01*
X67686462Y-84484568D01*
X67674462Y-84497909D01*
X67662538Y-84511284D01*
X67650691Y-84524691D01*
X67638926Y-84538125D01*
X67627245Y-84551583D01*
X67615650Y-84565061D01*
X67604146Y-84578555D01*
X67592735Y-84592060D01*
X67581422Y-84605572D01*
X67570211Y-84619085D01*
X67559105Y-84632594D01*
X67548109Y-84646093D01*
X67537229Y-84659574D01*
X67526469Y-84673031D01*
X67515835Y-84686456D01*
X67505334Y-84699840D01*
X67494971Y-84713173D01*
X67484755Y-84726445D01*
X67474693Y-84739644D01*
X67464794Y-84752758D01*
X67455069Y-84765771D01*
X67445528Y-84778666D01*
X67436183Y-84791426D01*
X67427049Y-84804029D01*
X67418143Y-84816449D01*
X67409481Y-84828659D01*
X67401087Y-84840622D01*
X67392987Y-84852298D01*
X67385213Y-84863636D01*
X67377805Y-84874572D01*
X67370815Y-84885021D01*
X67364313Y-84894870D01*
X67358399Y-84903954D01*
X67353234Y-84912009D01*
X67349115Y-84918542D01*
X67346785Y-84922307D01*
D12*
X92256787Y-31809207D02*
X84156792Y-31809207D01*
D11*
X106412061Y-152579254D02*
X106427966Y-152579059D01*
X106443853Y-152578785D01*
X106459721Y-152578431D01*
X106475572Y-152577997D01*
X106491405Y-152577484D01*
X106507219Y-152576892D01*
X106523017Y-152576221D01*
X106538797Y-152575470D01*
X106554559Y-152574640D01*
X106570304Y-152573732D01*
X106586032Y-152572744D01*
X106601743Y-152571678D01*
X106617437Y-152570532D01*
X106633114Y-152569308D01*
X106648775Y-152568005D01*
X106664419Y-152566623D01*
X106680046Y-152565163D01*
X106695657Y-152563624D01*
X106711252Y-152562006D01*
X106726830Y-152560310D01*
X106742393Y-152558535D01*
X106757939Y-152556682D01*
X106773470Y-152554750D01*
X106788985Y-152552740D01*
X106804484Y-152550651D01*
X106819968Y-152548484D01*
X106835436Y-152546238D01*
X106850889Y-152543914D01*
X106866326Y-152541512D01*
X106881748Y-152539031D01*
X106897156Y-152536472D01*
X106912548Y-152533834D01*
X106927925Y-152531118D01*
X106943288Y-152528323D01*
X106958635Y-152525450D01*
X106973968Y-152522499D01*
X106989286Y-152519469D01*
X107004590Y-152516360D01*
X107019879Y-152513174D01*
X107035154Y-152509908D01*
X107050415Y-152506564D01*
X107065661Y-152503142D01*
X107080893Y-152499640D01*
X107096111Y-152496061D01*
X107111315Y-152492402D01*
X107126505Y-152488665D01*
X107141681Y-152484849D01*
X107156843Y-152480954D01*
X107171991Y-152476981D01*
X107187125Y-152472928D01*
X107202246Y-152468797D01*
X107217352Y-152464586D01*
X107232446Y-152460297D01*
X107247525Y-152455928D01*
X107262591Y-152451481D01*
X107277643Y-152446954D01*
X107292682Y-152442348D01*
X107307707Y-152437662D01*
X107322719Y-152432898D01*
X107337717Y-152428053D01*
X107352702Y-152423130D01*
X107367673Y-152418127D01*
X107382631Y-152413044D01*
X107397575Y-152407881D01*
X107412506Y-152402639D01*
X107427424Y-152397316D01*
X107442328Y-152391914D01*
X107457218Y-152386432D01*
X107472096Y-152380870D01*
X107486959Y-152375227D01*
X107501810Y-152369505D01*
X107516646Y-152363702D01*
X107531469Y-152357819D01*
X107546279Y-152351855D01*
X107561075Y-152345811D01*
X107575857Y-152339686D01*
X107590626Y-152333480D01*
X107605381Y-152327194D01*
X107620122Y-152320827D01*
X107634850Y-152314379D01*
X107649563Y-152307850D01*
X107664263Y-152301240D01*
X107678948Y-152294549D01*
X107693619Y-152287776D01*
X107708277Y-152280923D01*
X107722920Y-152273987D01*
X107737548Y-152266971D01*
X107752162Y-152259873D01*
X107766762Y-152252693D01*
X107781347Y-152245432D01*
X107795917Y-152238089D01*
X107810472Y-152230664D01*
X107825013Y-152223157D01*
X107839538Y-152215568D01*
X107854048Y-152207897D01*
X107868542Y-152200145D01*
X107883021Y-152192310D01*
X107897484Y-152184393D01*
X107911932Y-152176394D01*
X107926363Y-152168312D01*
X107940778Y-152160149D01*
X107955177Y-152151903D01*
X107969559Y-152143574D01*
X107983924Y-152135163D01*
X107998273Y-152126670D01*
X108012604Y-152118094D01*
X108026918Y-152109436D01*
X108041214Y-152100696D01*
X108055492Y-152091873D01*
X108069752Y-152082967D01*
X108083994Y-152073979D01*
X108098217Y-152064908D01*
X108112421Y-152055755D01*
X108126606Y-152046520D01*
X108140771Y-152037202D01*
X108154917Y-152027802D01*
X108169043Y-152018320D01*
X108183148Y-152008755D01*
X108197232Y-151999108D01*
X108211296Y-151989380D01*
X108225337Y-151979569D01*
X108239357Y-151969676D01*
X108253355Y-151959701D01*
X108267330Y-151949645D01*
X108281282Y-151939507D01*
X108295211Y-151929288D01*
X108309116Y-151918988D01*
X108322996Y-151908606D01*
X108336852Y-151898144D01*
X108350682Y-151887601D01*
X108364486Y-151876978D01*
X108378265Y-151866274D01*
X108392016Y-151855491D01*
X108405740Y-151844628D01*
X108419436Y-151833685D01*
X108433104Y-151822663D01*
X108446742Y-151811563D01*
X108460351Y-151800384D01*
X108473929Y-151789128D01*
X108487477Y-151777794D01*
X108500992Y-151766382D01*
X108514475Y-151754894D01*
X108527925Y-151743330D01*
X108541341Y-151731690D01*
X108554722Y-151719976D01*
X108568067Y-151708186D01*
X108581376Y-151696323D01*
X108594648Y-151684387D01*
X108607882Y-151672378D01*
X108621076Y-151660297D01*
X108634230Y-151648146D01*
X108647343Y-151635924D01*
X108660414Y-151623633D01*
X108673442Y-151611274D01*
X108686425Y-151598848D01*
X108699362Y-151586356D01*
X108712253Y-151573798D01*
X108725096Y-151561176D01*
X108737889Y-151548492D01*
X108750631Y-151535747D01*
X108763321Y-151522942D01*
X108775957Y-151510078D01*
X108788538Y-151497157D01*
X108801062Y-151484182D01*
X108813528Y-151471153D01*
X108825933Y-151458073D01*
X108838275Y-151444943D01*
X108850554Y-151431766D01*
X108862766Y-151418545D01*
X108874910Y-151405281D01*
X108886983Y-151391976D01*
X108898983Y-151378635D01*
X108910907Y-151365260D01*
X108922753Y-151351854D01*
X108934519Y-151338420D01*
X108946200Y-151324962D01*
X108957795Y-151311484D01*
X108969299Y-151297990D01*
X108980709Y-151284484D01*
X108992022Y-151270973D01*
X109003233Y-151257459D01*
X109014339Y-151243950D01*
X109025334Y-151230452D01*
X109036215Y-151216971D01*
X109046975Y-151203514D01*
X109057608Y-151190089D01*
X109068110Y-151176705D01*
X109078472Y-151163372D01*
X109088688Y-151150100D01*
X109098750Y-151136901D01*
X109108648Y-151123788D01*
X109118373Y-151110775D01*
X109127914Y-151097880D01*
X109137258Y-151085120D01*
X109146392Y-151072518D01*
X109155299Y-151060097D01*
X109163960Y-151047889D01*
X109172353Y-151035926D01*
X109180453Y-151024250D01*
X109188226Y-151012912D01*
X109195634Y-151001977D01*
X109202623Y-150991529D01*
X109209125Y-150981680D01*
X109215038Y-150972598D01*
X109220202Y-150964544D01*
X109224320Y-150958014D01*
X109226645Y-150954256D01*
X109220492Y-84924922D02*
X109212687Y-84911781D01*
X109204819Y-84898689D01*
X109196887Y-84885647D01*
X109188892Y-84872655D01*
X109180833Y-84859711D01*
X109172711Y-84846817D01*
X109164525Y-84833971D01*
X109156275Y-84821174D01*
X109147962Y-84808426D01*
X109139586Y-84795726D01*
X109131145Y-84783075D01*
X109122641Y-84770472D01*
X109114073Y-84757917D01*
X109105441Y-84745411D01*
X109096745Y-84732952D01*
X109087985Y-84720541D01*
X109079162Y-84708178D01*
X109070274Y-84695862D01*
X109061322Y-84683594D01*
X109052305Y-84671373D01*
X109043225Y-84659200D01*
X109034080Y-84647074D01*
X109024870Y-84634995D01*
X109015597Y-84622963D01*
X109006258Y-84610979D01*
X108996855Y-84599041D01*
X108987387Y-84587150D01*
X108977855Y-84575305D01*
X108968257Y-84563508D01*
X108958595Y-84551757D01*
X108948867Y-84540052D01*
X108939074Y-84528394D01*
X108929216Y-84516783D01*
X108919293Y-84505218D01*
X108909304Y-84493699D01*
X108899250Y-84482227D01*
X108889130Y-84470800D01*
X108878944Y-84459420D01*
X108868693Y-84448086D01*
X108858375Y-84436799D01*
X108847992Y-84425557D01*
X108837542Y-84414361D01*
X108827026Y-84403212D01*
X108816444Y-84392108D01*
X108805795Y-84381050D01*
X108795080Y-84370039D01*
X108784298Y-84359073D01*
X108773450Y-84348153D01*
X108762534Y-84337279D01*
X108751551Y-84326451D01*
X108740502Y-84315669D01*
X108729385Y-84304933D01*
X108718200Y-84294243D01*
X108706949Y-84283598D01*
X108695629Y-84273000D01*
X108684242Y-84262447D01*
X108672787Y-84251941D01*
X108661265Y-84241480D01*
X108649674Y-84231066D01*
X108638015Y-84220698D01*
X108626287Y-84210375D01*
X108614492Y-84200099D01*
X108602627Y-84189869D01*
X108590695Y-84179685D01*
X108578693Y-84169548D01*
X108566623Y-84159456D01*
X108554483Y-84149411D01*
X108542275Y-84139413D01*
X108529997Y-84129461D01*
X108517650Y-84119555D01*
X108505233Y-84109696D01*
X108492747Y-84099884D01*
X108480192Y-84090119D01*
X108467566Y-84080400D01*
X108454871Y-84070728D01*
X108442106Y-84061103D01*
X108429270Y-84051526D01*
X108416365Y-84041995D01*
X108403389Y-84032512D01*
X108390343Y-84023076D01*
X108377226Y-84013688D01*
X108364039Y-84004347D01*
X108350781Y-83995054D01*
X108337452Y-83985809D01*
X108324053Y-83976612D01*
X108310582Y-83967463D01*
X108297041Y-83958362D01*
X108283428Y-83949310D01*
X108269745Y-83940306D01*
X108255990Y-83931350D01*
X108242164Y-83922444D01*
X108228266Y-83913586D01*
X108214297Y-83904777D01*
X108200257Y-83896018D01*
X108186145Y-83887308D01*
X108171962Y-83878647D01*
X108157707Y-83870036D01*
X108143380Y-83861476D01*
X108128982Y-83852965D01*
X108114512Y-83844504D01*
X108099970Y-83836094D01*
X108085356Y-83827735D01*
X108070671Y-83819426D01*
X108055914Y-83811169D01*
X108041086Y-83802963D01*
X108026186Y-83794808D01*
X108011214Y-83786705D01*
X107996170Y-83778653D01*
X107981055Y-83770654D01*
X107965868Y-83762707D01*
X107950610Y-83754813D01*
X107935281Y-83746971D01*
X107919880Y-83739183D01*
X107904407Y-83731448D01*
X107888864Y-83723766D01*
X107873250Y-83716138D01*
X107857564Y-83708564D01*
X107841808Y-83701045D01*
X107825981Y-83693580D01*
X107810084Y-83686170D01*
X107794116Y-83678815D01*
X107778079Y-83671515D01*
X107761971Y-83664272D01*
X107745793Y-83657084D01*
X107729546Y-83649952D01*
X107713230Y-83642877D01*
X107696845Y-83635859D01*
X107680391Y-83628898D01*
X107663869Y-83621995D01*
X107647278Y-83615149D01*
X107630620Y-83608362D01*
X107613895Y-83601633D01*
X107597102Y-83594963D01*
X107580243Y-83588353D01*
X107563317Y-83581802D01*
X107546326Y-83575310D01*
X107529270Y-83568879D01*
X107512149Y-83562509D01*
X107494964Y-83556200D01*
X107477715Y-83549952D01*
X107460403Y-83543766D01*
X107443028Y-83537642D01*
X107425592Y-83531581D01*
X107408095Y-83525582D01*
X107390537Y-83519647D01*
X107372920Y-83513776D01*
X107355244Y-83507969D01*
X107337510Y-83502227D01*
X107319719Y-83496550D01*
X107301873Y-83490939D01*
X107283971Y-83485393D01*
X107266015Y-83479914D01*
X107248006Y-83474502D01*
X107229945Y-83469157D01*
X107211834Y-83463880D01*
X107193674Y-83458672D01*
X107175465Y-83453532D01*
X107157211Y-83448462D01*
X107138911Y-83443462D01*
X107120568Y-83438532D01*
X107102183Y-83433673D01*
X107083758Y-83428886D01*
X107065294Y-83424170D01*
X107046795Y-83419527D01*
X107028261Y-83414958D01*
X107009696Y-83410462D01*
X106991100Y-83406040D01*
X106972477Y-83401694D01*
X106953829Y-83397423D01*
X106935159Y-83393228D01*
X106916470Y-83389110D01*
X106897764Y-83385069D01*
X106879046Y-83381107D01*
X106860317Y-83377223D01*
X106841582Y-83373419D01*
X106822845Y-83369694D01*
X106804109Y-83366051D01*
X106785379Y-83362490D01*
X106766660Y-83359010D01*
X106747956Y-83355614D01*
X106729272Y-83352302D01*
X106710615Y-83349074D01*
X106691990Y-83345932D01*
X106673403Y-83342877D01*
X106654862Y-83339908D01*
X106636374Y-83337028D01*
X106617947Y-83334237D01*
X106599590Y-83331535D01*
X106581312Y-83328925D01*
X106563123Y-83326406D01*
X106545036Y-83323981D01*
X106527061Y-83321649D01*
X106509214Y-83319413D01*
X106491508Y-83317273D01*
X106473961Y-83315231D01*
X106456592Y-83313287D01*
X106439421Y-83311444D01*
X106422472Y-83309702D01*
X106405772Y-83308064D01*
X106389354Y-83306530D01*
X106373252Y-83305102D01*
X106357511Y-83303783D01*
X106342181Y-83302575D01*
X106327327Y-83301479D01*
X106313027Y-83300499D01*
X106299383Y-83299637D01*
X106286534Y-83298898D01*
X106274678Y-83298286D01*
X106264123Y-83297808D01*
X106255432Y-83297474D01*
X106249611Y-83297298D01*
D10*
X83956791Y-37809207D02*
X86315443Y-40170366D01*
D12*
X92256787Y-31809207D02*
G75*
G02*
X92456737Y-32009204I-401J-200351D01*
G01*
D10*
X127351654Y-119560834D02*
X109226645Y-150954256D01*
X86315437Y-81806606D02*
X86315443Y-40170366D01*
X85343483Y-83309206D02*
X70161378Y-83297305D01*
M02*
