%TF.GenerationSoftware,KiCad,Pcbnew,10.0.3*%
%TF.CreationDate,2026-06-25T17:13:28+01:00*%
%TF.ProjectId,FSR-array,4653522d-6172-4726-9179-2e6b69636164,2.3.1*%
%TF.SameCoordinates,Original*%
%TF.FileFunction,Soldermask,Bot*%
%TF.FilePolarity,Negative*%
%FSLAX46Y46*%
G04 Gerber Fmt 4.6, Leading zero omitted, Abs format (unit mm)*
G04 Created by KiCad (PCBNEW 10.0.3) date 2026-06-25 17:13:28*
%MOMM*%
%LPD*%
G01*
G04 APERTURE LIST*
G04 Aperture macros list*
%AMRoundRect*
0 Rectangle with rounded corners*
0 $1 Rounding radius*
0 $2 $3 $4 $5 $6 $7 $8 $9 X,Y pos of 4 corners*
0 Add a 4 corners polygon primitive as box body*
4,1,4,$2,$3,$4,$5,$6,$7,$8,$9,$2,$3,0*
0 Add four circle primitives for the rounded corners*
1,1,$1+$1,$2,$3*
1,1,$1+$1,$4,$5*
1,1,$1+$1,$6,$7*
1,1,$1+$1,$8,$9*
0 Add four rect primitives between the rounded corners*
20,1,$1+$1,$2,$3,$4,$5,0*
20,1,$1+$1,$4,$5,$6,$7,0*
20,1,$1+$1,$6,$7,$8,$9,0*
20,1,$1+$1,$8,$9,$2,$3,0*%
G04 Aperture macros list end*
%ADD10RoundRect,0.035000X-1.631740X1.103744X-1.771740X0.861256X1.631740X-1.103744X1.771740X-0.861256X0*%
G04 APERTURE END LIST*
D10*
%TO.C,ROW_FPC_Connector1*%
X13682139Y-79330504D03*
X13932138Y-78897492D03*
X14182139Y-78464479D03*
X14432139Y-78031466D03*
X14682139Y-77598453D03*
X14932139Y-77165441D03*
X15182139Y-76732428D03*
X15432139Y-76299415D03*
X15682139Y-75866403D03*
X15932139Y-75433390D03*
X16182139Y-75000377D03*
X16432140Y-74567365D03*
X16682139Y-74134352D03*
X16932139Y-73701339D03*
X17182139Y-73268326D03*
X17432139Y-72835314D03*
%TD*%
G36*
X15893657Y-71381462D02*
G01*
X15934160Y-71394112D01*
X15947366Y-71400898D01*
X15952692Y-71403802D01*
X17060670Y-72043492D01*
X18343181Y-72783952D01*
X18391397Y-72834519D01*
X18404620Y-72903126D01*
X18388621Y-72953248D01*
X14269940Y-80100994D01*
X14219413Y-80149252D01*
X14150818Y-80162533D01*
X14100591Y-80146525D01*
X11698577Y-78762436D01*
X11694238Y-78759816D01*
X11685368Y-78754210D01*
X11653258Y-78724899D01*
X11633668Y-78699381D01*
X11612246Y-78655946D01*
X11604602Y-78627400D01*
X11601451Y-78579081D01*
X11605676Y-78547109D01*
X11618760Y-78505825D01*
X11625705Y-78492564D01*
X11628165Y-78488093D01*
X15675378Y-71478110D01*
X15678511Y-71472975D01*
X15686563Y-71460471D01*
X15715354Y-71429212D01*
X15741203Y-71409387D01*
X15784580Y-71388004D01*
X15813066Y-71380373D01*
X15861323Y-71377209D01*
X15893657Y-71381462D01*
G37*
G36*
X106564828Y-86172315D02*
G01*
X106605323Y-86214885D01*
X124820983Y-117938675D01*
X124837294Y-118006614D01*
X124821345Y-118061529D01*
X106893195Y-149715916D01*
X106843029Y-149764549D01*
X106785338Y-149778807D01*
X69787322Y-149790553D01*
X69720277Y-149770890D01*
X69679387Y-149727662D01*
X51744591Y-118061540D01*
X51728681Y-117993506D01*
X51744953Y-117938686D01*
X69960599Y-86214891D01*
X70011052Y-86166555D01*
X70068133Y-86152636D01*
X106497789Y-86152630D01*
X106564828Y-86172315D01*
G37*
M02*
