%TF.GenerationSoftware,KiCad,Pcbnew,10.0.3*%
%TF.CreationDate,2026-06-25T17:13:28+01:00*%
%TF.ProjectId,FSR-array,4653522d-6172-4726-9179-2e6b69636164,2.3.1*%
%TF.SameCoordinates,Original*%
%TF.FileFunction,Soldermask,Top*%
%TF.FilePolarity,Negative*%
%FSLAX46Y46*%
G04 Gerber Fmt 4.6, Leading zero omitted, Abs format (unit mm)*
G04 Created by KiCad (PCBNEW 10.0.3) date 2026-06-25 17:13:28*
%MOMM*%
%LPD*%
G01*
G04 APERTURE LIST*
G04 Aperture macros list*
%AMRoundRect*
0 Rectangle with rounded corners*
0 $1 Rounding radius*
0 $2 $3 $4 $5 $6 $7 $8 $9 X,Y pos of 4 corners*
0 Add a 4 corners polygon primitive as box body*
4,1,4,$2,$3,$4,$5,$6,$7,$8,$9,$2,$3,0*
0 Add four circle primitives for the rounded corners*
1,1,$1+$1,$2,$3*
1,1,$1+$1,$4,$5*
1,1,$1+$1,$6,$7*
1,1,$1+$1,$8,$9*
0 Add four rect primitives between the rounded corners*
20,1,$1+$1,$2,$3,$4,$5,0*
20,1,$1+$1,$4,$5,$6,$7,0*
20,1,$1+$1,$6,$7,$8,$9,0*
20,1,$1+$1,$8,$9,$2,$3,0*%
G04 Aperture macros list end*
%ADD10RoundRect,0.035000X-0.140000X-1.965000X0.140000X-1.965000X0.140000X1.965000X-0.140000X1.965000X0*%
G04 APERTURE END LIST*
D10*
%TO.C,COL_FPC_Connector1*%
X91956791Y-34009210D03*
X91456792Y-34009210D03*
X90956791Y-34009210D03*
X90456791Y-34009210D03*
X89956790Y-34009210D03*
X89456791Y-34009210D03*
X88956791Y-34009210D03*
X88456791Y-34009210D03*
X87956791Y-34009210D03*
X87456791Y-34009210D03*
X86956791Y-34009210D03*
X86456791Y-34009211D03*
X85956791Y-34009210D03*
X85456791Y-34009210D03*
X84956790Y-34009210D03*
X84456791Y-34009210D03*
%TD*%
G36*
X92260782Y-31809466D02*
G01*
X92280471Y-31810741D01*
X92334561Y-31827154D01*
X92371925Y-31848774D01*
X92417178Y-31894048D01*
X92438838Y-31931521D01*
X92455211Y-31985389D01*
X92456516Y-32005113D01*
X92456787Y-32013299D01*
X92456787Y-34785309D01*
X92437102Y-34852348D01*
X92384298Y-34898103D01*
X92332892Y-34909309D01*
X84083421Y-34916299D01*
X84016365Y-34896671D01*
X83970565Y-34843906D01*
X83959316Y-34792404D01*
X83956956Y-32007971D01*
X83957064Y-32002693D01*
X83957523Y-31991700D01*
X83966840Y-31949454D01*
X83979180Y-31919638D01*
X84006070Y-31879380D01*
X84026965Y-31858483D01*
X84067220Y-31831590D01*
X84097016Y-31819255D01*
X84139311Y-31809931D01*
X84154222Y-31809313D01*
X84159357Y-31809207D01*
X92252769Y-31809207D01*
X92260782Y-31809466D01*
G37*
G36*
X106564828Y-86172315D02*
G01*
X106605323Y-86214885D01*
X124820983Y-117938675D01*
X124837294Y-118006614D01*
X124821345Y-118061529D01*
X106893195Y-149715916D01*
X106843029Y-149764549D01*
X106785338Y-149778807D01*
X69787322Y-149790553D01*
X69720277Y-149770890D01*
X69679387Y-149727662D01*
X51744591Y-118061540D01*
X51728681Y-117993506D01*
X51744953Y-117938686D01*
X69960599Y-86214891D01*
X70011052Y-86166555D01*
X70068133Y-86152636D01*
X106497789Y-86152630D01*
X106564828Y-86172315D01*
G37*
M02*
