%TF.GenerationSoftware,KiCad,Pcbnew,10.0.3*%
%TF.CreationDate,2026-06-24T16:08:58+01:00*%
%TF.ProjectId,mainboard,6d61696e-626f-4617-9264-2e6b69636164,2.2*%
%TF.SameCoordinates,Original*%
%TF.FileFunction,Paste,Bot*%
%TF.FilePolarity,Positive*%
%FSLAX46Y46*%
G04 Gerber Fmt 4.6, Leading zero omitted, Abs format (unit mm)*
G04 Created by KiCad (PCBNEW 10.0.3) date 2026-06-24 16:08:58*
%MOMM*%
%LPD*%
G01*
G04 APERTURE LIST*
%ADD10C,0.150000*%
%ADD11C,0.300000*%
%ADD12C,0.400000*%
G04 APERTURE END LIST*
D10*
X28005800Y-166007200D02*
X136005800Y-166007200D01*
X136005800Y-198007200D01*
X28005800Y-198007200D01*
X28005800Y-166007200D01*
X10000000Y-10000000D02*
X138005800Y-10000000D01*
X138005800Y-200007200D01*
X10000000Y-200007200D01*
X10000000Y-10000000D01*
X12000000Y-12000000D02*
X136005800Y-12000000D01*
X136005800Y-198007200D01*
X12000000Y-198007200D01*
X12000000Y-12000000D01*
X60000000Y-12000000D02*
X60000000Y-10000000D01*
X110000000Y-12000000D02*
X110000000Y-10000000D01*
X36089160Y-11593604D02*
X35346303Y-11593604D01*
X35717731Y-11593604D02*
X35717731Y-10293604D01*
X35717731Y-10293604D02*
X35593922Y-10479319D01*
X35593922Y-10479319D02*
X35470112Y-10603128D01*
X35470112Y-10603128D02*
X35346303Y-10665033D01*
X85346303Y-10417414D02*
X85408207Y-10355509D01*
X85408207Y-10355509D02*
X85532017Y-10293604D01*
X85532017Y-10293604D02*
X85841541Y-10293604D01*
X85841541Y-10293604D02*
X85965350Y-10355509D01*
X85965350Y-10355509D02*
X86027255Y-10417414D01*
X86027255Y-10417414D02*
X86089160Y-10541223D01*
X86089160Y-10541223D02*
X86089160Y-10665033D01*
X86089160Y-10665033D02*
X86027255Y-10850747D01*
X86027255Y-10850747D02*
X85284398Y-11593604D01*
X85284398Y-11593604D02*
X86089160Y-11593604D01*
X135284398Y-10293604D02*
X136089160Y-10293604D01*
X136089160Y-10293604D02*
X135655826Y-10788842D01*
X135655826Y-10788842D02*
X135841541Y-10788842D01*
X135841541Y-10788842D02*
X135965350Y-10850747D01*
X135965350Y-10850747D02*
X136027255Y-10912652D01*
X136027255Y-10912652D02*
X136089160Y-11036461D01*
X136089160Y-11036461D02*
X136089160Y-11345985D01*
X136089160Y-11345985D02*
X136027255Y-11469795D01*
X136027255Y-11469795D02*
X135965350Y-11531700D01*
X135965350Y-11531700D02*
X135841541Y-11593604D01*
X135841541Y-11593604D02*
X135470112Y-11593604D01*
X135470112Y-11593604D02*
X135346303Y-11531700D01*
X135346303Y-11531700D02*
X135284398Y-11469795D01*
X60000000Y-198007200D02*
X60000000Y-200007200D01*
X110000000Y-198007200D02*
X110000000Y-200007200D01*
X36089160Y-199600804D02*
X35346303Y-199600804D01*
X35717731Y-199600804D02*
X35717731Y-198300804D01*
X35717731Y-198300804D02*
X35593922Y-198486519D01*
X35593922Y-198486519D02*
X35470112Y-198610328D01*
X35470112Y-198610328D02*
X35346303Y-198672233D01*
X85346303Y-198424614D02*
X85408207Y-198362709D01*
X85408207Y-198362709D02*
X85532017Y-198300804D01*
X85532017Y-198300804D02*
X85841541Y-198300804D01*
X85841541Y-198300804D02*
X85965350Y-198362709D01*
X85965350Y-198362709D02*
X86027255Y-198424614D01*
X86027255Y-198424614D02*
X86089160Y-198548423D01*
X86089160Y-198548423D02*
X86089160Y-198672233D01*
X86089160Y-198672233D02*
X86027255Y-198857947D01*
X86027255Y-198857947D02*
X85284398Y-199600804D01*
X85284398Y-199600804D02*
X86089160Y-199600804D01*
X135284398Y-198300804D02*
X136089160Y-198300804D01*
X136089160Y-198300804D02*
X135655826Y-198796042D01*
X135655826Y-198796042D02*
X135841541Y-198796042D01*
X135841541Y-198796042D02*
X135965350Y-198857947D01*
X135965350Y-198857947D02*
X136027255Y-198919852D01*
X136027255Y-198919852D02*
X136089160Y-199043661D01*
X136089160Y-199043661D02*
X136089160Y-199353185D01*
X136089160Y-199353185D02*
X136027255Y-199476995D01*
X136027255Y-199476995D02*
X135965350Y-199538900D01*
X135965350Y-199538900D02*
X135841541Y-199600804D01*
X135841541Y-199600804D02*
X135470112Y-199600804D01*
X135470112Y-199600804D02*
X135346303Y-199538900D01*
X135346303Y-199538900D02*
X135284398Y-199476995D01*
X10000000Y-60000000D02*
X12000000Y-60000000D01*
X10000000Y-110000000D02*
X12000000Y-110000000D01*
X10000000Y-160000000D02*
X12000000Y-160000000D01*
X10690476Y-35222176D02*
X11309523Y-35222176D01*
X10566666Y-35593604D02*
X10999999Y-34293604D01*
X10999999Y-34293604D02*
X11433333Y-35593604D01*
X11092857Y-84912652D02*
X11278571Y-84974557D01*
X11278571Y-84974557D02*
X11340476Y-85036461D01*
X11340476Y-85036461D02*
X11402380Y-85160271D01*
X11402380Y-85160271D02*
X11402380Y-85345985D01*
X11402380Y-85345985D02*
X11340476Y-85469795D01*
X11340476Y-85469795D02*
X11278571Y-85531700D01*
X11278571Y-85531700D02*
X11154761Y-85593604D01*
X11154761Y-85593604D02*
X10659523Y-85593604D01*
X10659523Y-85593604D02*
X10659523Y-84293604D01*
X10659523Y-84293604D02*
X11092857Y-84293604D01*
X11092857Y-84293604D02*
X11216666Y-84355509D01*
X11216666Y-84355509D02*
X11278571Y-84417414D01*
X11278571Y-84417414D02*
X11340476Y-84541223D01*
X11340476Y-84541223D02*
X11340476Y-84665033D01*
X11340476Y-84665033D02*
X11278571Y-84788842D01*
X11278571Y-84788842D02*
X11216666Y-84850747D01*
X11216666Y-84850747D02*
X11092857Y-84912652D01*
X11092857Y-84912652D02*
X10659523Y-84912652D01*
X11402380Y-135469795D02*
X11340476Y-135531700D01*
X11340476Y-135531700D02*
X11154761Y-135593604D01*
X11154761Y-135593604D02*
X11030952Y-135593604D01*
X11030952Y-135593604D02*
X10845238Y-135531700D01*
X10845238Y-135531700D02*
X10721428Y-135407890D01*
X10721428Y-135407890D02*
X10659523Y-135284080D01*
X10659523Y-135284080D02*
X10597619Y-135036461D01*
X10597619Y-135036461D02*
X10597619Y-134850747D01*
X10597619Y-134850747D02*
X10659523Y-134603128D01*
X10659523Y-134603128D02*
X10721428Y-134479319D01*
X10721428Y-134479319D02*
X10845238Y-134355509D01*
X10845238Y-134355509D02*
X11030952Y-134293604D01*
X11030952Y-134293604D02*
X11154761Y-134293604D01*
X11154761Y-134293604D02*
X11340476Y-134355509D01*
X11340476Y-134355509D02*
X11402380Y-134417414D01*
X10659523Y-185593604D02*
X10659523Y-184293604D01*
X10659523Y-184293604D02*
X10969047Y-184293604D01*
X10969047Y-184293604D02*
X11154761Y-184355509D01*
X11154761Y-184355509D02*
X11278571Y-184479319D01*
X11278571Y-184479319D02*
X11340476Y-184603128D01*
X11340476Y-184603128D02*
X11402380Y-184850747D01*
X11402380Y-184850747D02*
X11402380Y-185036461D01*
X11402380Y-185036461D02*
X11340476Y-185284080D01*
X11340476Y-185284080D02*
X11278571Y-185407890D01*
X11278571Y-185407890D02*
X11154761Y-185531700D01*
X11154761Y-185531700D02*
X10969047Y-185593604D01*
X10969047Y-185593604D02*
X10659523Y-185593604D01*
X138005800Y-60000000D02*
X136005800Y-60000000D01*
X138005800Y-110000000D02*
X136005800Y-110000000D01*
X138005800Y-160000000D02*
X136005800Y-160000000D01*
X136696276Y-35222176D02*
X137315323Y-35222176D01*
X136572466Y-35593604D02*
X137005799Y-34293604D01*
X137005799Y-34293604D02*
X137439133Y-35593604D01*
X137098657Y-84912652D02*
X137284371Y-84974557D01*
X137284371Y-84974557D02*
X137346276Y-85036461D01*
X137346276Y-85036461D02*
X137408180Y-85160271D01*
X137408180Y-85160271D02*
X137408180Y-85345985D01*
X137408180Y-85345985D02*
X137346276Y-85469795D01*
X137346276Y-85469795D02*
X137284371Y-85531700D01*
X137284371Y-85531700D02*
X137160561Y-85593604D01*
X137160561Y-85593604D02*
X136665323Y-85593604D01*
X136665323Y-85593604D02*
X136665323Y-84293604D01*
X136665323Y-84293604D02*
X137098657Y-84293604D01*
X137098657Y-84293604D02*
X137222466Y-84355509D01*
X137222466Y-84355509D02*
X137284371Y-84417414D01*
X137284371Y-84417414D02*
X137346276Y-84541223D01*
X137346276Y-84541223D02*
X137346276Y-84665033D01*
X137346276Y-84665033D02*
X137284371Y-84788842D01*
X137284371Y-84788842D02*
X137222466Y-84850747D01*
X137222466Y-84850747D02*
X137098657Y-84912652D01*
X137098657Y-84912652D02*
X136665323Y-84912652D01*
X137408180Y-135469795D02*
X137346276Y-135531700D01*
X137346276Y-135531700D02*
X137160561Y-135593604D01*
X137160561Y-135593604D02*
X137036752Y-135593604D01*
X137036752Y-135593604D02*
X136851038Y-135531700D01*
X136851038Y-135531700D02*
X136727228Y-135407890D01*
X136727228Y-135407890D02*
X136665323Y-135284080D01*
X136665323Y-135284080D02*
X136603419Y-135036461D01*
X136603419Y-135036461D02*
X136603419Y-134850747D01*
X136603419Y-134850747D02*
X136665323Y-134603128D01*
X136665323Y-134603128D02*
X136727228Y-134479319D01*
X136727228Y-134479319D02*
X136851038Y-134355509D01*
X136851038Y-134355509D02*
X137036752Y-134293604D01*
X137036752Y-134293604D02*
X137160561Y-134293604D01*
X137160561Y-134293604D02*
X137346276Y-134355509D01*
X137346276Y-134355509D02*
X137408180Y-134417414D01*
X136665323Y-185593604D02*
X136665323Y-184293604D01*
X136665323Y-184293604D02*
X136974847Y-184293604D01*
X136974847Y-184293604D02*
X137160561Y-184355509D01*
X137160561Y-184355509D02*
X137284371Y-184479319D01*
X137284371Y-184479319D02*
X137346276Y-184603128D01*
X137346276Y-184603128D02*
X137408180Y-184850747D01*
X137408180Y-184850747D02*
X137408180Y-185036461D01*
X137408180Y-185036461D02*
X137346276Y-185284080D01*
X137346276Y-185284080D02*
X137284371Y-185407890D01*
X137284371Y-185407890D02*
X137160561Y-185531700D01*
X137160561Y-185531700D02*
X136974847Y-185593604D01*
X136974847Y-185593604D02*
X136665323Y-185593604D01*
X51461626Y-193793328D02*
X51461626Y-192293328D01*
X51461626Y-192293328D02*
X51818769Y-192293328D01*
X51818769Y-192293328D02*
X52033055Y-192364757D01*
X52033055Y-192364757D02*
X52175912Y-192507614D01*
X52175912Y-192507614D02*
X52247341Y-192650471D01*
X52247341Y-192650471D02*
X52318769Y-192936185D01*
X52318769Y-192936185D02*
X52318769Y-193150471D01*
X52318769Y-193150471D02*
X52247341Y-193436185D01*
X52247341Y-193436185D02*
X52175912Y-193579042D01*
X52175912Y-193579042D02*
X52033055Y-193721900D01*
X52033055Y-193721900D02*
X51818769Y-193793328D01*
X51818769Y-193793328D02*
X51461626Y-193793328D01*
X53604484Y-193793328D02*
X53604484Y-193007614D01*
X53604484Y-193007614D02*
X53533055Y-192864757D01*
X53533055Y-192864757D02*
X53390198Y-192793328D01*
X53390198Y-192793328D02*
X53104484Y-192793328D01*
X53104484Y-192793328D02*
X52961626Y-192864757D01*
X53604484Y-193721900D02*
X53461626Y-193793328D01*
X53461626Y-193793328D02*
X53104484Y-193793328D01*
X53104484Y-193793328D02*
X52961626Y-193721900D01*
X52961626Y-193721900D02*
X52890198Y-193579042D01*
X52890198Y-193579042D02*
X52890198Y-193436185D01*
X52890198Y-193436185D02*
X52961626Y-193293328D01*
X52961626Y-193293328D02*
X53104484Y-193221900D01*
X53104484Y-193221900D02*
X53461626Y-193221900D01*
X53461626Y-193221900D02*
X53604484Y-193150471D01*
X54104484Y-192793328D02*
X54675912Y-192793328D01*
X54318769Y-192293328D02*
X54318769Y-193579042D01*
X54318769Y-193579042D02*
X54390198Y-193721900D01*
X54390198Y-193721900D02*
X54533055Y-193793328D01*
X54533055Y-193793328D02*
X54675912Y-193793328D01*
X55747341Y-193721900D02*
X55604484Y-193793328D01*
X55604484Y-193793328D02*
X55318770Y-193793328D01*
X55318770Y-193793328D02*
X55175912Y-193721900D01*
X55175912Y-193721900D02*
X55104484Y-193579042D01*
X55104484Y-193579042D02*
X55104484Y-193007614D01*
X55104484Y-193007614D02*
X55175912Y-192864757D01*
X55175912Y-192864757D02*
X55318770Y-192793328D01*
X55318770Y-192793328D02*
X55604484Y-192793328D01*
X55604484Y-192793328D02*
X55747341Y-192864757D01*
X55747341Y-192864757D02*
X55818770Y-193007614D01*
X55818770Y-193007614D02*
X55818770Y-193150471D01*
X55818770Y-193150471D02*
X55104484Y-193293328D01*
X56461626Y-193650471D02*
X56533055Y-193721900D01*
X56533055Y-193721900D02*
X56461626Y-193793328D01*
X56461626Y-193793328D02*
X56390198Y-193721900D01*
X56390198Y-193721900D02*
X56461626Y-193650471D01*
X56461626Y-193650471D02*
X56461626Y-193793328D01*
X56461626Y-192864757D02*
X56533055Y-192936185D01*
X56533055Y-192936185D02*
X56461626Y-193007614D01*
X56461626Y-193007614D02*
X56390198Y-192936185D01*
X56390198Y-192936185D02*
X56461626Y-192864757D01*
X56461626Y-192864757D02*
X56461626Y-193007614D01*
X58247341Y-192436185D02*
X58318769Y-192364757D01*
X58318769Y-192364757D02*
X58461627Y-192293328D01*
X58461627Y-192293328D02*
X58818769Y-192293328D01*
X58818769Y-192293328D02*
X58961627Y-192364757D01*
X58961627Y-192364757D02*
X59033055Y-192436185D01*
X59033055Y-192436185D02*
X59104484Y-192579042D01*
X59104484Y-192579042D02*
X59104484Y-192721900D01*
X59104484Y-192721900D02*
X59033055Y-192936185D01*
X59033055Y-192936185D02*
X58175912Y-193793328D01*
X58175912Y-193793328D02*
X59104484Y-193793328D01*
X60033055Y-192293328D02*
X60175912Y-192293328D01*
X60175912Y-192293328D02*
X60318769Y-192364757D01*
X60318769Y-192364757D02*
X60390198Y-192436185D01*
X60390198Y-192436185D02*
X60461626Y-192579042D01*
X60461626Y-192579042D02*
X60533055Y-192864757D01*
X60533055Y-192864757D02*
X60533055Y-193221900D01*
X60533055Y-193221900D02*
X60461626Y-193507614D01*
X60461626Y-193507614D02*
X60390198Y-193650471D01*
X60390198Y-193650471D02*
X60318769Y-193721900D01*
X60318769Y-193721900D02*
X60175912Y-193793328D01*
X60175912Y-193793328D02*
X60033055Y-193793328D01*
X60033055Y-193793328D02*
X59890198Y-193721900D01*
X59890198Y-193721900D02*
X59818769Y-193650471D01*
X59818769Y-193650471D02*
X59747340Y-193507614D01*
X59747340Y-193507614D02*
X59675912Y-193221900D01*
X59675912Y-193221900D02*
X59675912Y-192864757D01*
X59675912Y-192864757D02*
X59747340Y-192579042D01*
X59747340Y-192579042D02*
X59818769Y-192436185D01*
X59818769Y-192436185D02*
X59890198Y-192364757D01*
X59890198Y-192364757D02*
X60033055Y-192293328D01*
X61104483Y-192436185D02*
X61175911Y-192364757D01*
X61175911Y-192364757D02*
X61318769Y-192293328D01*
X61318769Y-192293328D02*
X61675911Y-192293328D01*
X61675911Y-192293328D02*
X61818769Y-192364757D01*
X61818769Y-192364757D02*
X61890197Y-192436185D01*
X61890197Y-192436185D02*
X61961626Y-192579042D01*
X61961626Y-192579042D02*
X61961626Y-192721900D01*
X61961626Y-192721900D02*
X61890197Y-192936185D01*
X61890197Y-192936185D02*
X61033054Y-193793328D01*
X61033054Y-193793328D02*
X61961626Y-193793328D01*
X63247340Y-192293328D02*
X62961625Y-192293328D01*
X62961625Y-192293328D02*
X62818768Y-192364757D01*
X62818768Y-192364757D02*
X62747340Y-192436185D01*
X62747340Y-192436185D02*
X62604482Y-192650471D01*
X62604482Y-192650471D02*
X62533054Y-192936185D01*
X62533054Y-192936185D02*
X62533054Y-193507614D01*
X62533054Y-193507614D02*
X62604482Y-193650471D01*
X62604482Y-193650471D02*
X62675911Y-193721900D01*
X62675911Y-193721900D02*
X62818768Y-193793328D01*
X62818768Y-193793328D02*
X63104482Y-193793328D01*
X63104482Y-193793328D02*
X63247340Y-193721900D01*
X63247340Y-193721900D02*
X63318768Y-193650471D01*
X63318768Y-193650471D02*
X63390197Y-193507614D01*
X63390197Y-193507614D02*
X63390197Y-193150471D01*
X63390197Y-193150471D02*
X63318768Y-193007614D01*
X63318768Y-193007614D02*
X63247340Y-192936185D01*
X63247340Y-192936185D02*
X63104482Y-192864757D01*
X63104482Y-192864757D02*
X62818768Y-192864757D01*
X62818768Y-192864757D02*
X62675911Y-192936185D01*
X62675911Y-192936185D02*
X62604482Y-193007614D01*
X62604482Y-193007614D02*
X62533054Y-193150471D01*
X64033053Y-193221900D02*
X65175911Y-193221900D01*
X66175911Y-192293328D02*
X66318768Y-192293328D01*
X66318768Y-192293328D02*
X66461625Y-192364757D01*
X66461625Y-192364757D02*
X66533054Y-192436185D01*
X66533054Y-192436185D02*
X66604482Y-192579042D01*
X66604482Y-192579042D02*
X66675911Y-192864757D01*
X66675911Y-192864757D02*
X66675911Y-193221900D01*
X66675911Y-193221900D02*
X66604482Y-193507614D01*
X66604482Y-193507614D02*
X66533054Y-193650471D01*
X66533054Y-193650471D02*
X66461625Y-193721900D01*
X66461625Y-193721900D02*
X66318768Y-193793328D01*
X66318768Y-193793328D02*
X66175911Y-193793328D01*
X66175911Y-193793328D02*
X66033054Y-193721900D01*
X66033054Y-193721900D02*
X65961625Y-193650471D01*
X65961625Y-193650471D02*
X65890196Y-193507614D01*
X65890196Y-193507614D02*
X65818768Y-193221900D01*
X65818768Y-193221900D02*
X65818768Y-192864757D01*
X65818768Y-192864757D02*
X65890196Y-192579042D01*
X65890196Y-192579042D02*
X65961625Y-192436185D01*
X65961625Y-192436185D02*
X66033054Y-192364757D01*
X66033054Y-192364757D02*
X66175911Y-192293328D01*
X67961625Y-192293328D02*
X67675910Y-192293328D01*
X67675910Y-192293328D02*
X67533053Y-192364757D01*
X67533053Y-192364757D02*
X67461625Y-192436185D01*
X67461625Y-192436185D02*
X67318767Y-192650471D01*
X67318767Y-192650471D02*
X67247339Y-192936185D01*
X67247339Y-192936185D02*
X67247339Y-193507614D01*
X67247339Y-193507614D02*
X67318767Y-193650471D01*
X67318767Y-193650471D02*
X67390196Y-193721900D01*
X67390196Y-193721900D02*
X67533053Y-193793328D01*
X67533053Y-193793328D02*
X67818767Y-193793328D01*
X67818767Y-193793328D02*
X67961625Y-193721900D01*
X67961625Y-193721900D02*
X68033053Y-193650471D01*
X68033053Y-193650471D02*
X68104482Y-193507614D01*
X68104482Y-193507614D02*
X68104482Y-193150471D01*
X68104482Y-193150471D02*
X68033053Y-193007614D01*
X68033053Y-193007614D02*
X67961625Y-192936185D01*
X67961625Y-192936185D02*
X67818767Y-192864757D01*
X67818767Y-192864757D02*
X67533053Y-192864757D01*
X67533053Y-192864757D02*
X67390196Y-192936185D01*
X67390196Y-192936185D02*
X67318767Y-193007614D01*
X67318767Y-193007614D02*
X67247339Y-193150471D01*
X68747338Y-193221900D02*
X69890196Y-193221900D01*
X70533053Y-192436185D02*
X70604481Y-192364757D01*
X70604481Y-192364757D02*
X70747339Y-192293328D01*
X70747339Y-192293328D02*
X71104481Y-192293328D01*
X71104481Y-192293328D02*
X71247339Y-192364757D01*
X71247339Y-192364757D02*
X71318767Y-192436185D01*
X71318767Y-192436185D02*
X71390196Y-192579042D01*
X71390196Y-192579042D02*
X71390196Y-192721900D01*
X71390196Y-192721900D02*
X71318767Y-192936185D01*
X71318767Y-192936185D02*
X70461624Y-193793328D01*
X70461624Y-193793328D02*
X71390196Y-193793328D01*
X71961624Y-192436185D02*
X72033052Y-192364757D01*
X72033052Y-192364757D02*
X72175910Y-192293328D01*
X72175910Y-192293328D02*
X72533052Y-192293328D01*
X72533052Y-192293328D02*
X72675910Y-192364757D01*
X72675910Y-192364757D02*
X72747338Y-192436185D01*
X72747338Y-192436185D02*
X72818767Y-192579042D01*
X72818767Y-192579042D02*
X72818767Y-192721900D01*
X72818767Y-192721900D02*
X72747338Y-192936185D01*
X72747338Y-192936185D02*
X71890195Y-193793328D01*
X71890195Y-193793328D02*
X72818767Y-193793328D01*
X28005800Y-194507200D02*
X136005800Y-194507200D01*
X29461626Y-196593328D02*
X29461626Y-195093328D01*
X30318769Y-196593328D02*
X29675912Y-195736185D01*
X30318769Y-195093328D02*
X29461626Y-195950471D01*
X30961626Y-196593328D02*
X30961626Y-195593328D01*
X30961626Y-195093328D02*
X30890198Y-195164757D01*
X30890198Y-195164757D02*
X30961626Y-195236185D01*
X30961626Y-195236185D02*
X31033055Y-195164757D01*
X31033055Y-195164757D02*
X30961626Y-195093328D01*
X30961626Y-195093328D02*
X30961626Y-195236185D01*
X32533055Y-196450471D02*
X32461627Y-196521900D01*
X32461627Y-196521900D02*
X32247341Y-196593328D01*
X32247341Y-196593328D02*
X32104484Y-196593328D01*
X32104484Y-196593328D02*
X31890198Y-196521900D01*
X31890198Y-196521900D02*
X31747341Y-196379042D01*
X31747341Y-196379042D02*
X31675912Y-196236185D01*
X31675912Y-196236185D02*
X31604484Y-195950471D01*
X31604484Y-195950471D02*
X31604484Y-195736185D01*
X31604484Y-195736185D02*
X31675912Y-195450471D01*
X31675912Y-195450471D02*
X31747341Y-195307614D01*
X31747341Y-195307614D02*
X31890198Y-195164757D01*
X31890198Y-195164757D02*
X32104484Y-195093328D01*
X32104484Y-195093328D02*
X32247341Y-195093328D01*
X32247341Y-195093328D02*
X32461627Y-195164757D01*
X32461627Y-195164757D02*
X32533055Y-195236185D01*
X33818770Y-196593328D02*
X33818770Y-195807614D01*
X33818770Y-195807614D02*
X33747341Y-195664757D01*
X33747341Y-195664757D02*
X33604484Y-195593328D01*
X33604484Y-195593328D02*
X33318770Y-195593328D01*
X33318770Y-195593328D02*
X33175912Y-195664757D01*
X33818770Y-196521900D02*
X33675912Y-196593328D01*
X33675912Y-196593328D02*
X33318770Y-196593328D01*
X33318770Y-196593328D02*
X33175912Y-196521900D01*
X33175912Y-196521900D02*
X33104484Y-196379042D01*
X33104484Y-196379042D02*
X33104484Y-196236185D01*
X33104484Y-196236185D02*
X33175912Y-196093328D01*
X33175912Y-196093328D02*
X33318770Y-196021900D01*
X33318770Y-196021900D02*
X33675912Y-196021900D01*
X33675912Y-196021900D02*
X33818770Y-195950471D01*
X35175913Y-196593328D02*
X35175913Y-195093328D01*
X35175913Y-196521900D02*
X35033055Y-196593328D01*
X35033055Y-196593328D02*
X34747341Y-196593328D01*
X34747341Y-196593328D02*
X34604484Y-196521900D01*
X34604484Y-196521900D02*
X34533055Y-196450471D01*
X34533055Y-196450471D02*
X34461627Y-196307614D01*
X34461627Y-196307614D02*
X34461627Y-195879042D01*
X34461627Y-195879042D02*
X34533055Y-195736185D01*
X34533055Y-195736185D02*
X34604484Y-195664757D01*
X34604484Y-195664757D02*
X34747341Y-195593328D01*
X34747341Y-195593328D02*
X35033055Y-195593328D01*
X35033055Y-195593328D02*
X35175913Y-195664757D01*
X37033055Y-195807614D02*
X37533055Y-195807614D01*
X37747341Y-196593328D02*
X37033055Y-196593328D01*
X37033055Y-196593328D02*
X37033055Y-195093328D01*
X37033055Y-195093328D02*
X37747341Y-195093328D01*
X38390198Y-196450471D02*
X38461627Y-196521900D01*
X38461627Y-196521900D02*
X38390198Y-196593328D01*
X38390198Y-196593328D02*
X38318770Y-196521900D01*
X38318770Y-196521900D02*
X38390198Y-196450471D01*
X38390198Y-196450471D02*
X38390198Y-196593328D01*
X39104484Y-196593328D02*
X39104484Y-195093328D01*
X39104484Y-195093328D02*
X39461627Y-195093328D01*
X39461627Y-195093328D02*
X39675913Y-195164757D01*
X39675913Y-195164757D02*
X39818770Y-195307614D01*
X39818770Y-195307614D02*
X39890199Y-195450471D01*
X39890199Y-195450471D02*
X39961627Y-195736185D01*
X39961627Y-195736185D02*
X39961627Y-195950471D01*
X39961627Y-195950471D02*
X39890199Y-196236185D01*
X39890199Y-196236185D02*
X39818770Y-196379042D01*
X39818770Y-196379042D02*
X39675913Y-196521900D01*
X39675913Y-196521900D02*
X39461627Y-196593328D01*
X39461627Y-196593328D02*
X39104484Y-196593328D01*
X40604484Y-196450471D02*
X40675913Y-196521900D01*
X40675913Y-196521900D02*
X40604484Y-196593328D01*
X40604484Y-196593328D02*
X40533056Y-196521900D01*
X40533056Y-196521900D02*
X40604484Y-196450471D01*
X40604484Y-196450471D02*
X40604484Y-196593328D01*
X41247342Y-196164757D02*
X41961628Y-196164757D01*
X41104485Y-196593328D02*
X41604485Y-195093328D01*
X41604485Y-195093328D02*
X42104485Y-196593328D01*
X42604484Y-196450471D02*
X42675913Y-196521900D01*
X42675913Y-196521900D02*
X42604484Y-196593328D01*
X42604484Y-196593328D02*
X42533056Y-196521900D01*
X42533056Y-196521900D02*
X42604484Y-196450471D01*
X42604484Y-196450471D02*
X42604484Y-196593328D01*
X45247342Y-196593328D02*
X44390199Y-196593328D01*
X44818770Y-196593328D02*
X44818770Y-195093328D01*
X44818770Y-195093328D02*
X44675913Y-195307614D01*
X44675913Y-195307614D02*
X44533056Y-195450471D01*
X44533056Y-195450471D02*
X44390199Y-195521900D01*
X46175913Y-195093328D02*
X46318770Y-195093328D01*
X46318770Y-195093328D02*
X46461627Y-195164757D01*
X46461627Y-195164757D02*
X46533056Y-195236185D01*
X46533056Y-195236185D02*
X46604484Y-195379042D01*
X46604484Y-195379042D02*
X46675913Y-195664757D01*
X46675913Y-195664757D02*
X46675913Y-196021900D01*
X46675913Y-196021900D02*
X46604484Y-196307614D01*
X46604484Y-196307614D02*
X46533056Y-196450471D01*
X46533056Y-196450471D02*
X46461627Y-196521900D01*
X46461627Y-196521900D02*
X46318770Y-196593328D01*
X46318770Y-196593328D02*
X46175913Y-196593328D01*
X46175913Y-196593328D02*
X46033056Y-196521900D01*
X46033056Y-196521900D02*
X45961627Y-196450471D01*
X45961627Y-196450471D02*
X45890198Y-196307614D01*
X45890198Y-196307614D02*
X45818770Y-196021900D01*
X45818770Y-196021900D02*
X45818770Y-195664757D01*
X45818770Y-195664757D02*
X45890198Y-195379042D01*
X45890198Y-195379042D02*
X45961627Y-195236185D01*
X45961627Y-195236185D02*
X46033056Y-195164757D01*
X46033056Y-195164757D02*
X46175913Y-195093328D01*
X47318769Y-196450471D02*
X47390198Y-196521900D01*
X47390198Y-196521900D02*
X47318769Y-196593328D01*
X47318769Y-196593328D02*
X47247341Y-196521900D01*
X47247341Y-196521900D02*
X47318769Y-196450471D01*
X47318769Y-196450471D02*
X47318769Y-196593328D01*
X48318770Y-195093328D02*
X48461627Y-195093328D01*
X48461627Y-195093328D02*
X48604484Y-195164757D01*
X48604484Y-195164757D02*
X48675913Y-195236185D01*
X48675913Y-195236185D02*
X48747341Y-195379042D01*
X48747341Y-195379042D02*
X48818770Y-195664757D01*
X48818770Y-195664757D02*
X48818770Y-196021900D01*
X48818770Y-196021900D02*
X48747341Y-196307614D01*
X48747341Y-196307614D02*
X48675913Y-196450471D01*
X48675913Y-196450471D02*
X48604484Y-196521900D01*
X48604484Y-196521900D02*
X48461627Y-196593328D01*
X48461627Y-196593328D02*
X48318770Y-196593328D01*
X48318770Y-196593328D02*
X48175913Y-196521900D01*
X48175913Y-196521900D02*
X48104484Y-196450471D01*
X48104484Y-196450471D02*
X48033055Y-196307614D01*
X48033055Y-196307614D02*
X47961627Y-196021900D01*
X47961627Y-196021900D02*
X47961627Y-195664757D01*
X47961627Y-195664757D02*
X48033055Y-195379042D01*
X48033055Y-195379042D02*
X48104484Y-195236185D01*
X48104484Y-195236185D02*
X48175913Y-195164757D01*
X48175913Y-195164757D02*
X48318770Y-195093328D01*
X49461626Y-196450471D02*
X49533055Y-196521900D01*
X49533055Y-196521900D02*
X49461626Y-196593328D01*
X49461626Y-196593328D02*
X49390198Y-196521900D01*
X49390198Y-196521900D02*
X49461626Y-196450471D01*
X49461626Y-196450471D02*
X49461626Y-196593328D01*
X50033055Y-195093328D02*
X50961627Y-195093328D01*
X50961627Y-195093328D02*
X50461627Y-195664757D01*
X50461627Y-195664757D02*
X50675912Y-195664757D01*
X50675912Y-195664757D02*
X50818770Y-195736185D01*
X50818770Y-195736185D02*
X50890198Y-195807614D01*
X50890198Y-195807614D02*
X50961627Y-195950471D01*
X50961627Y-195950471D02*
X50961627Y-196307614D01*
X50961627Y-196307614D02*
X50890198Y-196450471D01*
X50890198Y-196450471D02*
X50818770Y-196521900D01*
X50818770Y-196521900D02*
X50675912Y-196593328D01*
X50675912Y-196593328D02*
X50247341Y-196593328D01*
X50247341Y-196593328D02*
X50104484Y-196521900D01*
X50104484Y-196521900D02*
X50033055Y-196450471D01*
X28005800Y-191507200D02*
X136005800Y-191507200D01*
D11*
X115417453Y-193785528D02*
X114917453Y-193071242D01*
X114560310Y-193785528D02*
X114560310Y-192285528D01*
X114560310Y-192285528D02*
X115131739Y-192285528D01*
X115131739Y-192285528D02*
X115274596Y-192356957D01*
X115274596Y-192356957D02*
X115346025Y-192428385D01*
X115346025Y-192428385D02*
X115417453Y-192571242D01*
X115417453Y-192571242D02*
X115417453Y-192785528D01*
X115417453Y-192785528D02*
X115346025Y-192928385D01*
X115346025Y-192928385D02*
X115274596Y-192999814D01*
X115274596Y-192999814D02*
X115131739Y-193071242D01*
X115131739Y-193071242D02*
X114560310Y-193071242D01*
X116631739Y-193714100D02*
X116488882Y-193785528D01*
X116488882Y-193785528D02*
X116203168Y-193785528D01*
X116203168Y-193785528D02*
X116060310Y-193714100D01*
X116060310Y-193714100D02*
X115988882Y-193571242D01*
X115988882Y-193571242D02*
X115988882Y-192999814D01*
X115988882Y-192999814D02*
X116060310Y-192856957D01*
X116060310Y-192856957D02*
X116203168Y-192785528D01*
X116203168Y-192785528D02*
X116488882Y-192785528D01*
X116488882Y-192785528D02*
X116631739Y-192856957D01*
X116631739Y-192856957D02*
X116703168Y-192999814D01*
X116703168Y-192999814D02*
X116703168Y-193142671D01*
X116703168Y-193142671D02*
X115988882Y-193285528D01*
X117203167Y-192785528D02*
X117560310Y-193785528D01*
X117560310Y-193785528D02*
X117917453Y-192785528D01*
X118488881Y-193642671D02*
X118560310Y-193714100D01*
X118560310Y-193714100D02*
X118488881Y-193785528D01*
X118488881Y-193785528D02*
X118417453Y-193714100D01*
X118417453Y-193714100D02*
X118488881Y-193642671D01*
X118488881Y-193642671D02*
X118488881Y-193785528D01*
X118488881Y-192856957D02*
X118560310Y-192928385D01*
X118560310Y-192928385D02*
X118488881Y-192999814D01*
X118488881Y-192999814D02*
X118417453Y-192928385D01*
X118417453Y-192928385D02*
X118488881Y-192856957D01*
X118488881Y-192856957D02*
X118488881Y-192999814D01*
X120274596Y-192428385D02*
X120346024Y-192356957D01*
X120346024Y-192356957D02*
X120488882Y-192285528D01*
X120488882Y-192285528D02*
X120846024Y-192285528D01*
X120846024Y-192285528D02*
X120988882Y-192356957D01*
X120988882Y-192356957D02*
X121060310Y-192428385D01*
X121060310Y-192428385D02*
X121131739Y-192571242D01*
X121131739Y-192571242D02*
X121131739Y-192714100D01*
X121131739Y-192714100D02*
X121060310Y-192928385D01*
X121060310Y-192928385D02*
X120203167Y-193785528D01*
X120203167Y-193785528D02*
X121131739Y-193785528D01*
X121774595Y-193642671D02*
X121846024Y-193714100D01*
X121846024Y-193714100D02*
X121774595Y-193785528D01*
X121774595Y-193785528D02*
X121703167Y-193714100D01*
X121703167Y-193714100D02*
X121774595Y-193642671D01*
X121774595Y-193642671D02*
X121774595Y-193785528D01*
X122417453Y-192428385D02*
X122488881Y-192356957D01*
X122488881Y-192356957D02*
X122631739Y-192285528D01*
X122631739Y-192285528D02*
X122988881Y-192285528D01*
X122988881Y-192285528D02*
X123131739Y-192356957D01*
X123131739Y-192356957D02*
X123203167Y-192428385D01*
X123203167Y-192428385D02*
X123274596Y-192571242D01*
X123274596Y-192571242D02*
X123274596Y-192714100D01*
X123274596Y-192714100D02*
X123203167Y-192928385D01*
X123203167Y-192928385D02*
X122346024Y-193785528D01*
X122346024Y-193785528D02*
X123274596Y-193785528D01*
D10*
X29390198Y-193721900D02*
X29604484Y-193793328D01*
X29604484Y-193793328D02*
X29961626Y-193793328D01*
X29961626Y-193793328D02*
X30104484Y-193721900D01*
X30104484Y-193721900D02*
X30175912Y-193650471D01*
X30175912Y-193650471D02*
X30247341Y-193507614D01*
X30247341Y-193507614D02*
X30247341Y-193364757D01*
X30247341Y-193364757D02*
X30175912Y-193221900D01*
X30175912Y-193221900D02*
X30104484Y-193150471D01*
X30104484Y-193150471D02*
X29961626Y-193079042D01*
X29961626Y-193079042D02*
X29675912Y-193007614D01*
X29675912Y-193007614D02*
X29533055Y-192936185D01*
X29533055Y-192936185D02*
X29461626Y-192864757D01*
X29461626Y-192864757D02*
X29390198Y-192721900D01*
X29390198Y-192721900D02*
X29390198Y-192579042D01*
X29390198Y-192579042D02*
X29461626Y-192436185D01*
X29461626Y-192436185D02*
X29533055Y-192364757D01*
X29533055Y-192364757D02*
X29675912Y-192293328D01*
X29675912Y-192293328D02*
X30033055Y-192293328D01*
X30033055Y-192293328D02*
X30247341Y-192364757D01*
X30890197Y-193793328D02*
X30890197Y-192793328D01*
X30890197Y-192293328D02*
X30818769Y-192364757D01*
X30818769Y-192364757D02*
X30890197Y-192436185D01*
X30890197Y-192436185D02*
X30961626Y-192364757D01*
X30961626Y-192364757D02*
X30890197Y-192293328D01*
X30890197Y-192293328D02*
X30890197Y-192436185D01*
X31461626Y-192793328D02*
X32247341Y-192793328D01*
X32247341Y-192793328D02*
X31461626Y-193793328D01*
X31461626Y-193793328D02*
X32247341Y-193793328D01*
X33390198Y-193721900D02*
X33247341Y-193793328D01*
X33247341Y-193793328D02*
X32961627Y-193793328D01*
X32961627Y-193793328D02*
X32818769Y-193721900D01*
X32818769Y-193721900D02*
X32747341Y-193579042D01*
X32747341Y-193579042D02*
X32747341Y-193007614D01*
X32747341Y-193007614D02*
X32818769Y-192864757D01*
X32818769Y-192864757D02*
X32961627Y-192793328D01*
X32961627Y-192793328D02*
X33247341Y-192793328D01*
X33247341Y-192793328D02*
X33390198Y-192864757D01*
X33390198Y-192864757D02*
X33461627Y-193007614D01*
X33461627Y-193007614D02*
X33461627Y-193150471D01*
X33461627Y-193150471D02*
X32747341Y-193293328D01*
X34104483Y-193650471D02*
X34175912Y-193721900D01*
X34175912Y-193721900D02*
X34104483Y-193793328D01*
X34104483Y-193793328D02*
X34033055Y-193721900D01*
X34033055Y-193721900D02*
X34104483Y-193650471D01*
X34104483Y-193650471D02*
X34104483Y-193793328D01*
X34104483Y-192864757D02*
X34175912Y-192936185D01*
X34175912Y-192936185D02*
X34104483Y-193007614D01*
X34104483Y-193007614D02*
X34033055Y-192936185D01*
X34033055Y-192936185D02*
X34104483Y-192864757D01*
X34104483Y-192864757D02*
X34104483Y-193007614D01*
X35890198Y-193364757D02*
X36604484Y-193364757D01*
X35747341Y-193793328D02*
X36247341Y-192293328D01*
X36247341Y-192293328D02*
X36747341Y-193793328D01*
X37961626Y-192293328D02*
X37247340Y-192293328D01*
X37247340Y-192293328D02*
X37175912Y-193007614D01*
X37175912Y-193007614D02*
X37247340Y-192936185D01*
X37247340Y-192936185D02*
X37390198Y-192864757D01*
X37390198Y-192864757D02*
X37747340Y-192864757D01*
X37747340Y-192864757D02*
X37890198Y-192936185D01*
X37890198Y-192936185D02*
X37961626Y-193007614D01*
X37961626Y-193007614D02*
X38033055Y-193150471D01*
X38033055Y-193150471D02*
X38033055Y-193507614D01*
X38033055Y-193507614D02*
X37961626Y-193650471D01*
X37961626Y-193650471D02*
X37890198Y-193721900D01*
X37890198Y-193721900D02*
X37747340Y-193793328D01*
X37747340Y-193793328D02*
X37390198Y-193793328D01*
X37390198Y-193793328D02*
X37247340Y-193721900D01*
X37247340Y-193721900D02*
X37175912Y-193650471D01*
X114461626Y-196593328D02*
X114461626Y-195093328D01*
X115818770Y-196593328D02*
X115818770Y-195093328D01*
X115818770Y-196521900D02*
X115675912Y-196593328D01*
X115675912Y-196593328D02*
X115390198Y-196593328D01*
X115390198Y-196593328D02*
X115247341Y-196521900D01*
X115247341Y-196521900D02*
X115175912Y-196450471D01*
X115175912Y-196450471D02*
X115104484Y-196307614D01*
X115104484Y-196307614D02*
X115104484Y-195879042D01*
X115104484Y-195879042D02*
X115175912Y-195736185D01*
X115175912Y-195736185D02*
X115247341Y-195664757D01*
X115247341Y-195664757D02*
X115390198Y-195593328D01*
X115390198Y-195593328D02*
X115675912Y-195593328D01*
X115675912Y-195593328D02*
X115818770Y-195664757D01*
X116533055Y-196450471D02*
X116604484Y-196521900D01*
X116604484Y-196521900D02*
X116533055Y-196593328D01*
X116533055Y-196593328D02*
X116461627Y-196521900D01*
X116461627Y-196521900D02*
X116533055Y-196450471D01*
X116533055Y-196450471D02*
X116533055Y-196593328D01*
X116533055Y-195664757D02*
X116604484Y-195736185D01*
X116604484Y-195736185D02*
X116533055Y-195807614D01*
X116533055Y-195807614D02*
X116461627Y-195736185D01*
X116461627Y-195736185D02*
X116533055Y-195664757D01*
X116533055Y-195664757D02*
X116533055Y-195807614D01*
X119033056Y-195093328D02*
X118747341Y-195093328D01*
X118747341Y-195093328D02*
X118604484Y-195164757D01*
X118604484Y-195164757D02*
X118533056Y-195236185D01*
X118533056Y-195236185D02*
X118390198Y-195450471D01*
X118390198Y-195450471D02*
X118318770Y-195736185D01*
X118318770Y-195736185D02*
X118318770Y-196307614D01*
X118318770Y-196307614D02*
X118390198Y-196450471D01*
X118390198Y-196450471D02*
X118461627Y-196521900D01*
X118461627Y-196521900D02*
X118604484Y-196593328D01*
X118604484Y-196593328D02*
X118890198Y-196593328D01*
X118890198Y-196593328D02*
X119033056Y-196521900D01*
X119033056Y-196521900D02*
X119104484Y-196450471D01*
X119104484Y-196450471D02*
X119175913Y-196307614D01*
X119175913Y-196307614D02*
X119175913Y-195950471D01*
X119175913Y-195950471D02*
X119104484Y-195807614D01*
X119104484Y-195807614D02*
X119033056Y-195736185D01*
X119033056Y-195736185D02*
X118890198Y-195664757D01*
X118890198Y-195664757D02*
X118604484Y-195664757D01*
X118604484Y-195664757D02*
X118461627Y-195736185D01*
X118461627Y-195736185D02*
X118390198Y-195807614D01*
X118390198Y-195807614D02*
X118318770Y-195950471D01*
X120890198Y-195021900D02*
X119604484Y-196950471D01*
X122175913Y-196593328D02*
X121318770Y-196593328D01*
X121747341Y-196593328D02*
X121747341Y-195093328D01*
X121747341Y-195093328D02*
X121604484Y-195307614D01*
X121604484Y-195307614D02*
X121461627Y-195450471D01*
X121461627Y-195450471D02*
X121318770Y-195521900D01*
X123604484Y-196593328D02*
X122747341Y-196593328D01*
X123175912Y-196593328D02*
X123175912Y-195093328D01*
X123175912Y-195093328D02*
X123033055Y-195307614D01*
X123033055Y-195307614D02*
X122890198Y-195450471D01*
X122890198Y-195450471D02*
X122747341Y-195521900D01*
X28005800Y-187507200D02*
X136005800Y-187507200D01*
D12*
X29697528Y-188211638D02*
X30840385Y-188211638D01*
X30018957Y-190211638D02*
X30268957Y-188211638D01*
X31257052Y-190211638D02*
X31423719Y-188878304D01*
X31507052Y-188211638D02*
X31399909Y-188306876D01*
X31399909Y-188306876D02*
X31483243Y-188402114D01*
X31483243Y-188402114D02*
X31590386Y-188306876D01*
X31590386Y-188306876D02*
X31507052Y-188211638D01*
X31507052Y-188211638D02*
X31483243Y-188402114D01*
X32090386Y-188878304D02*
X32852290Y-188878304D01*
X32459433Y-188211638D02*
X32245148Y-189925923D01*
X32245148Y-189925923D02*
X32316576Y-190116400D01*
X32316576Y-190116400D02*
X32495148Y-190211638D01*
X32495148Y-190211638D02*
X32685624Y-190211638D01*
X33638005Y-190211638D02*
X33459433Y-190116400D01*
X33459433Y-190116400D02*
X33388005Y-189925923D01*
X33388005Y-189925923D02*
X33602290Y-188211638D01*
X35173719Y-190116400D02*
X34971338Y-190211638D01*
X34971338Y-190211638D02*
X34590385Y-190211638D01*
X34590385Y-190211638D02*
X34411814Y-190116400D01*
X34411814Y-190116400D02*
X34340385Y-189925923D01*
X34340385Y-189925923D02*
X34435624Y-189164019D01*
X34435624Y-189164019D02*
X34554671Y-188973542D01*
X34554671Y-188973542D02*
X34757052Y-188878304D01*
X34757052Y-188878304D02*
X35138004Y-188878304D01*
X35138004Y-188878304D02*
X35316576Y-188973542D01*
X35316576Y-188973542D02*
X35388004Y-189164019D01*
X35388004Y-189164019D02*
X35364195Y-189354495D01*
X35364195Y-189354495D02*
X34388004Y-189544971D01*
X36138005Y-190021161D02*
X36221338Y-190116400D01*
X36221338Y-190116400D02*
X36114195Y-190211638D01*
X36114195Y-190211638D02*
X36030862Y-190116400D01*
X36030862Y-190116400D02*
X36138005Y-190021161D01*
X36138005Y-190021161D02*
X36114195Y-190211638D01*
X36268957Y-188973542D02*
X36352290Y-189068780D01*
X36352290Y-189068780D02*
X36245148Y-189164019D01*
X36245148Y-189164019D02*
X36161814Y-189068780D01*
X36161814Y-189068780D02*
X36268957Y-188973542D01*
X36268957Y-188973542D02*
X36245148Y-189164019D01*
X38721339Y-189164019D02*
X39388005Y-189164019D01*
X39542767Y-190211638D02*
X38590386Y-190211638D01*
X38590386Y-190211638D02*
X38840386Y-188211638D01*
X38840386Y-188211638D02*
X39792767Y-188211638D01*
X40495148Y-189449733D02*
X42018958Y-189449733D01*
X42792767Y-190116400D02*
X43066576Y-190211638D01*
X43066576Y-190211638D02*
X43542767Y-190211638D01*
X43542767Y-190211638D02*
X43745148Y-190116400D01*
X43745148Y-190116400D02*
X43852291Y-190021161D01*
X43852291Y-190021161D02*
X43971338Y-189830685D01*
X43971338Y-189830685D02*
X43995148Y-189640209D01*
X43995148Y-189640209D02*
X43923719Y-189449733D01*
X43923719Y-189449733D02*
X43840386Y-189354495D01*
X43840386Y-189354495D02*
X43661815Y-189259257D01*
X43661815Y-189259257D02*
X43292767Y-189164019D01*
X43292767Y-189164019D02*
X43114195Y-189068780D01*
X43114195Y-189068780D02*
X43030862Y-188973542D01*
X43030862Y-188973542D02*
X42959434Y-188783066D01*
X42959434Y-188783066D02*
X42983243Y-188592590D01*
X42983243Y-188592590D02*
X43102291Y-188402114D01*
X43102291Y-188402114D02*
X43209434Y-188306876D01*
X43209434Y-188306876D02*
X43411815Y-188211638D01*
X43411815Y-188211638D02*
X43888005Y-188211638D01*
X43888005Y-188211638D02*
X44161815Y-188306876D01*
X44780862Y-190211638D02*
X45030862Y-188211638D01*
X45923719Y-190211638D02*
X45209434Y-189068780D01*
X46173719Y-188211638D02*
X44888005Y-189354495D01*
X46780862Y-190211638D02*
X47030862Y-188211638D01*
X47733243Y-190211638D02*
X47983243Y-188211638D01*
X47983243Y-188211638D02*
X48876100Y-190211638D01*
X48876100Y-190211638D02*
X49126100Y-188211638D01*
X51352291Y-190211638D02*
X51518958Y-188878304D01*
X51495148Y-189068780D02*
X51602291Y-188973542D01*
X51602291Y-188973542D02*
X51804672Y-188878304D01*
X51804672Y-188878304D02*
X52090386Y-188878304D01*
X52090386Y-188878304D02*
X52268958Y-188973542D01*
X52268958Y-188973542D02*
X52340386Y-189164019D01*
X52340386Y-189164019D02*
X52209434Y-190211638D01*
X52340386Y-189164019D02*
X52459434Y-188973542D01*
X52459434Y-188973542D02*
X52661815Y-188878304D01*
X52661815Y-188878304D02*
X52947529Y-188878304D01*
X52947529Y-188878304D02*
X53126101Y-188973542D01*
X53126101Y-188973542D02*
X53197529Y-189164019D01*
X53197529Y-189164019D02*
X53066577Y-190211638D01*
X54304673Y-190211638D02*
X54126101Y-190116400D01*
X54126101Y-190116400D02*
X54042768Y-190021161D01*
X54042768Y-190021161D02*
X53971339Y-189830685D01*
X53971339Y-189830685D02*
X54042768Y-189259257D01*
X54042768Y-189259257D02*
X54161815Y-189068780D01*
X54161815Y-189068780D02*
X54268958Y-188973542D01*
X54268958Y-188973542D02*
X54471339Y-188878304D01*
X54471339Y-188878304D02*
X54757053Y-188878304D01*
X54757053Y-188878304D02*
X54935625Y-188973542D01*
X54935625Y-188973542D02*
X55018958Y-189068780D01*
X55018958Y-189068780D02*
X55090387Y-189259257D01*
X55090387Y-189259257D02*
X55018958Y-189830685D01*
X55018958Y-189830685D02*
X54899911Y-190021161D01*
X54899911Y-190021161D02*
X54792768Y-190116400D01*
X54792768Y-190116400D02*
X54590387Y-190211638D01*
X54590387Y-190211638D02*
X54304673Y-190211638D01*
X56685625Y-190211638D02*
X56935625Y-188211638D01*
X56697530Y-190116400D02*
X56495149Y-190211638D01*
X56495149Y-190211638D02*
X56114197Y-190211638D01*
X56114197Y-190211638D02*
X55935625Y-190116400D01*
X55935625Y-190116400D02*
X55852292Y-190021161D01*
X55852292Y-190021161D02*
X55780863Y-189830685D01*
X55780863Y-189830685D02*
X55852292Y-189259257D01*
X55852292Y-189259257D02*
X55971339Y-189068780D01*
X55971339Y-189068780D02*
X56078482Y-188973542D01*
X56078482Y-188973542D02*
X56280863Y-188878304D01*
X56280863Y-188878304D02*
X56661816Y-188878304D01*
X56661816Y-188878304D02*
X56840387Y-188973542D01*
X58661816Y-188878304D02*
X58495149Y-190211638D01*
X57804673Y-188878304D02*
X57673721Y-189925923D01*
X57673721Y-189925923D02*
X57745149Y-190116400D01*
X57745149Y-190116400D02*
X57923721Y-190211638D01*
X57923721Y-190211638D02*
X58209435Y-190211638D01*
X58209435Y-190211638D02*
X58411816Y-190116400D01*
X58411816Y-190116400D02*
X58518959Y-190021161D01*
X59733245Y-190211638D02*
X59554673Y-190116400D01*
X59554673Y-190116400D02*
X59483245Y-189925923D01*
X59483245Y-189925923D02*
X59697530Y-188211638D01*
X61268959Y-190116400D02*
X61066578Y-190211638D01*
X61066578Y-190211638D02*
X60685625Y-190211638D01*
X60685625Y-190211638D02*
X60507054Y-190116400D01*
X60507054Y-190116400D02*
X60435625Y-189925923D01*
X60435625Y-189925923D02*
X60530864Y-189164019D01*
X60530864Y-189164019D02*
X60649911Y-188973542D01*
X60649911Y-188973542D02*
X60852292Y-188878304D01*
X60852292Y-188878304D02*
X61233244Y-188878304D01*
X61233244Y-188878304D02*
X61411816Y-188973542D01*
X61411816Y-188973542D02*
X61483244Y-189164019D01*
X61483244Y-189164019D02*
X61459435Y-189354495D01*
X61459435Y-189354495D02*
X60483244Y-189544971D01*
D10*
X29961626Y-185607614D02*
X29461626Y-185607614D01*
X29461626Y-186393328D02*
X29461626Y-184893328D01*
X29461626Y-184893328D02*
X30175912Y-184893328D01*
X30747340Y-186393328D02*
X30747340Y-185393328D01*
X30747340Y-184893328D02*
X30675912Y-184964757D01*
X30675912Y-184964757D02*
X30747340Y-185036185D01*
X30747340Y-185036185D02*
X30818769Y-184964757D01*
X30818769Y-184964757D02*
X30747340Y-184893328D01*
X30747340Y-184893328D02*
X30747340Y-185036185D01*
X31675912Y-186393328D02*
X31533055Y-186321900D01*
X31533055Y-186321900D02*
X31461626Y-186179042D01*
X31461626Y-186179042D02*
X31461626Y-184893328D01*
X32818769Y-186321900D02*
X32675912Y-186393328D01*
X32675912Y-186393328D02*
X32390198Y-186393328D01*
X32390198Y-186393328D02*
X32247340Y-186321900D01*
X32247340Y-186321900D02*
X32175912Y-186179042D01*
X32175912Y-186179042D02*
X32175912Y-185607614D01*
X32175912Y-185607614D02*
X32247340Y-185464757D01*
X32247340Y-185464757D02*
X32390198Y-185393328D01*
X32390198Y-185393328D02*
X32675912Y-185393328D01*
X32675912Y-185393328D02*
X32818769Y-185464757D01*
X32818769Y-185464757D02*
X32890198Y-185607614D01*
X32890198Y-185607614D02*
X32890198Y-185750471D01*
X32890198Y-185750471D02*
X32175912Y-185893328D01*
X33533054Y-186250471D02*
X33604483Y-186321900D01*
X33604483Y-186321900D02*
X33533054Y-186393328D01*
X33533054Y-186393328D02*
X33461626Y-186321900D01*
X33461626Y-186321900D02*
X33533054Y-186250471D01*
X33533054Y-186250471D02*
X33533054Y-186393328D01*
X33533054Y-185464757D02*
X33604483Y-185536185D01*
X33604483Y-185536185D02*
X33533054Y-185607614D01*
X33533054Y-185607614D02*
X33461626Y-185536185D01*
X33461626Y-185536185D02*
X33533054Y-185464757D01*
X33533054Y-185464757D02*
X33533054Y-185607614D01*
X35390197Y-186393328D02*
X35390197Y-185393328D01*
X35390197Y-185536185D02*
X35461626Y-185464757D01*
X35461626Y-185464757D02*
X35604483Y-185393328D01*
X35604483Y-185393328D02*
X35818769Y-185393328D01*
X35818769Y-185393328D02*
X35961626Y-185464757D01*
X35961626Y-185464757D02*
X36033055Y-185607614D01*
X36033055Y-185607614D02*
X36033055Y-186393328D01*
X36033055Y-185607614D02*
X36104483Y-185464757D01*
X36104483Y-185464757D02*
X36247340Y-185393328D01*
X36247340Y-185393328D02*
X36461626Y-185393328D01*
X36461626Y-185393328D02*
X36604483Y-185464757D01*
X36604483Y-185464757D02*
X36675912Y-185607614D01*
X36675912Y-185607614D02*
X36675912Y-186393328D01*
X38033055Y-186393328D02*
X38033055Y-185607614D01*
X38033055Y-185607614D02*
X37961626Y-185464757D01*
X37961626Y-185464757D02*
X37818769Y-185393328D01*
X37818769Y-185393328D02*
X37533055Y-185393328D01*
X37533055Y-185393328D02*
X37390197Y-185464757D01*
X38033055Y-186321900D02*
X37890197Y-186393328D01*
X37890197Y-186393328D02*
X37533055Y-186393328D01*
X37533055Y-186393328D02*
X37390197Y-186321900D01*
X37390197Y-186321900D02*
X37318769Y-186179042D01*
X37318769Y-186179042D02*
X37318769Y-186036185D01*
X37318769Y-186036185D02*
X37390197Y-185893328D01*
X37390197Y-185893328D02*
X37533055Y-185821900D01*
X37533055Y-185821900D02*
X37890197Y-185821900D01*
X37890197Y-185821900D02*
X38033055Y-185750471D01*
X38747340Y-186393328D02*
X38747340Y-185393328D01*
X38747340Y-184893328D02*
X38675912Y-184964757D01*
X38675912Y-184964757D02*
X38747340Y-185036185D01*
X38747340Y-185036185D02*
X38818769Y-184964757D01*
X38818769Y-184964757D02*
X38747340Y-184893328D01*
X38747340Y-184893328D02*
X38747340Y-185036185D01*
X39461626Y-185393328D02*
X39461626Y-186393328D01*
X39461626Y-185536185D02*
X39533055Y-185464757D01*
X39533055Y-185464757D02*
X39675912Y-185393328D01*
X39675912Y-185393328D02*
X39890198Y-185393328D01*
X39890198Y-185393328D02*
X40033055Y-185464757D01*
X40033055Y-185464757D02*
X40104484Y-185607614D01*
X40104484Y-185607614D02*
X40104484Y-186393328D01*
X40818769Y-186393328D02*
X40818769Y-184893328D01*
X40818769Y-185464757D02*
X40961627Y-185393328D01*
X40961627Y-185393328D02*
X41247341Y-185393328D01*
X41247341Y-185393328D02*
X41390198Y-185464757D01*
X41390198Y-185464757D02*
X41461627Y-185536185D01*
X41461627Y-185536185D02*
X41533055Y-185679042D01*
X41533055Y-185679042D02*
X41533055Y-186107614D01*
X41533055Y-186107614D02*
X41461627Y-186250471D01*
X41461627Y-186250471D02*
X41390198Y-186321900D01*
X41390198Y-186321900D02*
X41247341Y-186393328D01*
X41247341Y-186393328D02*
X40961627Y-186393328D01*
X40961627Y-186393328D02*
X40818769Y-186321900D01*
X42390198Y-186393328D02*
X42247341Y-186321900D01*
X42247341Y-186321900D02*
X42175912Y-186250471D01*
X42175912Y-186250471D02*
X42104484Y-186107614D01*
X42104484Y-186107614D02*
X42104484Y-185679042D01*
X42104484Y-185679042D02*
X42175912Y-185536185D01*
X42175912Y-185536185D02*
X42247341Y-185464757D01*
X42247341Y-185464757D02*
X42390198Y-185393328D01*
X42390198Y-185393328D02*
X42604484Y-185393328D01*
X42604484Y-185393328D02*
X42747341Y-185464757D01*
X42747341Y-185464757D02*
X42818770Y-185536185D01*
X42818770Y-185536185D02*
X42890198Y-185679042D01*
X42890198Y-185679042D02*
X42890198Y-186107614D01*
X42890198Y-186107614D02*
X42818770Y-186250471D01*
X42818770Y-186250471D02*
X42747341Y-186321900D01*
X42747341Y-186321900D02*
X42604484Y-186393328D01*
X42604484Y-186393328D02*
X42390198Y-186393328D01*
X44175913Y-186393328D02*
X44175913Y-185607614D01*
X44175913Y-185607614D02*
X44104484Y-185464757D01*
X44104484Y-185464757D02*
X43961627Y-185393328D01*
X43961627Y-185393328D02*
X43675913Y-185393328D01*
X43675913Y-185393328D02*
X43533055Y-185464757D01*
X44175913Y-186321900D02*
X44033055Y-186393328D01*
X44033055Y-186393328D02*
X43675913Y-186393328D01*
X43675913Y-186393328D02*
X43533055Y-186321900D01*
X43533055Y-186321900D02*
X43461627Y-186179042D01*
X43461627Y-186179042D02*
X43461627Y-186036185D01*
X43461627Y-186036185D02*
X43533055Y-185893328D01*
X43533055Y-185893328D02*
X43675913Y-185821900D01*
X43675913Y-185821900D02*
X44033055Y-185821900D01*
X44033055Y-185821900D02*
X44175913Y-185750471D01*
X44890198Y-186393328D02*
X44890198Y-185393328D01*
X44890198Y-185679042D02*
X44961627Y-185536185D01*
X44961627Y-185536185D02*
X45033056Y-185464757D01*
X45033056Y-185464757D02*
X45175913Y-185393328D01*
X45175913Y-185393328D02*
X45318770Y-185393328D01*
X46461627Y-186393328D02*
X46461627Y-184893328D01*
X46461627Y-186321900D02*
X46318769Y-186393328D01*
X46318769Y-186393328D02*
X46033055Y-186393328D01*
X46033055Y-186393328D02*
X45890198Y-186321900D01*
X45890198Y-186321900D02*
X45818769Y-186250471D01*
X45818769Y-186250471D02*
X45747341Y-186107614D01*
X45747341Y-186107614D02*
X45747341Y-185679042D01*
X45747341Y-185679042D02*
X45818769Y-185536185D01*
X45818769Y-185536185D02*
X45890198Y-185464757D01*
X45890198Y-185464757D02*
X46033055Y-185393328D01*
X46033055Y-185393328D02*
X46318769Y-185393328D01*
X46318769Y-185393328D02*
X46461627Y-185464757D01*
X47175912Y-186250471D02*
X47247341Y-186321900D01*
X47247341Y-186321900D02*
X47175912Y-186393328D01*
X47175912Y-186393328D02*
X47104484Y-186321900D01*
X47104484Y-186321900D02*
X47175912Y-186250471D01*
X47175912Y-186250471D02*
X47175912Y-186393328D01*
X47890198Y-186393328D02*
X47890198Y-184893328D01*
X48033056Y-185821900D02*
X48461627Y-186393328D01*
X48461627Y-185393328D02*
X47890198Y-185964757D01*
X49104484Y-186393328D02*
X49104484Y-185393328D01*
X49104484Y-184893328D02*
X49033056Y-184964757D01*
X49033056Y-184964757D02*
X49104484Y-185036185D01*
X49104484Y-185036185D02*
X49175913Y-184964757D01*
X49175913Y-184964757D02*
X49104484Y-184893328D01*
X49104484Y-184893328D02*
X49104484Y-185036185D01*
X50461628Y-186321900D02*
X50318770Y-186393328D01*
X50318770Y-186393328D02*
X50033056Y-186393328D01*
X50033056Y-186393328D02*
X49890199Y-186321900D01*
X49890199Y-186321900D02*
X49818770Y-186250471D01*
X49818770Y-186250471D02*
X49747342Y-186107614D01*
X49747342Y-186107614D02*
X49747342Y-185679042D01*
X49747342Y-185679042D02*
X49818770Y-185536185D01*
X49818770Y-185536185D02*
X49890199Y-185464757D01*
X49890199Y-185464757D02*
X50033056Y-185393328D01*
X50033056Y-185393328D02*
X50318770Y-185393328D01*
X50318770Y-185393328D02*
X50461628Y-185464757D01*
X51747342Y-186393328D02*
X51747342Y-185607614D01*
X51747342Y-185607614D02*
X51675913Y-185464757D01*
X51675913Y-185464757D02*
X51533056Y-185393328D01*
X51533056Y-185393328D02*
X51247342Y-185393328D01*
X51247342Y-185393328D02*
X51104484Y-185464757D01*
X51747342Y-186321900D02*
X51604484Y-186393328D01*
X51604484Y-186393328D02*
X51247342Y-186393328D01*
X51247342Y-186393328D02*
X51104484Y-186321900D01*
X51104484Y-186321900D02*
X51033056Y-186179042D01*
X51033056Y-186179042D02*
X51033056Y-186036185D01*
X51033056Y-186036185D02*
X51104484Y-185893328D01*
X51104484Y-185893328D02*
X51247342Y-185821900D01*
X51247342Y-185821900D02*
X51604484Y-185821900D01*
X51604484Y-185821900D02*
X51747342Y-185750471D01*
X53104485Y-186393328D02*
X53104485Y-184893328D01*
X53104485Y-186321900D02*
X52961627Y-186393328D01*
X52961627Y-186393328D02*
X52675913Y-186393328D01*
X52675913Y-186393328D02*
X52533056Y-186321900D01*
X52533056Y-186321900D02*
X52461627Y-186250471D01*
X52461627Y-186250471D02*
X52390199Y-186107614D01*
X52390199Y-186107614D02*
X52390199Y-185679042D01*
X52390199Y-185679042D02*
X52461627Y-185536185D01*
X52461627Y-185536185D02*
X52533056Y-185464757D01*
X52533056Y-185464757D02*
X52675913Y-185393328D01*
X52675913Y-185393328D02*
X52961627Y-185393328D01*
X52961627Y-185393328D02*
X53104485Y-185464757D01*
X53461628Y-186536185D02*
X54604485Y-186536185D01*
X54961627Y-185393328D02*
X54961627Y-186893328D01*
X54961627Y-185464757D02*
X55104485Y-185393328D01*
X55104485Y-185393328D02*
X55390199Y-185393328D01*
X55390199Y-185393328D02*
X55533056Y-185464757D01*
X55533056Y-185464757D02*
X55604485Y-185536185D01*
X55604485Y-185536185D02*
X55675913Y-185679042D01*
X55675913Y-185679042D02*
X55675913Y-186107614D01*
X55675913Y-186107614D02*
X55604485Y-186250471D01*
X55604485Y-186250471D02*
X55533056Y-186321900D01*
X55533056Y-186321900D02*
X55390199Y-186393328D01*
X55390199Y-186393328D02*
X55104485Y-186393328D01*
X55104485Y-186393328D02*
X54961627Y-186321900D01*
X56961628Y-186321900D02*
X56818770Y-186393328D01*
X56818770Y-186393328D02*
X56533056Y-186393328D01*
X56533056Y-186393328D02*
X56390199Y-186321900D01*
X56390199Y-186321900D02*
X56318770Y-186250471D01*
X56318770Y-186250471D02*
X56247342Y-186107614D01*
X56247342Y-186107614D02*
X56247342Y-185679042D01*
X56247342Y-185679042D02*
X56318770Y-185536185D01*
X56318770Y-185536185D02*
X56390199Y-185464757D01*
X56390199Y-185464757D02*
X56533056Y-185393328D01*
X56533056Y-185393328D02*
X56818770Y-185393328D01*
X56818770Y-185393328D02*
X56961628Y-185464757D01*
X57604484Y-186393328D02*
X57604484Y-184893328D01*
X57604484Y-185464757D02*
X57747342Y-185393328D01*
X57747342Y-185393328D02*
X58033056Y-185393328D01*
X58033056Y-185393328D02*
X58175913Y-185464757D01*
X58175913Y-185464757D02*
X58247342Y-185536185D01*
X58247342Y-185536185D02*
X58318770Y-185679042D01*
X58318770Y-185679042D02*
X58318770Y-186107614D01*
X58318770Y-186107614D02*
X58247342Y-186250471D01*
X58247342Y-186250471D02*
X58175913Y-186321900D01*
X58175913Y-186321900D02*
X58033056Y-186393328D01*
X58033056Y-186393328D02*
X57747342Y-186393328D01*
X57747342Y-186393328D02*
X57604484Y-186321900D01*
X28005800Y-181507200D02*
X136005800Y-181507200D01*
X29390198Y-183621900D02*
X29604484Y-183693328D01*
X29604484Y-183693328D02*
X29961626Y-183693328D01*
X29961626Y-183693328D02*
X30104484Y-183621900D01*
X30104484Y-183621900D02*
X30175912Y-183550471D01*
X30175912Y-183550471D02*
X30247341Y-183407614D01*
X30247341Y-183407614D02*
X30247341Y-183264757D01*
X30247341Y-183264757D02*
X30175912Y-183121900D01*
X30175912Y-183121900D02*
X30104484Y-183050471D01*
X30104484Y-183050471D02*
X29961626Y-182979042D01*
X29961626Y-182979042D02*
X29675912Y-182907614D01*
X29675912Y-182907614D02*
X29533055Y-182836185D01*
X29533055Y-182836185D02*
X29461626Y-182764757D01*
X29461626Y-182764757D02*
X29390198Y-182621900D01*
X29390198Y-182621900D02*
X29390198Y-182479042D01*
X29390198Y-182479042D02*
X29461626Y-182336185D01*
X29461626Y-182336185D02*
X29533055Y-182264757D01*
X29533055Y-182264757D02*
X29675912Y-182193328D01*
X29675912Y-182193328D02*
X30033055Y-182193328D01*
X30033055Y-182193328D02*
X30247341Y-182264757D01*
X30890197Y-183693328D02*
X30890197Y-182193328D01*
X31533055Y-183693328D02*
X31533055Y-182907614D01*
X31533055Y-182907614D02*
X31461626Y-182764757D01*
X31461626Y-182764757D02*
X31318769Y-182693328D01*
X31318769Y-182693328D02*
X31104483Y-182693328D01*
X31104483Y-182693328D02*
X30961626Y-182764757D01*
X30961626Y-182764757D02*
X30890197Y-182836185D01*
X32818769Y-183621900D02*
X32675912Y-183693328D01*
X32675912Y-183693328D02*
X32390198Y-183693328D01*
X32390198Y-183693328D02*
X32247340Y-183621900D01*
X32247340Y-183621900D02*
X32175912Y-183479042D01*
X32175912Y-183479042D02*
X32175912Y-182907614D01*
X32175912Y-182907614D02*
X32247340Y-182764757D01*
X32247340Y-182764757D02*
X32390198Y-182693328D01*
X32390198Y-182693328D02*
X32675912Y-182693328D01*
X32675912Y-182693328D02*
X32818769Y-182764757D01*
X32818769Y-182764757D02*
X32890198Y-182907614D01*
X32890198Y-182907614D02*
X32890198Y-183050471D01*
X32890198Y-183050471D02*
X32175912Y-183193328D01*
X34104483Y-183621900D02*
X33961626Y-183693328D01*
X33961626Y-183693328D02*
X33675912Y-183693328D01*
X33675912Y-183693328D02*
X33533054Y-183621900D01*
X33533054Y-183621900D02*
X33461626Y-183479042D01*
X33461626Y-183479042D02*
X33461626Y-182907614D01*
X33461626Y-182907614D02*
X33533054Y-182764757D01*
X33533054Y-182764757D02*
X33675912Y-182693328D01*
X33675912Y-182693328D02*
X33961626Y-182693328D01*
X33961626Y-182693328D02*
X34104483Y-182764757D01*
X34104483Y-182764757D02*
X34175912Y-182907614D01*
X34175912Y-182907614D02*
X34175912Y-183050471D01*
X34175912Y-183050471D02*
X33461626Y-183193328D01*
X34604483Y-182693328D02*
X35175911Y-182693328D01*
X34818768Y-182193328D02*
X34818768Y-183479042D01*
X34818768Y-183479042D02*
X34890197Y-183621900D01*
X34890197Y-183621900D02*
X35033054Y-183693328D01*
X35033054Y-183693328D02*
X35175911Y-183693328D01*
X35675911Y-183550471D02*
X35747340Y-183621900D01*
X35747340Y-183621900D02*
X35675911Y-183693328D01*
X35675911Y-183693328D02*
X35604483Y-183621900D01*
X35604483Y-183621900D02*
X35675911Y-183550471D01*
X35675911Y-183550471D02*
X35675911Y-183693328D01*
X35675911Y-182764757D02*
X35747340Y-182836185D01*
X35747340Y-182836185D02*
X35675911Y-182907614D01*
X35675911Y-182907614D02*
X35604483Y-182836185D01*
X35604483Y-182836185D02*
X35675911Y-182764757D01*
X35675911Y-182764757D02*
X35675911Y-182907614D01*
D11*
X29846025Y-179971242D02*
X29846025Y-180685528D01*
X29346025Y-179185528D02*
X29846025Y-179971242D01*
X29846025Y-179971242D02*
X30346025Y-179185528D01*
X30774596Y-180256957D02*
X31488882Y-180256957D01*
X30631739Y-180685528D02*
X31131739Y-179185528D01*
X31131739Y-179185528D02*
X31631739Y-180685528D01*
X32131738Y-180685528D02*
X32131738Y-179185528D01*
X32131738Y-179185528D02*
X32988881Y-180685528D01*
X32988881Y-180685528D02*
X32988881Y-179185528D01*
X33703167Y-180685528D02*
X33703167Y-179185528D01*
X33703167Y-179185528D02*
X34560310Y-180685528D01*
X34560310Y-180685528D02*
X34560310Y-179185528D01*
X35203168Y-180256957D02*
X35917454Y-180256957D01*
X35060311Y-180685528D02*
X35560311Y-179185528D01*
X35560311Y-179185528D02*
X36060311Y-180685528D01*
X36488882Y-180614100D02*
X36703168Y-180685528D01*
X36703168Y-180685528D02*
X37060310Y-180685528D01*
X37060310Y-180685528D02*
X37203168Y-180614100D01*
X37203168Y-180614100D02*
X37274596Y-180542671D01*
X37274596Y-180542671D02*
X37346025Y-180399814D01*
X37346025Y-180399814D02*
X37346025Y-180256957D01*
X37346025Y-180256957D02*
X37274596Y-180114100D01*
X37274596Y-180114100D02*
X37203168Y-180042671D01*
X37203168Y-180042671D02*
X37060310Y-179971242D01*
X37060310Y-179971242D02*
X36774596Y-179899814D01*
X36774596Y-179899814D02*
X36631739Y-179828385D01*
X36631739Y-179828385D02*
X36560310Y-179756957D01*
X36560310Y-179756957D02*
X36488882Y-179614100D01*
X36488882Y-179614100D02*
X36488882Y-179471242D01*
X36488882Y-179471242D02*
X36560310Y-179328385D01*
X36560310Y-179328385D02*
X36631739Y-179256957D01*
X36631739Y-179256957D02*
X36774596Y-179185528D01*
X36774596Y-179185528D02*
X37131739Y-179185528D01*
X37131739Y-179185528D02*
X37346025Y-179256957D01*
D10*
X48005800Y-191507200D02*
X48005800Y-194507200D01*
X112005800Y-191507200D02*
X112005800Y-198007200D01*
M02*
