M48
; DRILL file KiCad 10.0.3 date 2026-06-24T16:08:55
; FORMAT={-:-/ absolute / metric / decimal}
; #@! TF.CreationDate,2026-06-24T16:08:55+01:00
; #@! TF.GenerationSoftware,Kicad,Pcbnew,10.0.3
; #@! TF.FileFunction,Plated,1,4,PTH
FMAT,2
METRIC
; #@! TA.AperFunction,Plated,PTH,ViaDrill
T1C0.300
; #@! TA.AperFunction,Plated,PTH,ComponentDrill
T2C0.650
; #@! TA.AperFunction,Plated,PTH,ViaDrill
T3C0.800
%
G90
G05
T1
X48.55Y-98.638
X48.8Y-78.388
X53.102Y-100.554
X53.502Y-99.746
X53.602Y-101.42
X54.002Y-100.612
X54.102Y-102.286
X54.3Y-68.888
X54.3Y-107.888
X54.602Y-103.152
X55.002Y-102.344
X55.102Y-104.018
X55.502Y-103.21
X55.602Y-104.884
X56.002Y-104.076
X56.502Y-104.942
X57.05Y-76.388
X59.05Y-104.638
X60.55Y-103.388
X60.56Y-94.248
X60.8Y-81.138
X61.185Y-95.33
X61.55Y-81.638
X61.745Y-94.409
X61.81Y-96.413
X62.37Y-95.492
X62.435Y-97.495
X62.8Y-84.138
X62.995Y-96.574
X63.06Y-98.578
X63.62Y-97.657
X63.75Y-99.747
X63.8Y-78.138
X64.245Y-98.739
X64.3Y-72.138
X64.55Y-78.638
X64.817Y-99.844
X64.867Y-101.882
X65.231Y-102.512
X65.594Y-103.141
X65.992Y-103.83
X66.203Y-74.235
X66.3Y-84.138
X66.54Y-81.888
X66.555Y-75.896
X67.05Y-103.888
X67.29Y-91.388
X67.3Y-74.628
X67.3Y-69.138
X67.55Y-103.138
X67.8Y-70.638
X67.805Y-92.388
X67.809Y-79.36
X68.028Y-90.31
X68.05Y-102.388
X68.3Y-80.388
X68.528Y-101.638
X68.536Y-89.388
X69.05Y-83.888
X70.8Y-117.888
X71.4Y-72.388
X71.4Y-77.388
X71.4Y-78.138
X71.8Y-79.638
X71.8Y-78.888
X71.8Y-82.138
X72.05Y-76.138
X72.05Y-73.138
X72.55Y-75.388
X72.552Y-60.888
X73.043Y-62.138
X73.285Y-71.888
X73.3Y-74.138
X73.3Y-74.888
X73.3Y-111.638
X73.55Y-70.138
X73.55Y-84.388
X74.051Y-70.889
X74.525Y-90.878
X74.525Y-71.888
X74.542Y-70.138
X74.55Y-80.718
X74.55Y-81.638
X74.79Y-77.388
X74.8Y-57.138
X75.025Y-97.388
X75.052Y-72.639
X75.063Y-80.138
X75.525Y-61.388
X75.55Y-73.638
X75.55Y-80.888
X75.558Y-110.38
X75.8Y-72.888
X76.035Y-62.138
X76.05Y-77.388
X76.05Y-109.638
X76.05Y-83.138
X76.525Y-67.138
X76.525Y-108.863
X76.535Y-74.392
X76.55Y-78.138
X76.564Y-82.388
X76.775Y-72.378
X77.016Y-62.888
X77.05Y-73.388
X77.535Y-82.138
X77.536Y-63.624
X77.55Y-101.138
X77.564Y-73.902
X77.775Y-71.388
X78.016Y-86.888
X78.016Y-99.888
X78.05Y-64.388
X78.05Y-82.888
X78.55Y-85.888
X78.8Y-58.638
X78.8Y-69.638
X78.8Y-98.638
X79.536Y-77.902
X79.55Y-83.138
X79.55Y-72.888
X79.8Y-57.138
X80.05Y-74.388
X80.05Y-77.388
X80.05Y-97.638
X80.3Y-98.888
X80.3Y-100.138
X80.3Y-101.388
X80.55Y-65.138
X81.175Y-67.638
X81.318Y-114.156
X81.55Y-115.638
X81.8Y-86.138
X82.064Y-115.124
X82.8Y-83.638
X83.3Y-62.888
X83.3Y-82.128
X83.3Y-77.138
X83.633Y-102.721
X84.05Y-63.388
X84.169Y-83.018
X84.8Y-64.388
X85.45Y-78.388
X85.55Y-63.888
X86.04Y-64.866
X86.05Y-119.888
X86.3Y-61.888
X86.55Y-96.388
X87.15Y-82.619
X87.8Y-82.128
X89.55Y-79.138
X90.306Y-98.651
X90.358Y-78.441
X90.536Y-81.874
X90.759Y-99.758
X90.931Y-97.568
X91.05Y-79.138
X91.3Y-82.638
X91.384Y-98.675
X91.556Y-96.485
X92.009Y-97.593
X92.181Y-95.403
X92.3Y-82.138
X92.634Y-96.51
X92.806Y-94.32
X93.259Y-95.428
X93.477Y-93.273
X93.926Y-94.245
X94.55Y-80.638
X95.337Y-92.888
X96.3Y-92.153
X97.388Y-91.508
X97.78Y-90.896
X97.8Y-77.138
X98.3Y-90.388
X98.55Y-95.138
X99.049Y-103.121
X99.549Y-102.255
X99.8Y-95.638
X99.949Y-103.063
X100.3Y-68.888
X100.3Y-107.638
X100.449Y-102.197
X100.549Y-100.523
X100.949Y-101.331
X101.049Y-99.657
X101.449Y-100.465
X101.549Y-98.791
X101.949Y-99.599
X102.049Y-97.925
X102.449Y-98.733
X105.8Y-78.388
X105.8Y-98.388
T2
X64.525Y-55.316
X64.525Y-56.586
X64.525Y-57.856
X64.525Y-59.126
X64.525Y-60.396
X64.525Y-61.666
X64.525Y-62.936
X64.525Y-64.206
X64.525Y-65.476
X69.025Y-55.411
X69.025Y-56.681
X69.025Y-57.951
X69.025Y-59.221
X69.025Y-60.491
X69.025Y-61.761
X69.025Y-63.031
X69.025Y-64.301
X83.97Y-55.388
X85.24Y-55.388
X86.51Y-55.388
X87.78Y-55.388
X89.05Y-55.388
X89.05Y-69.098
X89.05Y-70.368
X89.05Y-71.638
X89.05Y-72.908
X89.05Y-74.178
X90.32Y-55.388
T3
X65.332Y-79.356
X70.55Y-67.137
X70.55Y-76.888
X82.05Y-72.388
X82.05Y-65.436
X86.3Y-80.629
X86.3Y-83.388
X86.3Y-72.888
M30
