M48
; DRILL file KiCad 10.0.3 date 2026-07-01T11:37:33
; FORMAT={-:-/ absolute / metric / decimal}
; #@! TF.CreationDate,2026-07-01T11:37:33+01:00
; #@! TF.GenerationSoftware,Kicad,Pcbnew,10.0.3
; #@! TF.FileFunction,Plated,1,2,PTH
FMAT,2
METRIC
; #@! TA.AperFunction,Plated,PTH,ViaDrill
T1C0.300
%
G90
G05
T1
X49.25Y-106.925
X49.95Y-106.325
X51.05Y-109.125
X52.29Y-107.336
X53.05Y-107.525
X53.35Y-105.825
X54.609Y-124.254
X54.609Y-89.613
X55.309Y-123.654
X55.309Y-89.013
X56.409Y-126.454
X56.409Y-91.813
X57.259Y-77.143
X57.567Y-74.965
X57.649Y-124.665
X57.649Y-90.024
X57.909Y-76.284
X57.909Y-77.134
X58.017Y-75.434
X58.409Y-124.854
X58.409Y-90.213
X58.509Y-75.859
X58.709Y-123.154
X58.709Y-88.513
X58.909Y-78.234
X58.934Y-74.584
X62.365Y-75.009
X62.373Y-75.859
X62.865Y-75.434
X62.865Y-77.334
X63.515Y-77.334
X63.565Y-76.284
X64.709Y-78.234
X64.709Y-74.584
X65.744Y-75.009
X66.162Y-75.859
X66.654Y-75.434
X66.665Y-77.534
X67.304Y-76.284
X67.315Y-77.534
X68.509Y-74.584
X68.509Y-78.234
X69.463Y-75.009
X69.963Y-75.859
X70.463Y-75.434
X70.463Y-77.734
X70.888Y-76.284
X71.113Y-77.734
X71.609Y-74.584
X71.909Y-78.234
X71.979Y-76.709
X72.465Y-77.181
X73.111Y-77.245
X73.479Y-76.709
X73.959Y-77.254
X74.079Y-74.584
X74.609Y-132.284
X74.609Y-81.566
X74.609Y-106.934
X75.309Y-131.684
X75.309Y-80.966
X75.309Y-106.334
X76.069Y-75.007
X76.409Y-134.484
X76.409Y-83.766
X76.409Y-109.134
X76.559Y-75.434
X76.559Y-76.834
X76.984Y-77.434
X76.984Y-76.284
X77.476Y-75.859
X77.649Y-132.694
X77.649Y-81.977
X77.649Y-107.344
X77.859Y-78.119
X77.901Y-77.1
X78.409Y-132.884
X78.409Y-82.166
X78.409Y-107.534
X78.42Y-76.709
X78.709Y-131.184
X78.709Y-80.466
X78.709Y-105.834
X79.038Y-76.909
X79.644Y-77.144
X79.74Y-75.007
X80.23Y-75.434
X80.479Y-76.284
X80.971Y-75.859
X81.465Y-74.582
X82.483Y-75.859
X82.659Y-77.509
X83.019Y-75.007
X83.309Y-76.284
X83.309Y-77.534
X83.509Y-75.434
X84.609Y-74.582
X84.609Y-78.234
X85.579Y-75.009
X85.979Y-75.859
X86.479Y-75.434
X86.479Y-77.109
X87.169Y-76.284
X87.169Y-77.334
X88.309Y-74.582
X88.309Y-78.234
X89.279Y-75.009
X89.779Y-75.859
X90.253Y-76.909
X90.279Y-75.434
X90.979Y-76.284
X90.979Y-77.204
X93.209Y-74.584
X93.209Y-78.234
X94.609Y-89.613
X94.609Y-124.254
X95.109Y-75.009
X95.309Y-89.013
X95.309Y-123.654
X95.601Y-75.434
X95.609Y-76.909
X96.026Y-76.284
X96.034Y-77.509
X96.409Y-91.813
X96.409Y-126.454
X96.461Y-75.801
X97.649Y-90.024
X97.649Y-124.665
X98.409Y-90.213
X98.409Y-124.854
X98.709Y-88.513
X98.709Y-123.154
X99.968Y-106.925
X100.668Y-106.325
X101.768Y-109.125
X103.008Y-107.335
X103.768Y-107.525
X104.068Y-105.825
M30
