%TF.GenerationSoftware,KiCad,Pcbnew,10.0.3*%
%TF.CreationDate,2026-07-01T11:37:50+01:00*%
%TF.ProjectId,ACC,4143432e-6b69-4636-9164-5f7063625858,2.2*%
%TF.SameCoordinates,Original*%
%TF.FileFunction,Legend,Bot*%
%TF.FilePolarity,Positive*%
%FSLAX46Y46*%
G04 Gerber Fmt 4.6, Leading zero omitted, Abs format (unit mm)*
G04 Created by KiCad (PCBNEW 10.0.3) date 2026-07-01 11:37:50*
%MOMM*%
%LPD*%
G01*
G04 APERTURE LIST*
%ADD10C,0.300000*%
%ADD11C,0.100000*%
G04 APERTURE END LIST*
D10*
X51196923Y-108238687D02*
X51125495Y-108167259D01*
X51125495Y-108167259D02*
X50982638Y-108095830D01*
X50982638Y-108095830D02*
X50625495Y-108095830D01*
X50625495Y-108095830D02*
X50482638Y-108167259D01*
X50482638Y-108167259D02*
X50411209Y-108238687D01*
X50411209Y-108238687D02*
X50339780Y-108381544D01*
X50339780Y-108381544D02*
X50339780Y-108524402D01*
X50339780Y-108524402D02*
X50411209Y-108738687D01*
X50411209Y-108738687D02*
X51268352Y-109595830D01*
X51268352Y-109595830D02*
X50339780Y-109595830D01*
X55939780Y-92095830D02*
X56796923Y-92095830D01*
X56368352Y-92095830D02*
X56368352Y-90595830D01*
X56368352Y-90595830D02*
X56511209Y-90810116D01*
X56511209Y-90810116D02*
X56654066Y-90952973D01*
X56654066Y-90952973D02*
X56796923Y-91024402D01*
X56868352Y-125295830D02*
X55939780Y-125295830D01*
X55939780Y-125295830D02*
X56439780Y-125867259D01*
X56439780Y-125867259D02*
X56225495Y-125867259D01*
X56225495Y-125867259D02*
X56082638Y-125938687D01*
X56082638Y-125938687D02*
X56011209Y-126010116D01*
X56011209Y-126010116D02*
X55939780Y-126152973D01*
X55939780Y-126152973D02*
X55939780Y-126510116D01*
X55939780Y-126510116D02*
X56011209Y-126652973D01*
X56011209Y-126652973D02*
X56082638Y-126724402D01*
X56082638Y-126724402D02*
X56225495Y-126795830D01*
X56225495Y-126795830D02*
X56654066Y-126795830D01*
X56654066Y-126795830D02*
X56796923Y-126724402D01*
X56796923Y-126724402D02*
X56868352Y-126652973D01*
X75982638Y-133395830D02*
X76268352Y-133395830D01*
X76268352Y-133395830D02*
X76411209Y-133467259D01*
X76411209Y-133467259D02*
X76482638Y-133538687D01*
X76482638Y-133538687D02*
X76625495Y-133752973D01*
X76625495Y-133752973D02*
X76696923Y-134038687D01*
X76696923Y-134038687D02*
X76696923Y-134610116D01*
X76696923Y-134610116D02*
X76625495Y-134752973D01*
X76625495Y-134752973D02*
X76554066Y-134824402D01*
X76554066Y-134824402D02*
X76411209Y-134895830D01*
X76411209Y-134895830D02*
X76125495Y-134895830D01*
X76125495Y-134895830D02*
X75982638Y-134824402D01*
X75982638Y-134824402D02*
X75911209Y-134752973D01*
X75911209Y-134752973D02*
X75839780Y-134610116D01*
X75839780Y-134610116D02*
X75839780Y-134252973D01*
X75839780Y-134252973D02*
X75911209Y-134110116D01*
X75911209Y-134110116D02*
X75982638Y-134038687D01*
X75982638Y-134038687D02*
X76125495Y-133967259D01*
X76125495Y-133967259D02*
X76411209Y-133967259D01*
X76411209Y-133967259D02*
X76554066Y-134038687D01*
X76554066Y-134038687D02*
X76625495Y-134110116D01*
X76625495Y-134110116D02*
X76696923Y-134252973D01*
X76082638Y-83295830D02*
X76082638Y-84295830D01*
X76439780Y-82724402D02*
X76796923Y-83795830D01*
X76796923Y-83795830D02*
X75868352Y-83795830D01*
X76011209Y-107995830D02*
X76725495Y-107995830D01*
X76725495Y-107995830D02*
X76796923Y-108710116D01*
X76796923Y-108710116D02*
X76725495Y-108638687D01*
X76725495Y-108638687D02*
X76582638Y-108567259D01*
X76582638Y-108567259D02*
X76225495Y-108567259D01*
X76225495Y-108567259D02*
X76082638Y-108638687D01*
X76082638Y-108638687D02*
X76011209Y-108710116D01*
X76011209Y-108710116D02*
X75939780Y-108852973D01*
X75939780Y-108852973D02*
X75939780Y-109210116D01*
X75939780Y-109210116D02*
X76011209Y-109352973D01*
X76011209Y-109352973D02*
X76082638Y-109424402D01*
X76082638Y-109424402D02*
X76225495Y-109495830D01*
X76225495Y-109495830D02*
X76582638Y-109495830D01*
X76582638Y-109495830D02*
X76725495Y-109424402D01*
X76725495Y-109424402D02*
X76796923Y-109352973D01*
X96868352Y-90695830D02*
X95868352Y-90695830D01*
X95868352Y-90695830D02*
X96511209Y-92195830D01*
X96654066Y-126795830D02*
X96368352Y-126795830D01*
X96368352Y-126795830D02*
X96225495Y-126724402D01*
X96225495Y-126724402D02*
X96154066Y-126652973D01*
X96154066Y-126652973D02*
X96011209Y-126438687D01*
X96011209Y-126438687D02*
X95939780Y-126152973D01*
X95939780Y-126152973D02*
X95939780Y-125581544D01*
X95939780Y-125581544D02*
X96011209Y-125438687D01*
X96011209Y-125438687D02*
X96082638Y-125367259D01*
X96082638Y-125367259D02*
X96225495Y-125295830D01*
X96225495Y-125295830D02*
X96511209Y-125295830D01*
X96511209Y-125295830D02*
X96654066Y-125367259D01*
X96654066Y-125367259D02*
X96725495Y-125438687D01*
X96725495Y-125438687D02*
X96796923Y-125581544D01*
X96796923Y-125581544D02*
X96796923Y-125938687D01*
X96796923Y-125938687D02*
X96725495Y-126081544D01*
X96725495Y-126081544D02*
X96654066Y-126152973D01*
X96654066Y-126152973D02*
X96511209Y-126224402D01*
X96511209Y-126224402D02*
X96225495Y-126224402D01*
X96225495Y-126224402D02*
X96082638Y-126152973D01*
X96082638Y-126152973D02*
X96011209Y-126081544D01*
X96011209Y-126081544D02*
X95939780Y-125938687D01*
X101811209Y-108638687D02*
X101954066Y-108567259D01*
X101954066Y-108567259D02*
X102025495Y-108495830D01*
X102025495Y-108495830D02*
X102096923Y-108352973D01*
X102096923Y-108352973D02*
X102096923Y-108281544D01*
X102096923Y-108281544D02*
X102025495Y-108138687D01*
X102025495Y-108138687D02*
X101954066Y-108067259D01*
X101954066Y-108067259D02*
X101811209Y-107995830D01*
X101811209Y-107995830D02*
X101525495Y-107995830D01*
X101525495Y-107995830D02*
X101382638Y-108067259D01*
X101382638Y-108067259D02*
X101311209Y-108138687D01*
X101311209Y-108138687D02*
X101239780Y-108281544D01*
X101239780Y-108281544D02*
X101239780Y-108352973D01*
X101239780Y-108352973D02*
X101311209Y-108495830D01*
X101311209Y-108495830D02*
X101382638Y-108567259D01*
X101382638Y-108567259D02*
X101525495Y-108638687D01*
X101525495Y-108638687D02*
X101811209Y-108638687D01*
X101811209Y-108638687D02*
X101954066Y-108710116D01*
X101954066Y-108710116D02*
X102025495Y-108781544D01*
X102025495Y-108781544D02*
X102096923Y-108924402D01*
X102096923Y-108924402D02*
X102096923Y-109210116D01*
X102096923Y-109210116D02*
X102025495Y-109352973D01*
X102025495Y-109352973D02*
X101954066Y-109424402D01*
X101954066Y-109424402D02*
X101811209Y-109495830D01*
X101811209Y-109495830D02*
X101525495Y-109495830D01*
X101525495Y-109495830D02*
X101382638Y-109424402D01*
X101382638Y-109424402D02*
X101311209Y-109352973D01*
X101311209Y-109352973D02*
X101239780Y-109210116D01*
X101239780Y-109210116D02*
X101239780Y-108924402D01*
X101239780Y-108924402D02*
X101311209Y-108781544D01*
X101311209Y-108781544D02*
X101382638Y-108710116D01*
X101382638Y-108710116D02*
X101525495Y-108638687D01*
D11*
X72012824Y-19030807D02*
X71979491Y-18997473D01*
X71979491Y-18997473D02*
X71912824Y-18964140D01*
X71912824Y-18964140D02*
X71746158Y-18964140D01*
X71746158Y-18964140D02*
X71679491Y-18997473D01*
X71679491Y-18997473D02*
X71646158Y-19030807D01*
X71646158Y-19030807D02*
X71612824Y-19097473D01*
X71612824Y-19097473D02*
X71612824Y-19164140D01*
X71612824Y-19164140D02*
X71646158Y-19264140D01*
X71646158Y-19264140D02*
X72046158Y-19664140D01*
X72046158Y-19664140D02*
X71612824Y-19664140D01*
X71346157Y-19030807D02*
X71312824Y-18997473D01*
X71312824Y-18997473D02*
X71246157Y-18964140D01*
X71246157Y-18964140D02*
X71079491Y-18964140D01*
X71079491Y-18964140D02*
X71012824Y-18997473D01*
X71012824Y-18997473D02*
X70979491Y-19030807D01*
X70979491Y-19030807D02*
X70946157Y-19097473D01*
X70946157Y-19097473D02*
X70946157Y-19164140D01*
X70946157Y-19164140D02*
X70979491Y-19264140D01*
X70979491Y-19264140D02*
X71379491Y-19664140D01*
X71379491Y-19664140D02*
X70946157Y-19664140D01*
X81779490Y-19664140D02*
X82179490Y-19664140D01*
X81979490Y-19664140D02*
X81979490Y-18964140D01*
X81979490Y-18964140D02*
X82046157Y-19064140D01*
X82046157Y-19064140D02*
X82112824Y-19130807D01*
X82112824Y-19130807D02*
X82179490Y-19164140D01*
%TO.C,FFC_connector1*%
X81979491Y-19495507D02*
X81479491Y-19995507D01*
X82479491Y-19995507D02*
X70979491Y-19995507D01*
X82479491Y-19995507D02*
X81979491Y-19495507D01*
%TD*%
%LPC*%
G36*
X82481558Y-19995593D02*
G01*
X82501405Y-19996422D01*
X82535159Y-20003872D01*
X82573653Y-20019816D01*
X82605773Y-20041277D01*
X82633720Y-20069224D01*
X82655181Y-20101344D01*
X82671125Y-20139838D01*
X82678573Y-20173583D01*
X82679404Y-20193444D01*
X82679491Y-20197583D01*
X82679491Y-23096507D01*
X82660584Y-23154698D01*
X82611084Y-23190662D01*
X82580491Y-23195507D01*
X82580489Y-23195507D01*
X82283780Y-23195507D01*
X82254491Y-23224796D01*
X82254491Y-24360507D01*
X82244215Y-24412169D01*
X82214950Y-24455966D01*
X82171153Y-24485231D01*
X82119491Y-24495507D01*
X81839491Y-24495507D01*
X81787829Y-24485231D01*
X81744032Y-24455966D01*
X81743540Y-24455229D01*
X81715442Y-24455229D01*
X81714950Y-24455966D01*
X81671153Y-24485231D01*
X81619491Y-24495507D01*
X81339491Y-24495507D01*
X81287829Y-24485231D01*
X81244032Y-24455966D01*
X81243540Y-24455229D01*
X81215442Y-24455229D01*
X81214950Y-24455966D01*
X81171153Y-24485231D01*
X81119491Y-24495507D01*
X80839491Y-24495507D01*
X80787829Y-24485231D01*
X80744032Y-24455966D01*
X80743540Y-24455229D01*
X80715442Y-24455229D01*
X80714950Y-24455966D01*
X80671153Y-24485231D01*
X80619491Y-24495507D01*
X80339491Y-24495507D01*
X80287829Y-24485231D01*
X80244032Y-24455966D01*
X80243540Y-24455229D01*
X80215442Y-24455229D01*
X80214950Y-24455966D01*
X80171153Y-24485231D01*
X80119491Y-24495507D01*
X79839491Y-24495507D01*
X79787829Y-24485231D01*
X79744032Y-24455966D01*
X79743540Y-24455229D01*
X79715442Y-24455229D01*
X79714950Y-24455966D01*
X79671153Y-24485231D01*
X79619491Y-24495507D01*
X79339491Y-24495507D01*
X79287829Y-24485231D01*
X79244032Y-24455966D01*
X79243540Y-24455229D01*
X79215442Y-24455229D01*
X79214950Y-24455966D01*
X79171153Y-24485231D01*
X79119491Y-24495507D01*
X78839491Y-24495507D01*
X78787829Y-24485231D01*
X78744032Y-24455966D01*
X78743540Y-24455229D01*
X78715442Y-24455229D01*
X78714950Y-24455966D01*
X78671153Y-24485231D01*
X78619491Y-24495507D01*
X78339491Y-24495507D01*
X78287829Y-24485231D01*
X78244032Y-24455966D01*
X78243540Y-24455229D01*
X78215442Y-24455229D01*
X78214950Y-24455966D01*
X78171153Y-24485231D01*
X78119491Y-24495507D01*
X77839491Y-24495507D01*
X77787829Y-24485231D01*
X77744032Y-24455966D01*
X77743540Y-24455229D01*
X77715442Y-24455229D01*
X77714950Y-24455966D01*
X77671153Y-24485231D01*
X77619491Y-24495507D01*
X77339491Y-24495507D01*
X77287829Y-24485231D01*
X77244032Y-24455966D01*
X77243540Y-24455229D01*
X77215442Y-24455229D01*
X77214950Y-24455966D01*
X77171153Y-24485231D01*
X77119491Y-24495507D01*
X76839491Y-24495507D01*
X76787829Y-24485231D01*
X76744032Y-24455966D01*
X76743540Y-24455229D01*
X76715442Y-24455229D01*
X76714950Y-24455966D01*
X76671153Y-24485231D01*
X76619491Y-24495507D01*
X76339491Y-24495507D01*
X76287829Y-24485231D01*
X76244032Y-24455966D01*
X76243540Y-24455229D01*
X76215442Y-24455229D01*
X76214950Y-24455966D01*
X76171153Y-24485231D01*
X76119491Y-24495507D01*
X75839491Y-24495507D01*
X75787829Y-24485231D01*
X75744032Y-24455966D01*
X75743540Y-24455229D01*
X75715442Y-24455229D01*
X75714950Y-24455966D01*
X75671153Y-24485231D01*
X75619491Y-24495507D01*
X75339491Y-24495507D01*
X75287829Y-24485231D01*
X75244032Y-24455966D01*
X75243540Y-24455229D01*
X75215442Y-24455229D01*
X75214950Y-24455966D01*
X75171153Y-24485231D01*
X75119491Y-24495507D01*
X74839491Y-24495507D01*
X74787829Y-24485231D01*
X74744032Y-24455966D01*
X74743540Y-24455229D01*
X74715442Y-24455229D01*
X74714950Y-24455966D01*
X74671153Y-24485231D01*
X74619491Y-24495507D01*
X74339491Y-24495507D01*
X74287829Y-24485231D01*
X74244032Y-24455966D01*
X74243540Y-24455229D01*
X74215442Y-24455229D01*
X74214950Y-24455966D01*
X74171153Y-24485231D01*
X74119491Y-24495507D01*
X73839491Y-24495507D01*
X73787829Y-24485231D01*
X73744032Y-24455966D01*
X73743540Y-24455229D01*
X73715442Y-24455229D01*
X73714950Y-24455966D01*
X73671153Y-24485231D01*
X73619491Y-24495507D01*
X73339491Y-24495507D01*
X73287829Y-24485231D01*
X73244032Y-24455966D01*
X73243540Y-24455229D01*
X73215442Y-24455229D01*
X73214950Y-24455966D01*
X73171153Y-24485231D01*
X73119491Y-24495507D01*
X72839491Y-24495507D01*
X72787829Y-24485231D01*
X72744032Y-24455966D01*
X72743540Y-24455229D01*
X72715442Y-24455229D01*
X72714950Y-24455966D01*
X72671153Y-24485231D01*
X72619491Y-24495507D01*
X72339491Y-24495507D01*
X72287829Y-24485231D01*
X72244032Y-24455966D01*
X72243540Y-24455229D01*
X72215442Y-24455229D01*
X72214950Y-24455966D01*
X72171153Y-24485231D01*
X72119491Y-24495507D01*
X71839491Y-24495507D01*
X71787829Y-24485231D01*
X71744032Y-24455966D01*
X71743540Y-24455229D01*
X71715442Y-24455229D01*
X71714950Y-24455966D01*
X71671153Y-24485231D01*
X71619491Y-24495507D01*
X71339491Y-24495507D01*
X71287829Y-24485231D01*
X71244032Y-24455966D01*
X71214767Y-24412169D01*
X71204491Y-24360507D01*
X71204491Y-23224795D01*
X71175203Y-23195507D01*
X70878494Y-23195507D01*
X70878491Y-23195507D01*
X70878488Y-23195506D01*
X70878487Y-23195506D01*
X70820300Y-23176600D01*
X70784336Y-23127100D01*
X70779491Y-23096507D01*
X70779491Y-20197923D01*
X70779499Y-20197583D01*
X70779607Y-20193122D01*
X70780574Y-20173284D01*
X70780574Y-20173280D01*
X70787990Y-20140219D01*
X70804029Y-20101493D01*
X70804129Y-20101344D01*
X70825490Y-20069372D01*
X70825494Y-20069366D01*
X70853362Y-20041497D01*
X70885478Y-20020037D01*
X70924182Y-20004002D01*
X70957289Y-19996581D01*
X70957293Y-19996580D01*
X70977126Y-19995621D01*
X70981864Y-19995507D01*
X82477414Y-19995507D01*
X82481558Y-19995593D01*
G37*
%LPD*%
M02*
