%TF.GenerationSoftware,KiCad,Pcbnew,10.0.3*%
%TF.CreationDate,2026-07-01T11:37:50+01:00*%
%TF.ProjectId,ACC,4143432e-6b69-4636-9164-5f7063625858,2.2*%
%TF.SameCoordinates,Original*%
%TF.FileFunction,Other,ECO1*%
%FSLAX46Y46*%
G04 Gerber Fmt 4.6, Leading zero omitted, Abs format (unit mm)*
G04 Created by KiCad (PCBNEW 10.0.3) date 2026-07-01 11:37:50*
%MOMM*%
%LPD*%
G01*
G04 APERTURE LIST*
%ADD10C,0.158750*%
%ADD11C,0.200000*%
G04 APERTURE END LIST*
D10*
X98786820Y-67162328D02*
X98786820Y-65892328D01*
X98786820Y-65892328D02*
X99512535Y-67162328D01*
X99512535Y-67162328D02*
X99512535Y-65892328D01*
X100298725Y-67162328D02*
X100177773Y-67101852D01*
X100177773Y-67101852D02*
X100117296Y-67041375D01*
X100117296Y-67041375D02*
X100056820Y-66920423D01*
X100056820Y-66920423D02*
X100056820Y-66557566D01*
X100056820Y-66557566D02*
X100117296Y-66436613D01*
X100117296Y-66436613D02*
X100177773Y-66376137D01*
X100177773Y-66376137D02*
X100298725Y-66315661D01*
X100298725Y-66315661D02*
X100480154Y-66315661D01*
X100480154Y-66315661D02*
X100601106Y-66376137D01*
X100601106Y-66376137D02*
X100661582Y-66436613D01*
X100661582Y-66436613D02*
X100722058Y-66557566D01*
X100722058Y-66557566D02*
X100722058Y-66920423D01*
X100722058Y-66920423D02*
X100661582Y-67041375D01*
X100661582Y-67041375D02*
X100601106Y-67101852D01*
X100601106Y-67101852D02*
X100480154Y-67162328D01*
X100480154Y-67162328D02*
X100298725Y-67162328D01*
X101266344Y-67162328D02*
X101266344Y-66315661D01*
X101266344Y-66557566D02*
X101326821Y-66436613D01*
X101326821Y-66436613D02*
X101387297Y-66376137D01*
X101387297Y-66376137D02*
X101508249Y-66315661D01*
X101508249Y-66315661D02*
X101629202Y-66315661D01*
X102052534Y-67162328D02*
X102052534Y-66315661D01*
X102052534Y-66436613D02*
X102113011Y-66376137D01*
X102113011Y-66376137D02*
X102233963Y-66315661D01*
X102233963Y-66315661D02*
X102415392Y-66315661D01*
X102415392Y-66315661D02*
X102536344Y-66376137D01*
X102536344Y-66376137D02*
X102596820Y-66497090D01*
X102596820Y-66497090D02*
X102596820Y-67162328D01*
X102596820Y-66497090D02*
X102657296Y-66376137D01*
X102657296Y-66376137D02*
X102778249Y-66315661D01*
X102778249Y-66315661D02*
X102959677Y-66315661D01*
X102959677Y-66315661D02*
X103080630Y-66376137D01*
X103080630Y-66376137D02*
X103141106Y-66497090D01*
X103141106Y-66497090D02*
X103141106Y-67162328D01*
X104290153Y-67162328D02*
X104290153Y-66497090D01*
X104290153Y-66497090D02*
X104229677Y-66376137D01*
X104229677Y-66376137D02*
X104108725Y-66315661D01*
X104108725Y-66315661D02*
X103866820Y-66315661D01*
X103866820Y-66315661D02*
X103745867Y-66376137D01*
X104290153Y-67101852D02*
X104169201Y-67162328D01*
X104169201Y-67162328D02*
X103866820Y-67162328D01*
X103866820Y-67162328D02*
X103745867Y-67101852D01*
X103745867Y-67101852D02*
X103685391Y-66980899D01*
X103685391Y-66980899D02*
X103685391Y-66859947D01*
X103685391Y-66859947D02*
X103745867Y-66738994D01*
X103745867Y-66738994D02*
X103866820Y-66678518D01*
X103866820Y-66678518D02*
X104169201Y-66678518D01*
X104169201Y-66678518D02*
X104290153Y-66618042D01*
X105076344Y-67162328D02*
X104955392Y-67101852D01*
X104955392Y-67101852D02*
X104894915Y-66980899D01*
X104894915Y-66980899D02*
X104894915Y-65892328D01*
X106527772Y-67162328D02*
X106527772Y-65892328D01*
X106527772Y-65892328D02*
X107011582Y-65892328D01*
X107011582Y-65892328D02*
X107132534Y-65952804D01*
X107132534Y-65952804D02*
X107193011Y-66013280D01*
X107193011Y-66013280D02*
X107253487Y-66134232D01*
X107253487Y-66134232D02*
X107253487Y-66315661D01*
X107253487Y-66315661D02*
X107193011Y-66436613D01*
X107193011Y-66436613D02*
X107132534Y-66497090D01*
X107132534Y-66497090D02*
X107011582Y-66557566D01*
X107011582Y-66557566D02*
X106527772Y-66557566D01*
X107797772Y-67162328D02*
X107797772Y-65892328D01*
X109309677Y-67101852D02*
X109491106Y-67162328D01*
X109491106Y-67162328D02*
X109793487Y-67162328D01*
X109793487Y-67162328D02*
X109914439Y-67101852D01*
X109914439Y-67101852D02*
X109974915Y-67041375D01*
X109974915Y-67041375D02*
X110035392Y-66920423D01*
X110035392Y-66920423D02*
X110035392Y-66799471D01*
X110035392Y-66799471D02*
X109974915Y-66678518D01*
X109974915Y-66678518D02*
X109914439Y-66618042D01*
X109914439Y-66618042D02*
X109793487Y-66557566D01*
X109793487Y-66557566D02*
X109551582Y-66497090D01*
X109551582Y-66497090D02*
X109430630Y-66436613D01*
X109430630Y-66436613D02*
X109370153Y-66376137D01*
X109370153Y-66376137D02*
X109309677Y-66255185D01*
X109309677Y-66255185D02*
X109309677Y-66134232D01*
X109309677Y-66134232D02*
X109370153Y-66013280D01*
X109370153Y-66013280D02*
X109430630Y-65952804D01*
X109430630Y-65952804D02*
X109551582Y-65892328D01*
X109551582Y-65892328D02*
X109853963Y-65892328D01*
X109853963Y-65892328D02*
X110035392Y-65952804D01*
X110398249Y-65892328D02*
X111123963Y-65892328D01*
X110761106Y-67162328D02*
X110761106Y-65892328D01*
X111547296Y-67162328D02*
X111547296Y-65892328D01*
X112575392Y-66497090D02*
X112152058Y-66497090D01*
X112152058Y-67162328D02*
X112152058Y-65892328D01*
X112152058Y-65892328D02*
X112756820Y-65892328D01*
X113663963Y-66497090D02*
X113240629Y-66497090D01*
X113240629Y-67162328D02*
X113240629Y-65892328D01*
X113240629Y-65892328D02*
X113845391Y-65892328D01*
X114329200Y-66497090D02*
X114752534Y-66497090D01*
X114933962Y-67162328D02*
X114329200Y-67162328D01*
X114329200Y-67162328D02*
X114329200Y-65892328D01*
X114329200Y-65892328D02*
X114933962Y-65892328D01*
X115478248Y-67162328D02*
X115478248Y-65892328D01*
X115478248Y-65892328D02*
X116203963Y-67162328D01*
X116203963Y-67162328D02*
X116203963Y-65892328D01*
X116808724Y-66497090D02*
X117232058Y-66497090D01*
X117413486Y-67162328D02*
X116808724Y-67162328D01*
X116808724Y-67162328D02*
X116808724Y-65892328D01*
X116808724Y-65892328D02*
X117413486Y-65892328D01*
X118683487Y-67162328D02*
X118260153Y-66557566D01*
X117957772Y-67162328D02*
X117957772Y-65892328D01*
X117957772Y-65892328D02*
X118441582Y-65892328D01*
X118441582Y-65892328D02*
X118562534Y-65952804D01*
X118562534Y-65952804D02*
X118623011Y-66013280D01*
X118623011Y-66013280D02*
X118683487Y-66134232D01*
X118683487Y-66134232D02*
X118683487Y-66315661D01*
X118683487Y-66315661D02*
X118623011Y-66436613D01*
X118623011Y-66436613D02*
X118562534Y-66497090D01*
X118562534Y-66497090D02*
X118441582Y-66557566D01*
X118441582Y-66557566D02*
X117957772Y-66557566D01*
X98786820Y-71251586D02*
X98786820Y-69981586D01*
X98786820Y-69981586D02*
X99270630Y-69981586D01*
X99270630Y-69981586D02*
X99391582Y-70042062D01*
X99391582Y-70042062D02*
X99452059Y-70102538D01*
X99452059Y-70102538D02*
X99512535Y-70223490D01*
X99512535Y-70223490D02*
X99512535Y-70404919D01*
X99512535Y-70404919D02*
X99452059Y-70525871D01*
X99452059Y-70525871D02*
X99391582Y-70586348D01*
X99391582Y-70586348D02*
X99270630Y-70646824D01*
X99270630Y-70646824D02*
X98786820Y-70646824D01*
X100056820Y-71251586D02*
X100056820Y-69981586D01*
X101568725Y-71191110D02*
X101689678Y-71251586D01*
X101689678Y-71251586D02*
X101931582Y-71251586D01*
X101931582Y-71251586D02*
X102052535Y-71191110D01*
X102052535Y-71191110D02*
X102113011Y-71070157D01*
X102113011Y-71070157D02*
X102113011Y-71009681D01*
X102113011Y-71009681D02*
X102052535Y-70888729D01*
X102052535Y-70888729D02*
X101931582Y-70828252D01*
X101931582Y-70828252D02*
X101750154Y-70828252D01*
X101750154Y-70828252D02*
X101629201Y-70767776D01*
X101629201Y-70767776D02*
X101568725Y-70646824D01*
X101568725Y-70646824D02*
X101568725Y-70586348D01*
X101568725Y-70586348D02*
X101629201Y-70465395D01*
X101629201Y-70465395D02*
X101750154Y-70404919D01*
X101750154Y-70404919D02*
X101931582Y-70404919D01*
X101931582Y-70404919D02*
X102052535Y-70465395D01*
X102475868Y-70404919D02*
X102959677Y-70404919D01*
X102657296Y-69981586D02*
X102657296Y-71070157D01*
X102657296Y-71070157D02*
X102717773Y-71191110D01*
X102717773Y-71191110D02*
X102838725Y-71251586D01*
X102838725Y-71251586D02*
X102959677Y-71251586D01*
X103383010Y-71251586D02*
X103383010Y-70404919D01*
X103383010Y-69981586D02*
X103322534Y-70042062D01*
X103322534Y-70042062D02*
X103383010Y-70102538D01*
X103383010Y-70102538D02*
X103443487Y-70042062D01*
X103443487Y-70042062D02*
X103383010Y-69981586D01*
X103383010Y-69981586D02*
X103383010Y-70102538D01*
X103806344Y-70404919D02*
X104290153Y-70404919D01*
X103987772Y-71251586D02*
X103987772Y-70163014D01*
X103987772Y-70163014D02*
X104048249Y-70042062D01*
X104048249Y-70042062D02*
X104169201Y-69981586D01*
X104169201Y-69981586D02*
X104290153Y-69981586D01*
X104532058Y-70404919D02*
X105015867Y-70404919D01*
X104713486Y-71251586D02*
X104713486Y-70163014D01*
X104713486Y-70163014D02*
X104773963Y-70042062D01*
X104773963Y-70042062D02*
X104894915Y-69981586D01*
X104894915Y-69981586D02*
X105015867Y-69981586D01*
X105923010Y-71191110D02*
X105802058Y-71251586D01*
X105802058Y-71251586D02*
X105560153Y-71251586D01*
X105560153Y-71251586D02*
X105439200Y-71191110D01*
X105439200Y-71191110D02*
X105378724Y-71070157D01*
X105378724Y-71070157D02*
X105378724Y-70586348D01*
X105378724Y-70586348D02*
X105439200Y-70465395D01*
X105439200Y-70465395D02*
X105560153Y-70404919D01*
X105560153Y-70404919D02*
X105802058Y-70404919D01*
X105802058Y-70404919D02*
X105923010Y-70465395D01*
X105923010Y-70465395D02*
X105983486Y-70586348D01*
X105983486Y-70586348D02*
X105983486Y-70707300D01*
X105983486Y-70707300D02*
X105378724Y-70828252D01*
X106527771Y-70404919D02*
X106527771Y-71251586D01*
X106527771Y-70525871D02*
X106588248Y-70465395D01*
X106588248Y-70465395D02*
X106709200Y-70404919D01*
X106709200Y-70404919D02*
X106890629Y-70404919D01*
X106890629Y-70404919D02*
X107011581Y-70465395D01*
X107011581Y-70465395D02*
X107072057Y-70586348D01*
X107072057Y-70586348D02*
X107072057Y-71251586D01*
X108160629Y-71191110D02*
X108039677Y-71251586D01*
X108039677Y-71251586D02*
X107797772Y-71251586D01*
X107797772Y-71251586D02*
X107676819Y-71191110D01*
X107676819Y-71191110D02*
X107616343Y-71070157D01*
X107616343Y-71070157D02*
X107616343Y-70586348D01*
X107616343Y-70586348D02*
X107676819Y-70465395D01*
X107676819Y-70465395D02*
X107797772Y-70404919D01*
X107797772Y-70404919D02*
X108039677Y-70404919D01*
X108039677Y-70404919D02*
X108160629Y-70465395D01*
X108160629Y-70465395D02*
X108221105Y-70586348D01*
X108221105Y-70586348D02*
X108221105Y-70707300D01*
X108221105Y-70707300D02*
X107616343Y-70828252D01*
X108765390Y-71251586D02*
X108765390Y-70404919D01*
X108765390Y-70646824D02*
X108825867Y-70525871D01*
X108825867Y-70525871D02*
X108886343Y-70465395D01*
X108886343Y-70465395D02*
X109007295Y-70404919D01*
X109007295Y-70404919D02*
X109128248Y-70404919D01*
X110337771Y-70404919D02*
X110821580Y-70404919D01*
X110519199Y-69981586D02*
X110519199Y-71070157D01*
X110519199Y-71070157D02*
X110579676Y-71191110D01*
X110579676Y-71191110D02*
X110700628Y-71251586D01*
X110700628Y-71251586D02*
X110821580Y-71251586D01*
X111244913Y-71251586D02*
X111244913Y-69981586D01*
X111789199Y-71251586D02*
X111789199Y-70586348D01*
X111789199Y-70586348D02*
X111728723Y-70465395D01*
X111728723Y-70465395D02*
X111607771Y-70404919D01*
X111607771Y-70404919D02*
X111426342Y-70404919D01*
X111426342Y-70404919D02*
X111305390Y-70465395D01*
X111305390Y-70465395D02*
X111244913Y-70525871D01*
X112393961Y-71251586D02*
X112393961Y-70404919D01*
X112393961Y-69981586D02*
X112333485Y-70042062D01*
X112333485Y-70042062D02*
X112393961Y-70102538D01*
X112393961Y-70102538D02*
X112454438Y-70042062D01*
X112454438Y-70042062D02*
X112393961Y-69981586D01*
X112393961Y-69981586D02*
X112393961Y-70102538D01*
X113543009Y-71191110D02*
X113422057Y-71251586D01*
X113422057Y-71251586D02*
X113180152Y-71251586D01*
X113180152Y-71251586D02*
X113059200Y-71191110D01*
X113059200Y-71191110D02*
X112998723Y-71130633D01*
X112998723Y-71130633D02*
X112938247Y-71009681D01*
X112938247Y-71009681D02*
X112938247Y-70646824D01*
X112938247Y-70646824D02*
X112998723Y-70525871D01*
X112998723Y-70525871D02*
X113059200Y-70465395D01*
X113059200Y-70465395D02*
X113180152Y-70404919D01*
X113180152Y-70404919D02*
X113422057Y-70404919D01*
X113422057Y-70404919D02*
X113543009Y-70465395D01*
X114087294Y-71251586D02*
X114087294Y-69981586D01*
X114208247Y-70767776D02*
X114571104Y-71251586D01*
X114571104Y-70404919D02*
X114087294Y-70888729D01*
X115115389Y-70404919D02*
X115115389Y-71251586D01*
X115115389Y-70525871D02*
X115175866Y-70465395D01*
X115175866Y-70465395D02*
X115296818Y-70404919D01*
X115296818Y-70404919D02*
X115478247Y-70404919D01*
X115478247Y-70404919D02*
X115599199Y-70465395D01*
X115599199Y-70465395D02*
X115659675Y-70586348D01*
X115659675Y-70586348D02*
X115659675Y-71251586D01*
X116748247Y-71191110D02*
X116627295Y-71251586D01*
X116627295Y-71251586D02*
X116385390Y-71251586D01*
X116385390Y-71251586D02*
X116264437Y-71191110D01*
X116264437Y-71191110D02*
X116203961Y-71070157D01*
X116203961Y-71070157D02*
X116203961Y-70586348D01*
X116203961Y-70586348D02*
X116264437Y-70465395D01*
X116264437Y-70465395D02*
X116385390Y-70404919D01*
X116385390Y-70404919D02*
X116627295Y-70404919D01*
X116627295Y-70404919D02*
X116748247Y-70465395D01*
X116748247Y-70465395D02*
X116808723Y-70586348D01*
X116808723Y-70586348D02*
X116808723Y-70707300D01*
X116808723Y-70707300D02*
X116203961Y-70828252D01*
X117292532Y-71191110D02*
X117413485Y-71251586D01*
X117413485Y-71251586D02*
X117655389Y-71251586D01*
X117655389Y-71251586D02*
X117776342Y-71191110D01*
X117776342Y-71191110D02*
X117836818Y-71070157D01*
X117836818Y-71070157D02*
X117836818Y-71009681D01*
X117836818Y-71009681D02*
X117776342Y-70888729D01*
X117776342Y-70888729D02*
X117655389Y-70828252D01*
X117655389Y-70828252D02*
X117473961Y-70828252D01*
X117473961Y-70828252D02*
X117353008Y-70767776D01*
X117353008Y-70767776D02*
X117292532Y-70646824D01*
X117292532Y-70646824D02*
X117292532Y-70586348D01*
X117292532Y-70586348D02*
X117353008Y-70465395D01*
X117353008Y-70465395D02*
X117473961Y-70404919D01*
X117473961Y-70404919D02*
X117655389Y-70404919D01*
X117655389Y-70404919D02*
X117776342Y-70465395D01*
X118320627Y-71191110D02*
X118441580Y-71251586D01*
X118441580Y-71251586D02*
X118683484Y-71251586D01*
X118683484Y-71251586D02*
X118804437Y-71191110D01*
X118804437Y-71191110D02*
X118864913Y-71070157D01*
X118864913Y-71070157D02*
X118864913Y-71009681D01*
X118864913Y-71009681D02*
X118804437Y-70888729D01*
X118804437Y-70888729D02*
X118683484Y-70828252D01*
X118683484Y-70828252D02*
X118502056Y-70828252D01*
X118502056Y-70828252D02*
X118381103Y-70767776D01*
X118381103Y-70767776D02*
X118320627Y-70646824D01*
X118320627Y-70646824D02*
X118320627Y-70586348D01*
X118320627Y-70586348D02*
X118381103Y-70465395D01*
X118381103Y-70465395D02*
X118502056Y-70404919D01*
X118502056Y-70404919D02*
X118683484Y-70404919D01*
X118683484Y-70404919D02*
X118804437Y-70465395D01*
X119409198Y-71130633D02*
X119469675Y-71191110D01*
X119469675Y-71191110D02*
X119409198Y-71251586D01*
X119409198Y-71251586D02*
X119348722Y-71191110D01*
X119348722Y-71191110D02*
X119409198Y-71130633D01*
X119409198Y-71130633D02*
X119409198Y-71251586D01*
X119409198Y-70465395D02*
X119469675Y-70525871D01*
X119469675Y-70525871D02*
X119409198Y-70586348D01*
X119409198Y-70586348D02*
X119348722Y-70525871D01*
X119348722Y-70525871D02*
X119409198Y-70465395D01*
X119409198Y-70465395D02*
X119409198Y-70586348D01*
X121223484Y-69981586D02*
X121344437Y-69981586D01*
X121344437Y-69981586D02*
X121465389Y-70042062D01*
X121465389Y-70042062D02*
X121525865Y-70102538D01*
X121525865Y-70102538D02*
X121586341Y-70223490D01*
X121586341Y-70223490D02*
X121646818Y-70465395D01*
X121646818Y-70465395D02*
X121646818Y-70767776D01*
X121646818Y-70767776D02*
X121586341Y-71009681D01*
X121586341Y-71009681D02*
X121525865Y-71130633D01*
X121525865Y-71130633D02*
X121465389Y-71191110D01*
X121465389Y-71191110D02*
X121344437Y-71251586D01*
X121344437Y-71251586D02*
X121223484Y-71251586D01*
X121223484Y-71251586D02*
X121102532Y-71191110D01*
X121102532Y-71191110D02*
X121042056Y-71130633D01*
X121042056Y-71130633D02*
X120981579Y-71009681D01*
X120981579Y-71009681D02*
X120921103Y-70767776D01*
X120921103Y-70767776D02*
X120921103Y-70465395D01*
X120921103Y-70465395D02*
X120981579Y-70223490D01*
X120981579Y-70223490D02*
X121042056Y-70102538D01*
X121042056Y-70102538D02*
X121102532Y-70042062D01*
X121102532Y-70042062D02*
X121223484Y-69981586D01*
X122191103Y-71130633D02*
X122251580Y-71191110D01*
X122251580Y-71191110D02*
X122191103Y-71251586D01*
X122191103Y-71251586D02*
X122130627Y-71191110D01*
X122130627Y-71191110D02*
X122191103Y-71130633D01*
X122191103Y-71130633D02*
X122191103Y-71251586D01*
X122735389Y-70102538D02*
X122795865Y-70042062D01*
X122795865Y-70042062D02*
X122916818Y-69981586D01*
X122916818Y-69981586D02*
X123219199Y-69981586D01*
X123219199Y-69981586D02*
X123340151Y-70042062D01*
X123340151Y-70042062D02*
X123400627Y-70102538D01*
X123400627Y-70102538D02*
X123461104Y-70223490D01*
X123461104Y-70223490D02*
X123461104Y-70344443D01*
X123461104Y-70344443D02*
X123400627Y-70525871D01*
X123400627Y-70525871D02*
X122674913Y-71251586D01*
X122674913Y-71251586D02*
X123461104Y-71251586D01*
X124973008Y-71251586D02*
X124973008Y-70404919D01*
X124973008Y-70525871D02*
X125033485Y-70465395D01*
X125033485Y-70465395D02*
X125154437Y-70404919D01*
X125154437Y-70404919D02*
X125335866Y-70404919D01*
X125335866Y-70404919D02*
X125456818Y-70465395D01*
X125456818Y-70465395D02*
X125517294Y-70586348D01*
X125517294Y-70586348D02*
X125517294Y-71251586D01*
X125517294Y-70586348D02*
X125577770Y-70465395D01*
X125577770Y-70465395D02*
X125698723Y-70404919D01*
X125698723Y-70404919D02*
X125880151Y-70404919D01*
X125880151Y-70404919D02*
X126001104Y-70465395D01*
X126001104Y-70465395D02*
X126061580Y-70586348D01*
X126061580Y-70586348D02*
X126061580Y-71251586D01*
X126666341Y-71251586D02*
X126666341Y-70404919D01*
X126666341Y-70525871D02*
X126726818Y-70465395D01*
X126726818Y-70465395D02*
X126847770Y-70404919D01*
X126847770Y-70404919D02*
X127029199Y-70404919D01*
X127029199Y-70404919D02*
X127150151Y-70465395D01*
X127150151Y-70465395D02*
X127210627Y-70586348D01*
X127210627Y-70586348D02*
X127210627Y-71251586D01*
X127210627Y-70586348D02*
X127271103Y-70465395D01*
X127271103Y-70465395D02*
X127392056Y-70404919D01*
X127392056Y-70404919D02*
X127573484Y-70404919D01*
X127573484Y-70404919D02*
X127694437Y-70465395D01*
X127694437Y-70465395D02*
X127754913Y-70586348D01*
X127754913Y-70586348D02*
X127754913Y-71251586D01*
X99210154Y-72630977D02*
X99391582Y-72691453D01*
X99391582Y-72691453D02*
X99452059Y-72751929D01*
X99452059Y-72751929D02*
X99512535Y-72872881D01*
X99512535Y-72872881D02*
X99512535Y-73054310D01*
X99512535Y-73054310D02*
X99452059Y-73175262D01*
X99452059Y-73175262D02*
X99391582Y-73235739D01*
X99391582Y-73235739D02*
X99270630Y-73296215D01*
X99270630Y-73296215D02*
X98786820Y-73296215D01*
X98786820Y-73296215D02*
X98786820Y-72026215D01*
X98786820Y-72026215D02*
X99210154Y-72026215D01*
X99210154Y-72026215D02*
X99331106Y-72086691D01*
X99331106Y-72086691D02*
X99391582Y-72147167D01*
X99391582Y-72147167D02*
X99452059Y-72268119D01*
X99452059Y-72268119D02*
X99452059Y-72389072D01*
X99452059Y-72389072D02*
X99391582Y-72510024D01*
X99391582Y-72510024D02*
X99331106Y-72570500D01*
X99331106Y-72570500D02*
X99210154Y-72630977D01*
X99210154Y-72630977D02*
X98786820Y-72630977D01*
X100298725Y-72026215D02*
X100540630Y-72026215D01*
X100540630Y-72026215D02*
X100661582Y-72086691D01*
X100661582Y-72086691D02*
X100782535Y-72207643D01*
X100782535Y-72207643D02*
X100843011Y-72449548D01*
X100843011Y-72449548D02*
X100843011Y-72872881D01*
X100843011Y-72872881D02*
X100782535Y-73114786D01*
X100782535Y-73114786D02*
X100661582Y-73235739D01*
X100661582Y-73235739D02*
X100540630Y-73296215D01*
X100540630Y-73296215D02*
X100298725Y-73296215D01*
X100298725Y-73296215D02*
X100177773Y-73235739D01*
X100177773Y-73235739D02*
X100056820Y-73114786D01*
X100056820Y-73114786D02*
X99996344Y-72872881D01*
X99996344Y-72872881D02*
X99996344Y-72449548D01*
X99996344Y-72449548D02*
X100056820Y-72207643D01*
X100056820Y-72207643D02*
X100177773Y-72086691D01*
X100177773Y-72086691D02*
X100298725Y-72026215D01*
X101205868Y-72026215D02*
X101931582Y-72026215D01*
X101568725Y-73296215D02*
X101568725Y-72026215D01*
X102173487Y-72026215D02*
X102899201Y-72026215D01*
X102536344Y-73296215D02*
X102536344Y-72026215D01*
X103564439Y-72026215D02*
X103806344Y-72026215D01*
X103806344Y-72026215D02*
X103927296Y-72086691D01*
X103927296Y-72086691D02*
X104048249Y-72207643D01*
X104048249Y-72207643D02*
X104108725Y-72449548D01*
X104108725Y-72449548D02*
X104108725Y-72872881D01*
X104108725Y-72872881D02*
X104048249Y-73114786D01*
X104048249Y-73114786D02*
X103927296Y-73235739D01*
X103927296Y-73235739D02*
X103806344Y-73296215D01*
X103806344Y-73296215D02*
X103564439Y-73296215D01*
X103564439Y-73296215D02*
X103443487Y-73235739D01*
X103443487Y-73235739D02*
X103322534Y-73114786D01*
X103322534Y-73114786D02*
X103262058Y-72872881D01*
X103262058Y-72872881D02*
X103262058Y-72449548D01*
X103262058Y-72449548D02*
X103322534Y-72207643D01*
X103322534Y-72207643D02*
X103443487Y-72086691D01*
X103443487Y-72086691D02*
X103564439Y-72026215D01*
X104653010Y-73296215D02*
X104653010Y-72026215D01*
X104653010Y-72026215D02*
X105076344Y-72933358D01*
X105076344Y-72933358D02*
X105499677Y-72026215D01*
X105499677Y-72026215D02*
X105499677Y-73296215D01*
X107011582Y-73235739D02*
X107193011Y-73296215D01*
X107193011Y-73296215D02*
X107495392Y-73296215D01*
X107495392Y-73296215D02*
X107616344Y-73235739D01*
X107616344Y-73235739D02*
X107676820Y-73175262D01*
X107676820Y-73175262D02*
X107737297Y-73054310D01*
X107737297Y-73054310D02*
X107737297Y-72933358D01*
X107737297Y-72933358D02*
X107676820Y-72812405D01*
X107676820Y-72812405D02*
X107616344Y-72751929D01*
X107616344Y-72751929D02*
X107495392Y-72691453D01*
X107495392Y-72691453D02*
X107253487Y-72630977D01*
X107253487Y-72630977D02*
X107132535Y-72570500D01*
X107132535Y-72570500D02*
X107072058Y-72510024D01*
X107072058Y-72510024D02*
X107011582Y-72389072D01*
X107011582Y-72389072D02*
X107011582Y-72268119D01*
X107011582Y-72268119D02*
X107072058Y-72147167D01*
X107072058Y-72147167D02*
X107132535Y-72086691D01*
X107132535Y-72086691D02*
X107253487Y-72026215D01*
X107253487Y-72026215D02*
X107555868Y-72026215D01*
X107555868Y-72026215D02*
X107737297Y-72086691D01*
X108281582Y-73296215D02*
X108281582Y-72026215D01*
X108886344Y-73296215D02*
X108886344Y-72026215D01*
X108886344Y-72026215D02*
X109188725Y-72026215D01*
X109188725Y-72026215D02*
X109370154Y-72086691D01*
X109370154Y-72086691D02*
X109491106Y-72207643D01*
X109491106Y-72207643D02*
X109551583Y-72328596D01*
X109551583Y-72328596D02*
X109612059Y-72570500D01*
X109612059Y-72570500D02*
X109612059Y-72751929D01*
X109612059Y-72751929D02*
X109551583Y-72993834D01*
X109551583Y-72993834D02*
X109491106Y-73114786D01*
X109491106Y-73114786D02*
X109370154Y-73235739D01*
X109370154Y-73235739D02*
X109188725Y-73296215D01*
X109188725Y-73296215D02*
X108886344Y-73296215D01*
X110156344Y-72630977D02*
X110579678Y-72630977D01*
X110761106Y-73296215D02*
X110156344Y-73296215D01*
X110156344Y-73296215D02*
X110156344Y-72026215D01*
X110156344Y-72026215D02*
X110761106Y-72026215D01*
D11*
X27573488Y-16650176D02*
X27478250Y-16602557D01*
X27478250Y-16602557D02*
X27335393Y-16602557D01*
X27335393Y-16602557D02*
X27192536Y-16650176D01*
X27192536Y-16650176D02*
X27097298Y-16745414D01*
X27097298Y-16745414D02*
X27049679Y-16840652D01*
X27049679Y-16840652D02*
X27002060Y-17031128D01*
X27002060Y-17031128D02*
X27002060Y-17173985D01*
X27002060Y-17173985D02*
X27049679Y-17364461D01*
X27049679Y-17364461D02*
X27097298Y-17459699D01*
X27097298Y-17459699D02*
X27192536Y-17554938D01*
X27192536Y-17554938D02*
X27335393Y-17602557D01*
X27335393Y-17602557D02*
X27430631Y-17602557D01*
X27430631Y-17602557D02*
X27573488Y-17554938D01*
X27573488Y-17554938D02*
X27621107Y-17507318D01*
X27621107Y-17507318D02*
X27621107Y-17173985D01*
X27621107Y-17173985D02*
X27430631Y-17173985D01*
X28192536Y-17602557D02*
X28097298Y-17554938D01*
X28097298Y-17554938D02*
X28049679Y-17507318D01*
X28049679Y-17507318D02*
X28002060Y-17412080D01*
X28002060Y-17412080D02*
X28002060Y-17126366D01*
X28002060Y-17126366D02*
X28049679Y-17031128D01*
X28049679Y-17031128D02*
X28097298Y-16983509D01*
X28097298Y-16983509D02*
X28192536Y-16935890D01*
X28192536Y-16935890D02*
X28335393Y-16935890D01*
X28335393Y-16935890D02*
X28430631Y-16983509D01*
X28430631Y-16983509D02*
X28478250Y-17031128D01*
X28478250Y-17031128D02*
X28525869Y-17126366D01*
X28525869Y-17126366D02*
X28525869Y-17412080D01*
X28525869Y-17412080D02*
X28478250Y-17507318D01*
X28478250Y-17507318D02*
X28430631Y-17554938D01*
X28430631Y-17554938D02*
X28335393Y-17602557D01*
X28335393Y-17602557D02*
X28192536Y-17602557D01*
X29097298Y-17602557D02*
X29002060Y-17554938D01*
X29002060Y-17554938D02*
X28954441Y-17459699D01*
X28954441Y-17459699D02*
X28954441Y-16602557D01*
X29906822Y-17602557D02*
X29906822Y-16602557D01*
X29906822Y-17554938D02*
X29811584Y-17602557D01*
X29811584Y-17602557D02*
X29621108Y-17602557D01*
X29621108Y-17602557D02*
X29525870Y-17554938D01*
X29525870Y-17554938D02*
X29478251Y-17507318D01*
X29478251Y-17507318D02*
X29430632Y-17412080D01*
X29430632Y-17412080D02*
X29430632Y-17126366D01*
X29430632Y-17126366D02*
X29478251Y-17031128D01*
X29478251Y-17031128D02*
X29525870Y-16983509D01*
X29525870Y-16983509D02*
X29621108Y-16935890D01*
X29621108Y-16935890D02*
X29811584Y-16935890D01*
X29811584Y-16935890D02*
X29906822Y-16983509D01*
X30763965Y-17554938D02*
X30668727Y-17602557D01*
X30668727Y-17602557D02*
X30478251Y-17602557D01*
X30478251Y-17602557D02*
X30383013Y-17554938D01*
X30383013Y-17554938D02*
X30335394Y-17459699D01*
X30335394Y-17459699D02*
X30335394Y-17078747D01*
X30335394Y-17078747D02*
X30383013Y-16983509D01*
X30383013Y-16983509D02*
X30478251Y-16935890D01*
X30478251Y-16935890D02*
X30668727Y-16935890D01*
X30668727Y-16935890D02*
X30763965Y-16983509D01*
X30763965Y-16983509D02*
X30811584Y-17078747D01*
X30811584Y-17078747D02*
X30811584Y-17173985D01*
X30811584Y-17173985D02*
X30335394Y-17269223D01*
X31240156Y-16935890D02*
X31240156Y-17602557D01*
X31240156Y-17031128D02*
X31287775Y-16983509D01*
X31287775Y-16983509D02*
X31383013Y-16935890D01*
X31383013Y-16935890D02*
X31525870Y-16935890D01*
X31525870Y-16935890D02*
X31621108Y-16983509D01*
X31621108Y-16983509D02*
X31668727Y-17078747D01*
X31668727Y-17078747D02*
X31668727Y-17602557D01*
X32763966Y-16935890D02*
X33144918Y-16935890D01*
X32906823Y-17602557D02*
X32906823Y-16745414D01*
X32906823Y-16745414D02*
X32954442Y-16650176D01*
X32954442Y-16650176D02*
X33049680Y-16602557D01*
X33049680Y-16602557D02*
X33144918Y-16602557D01*
X33478252Y-17602557D02*
X33478252Y-16935890D01*
X33478252Y-16602557D02*
X33430633Y-16650176D01*
X33430633Y-16650176D02*
X33478252Y-16697795D01*
X33478252Y-16697795D02*
X33525871Y-16650176D01*
X33525871Y-16650176D02*
X33478252Y-16602557D01*
X33478252Y-16602557D02*
X33478252Y-16697795D01*
X33954442Y-16935890D02*
X33954442Y-17602557D01*
X33954442Y-17031128D02*
X34002061Y-16983509D01*
X34002061Y-16983509D02*
X34097299Y-16935890D01*
X34097299Y-16935890D02*
X34240156Y-16935890D01*
X34240156Y-16935890D02*
X34335394Y-16983509D01*
X34335394Y-16983509D02*
X34383013Y-17078747D01*
X34383013Y-17078747D02*
X34383013Y-17602557D01*
X35287775Y-16935890D02*
X35287775Y-17745414D01*
X35287775Y-17745414D02*
X35240156Y-17840652D01*
X35240156Y-17840652D02*
X35192537Y-17888271D01*
X35192537Y-17888271D02*
X35097299Y-17935890D01*
X35097299Y-17935890D02*
X34954442Y-17935890D01*
X34954442Y-17935890D02*
X34859204Y-17888271D01*
X35287775Y-17554938D02*
X35192537Y-17602557D01*
X35192537Y-17602557D02*
X35002061Y-17602557D01*
X35002061Y-17602557D02*
X34906823Y-17554938D01*
X34906823Y-17554938D02*
X34859204Y-17507318D01*
X34859204Y-17507318D02*
X34811585Y-17412080D01*
X34811585Y-17412080D02*
X34811585Y-17126366D01*
X34811585Y-17126366D02*
X34859204Y-17031128D01*
X34859204Y-17031128D02*
X34906823Y-16983509D01*
X34906823Y-16983509D02*
X35002061Y-16935890D01*
X35002061Y-16935890D02*
X35192537Y-16935890D01*
X35192537Y-16935890D02*
X35287775Y-16983509D01*
X36144918Y-17554938D02*
X36049680Y-17602557D01*
X36049680Y-17602557D02*
X35859204Y-17602557D01*
X35859204Y-17602557D02*
X35763966Y-17554938D01*
X35763966Y-17554938D02*
X35716347Y-17459699D01*
X35716347Y-17459699D02*
X35716347Y-17078747D01*
X35716347Y-17078747D02*
X35763966Y-16983509D01*
X35763966Y-16983509D02*
X35859204Y-16935890D01*
X35859204Y-16935890D02*
X36049680Y-16935890D01*
X36049680Y-16935890D02*
X36144918Y-16983509D01*
X36144918Y-16983509D02*
X36192537Y-17078747D01*
X36192537Y-17078747D02*
X36192537Y-17173985D01*
X36192537Y-17173985D02*
X35716347Y-17269223D01*
X36621109Y-17602557D02*
X36621109Y-16935890D01*
X36621109Y-17126366D02*
X36668728Y-17031128D01*
X36668728Y-17031128D02*
X36716347Y-16983509D01*
X36716347Y-16983509D02*
X36811585Y-16935890D01*
X36811585Y-16935890D02*
X36906823Y-16935890D01*
X38002062Y-17602557D02*
X38002062Y-16602557D01*
X38002062Y-16602557D02*
X38383014Y-16602557D01*
X38383014Y-16602557D02*
X38478252Y-16650176D01*
X38478252Y-16650176D02*
X38525871Y-16697795D01*
X38525871Y-16697795D02*
X38573490Y-16793033D01*
X38573490Y-16793033D02*
X38573490Y-16935890D01*
X38573490Y-16935890D02*
X38525871Y-17031128D01*
X38525871Y-17031128D02*
X38478252Y-17078747D01*
X38478252Y-17078747D02*
X38383014Y-17126366D01*
X38383014Y-17126366D02*
X38002062Y-17126366D01*
X39002062Y-17602557D02*
X39002062Y-16602557D01*
X40192538Y-17554938D02*
X40335395Y-17602557D01*
X40335395Y-17602557D02*
X40573490Y-17602557D01*
X40573490Y-17602557D02*
X40668728Y-17554938D01*
X40668728Y-17554938D02*
X40716347Y-17507318D01*
X40716347Y-17507318D02*
X40763966Y-17412080D01*
X40763966Y-17412080D02*
X40763966Y-17316842D01*
X40763966Y-17316842D02*
X40716347Y-17221604D01*
X40716347Y-17221604D02*
X40668728Y-17173985D01*
X40668728Y-17173985D02*
X40573490Y-17126366D01*
X40573490Y-17126366D02*
X40383014Y-17078747D01*
X40383014Y-17078747D02*
X40287776Y-17031128D01*
X40287776Y-17031128D02*
X40240157Y-16983509D01*
X40240157Y-16983509D02*
X40192538Y-16888271D01*
X40192538Y-16888271D02*
X40192538Y-16793033D01*
X40192538Y-16793033D02*
X40240157Y-16697795D01*
X40240157Y-16697795D02*
X40287776Y-16650176D01*
X40287776Y-16650176D02*
X40383014Y-16602557D01*
X40383014Y-16602557D02*
X40621109Y-16602557D01*
X40621109Y-16602557D02*
X40763966Y-16650176D01*
X41049681Y-16602557D02*
X41621109Y-16602557D01*
X41335395Y-17602557D02*
X41335395Y-16602557D01*
X41954443Y-17602557D02*
X41954443Y-16602557D01*
X42763966Y-17078747D02*
X42430633Y-17078747D01*
X42430633Y-17602557D02*
X42430633Y-16602557D01*
X42430633Y-16602557D02*
X42906823Y-16602557D01*
X43621109Y-17078747D02*
X43287776Y-17078747D01*
X43287776Y-17602557D02*
X43287776Y-16602557D01*
X43287776Y-16602557D02*
X43763966Y-16602557D01*
X44144919Y-17078747D02*
X44478252Y-17078747D01*
X44621109Y-17602557D02*
X44144919Y-17602557D01*
X44144919Y-17602557D02*
X44144919Y-16602557D01*
X44144919Y-16602557D02*
X44621109Y-16602557D01*
X45049681Y-17602557D02*
X45049681Y-16602557D01*
X45049681Y-16602557D02*
X45621109Y-17602557D01*
X45621109Y-17602557D02*
X45621109Y-16602557D01*
X46097300Y-17078747D02*
X46430633Y-17078747D01*
X46573490Y-17602557D02*
X46097300Y-17602557D01*
X46097300Y-17602557D02*
X46097300Y-16602557D01*
X46097300Y-16602557D02*
X46573490Y-16602557D01*
X47573490Y-17602557D02*
X47240157Y-17126366D01*
X47002062Y-17602557D02*
X47002062Y-16602557D01*
X47002062Y-16602557D02*
X47383014Y-16602557D01*
X47383014Y-16602557D02*
X47478252Y-16650176D01*
X47478252Y-16650176D02*
X47525871Y-16697795D01*
X47525871Y-16697795D02*
X47573490Y-16793033D01*
X47573490Y-16793033D02*
X47573490Y-16935890D01*
X47573490Y-16935890D02*
X47525871Y-17031128D01*
X47525871Y-17031128D02*
X47478252Y-17078747D01*
X47478252Y-17078747D02*
X47383014Y-17126366D01*
X47383014Y-17126366D02*
X47002062Y-17126366D01*
X27002060Y-20774826D02*
X27144917Y-20822445D01*
X27144917Y-20822445D02*
X27383012Y-20822445D01*
X27383012Y-20822445D02*
X27478250Y-20774826D01*
X27478250Y-20774826D02*
X27525869Y-20727206D01*
X27525869Y-20727206D02*
X27573488Y-20631968D01*
X27573488Y-20631968D02*
X27573488Y-20536730D01*
X27573488Y-20536730D02*
X27525869Y-20441492D01*
X27525869Y-20441492D02*
X27478250Y-20393873D01*
X27478250Y-20393873D02*
X27383012Y-20346254D01*
X27383012Y-20346254D02*
X27192536Y-20298635D01*
X27192536Y-20298635D02*
X27097298Y-20251016D01*
X27097298Y-20251016D02*
X27049679Y-20203397D01*
X27049679Y-20203397D02*
X27002060Y-20108159D01*
X27002060Y-20108159D02*
X27002060Y-20012921D01*
X27002060Y-20012921D02*
X27049679Y-19917683D01*
X27049679Y-19917683D02*
X27097298Y-19870064D01*
X27097298Y-19870064D02*
X27192536Y-19822445D01*
X27192536Y-19822445D02*
X27430631Y-19822445D01*
X27430631Y-19822445D02*
X27573488Y-19870064D01*
X28002060Y-20822445D02*
X28002060Y-19822445D01*
X28383012Y-19822445D02*
X29049678Y-19822445D01*
X29049678Y-19822445D02*
X28383012Y-20822445D01*
X28383012Y-20822445D02*
X29049678Y-20822445D01*
X29430631Y-20298635D02*
X29763964Y-20298635D01*
X29906821Y-20822445D02*
X29430631Y-20822445D01*
X29430631Y-20822445D02*
X29430631Y-19822445D01*
X29430631Y-19822445D02*
X29906821Y-19822445D01*
X30335393Y-20727206D02*
X30383012Y-20774826D01*
X30383012Y-20774826D02*
X30335393Y-20822445D01*
X30335393Y-20822445D02*
X30287774Y-20774826D01*
X30287774Y-20774826D02*
X30335393Y-20727206D01*
X30335393Y-20727206D02*
X30335393Y-20822445D01*
X30335393Y-20203397D02*
X30383012Y-20251016D01*
X30383012Y-20251016D02*
X30335393Y-20298635D01*
X30335393Y-20298635D02*
X30287774Y-20251016D01*
X30287774Y-20251016D02*
X30335393Y-20203397D01*
X30335393Y-20203397D02*
X30335393Y-20298635D01*
X32097297Y-20822445D02*
X31525869Y-20822445D01*
X31811583Y-20822445D02*
X31811583Y-19822445D01*
X31811583Y-19822445D02*
X31716345Y-19965302D01*
X31716345Y-19965302D02*
X31621107Y-20060540D01*
X31621107Y-20060540D02*
X31525869Y-20108159D01*
X33049678Y-20822445D02*
X32478250Y-20822445D01*
X32763964Y-20822445D02*
X32763964Y-19822445D01*
X32763964Y-19822445D02*
X32668726Y-19965302D01*
X32668726Y-19965302D02*
X32573488Y-20060540D01*
X32573488Y-20060540D02*
X32478250Y-20108159D01*
X33478250Y-20727206D02*
X33525869Y-20774826D01*
X33525869Y-20774826D02*
X33478250Y-20822445D01*
X33478250Y-20822445D02*
X33430631Y-20774826D01*
X33430631Y-20774826D02*
X33478250Y-20727206D01*
X33478250Y-20727206D02*
X33478250Y-20822445D01*
X34002059Y-20822445D02*
X34192535Y-20822445D01*
X34192535Y-20822445D02*
X34287773Y-20774826D01*
X34287773Y-20774826D02*
X34335392Y-20727206D01*
X34335392Y-20727206D02*
X34430630Y-20584349D01*
X34430630Y-20584349D02*
X34478249Y-20393873D01*
X34478249Y-20393873D02*
X34478249Y-20012921D01*
X34478249Y-20012921D02*
X34430630Y-19917683D01*
X34430630Y-19917683D02*
X34383011Y-19870064D01*
X34383011Y-19870064D02*
X34287773Y-19822445D01*
X34287773Y-19822445D02*
X34097297Y-19822445D01*
X34097297Y-19822445D02*
X34002059Y-19870064D01*
X34002059Y-19870064D02*
X33954440Y-19917683D01*
X33954440Y-19917683D02*
X33906821Y-20012921D01*
X33906821Y-20012921D02*
X33906821Y-20251016D01*
X33906821Y-20251016D02*
X33954440Y-20346254D01*
X33954440Y-20346254D02*
X34002059Y-20393873D01*
X34002059Y-20393873D02*
X34097297Y-20441492D01*
X34097297Y-20441492D02*
X34287773Y-20441492D01*
X34287773Y-20441492D02*
X34383011Y-20393873D01*
X34383011Y-20393873D02*
X34430630Y-20346254D01*
X34430630Y-20346254D02*
X34478249Y-20251016D01*
X35811583Y-19822445D02*
X35811583Y-20060540D01*
X35573488Y-19965302D02*
X35811583Y-20060540D01*
X35811583Y-20060540D02*
X36049678Y-19965302D01*
X35668726Y-20251016D02*
X35811583Y-20060540D01*
X35811583Y-20060540D02*
X35954440Y-20251016D01*
X37621107Y-19822445D02*
X37430631Y-19822445D01*
X37430631Y-19822445D02*
X37335393Y-19870064D01*
X37335393Y-19870064D02*
X37287774Y-19917683D01*
X37287774Y-19917683D02*
X37192536Y-20060540D01*
X37192536Y-20060540D02*
X37144917Y-20251016D01*
X37144917Y-20251016D02*
X37144917Y-20631968D01*
X37144917Y-20631968D02*
X37192536Y-20727206D01*
X37192536Y-20727206D02*
X37240155Y-20774826D01*
X37240155Y-20774826D02*
X37335393Y-20822445D01*
X37335393Y-20822445D02*
X37525869Y-20822445D01*
X37525869Y-20822445D02*
X37621107Y-20774826D01*
X37621107Y-20774826D02*
X37668726Y-20727206D01*
X37668726Y-20727206D02*
X37716345Y-20631968D01*
X37716345Y-20631968D02*
X37716345Y-20393873D01*
X37716345Y-20393873D02*
X37668726Y-20298635D01*
X37668726Y-20298635D02*
X37621107Y-20251016D01*
X37621107Y-20251016D02*
X37525869Y-20203397D01*
X37525869Y-20203397D02*
X37335393Y-20203397D01*
X37335393Y-20203397D02*
X37240155Y-20251016D01*
X37240155Y-20251016D02*
X37192536Y-20298635D01*
X37192536Y-20298635D02*
X37144917Y-20393873D01*
X38144917Y-20727206D02*
X38192536Y-20774826D01*
X38192536Y-20774826D02*
X38144917Y-20822445D01*
X38144917Y-20822445D02*
X38097298Y-20774826D01*
X38097298Y-20774826D02*
X38144917Y-20727206D01*
X38144917Y-20727206D02*
X38144917Y-20822445D01*
X39049678Y-20155778D02*
X39049678Y-20822445D01*
X38811583Y-19774826D02*
X38573488Y-20489111D01*
X38573488Y-20489111D02*
X39192535Y-20489111D01*
X40335393Y-20822445D02*
X40335393Y-20155778D01*
X40335393Y-20251016D02*
X40383012Y-20203397D01*
X40383012Y-20203397D02*
X40478250Y-20155778D01*
X40478250Y-20155778D02*
X40621107Y-20155778D01*
X40621107Y-20155778D02*
X40716345Y-20203397D01*
X40716345Y-20203397D02*
X40763964Y-20298635D01*
X40763964Y-20298635D02*
X40763964Y-20822445D01*
X40763964Y-20298635D02*
X40811583Y-20203397D01*
X40811583Y-20203397D02*
X40906821Y-20155778D01*
X40906821Y-20155778D02*
X41049678Y-20155778D01*
X41049678Y-20155778D02*
X41144917Y-20203397D01*
X41144917Y-20203397D02*
X41192536Y-20298635D01*
X41192536Y-20298635D02*
X41192536Y-20822445D01*
X41668726Y-20822445D02*
X41668726Y-20155778D01*
X41668726Y-20251016D02*
X41716345Y-20203397D01*
X41716345Y-20203397D02*
X41811583Y-20155778D01*
X41811583Y-20155778D02*
X41954440Y-20155778D01*
X41954440Y-20155778D02*
X42049678Y-20203397D01*
X42049678Y-20203397D02*
X42097297Y-20298635D01*
X42097297Y-20298635D02*
X42097297Y-20822445D01*
X42097297Y-20298635D02*
X42144916Y-20203397D01*
X42144916Y-20203397D02*
X42240154Y-20155778D01*
X42240154Y-20155778D02*
X42383011Y-20155778D01*
X42383011Y-20155778D02*
X42478250Y-20203397D01*
X42478250Y-20203397D02*
X42525869Y-20298635D01*
X42525869Y-20298635D02*
X42525869Y-20822445D01*
X27049679Y-22432389D02*
X27049679Y-21432389D01*
X27049679Y-21432389D02*
X27430631Y-21432389D01*
X27430631Y-21432389D02*
X27525869Y-21480008D01*
X27525869Y-21480008D02*
X27573488Y-21527627D01*
X27573488Y-21527627D02*
X27621107Y-21622865D01*
X27621107Y-21622865D02*
X27621107Y-21765722D01*
X27621107Y-21765722D02*
X27573488Y-21860960D01*
X27573488Y-21860960D02*
X27525869Y-21908579D01*
X27525869Y-21908579D02*
X27430631Y-21956198D01*
X27430631Y-21956198D02*
X27049679Y-21956198D01*
X28049679Y-22432389D02*
X28049679Y-21432389D01*
X29240155Y-22384770D02*
X29335393Y-22432389D01*
X29335393Y-22432389D02*
X29525869Y-22432389D01*
X29525869Y-22432389D02*
X29621107Y-22384770D01*
X29621107Y-22384770D02*
X29668726Y-22289531D01*
X29668726Y-22289531D02*
X29668726Y-22241912D01*
X29668726Y-22241912D02*
X29621107Y-22146674D01*
X29621107Y-22146674D02*
X29525869Y-22099055D01*
X29525869Y-22099055D02*
X29383012Y-22099055D01*
X29383012Y-22099055D02*
X29287774Y-22051436D01*
X29287774Y-22051436D02*
X29240155Y-21956198D01*
X29240155Y-21956198D02*
X29240155Y-21908579D01*
X29240155Y-21908579D02*
X29287774Y-21813341D01*
X29287774Y-21813341D02*
X29383012Y-21765722D01*
X29383012Y-21765722D02*
X29525869Y-21765722D01*
X29525869Y-21765722D02*
X29621107Y-21813341D01*
X29954441Y-21765722D02*
X30335393Y-21765722D01*
X30097298Y-21432389D02*
X30097298Y-22289531D01*
X30097298Y-22289531D02*
X30144917Y-22384770D01*
X30144917Y-22384770D02*
X30240155Y-22432389D01*
X30240155Y-22432389D02*
X30335393Y-22432389D01*
X30668727Y-22432389D02*
X30668727Y-21765722D01*
X30668727Y-21432389D02*
X30621108Y-21480008D01*
X30621108Y-21480008D02*
X30668727Y-21527627D01*
X30668727Y-21527627D02*
X30716346Y-21480008D01*
X30716346Y-21480008D02*
X30668727Y-21432389D01*
X30668727Y-21432389D02*
X30668727Y-21527627D01*
X31002060Y-21765722D02*
X31383012Y-21765722D01*
X31144917Y-22432389D02*
X31144917Y-21575246D01*
X31144917Y-21575246D02*
X31192536Y-21480008D01*
X31192536Y-21480008D02*
X31287774Y-21432389D01*
X31287774Y-21432389D02*
X31383012Y-21432389D01*
X31573489Y-21765722D02*
X31954441Y-21765722D01*
X31716346Y-22432389D02*
X31716346Y-21575246D01*
X31716346Y-21575246D02*
X31763965Y-21480008D01*
X31763965Y-21480008D02*
X31859203Y-21432389D01*
X31859203Y-21432389D02*
X31954441Y-21432389D01*
X32668727Y-22384770D02*
X32573489Y-22432389D01*
X32573489Y-22432389D02*
X32383013Y-22432389D01*
X32383013Y-22432389D02*
X32287775Y-22384770D01*
X32287775Y-22384770D02*
X32240156Y-22289531D01*
X32240156Y-22289531D02*
X32240156Y-21908579D01*
X32240156Y-21908579D02*
X32287775Y-21813341D01*
X32287775Y-21813341D02*
X32383013Y-21765722D01*
X32383013Y-21765722D02*
X32573489Y-21765722D01*
X32573489Y-21765722D02*
X32668727Y-21813341D01*
X32668727Y-21813341D02*
X32716346Y-21908579D01*
X32716346Y-21908579D02*
X32716346Y-22003817D01*
X32716346Y-22003817D02*
X32240156Y-22099055D01*
X33144918Y-21765722D02*
X33144918Y-22432389D01*
X33144918Y-21860960D02*
X33192537Y-21813341D01*
X33192537Y-21813341D02*
X33287775Y-21765722D01*
X33287775Y-21765722D02*
X33430632Y-21765722D01*
X33430632Y-21765722D02*
X33525870Y-21813341D01*
X33525870Y-21813341D02*
X33573489Y-21908579D01*
X33573489Y-21908579D02*
X33573489Y-22432389D01*
X34430632Y-22384770D02*
X34335394Y-22432389D01*
X34335394Y-22432389D02*
X34144918Y-22432389D01*
X34144918Y-22432389D02*
X34049680Y-22384770D01*
X34049680Y-22384770D02*
X34002061Y-22289531D01*
X34002061Y-22289531D02*
X34002061Y-21908579D01*
X34002061Y-21908579D02*
X34049680Y-21813341D01*
X34049680Y-21813341D02*
X34144918Y-21765722D01*
X34144918Y-21765722D02*
X34335394Y-21765722D01*
X34335394Y-21765722D02*
X34430632Y-21813341D01*
X34430632Y-21813341D02*
X34478251Y-21908579D01*
X34478251Y-21908579D02*
X34478251Y-22003817D01*
X34478251Y-22003817D02*
X34002061Y-22099055D01*
X34906823Y-22432389D02*
X34906823Y-21765722D01*
X34906823Y-21956198D02*
X34954442Y-21860960D01*
X34954442Y-21860960D02*
X35002061Y-21813341D01*
X35002061Y-21813341D02*
X35097299Y-21765722D01*
X35097299Y-21765722D02*
X35192537Y-21765722D01*
X36144919Y-21765722D02*
X36525871Y-21765722D01*
X36287776Y-21432389D02*
X36287776Y-22289531D01*
X36287776Y-22289531D02*
X36335395Y-22384770D01*
X36335395Y-22384770D02*
X36430633Y-22432389D01*
X36430633Y-22432389D02*
X36525871Y-22432389D01*
X36859205Y-22432389D02*
X36859205Y-21432389D01*
X37287776Y-22432389D02*
X37287776Y-21908579D01*
X37287776Y-21908579D02*
X37240157Y-21813341D01*
X37240157Y-21813341D02*
X37144919Y-21765722D01*
X37144919Y-21765722D02*
X37002062Y-21765722D01*
X37002062Y-21765722D02*
X36906824Y-21813341D01*
X36906824Y-21813341D02*
X36859205Y-21860960D01*
X38144919Y-22384770D02*
X38049681Y-22432389D01*
X38049681Y-22432389D02*
X37859205Y-22432389D01*
X37859205Y-22432389D02*
X37763967Y-22384770D01*
X37763967Y-22384770D02*
X37716348Y-22289531D01*
X37716348Y-22289531D02*
X37716348Y-21908579D01*
X37716348Y-21908579D02*
X37763967Y-21813341D01*
X37763967Y-21813341D02*
X37859205Y-21765722D01*
X37859205Y-21765722D02*
X38049681Y-21765722D01*
X38049681Y-21765722D02*
X38144919Y-21813341D01*
X38144919Y-21813341D02*
X38192538Y-21908579D01*
X38192538Y-21908579D02*
X38192538Y-22003817D01*
X38192538Y-22003817D02*
X37716348Y-22099055D01*
X38763967Y-22432389D02*
X38668729Y-22384770D01*
X38668729Y-22384770D02*
X38621110Y-22337150D01*
X38621110Y-22337150D02*
X38573491Y-22241912D01*
X38573491Y-22241912D02*
X38573491Y-21956198D01*
X38573491Y-21956198D02*
X38621110Y-21860960D01*
X38621110Y-21860960D02*
X38668729Y-21813341D01*
X38668729Y-21813341D02*
X38763967Y-21765722D01*
X38763967Y-21765722D02*
X38906824Y-21765722D01*
X38906824Y-21765722D02*
X39002062Y-21813341D01*
X39002062Y-21813341D02*
X39049681Y-21860960D01*
X39049681Y-21860960D02*
X39097300Y-21956198D01*
X39097300Y-21956198D02*
X39097300Y-22241912D01*
X39097300Y-22241912D02*
X39049681Y-22337150D01*
X39049681Y-22337150D02*
X39002062Y-22384770D01*
X39002062Y-22384770D02*
X38906824Y-22432389D01*
X38906824Y-22432389D02*
X38763967Y-22432389D01*
X39525872Y-22432389D02*
X39525872Y-21765722D01*
X39525872Y-21956198D02*
X39573491Y-21860960D01*
X39573491Y-21860960D02*
X39621110Y-21813341D01*
X39621110Y-21813341D02*
X39716348Y-21765722D01*
X39716348Y-21765722D02*
X39811586Y-21765722D01*
X40525872Y-22384770D02*
X40430634Y-22432389D01*
X40430634Y-22432389D02*
X40240158Y-22432389D01*
X40240158Y-22432389D02*
X40144920Y-22384770D01*
X40144920Y-22384770D02*
X40097301Y-22289531D01*
X40097301Y-22289531D02*
X40097301Y-21908579D01*
X40097301Y-21908579D02*
X40144920Y-21813341D01*
X40144920Y-21813341D02*
X40240158Y-21765722D01*
X40240158Y-21765722D02*
X40430634Y-21765722D01*
X40430634Y-21765722D02*
X40525872Y-21813341D01*
X40525872Y-21813341D02*
X40573491Y-21908579D01*
X40573491Y-21908579D02*
X40573491Y-22003817D01*
X40573491Y-22003817D02*
X40097301Y-22099055D01*
X40859206Y-21765722D02*
X41240158Y-21765722D01*
X41002063Y-21432389D02*
X41002063Y-22289531D01*
X41002063Y-22289531D02*
X41049682Y-22384770D01*
X41049682Y-22384770D02*
X41144920Y-22432389D01*
X41144920Y-22432389D02*
X41240158Y-22432389D01*
X41573492Y-22432389D02*
X41573492Y-21765722D01*
X41573492Y-21432389D02*
X41525873Y-21480008D01*
X41525873Y-21480008D02*
X41573492Y-21527627D01*
X41573492Y-21527627D02*
X41621111Y-21480008D01*
X41621111Y-21480008D02*
X41573492Y-21432389D01*
X41573492Y-21432389D02*
X41573492Y-21527627D01*
X42478253Y-22384770D02*
X42383015Y-22432389D01*
X42383015Y-22432389D02*
X42192539Y-22432389D01*
X42192539Y-22432389D02*
X42097301Y-22384770D01*
X42097301Y-22384770D02*
X42049682Y-22337150D01*
X42049682Y-22337150D02*
X42002063Y-22241912D01*
X42002063Y-22241912D02*
X42002063Y-21956198D01*
X42002063Y-21956198D02*
X42049682Y-21860960D01*
X42049682Y-21860960D02*
X42097301Y-21813341D01*
X42097301Y-21813341D02*
X42192539Y-21765722D01*
X42192539Y-21765722D02*
X42383015Y-21765722D01*
X42383015Y-21765722D02*
X42478253Y-21813341D01*
X43335396Y-22432389D02*
X43335396Y-21908579D01*
X43335396Y-21908579D02*
X43287777Y-21813341D01*
X43287777Y-21813341D02*
X43192539Y-21765722D01*
X43192539Y-21765722D02*
X43002063Y-21765722D01*
X43002063Y-21765722D02*
X42906825Y-21813341D01*
X43335396Y-22384770D02*
X43240158Y-22432389D01*
X43240158Y-22432389D02*
X43002063Y-22432389D01*
X43002063Y-22432389D02*
X42906825Y-22384770D01*
X42906825Y-22384770D02*
X42859206Y-22289531D01*
X42859206Y-22289531D02*
X42859206Y-22194293D01*
X42859206Y-22194293D02*
X42906825Y-22099055D01*
X42906825Y-22099055D02*
X43002063Y-22051436D01*
X43002063Y-22051436D02*
X43240158Y-22051436D01*
X43240158Y-22051436D02*
X43335396Y-22003817D01*
X43954444Y-22432389D02*
X43859206Y-22384770D01*
X43859206Y-22384770D02*
X43811587Y-22289531D01*
X43811587Y-22289531D02*
X43811587Y-21432389D01*
X44954445Y-21765722D02*
X45335397Y-21765722D01*
X45097302Y-21432389D02*
X45097302Y-22289531D01*
X45097302Y-22289531D02*
X45144921Y-22384770D01*
X45144921Y-22384770D02*
X45240159Y-22432389D01*
X45240159Y-22432389D02*
X45335397Y-22432389D01*
X45668731Y-22432389D02*
X45668731Y-21432389D01*
X46097302Y-22432389D02*
X46097302Y-21908579D01*
X46097302Y-21908579D02*
X46049683Y-21813341D01*
X46049683Y-21813341D02*
X45954445Y-21765722D01*
X45954445Y-21765722D02*
X45811588Y-21765722D01*
X45811588Y-21765722D02*
X45716350Y-21813341D01*
X45716350Y-21813341D02*
X45668731Y-21860960D01*
X46573493Y-22432389D02*
X46573493Y-21765722D01*
X46573493Y-21432389D02*
X46525874Y-21480008D01*
X46525874Y-21480008D02*
X46573493Y-21527627D01*
X46573493Y-21527627D02*
X46621112Y-21480008D01*
X46621112Y-21480008D02*
X46573493Y-21432389D01*
X46573493Y-21432389D02*
X46573493Y-21527627D01*
X47478254Y-22384770D02*
X47383016Y-22432389D01*
X47383016Y-22432389D02*
X47192540Y-22432389D01*
X47192540Y-22432389D02*
X47097302Y-22384770D01*
X47097302Y-22384770D02*
X47049683Y-22337150D01*
X47049683Y-22337150D02*
X47002064Y-22241912D01*
X47002064Y-22241912D02*
X47002064Y-21956198D01*
X47002064Y-21956198D02*
X47049683Y-21860960D01*
X47049683Y-21860960D02*
X47097302Y-21813341D01*
X47097302Y-21813341D02*
X47192540Y-21765722D01*
X47192540Y-21765722D02*
X47383016Y-21765722D01*
X47383016Y-21765722D02*
X47478254Y-21813341D01*
X47906826Y-22432389D02*
X47906826Y-21432389D01*
X48002064Y-22051436D02*
X48287778Y-22432389D01*
X48287778Y-21765722D02*
X47906826Y-22146674D01*
X48716350Y-21765722D02*
X48716350Y-22432389D01*
X48716350Y-21860960D02*
X48763969Y-21813341D01*
X48763969Y-21813341D02*
X48859207Y-21765722D01*
X48859207Y-21765722D02*
X49002064Y-21765722D01*
X49002064Y-21765722D02*
X49097302Y-21813341D01*
X49097302Y-21813341D02*
X49144921Y-21908579D01*
X49144921Y-21908579D02*
X49144921Y-22432389D01*
X50002064Y-22384770D02*
X49906826Y-22432389D01*
X49906826Y-22432389D02*
X49716350Y-22432389D01*
X49716350Y-22432389D02*
X49621112Y-22384770D01*
X49621112Y-22384770D02*
X49573493Y-22289531D01*
X49573493Y-22289531D02*
X49573493Y-21908579D01*
X49573493Y-21908579D02*
X49621112Y-21813341D01*
X49621112Y-21813341D02*
X49716350Y-21765722D01*
X49716350Y-21765722D02*
X49906826Y-21765722D01*
X49906826Y-21765722D02*
X50002064Y-21813341D01*
X50002064Y-21813341D02*
X50049683Y-21908579D01*
X50049683Y-21908579D02*
X50049683Y-22003817D01*
X50049683Y-22003817D02*
X49573493Y-22099055D01*
X50430636Y-22384770D02*
X50525874Y-22432389D01*
X50525874Y-22432389D02*
X50716350Y-22432389D01*
X50716350Y-22432389D02*
X50811588Y-22384770D01*
X50811588Y-22384770D02*
X50859207Y-22289531D01*
X50859207Y-22289531D02*
X50859207Y-22241912D01*
X50859207Y-22241912D02*
X50811588Y-22146674D01*
X50811588Y-22146674D02*
X50716350Y-22099055D01*
X50716350Y-22099055D02*
X50573493Y-22099055D01*
X50573493Y-22099055D02*
X50478255Y-22051436D01*
X50478255Y-22051436D02*
X50430636Y-21956198D01*
X50430636Y-21956198D02*
X50430636Y-21908579D01*
X50430636Y-21908579D02*
X50478255Y-21813341D01*
X50478255Y-21813341D02*
X50573493Y-21765722D01*
X50573493Y-21765722D02*
X50716350Y-21765722D01*
X50716350Y-21765722D02*
X50811588Y-21813341D01*
X51240160Y-22384770D02*
X51335398Y-22432389D01*
X51335398Y-22432389D02*
X51525874Y-22432389D01*
X51525874Y-22432389D02*
X51621112Y-22384770D01*
X51621112Y-22384770D02*
X51668731Y-22289531D01*
X51668731Y-22289531D02*
X51668731Y-22241912D01*
X51668731Y-22241912D02*
X51621112Y-22146674D01*
X51621112Y-22146674D02*
X51525874Y-22099055D01*
X51525874Y-22099055D02*
X51383017Y-22099055D01*
X51383017Y-22099055D02*
X51287779Y-22051436D01*
X51287779Y-22051436D02*
X51240160Y-21956198D01*
X51240160Y-21956198D02*
X51240160Y-21908579D01*
X51240160Y-21908579D02*
X51287779Y-21813341D01*
X51287779Y-21813341D02*
X51383017Y-21765722D01*
X51383017Y-21765722D02*
X51525874Y-21765722D01*
X51525874Y-21765722D02*
X51621112Y-21813341D01*
X52097303Y-22337150D02*
X52144922Y-22384770D01*
X52144922Y-22384770D02*
X52097303Y-22432389D01*
X52097303Y-22432389D02*
X52049684Y-22384770D01*
X52049684Y-22384770D02*
X52097303Y-22337150D01*
X52097303Y-22337150D02*
X52097303Y-22432389D01*
X52097303Y-21813341D02*
X52144922Y-21860960D01*
X52144922Y-21860960D02*
X52097303Y-21908579D01*
X52097303Y-21908579D02*
X52049684Y-21860960D01*
X52049684Y-21860960D02*
X52097303Y-21813341D01*
X52097303Y-21813341D02*
X52097303Y-21908579D01*
X53525874Y-21432389D02*
X53621112Y-21432389D01*
X53621112Y-21432389D02*
X53716350Y-21480008D01*
X53716350Y-21480008D02*
X53763969Y-21527627D01*
X53763969Y-21527627D02*
X53811588Y-21622865D01*
X53811588Y-21622865D02*
X53859207Y-21813341D01*
X53859207Y-21813341D02*
X53859207Y-22051436D01*
X53859207Y-22051436D02*
X53811588Y-22241912D01*
X53811588Y-22241912D02*
X53763969Y-22337150D01*
X53763969Y-22337150D02*
X53716350Y-22384770D01*
X53716350Y-22384770D02*
X53621112Y-22432389D01*
X53621112Y-22432389D02*
X53525874Y-22432389D01*
X53525874Y-22432389D02*
X53430636Y-22384770D01*
X53430636Y-22384770D02*
X53383017Y-22337150D01*
X53383017Y-22337150D02*
X53335398Y-22241912D01*
X53335398Y-22241912D02*
X53287779Y-22051436D01*
X53287779Y-22051436D02*
X53287779Y-21813341D01*
X53287779Y-21813341D02*
X53335398Y-21622865D01*
X53335398Y-21622865D02*
X53383017Y-21527627D01*
X53383017Y-21527627D02*
X53430636Y-21480008D01*
X53430636Y-21480008D02*
X53525874Y-21432389D01*
X54287779Y-22337150D02*
X54335398Y-22384770D01*
X54335398Y-22384770D02*
X54287779Y-22432389D01*
X54287779Y-22432389D02*
X54240160Y-22384770D01*
X54240160Y-22384770D02*
X54287779Y-22337150D01*
X54287779Y-22337150D02*
X54287779Y-22432389D01*
X55287778Y-22432389D02*
X54716350Y-22432389D01*
X55002064Y-22432389D02*
X55002064Y-21432389D01*
X55002064Y-21432389D02*
X54906826Y-21575246D01*
X54906826Y-21575246D02*
X54811588Y-21670484D01*
X54811588Y-21670484D02*
X54716350Y-21718103D01*
X55621112Y-21432389D02*
X56287778Y-21432389D01*
X56287778Y-21432389D02*
X55859207Y-22432389D01*
X56811588Y-21860960D02*
X56716350Y-21813341D01*
X56716350Y-21813341D02*
X56668731Y-21765722D01*
X56668731Y-21765722D02*
X56621112Y-21670484D01*
X56621112Y-21670484D02*
X56621112Y-21622865D01*
X56621112Y-21622865D02*
X56668731Y-21527627D01*
X56668731Y-21527627D02*
X56716350Y-21480008D01*
X56716350Y-21480008D02*
X56811588Y-21432389D01*
X56811588Y-21432389D02*
X57002064Y-21432389D01*
X57002064Y-21432389D02*
X57097302Y-21480008D01*
X57097302Y-21480008D02*
X57144921Y-21527627D01*
X57144921Y-21527627D02*
X57192540Y-21622865D01*
X57192540Y-21622865D02*
X57192540Y-21670484D01*
X57192540Y-21670484D02*
X57144921Y-21765722D01*
X57144921Y-21765722D02*
X57097302Y-21813341D01*
X57097302Y-21813341D02*
X57002064Y-21860960D01*
X57002064Y-21860960D02*
X56811588Y-21860960D01*
X56811588Y-21860960D02*
X56716350Y-21908579D01*
X56716350Y-21908579D02*
X56668731Y-21956198D01*
X56668731Y-21956198D02*
X56621112Y-22051436D01*
X56621112Y-22051436D02*
X56621112Y-22241912D01*
X56621112Y-22241912D02*
X56668731Y-22337150D01*
X56668731Y-22337150D02*
X56716350Y-22384770D01*
X56716350Y-22384770D02*
X56811588Y-22432389D01*
X56811588Y-22432389D02*
X57002064Y-22432389D01*
X57002064Y-22432389D02*
X57097302Y-22384770D01*
X57097302Y-22384770D02*
X57144921Y-22337150D01*
X57144921Y-22337150D02*
X57192540Y-22241912D01*
X57192540Y-22241912D02*
X57192540Y-22051436D01*
X57192540Y-22051436D02*
X57144921Y-21956198D01*
X57144921Y-21956198D02*
X57097302Y-21908579D01*
X57097302Y-21908579D02*
X57002064Y-21860960D01*
X58383017Y-22432389D02*
X58383017Y-21765722D01*
X58383017Y-21860960D02*
X58430636Y-21813341D01*
X58430636Y-21813341D02*
X58525874Y-21765722D01*
X58525874Y-21765722D02*
X58668731Y-21765722D01*
X58668731Y-21765722D02*
X58763969Y-21813341D01*
X58763969Y-21813341D02*
X58811588Y-21908579D01*
X58811588Y-21908579D02*
X58811588Y-22432389D01*
X58811588Y-21908579D02*
X58859207Y-21813341D01*
X58859207Y-21813341D02*
X58954445Y-21765722D01*
X58954445Y-21765722D02*
X59097302Y-21765722D01*
X59097302Y-21765722D02*
X59192541Y-21813341D01*
X59192541Y-21813341D02*
X59240160Y-21908579D01*
X59240160Y-21908579D02*
X59240160Y-22432389D01*
X59716350Y-22432389D02*
X59716350Y-21765722D01*
X59716350Y-21860960D02*
X59763969Y-21813341D01*
X59763969Y-21813341D02*
X59859207Y-21765722D01*
X59859207Y-21765722D02*
X60002064Y-21765722D01*
X60002064Y-21765722D02*
X60097302Y-21813341D01*
X60097302Y-21813341D02*
X60144921Y-21908579D01*
X60144921Y-21908579D02*
X60144921Y-22432389D01*
X60144921Y-21908579D02*
X60192540Y-21813341D01*
X60192540Y-21813341D02*
X60287778Y-21765722D01*
X60287778Y-21765722D02*
X60430635Y-21765722D01*
X60430635Y-21765722D02*
X60525874Y-21813341D01*
X60525874Y-21813341D02*
X60573493Y-21908579D01*
X60573493Y-21908579D02*
X60573493Y-22432389D01*
X27621107Y-24042333D02*
X27287774Y-23566142D01*
X27049679Y-24042333D02*
X27049679Y-23042333D01*
X27049679Y-23042333D02*
X27430631Y-23042333D01*
X27430631Y-23042333D02*
X27525869Y-23089952D01*
X27525869Y-23089952D02*
X27573488Y-23137571D01*
X27573488Y-23137571D02*
X27621107Y-23232809D01*
X27621107Y-23232809D02*
X27621107Y-23375666D01*
X27621107Y-23375666D02*
X27573488Y-23470904D01*
X27573488Y-23470904D02*
X27525869Y-23518523D01*
X27525869Y-23518523D02*
X27430631Y-23566142D01*
X27430631Y-23566142D02*
X27049679Y-23566142D01*
X28430631Y-23994714D02*
X28335393Y-24042333D01*
X28335393Y-24042333D02*
X28144917Y-24042333D01*
X28144917Y-24042333D02*
X28049679Y-23994714D01*
X28049679Y-23994714D02*
X28002060Y-23899475D01*
X28002060Y-23899475D02*
X28002060Y-23518523D01*
X28002060Y-23518523D02*
X28049679Y-23423285D01*
X28049679Y-23423285D02*
X28144917Y-23375666D01*
X28144917Y-23375666D02*
X28335393Y-23375666D01*
X28335393Y-23375666D02*
X28430631Y-23423285D01*
X28430631Y-23423285D02*
X28478250Y-23518523D01*
X28478250Y-23518523D02*
X28478250Y-23613761D01*
X28478250Y-23613761D02*
X28002060Y-23708999D01*
X29335393Y-23994714D02*
X29240155Y-24042333D01*
X29240155Y-24042333D02*
X29049679Y-24042333D01*
X29049679Y-24042333D02*
X28954441Y-23994714D01*
X28954441Y-23994714D02*
X28906822Y-23947094D01*
X28906822Y-23947094D02*
X28859203Y-23851856D01*
X28859203Y-23851856D02*
X28859203Y-23566142D01*
X28859203Y-23566142D02*
X28906822Y-23470904D01*
X28906822Y-23470904D02*
X28954441Y-23423285D01*
X28954441Y-23423285D02*
X29049679Y-23375666D01*
X29049679Y-23375666D02*
X29240155Y-23375666D01*
X29240155Y-23375666D02*
X29335393Y-23423285D01*
X29906822Y-24042333D02*
X29811584Y-23994714D01*
X29811584Y-23994714D02*
X29763965Y-23947094D01*
X29763965Y-23947094D02*
X29716346Y-23851856D01*
X29716346Y-23851856D02*
X29716346Y-23566142D01*
X29716346Y-23566142D02*
X29763965Y-23470904D01*
X29763965Y-23470904D02*
X29811584Y-23423285D01*
X29811584Y-23423285D02*
X29906822Y-23375666D01*
X29906822Y-23375666D02*
X30049679Y-23375666D01*
X30049679Y-23375666D02*
X30144917Y-23423285D01*
X30144917Y-23423285D02*
X30192536Y-23470904D01*
X30192536Y-23470904D02*
X30240155Y-23566142D01*
X30240155Y-23566142D02*
X30240155Y-23851856D01*
X30240155Y-23851856D02*
X30192536Y-23947094D01*
X30192536Y-23947094D02*
X30144917Y-23994714D01*
X30144917Y-23994714D02*
X30049679Y-24042333D01*
X30049679Y-24042333D02*
X29906822Y-24042333D01*
X30668727Y-24042333D02*
X30668727Y-23375666D01*
X30668727Y-23470904D02*
X30716346Y-23423285D01*
X30716346Y-23423285D02*
X30811584Y-23375666D01*
X30811584Y-23375666D02*
X30954441Y-23375666D01*
X30954441Y-23375666D02*
X31049679Y-23423285D01*
X31049679Y-23423285D02*
X31097298Y-23518523D01*
X31097298Y-23518523D02*
X31097298Y-24042333D01*
X31097298Y-23518523D02*
X31144917Y-23423285D01*
X31144917Y-23423285D02*
X31240155Y-23375666D01*
X31240155Y-23375666D02*
X31383012Y-23375666D01*
X31383012Y-23375666D02*
X31478251Y-23423285D01*
X31478251Y-23423285D02*
X31525870Y-23518523D01*
X31525870Y-23518523D02*
X31525870Y-24042333D01*
X32002060Y-24042333D02*
X32002060Y-23375666D01*
X32002060Y-23470904D02*
X32049679Y-23423285D01*
X32049679Y-23423285D02*
X32144917Y-23375666D01*
X32144917Y-23375666D02*
X32287774Y-23375666D01*
X32287774Y-23375666D02*
X32383012Y-23423285D01*
X32383012Y-23423285D02*
X32430631Y-23518523D01*
X32430631Y-23518523D02*
X32430631Y-24042333D01*
X32430631Y-23518523D02*
X32478250Y-23423285D01*
X32478250Y-23423285D02*
X32573488Y-23375666D01*
X32573488Y-23375666D02*
X32716345Y-23375666D01*
X32716345Y-23375666D02*
X32811584Y-23423285D01*
X32811584Y-23423285D02*
X32859203Y-23518523D01*
X32859203Y-23518523D02*
X32859203Y-24042333D01*
X33716345Y-23994714D02*
X33621107Y-24042333D01*
X33621107Y-24042333D02*
X33430631Y-24042333D01*
X33430631Y-24042333D02*
X33335393Y-23994714D01*
X33335393Y-23994714D02*
X33287774Y-23899475D01*
X33287774Y-23899475D02*
X33287774Y-23518523D01*
X33287774Y-23518523D02*
X33335393Y-23423285D01*
X33335393Y-23423285D02*
X33430631Y-23375666D01*
X33430631Y-23375666D02*
X33621107Y-23375666D01*
X33621107Y-23375666D02*
X33716345Y-23423285D01*
X33716345Y-23423285D02*
X33763964Y-23518523D01*
X33763964Y-23518523D02*
X33763964Y-23613761D01*
X33763964Y-23613761D02*
X33287774Y-23708999D01*
X34192536Y-23375666D02*
X34192536Y-24042333D01*
X34192536Y-23470904D02*
X34240155Y-23423285D01*
X34240155Y-23423285D02*
X34335393Y-23375666D01*
X34335393Y-23375666D02*
X34478250Y-23375666D01*
X34478250Y-23375666D02*
X34573488Y-23423285D01*
X34573488Y-23423285D02*
X34621107Y-23518523D01*
X34621107Y-23518523D02*
X34621107Y-24042333D01*
X35525869Y-24042333D02*
X35525869Y-23042333D01*
X35525869Y-23994714D02*
X35430631Y-24042333D01*
X35430631Y-24042333D02*
X35240155Y-24042333D01*
X35240155Y-24042333D02*
X35144917Y-23994714D01*
X35144917Y-23994714D02*
X35097298Y-23947094D01*
X35097298Y-23947094D02*
X35049679Y-23851856D01*
X35049679Y-23851856D02*
X35049679Y-23566142D01*
X35049679Y-23566142D02*
X35097298Y-23470904D01*
X35097298Y-23470904D02*
X35144917Y-23423285D01*
X35144917Y-23423285D02*
X35240155Y-23375666D01*
X35240155Y-23375666D02*
X35430631Y-23375666D01*
X35430631Y-23375666D02*
X35525869Y-23423285D01*
X36383012Y-23994714D02*
X36287774Y-24042333D01*
X36287774Y-24042333D02*
X36097298Y-24042333D01*
X36097298Y-24042333D02*
X36002060Y-23994714D01*
X36002060Y-23994714D02*
X35954441Y-23899475D01*
X35954441Y-23899475D02*
X35954441Y-23518523D01*
X35954441Y-23518523D02*
X36002060Y-23423285D01*
X36002060Y-23423285D02*
X36097298Y-23375666D01*
X36097298Y-23375666D02*
X36287774Y-23375666D01*
X36287774Y-23375666D02*
X36383012Y-23423285D01*
X36383012Y-23423285D02*
X36430631Y-23518523D01*
X36430631Y-23518523D02*
X36430631Y-23613761D01*
X36430631Y-23613761D02*
X35954441Y-23708999D01*
X37287774Y-24042333D02*
X37287774Y-23042333D01*
X37287774Y-23994714D02*
X37192536Y-24042333D01*
X37192536Y-24042333D02*
X37002060Y-24042333D01*
X37002060Y-24042333D02*
X36906822Y-23994714D01*
X36906822Y-23994714D02*
X36859203Y-23947094D01*
X36859203Y-23947094D02*
X36811584Y-23851856D01*
X36811584Y-23851856D02*
X36811584Y-23566142D01*
X36811584Y-23566142D02*
X36859203Y-23470904D01*
X36859203Y-23470904D02*
X36906822Y-23423285D01*
X36906822Y-23423285D02*
X37002060Y-23375666D01*
X37002060Y-23375666D02*
X37192536Y-23375666D01*
X37192536Y-23375666D02*
X37287774Y-23423285D01*
X38525870Y-24042333D02*
X38525870Y-23042333D01*
X38525870Y-23042333D02*
X38906822Y-23042333D01*
X38906822Y-23042333D02*
X39002060Y-23089952D01*
X39002060Y-23089952D02*
X39049679Y-23137571D01*
X39049679Y-23137571D02*
X39097298Y-23232809D01*
X39097298Y-23232809D02*
X39097298Y-23375666D01*
X39097298Y-23375666D02*
X39049679Y-23470904D01*
X39049679Y-23470904D02*
X39002060Y-23518523D01*
X39002060Y-23518523D02*
X38906822Y-23566142D01*
X38906822Y-23566142D02*
X38525870Y-23566142D01*
X39525870Y-24042333D02*
X39525870Y-23042333D01*
X40716346Y-23994714D02*
X40811584Y-24042333D01*
X40811584Y-24042333D02*
X41002060Y-24042333D01*
X41002060Y-24042333D02*
X41097298Y-23994714D01*
X41097298Y-23994714D02*
X41144917Y-23899475D01*
X41144917Y-23899475D02*
X41144917Y-23851856D01*
X41144917Y-23851856D02*
X41097298Y-23756618D01*
X41097298Y-23756618D02*
X41002060Y-23708999D01*
X41002060Y-23708999D02*
X40859203Y-23708999D01*
X40859203Y-23708999D02*
X40763965Y-23661380D01*
X40763965Y-23661380D02*
X40716346Y-23566142D01*
X40716346Y-23566142D02*
X40716346Y-23518523D01*
X40716346Y-23518523D02*
X40763965Y-23423285D01*
X40763965Y-23423285D02*
X40859203Y-23375666D01*
X40859203Y-23375666D02*
X41002060Y-23375666D01*
X41002060Y-23375666D02*
X41097298Y-23423285D01*
X41430632Y-23375666D02*
X41811584Y-23375666D01*
X41573489Y-23042333D02*
X41573489Y-23899475D01*
X41573489Y-23899475D02*
X41621108Y-23994714D01*
X41621108Y-23994714D02*
X41716346Y-24042333D01*
X41716346Y-24042333D02*
X41811584Y-24042333D01*
X42144918Y-24042333D02*
X42144918Y-23375666D01*
X42144918Y-23042333D02*
X42097299Y-23089952D01*
X42097299Y-23089952D02*
X42144918Y-23137571D01*
X42144918Y-23137571D02*
X42192537Y-23089952D01*
X42192537Y-23089952D02*
X42144918Y-23042333D01*
X42144918Y-23042333D02*
X42144918Y-23137571D01*
X42478251Y-23375666D02*
X42859203Y-23375666D01*
X42621108Y-24042333D02*
X42621108Y-23185190D01*
X42621108Y-23185190D02*
X42668727Y-23089952D01*
X42668727Y-23089952D02*
X42763965Y-23042333D01*
X42763965Y-23042333D02*
X42859203Y-23042333D01*
X43049680Y-23375666D02*
X43430632Y-23375666D01*
X43192537Y-24042333D02*
X43192537Y-23185190D01*
X43192537Y-23185190D02*
X43240156Y-23089952D01*
X43240156Y-23089952D02*
X43335394Y-23042333D01*
X43335394Y-23042333D02*
X43430632Y-23042333D01*
X44144918Y-23994714D02*
X44049680Y-24042333D01*
X44049680Y-24042333D02*
X43859204Y-24042333D01*
X43859204Y-24042333D02*
X43763966Y-23994714D01*
X43763966Y-23994714D02*
X43716347Y-23899475D01*
X43716347Y-23899475D02*
X43716347Y-23518523D01*
X43716347Y-23518523D02*
X43763966Y-23423285D01*
X43763966Y-23423285D02*
X43859204Y-23375666D01*
X43859204Y-23375666D02*
X44049680Y-23375666D01*
X44049680Y-23375666D02*
X44144918Y-23423285D01*
X44144918Y-23423285D02*
X44192537Y-23518523D01*
X44192537Y-23518523D02*
X44192537Y-23613761D01*
X44192537Y-23613761D02*
X43716347Y-23708999D01*
X44621109Y-23375666D02*
X44621109Y-24042333D01*
X44621109Y-23470904D02*
X44668728Y-23423285D01*
X44668728Y-23423285D02*
X44763966Y-23375666D01*
X44763966Y-23375666D02*
X44906823Y-23375666D01*
X44906823Y-23375666D02*
X45002061Y-23423285D01*
X45002061Y-23423285D02*
X45049680Y-23518523D01*
X45049680Y-23518523D02*
X45049680Y-24042333D01*
X45906823Y-23994714D02*
X45811585Y-24042333D01*
X45811585Y-24042333D02*
X45621109Y-24042333D01*
X45621109Y-24042333D02*
X45525871Y-23994714D01*
X45525871Y-23994714D02*
X45478252Y-23899475D01*
X45478252Y-23899475D02*
X45478252Y-23518523D01*
X45478252Y-23518523D02*
X45525871Y-23423285D01*
X45525871Y-23423285D02*
X45621109Y-23375666D01*
X45621109Y-23375666D02*
X45811585Y-23375666D01*
X45811585Y-23375666D02*
X45906823Y-23423285D01*
X45906823Y-23423285D02*
X45954442Y-23518523D01*
X45954442Y-23518523D02*
X45954442Y-23613761D01*
X45954442Y-23613761D02*
X45478252Y-23708999D01*
X46383014Y-24042333D02*
X46383014Y-23375666D01*
X46383014Y-23566142D02*
X46430633Y-23470904D01*
X46430633Y-23470904D02*
X46478252Y-23423285D01*
X46478252Y-23423285D02*
X46573490Y-23375666D01*
X46573490Y-23375666D02*
X46668728Y-23375666D01*
X47621110Y-23375666D02*
X48002062Y-23375666D01*
X47763967Y-23042333D02*
X47763967Y-23899475D01*
X47763967Y-23899475D02*
X47811586Y-23994714D01*
X47811586Y-23994714D02*
X47906824Y-24042333D01*
X47906824Y-24042333D02*
X48002062Y-24042333D01*
X48335396Y-24042333D02*
X48335396Y-23042333D01*
X48763967Y-24042333D02*
X48763967Y-23518523D01*
X48763967Y-23518523D02*
X48716348Y-23423285D01*
X48716348Y-23423285D02*
X48621110Y-23375666D01*
X48621110Y-23375666D02*
X48478253Y-23375666D01*
X48478253Y-23375666D02*
X48383015Y-23423285D01*
X48383015Y-23423285D02*
X48335396Y-23470904D01*
X49240158Y-24042333D02*
X49240158Y-23375666D01*
X49240158Y-23042333D02*
X49192539Y-23089952D01*
X49192539Y-23089952D02*
X49240158Y-23137571D01*
X49240158Y-23137571D02*
X49287777Y-23089952D01*
X49287777Y-23089952D02*
X49240158Y-23042333D01*
X49240158Y-23042333D02*
X49240158Y-23137571D01*
X50144919Y-23994714D02*
X50049681Y-24042333D01*
X50049681Y-24042333D02*
X49859205Y-24042333D01*
X49859205Y-24042333D02*
X49763967Y-23994714D01*
X49763967Y-23994714D02*
X49716348Y-23947094D01*
X49716348Y-23947094D02*
X49668729Y-23851856D01*
X49668729Y-23851856D02*
X49668729Y-23566142D01*
X49668729Y-23566142D02*
X49716348Y-23470904D01*
X49716348Y-23470904D02*
X49763967Y-23423285D01*
X49763967Y-23423285D02*
X49859205Y-23375666D01*
X49859205Y-23375666D02*
X50049681Y-23375666D01*
X50049681Y-23375666D02*
X50144919Y-23423285D01*
X50573491Y-24042333D02*
X50573491Y-23042333D01*
X50668729Y-23661380D02*
X50954443Y-24042333D01*
X50954443Y-23375666D02*
X50573491Y-23756618D01*
X51383015Y-23375666D02*
X51383015Y-24042333D01*
X51383015Y-23470904D02*
X51430634Y-23423285D01*
X51430634Y-23423285D02*
X51525872Y-23375666D01*
X51525872Y-23375666D02*
X51668729Y-23375666D01*
X51668729Y-23375666D02*
X51763967Y-23423285D01*
X51763967Y-23423285D02*
X51811586Y-23518523D01*
X51811586Y-23518523D02*
X51811586Y-24042333D01*
X52668729Y-23994714D02*
X52573491Y-24042333D01*
X52573491Y-24042333D02*
X52383015Y-24042333D01*
X52383015Y-24042333D02*
X52287777Y-23994714D01*
X52287777Y-23994714D02*
X52240158Y-23899475D01*
X52240158Y-23899475D02*
X52240158Y-23518523D01*
X52240158Y-23518523D02*
X52287777Y-23423285D01*
X52287777Y-23423285D02*
X52383015Y-23375666D01*
X52383015Y-23375666D02*
X52573491Y-23375666D01*
X52573491Y-23375666D02*
X52668729Y-23423285D01*
X52668729Y-23423285D02*
X52716348Y-23518523D01*
X52716348Y-23518523D02*
X52716348Y-23613761D01*
X52716348Y-23613761D02*
X52240158Y-23708999D01*
X53097301Y-23994714D02*
X53192539Y-24042333D01*
X53192539Y-24042333D02*
X53383015Y-24042333D01*
X53383015Y-24042333D02*
X53478253Y-23994714D01*
X53478253Y-23994714D02*
X53525872Y-23899475D01*
X53525872Y-23899475D02*
X53525872Y-23851856D01*
X53525872Y-23851856D02*
X53478253Y-23756618D01*
X53478253Y-23756618D02*
X53383015Y-23708999D01*
X53383015Y-23708999D02*
X53240158Y-23708999D01*
X53240158Y-23708999D02*
X53144920Y-23661380D01*
X53144920Y-23661380D02*
X53097301Y-23566142D01*
X53097301Y-23566142D02*
X53097301Y-23518523D01*
X53097301Y-23518523D02*
X53144920Y-23423285D01*
X53144920Y-23423285D02*
X53240158Y-23375666D01*
X53240158Y-23375666D02*
X53383015Y-23375666D01*
X53383015Y-23375666D02*
X53478253Y-23423285D01*
X53906825Y-23994714D02*
X54002063Y-24042333D01*
X54002063Y-24042333D02*
X54192539Y-24042333D01*
X54192539Y-24042333D02*
X54287777Y-23994714D01*
X54287777Y-23994714D02*
X54335396Y-23899475D01*
X54335396Y-23899475D02*
X54335396Y-23851856D01*
X54335396Y-23851856D02*
X54287777Y-23756618D01*
X54287777Y-23756618D02*
X54192539Y-23708999D01*
X54192539Y-23708999D02*
X54049682Y-23708999D01*
X54049682Y-23708999D02*
X53954444Y-23661380D01*
X53954444Y-23661380D02*
X53906825Y-23566142D01*
X53906825Y-23566142D02*
X53906825Y-23518523D01*
X53906825Y-23518523D02*
X53954444Y-23423285D01*
X53954444Y-23423285D02*
X54049682Y-23375666D01*
X54049682Y-23375666D02*
X54192539Y-23375666D01*
X54192539Y-23375666D02*
X54287777Y-23423285D01*
X54763968Y-23947094D02*
X54811587Y-23994714D01*
X54811587Y-23994714D02*
X54763968Y-24042333D01*
X54763968Y-24042333D02*
X54716349Y-23994714D01*
X54716349Y-23994714D02*
X54763968Y-23947094D01*
X54763968Y-23947094D02*
X54763968Y-24042333D01*
X54763968Y-23423285D02*
X54811587Y-23470904D01*
X54811587Y-23470904D02*
X54763968Y-23518523D01*
X54763968Y-23518523D02*
X54716349Y-23470904D01*
X54716349Y-23470904D02*
X54763968Y-23423285D01*
X54763968Y-23423285D02*
X54763968Y-23518523D01*
X56192539Y-23042333D02*
X56287777Y-23042333D01*
X56287777Y-23042333D02*
X56383015Y-23089952D01*
X56383015Y-23089952D02*
X56430634Y-23137571D01*
X56430634Y-23137571D02*
X56478253Y-23232809D01*
X56478253Y-23232809D02*
X56525872Y-23423285D01*
X56525872Y-23423285D02*
X56525872Y-23661380D01*
X56525872Y-23661380D02*
X56478253Y-23851856D01*
X56478253Y-23851856D02*
X56430634Y-23947094D01*
X56430634Y-23947094D02*
X56383015Y-23994714D01*
X56383015Y-23994714D02*
X56287777Y-24042333D01*
X56287777Y-24042333D02*
X56192539Y-24042333D01*
X56192539Y-24042333D02*
X56097301Y-23994714D01*
X56097301Y-23994714D02*
X56049682Y-23947094D01*
X56049682Y-23947094D02*
X56002063Y-23851856D01*
X56002063Y-23851856D02*
X55954444Y-23661380D01*
X55954444Y-23661380D02*
X55954444Y-23423285D01*
X55954444Y-23423285D02*
X56002063Y-23232809D01*
X56002063Y-23232809D02*
X56049682Y-23137571D01*
X56049682Y-23137571D02*
X56097301Y-23089952D01*
X56097301Y-23089952D02*
X56192539Y-23042333D01*
X56954444Y-23947094D02*
X57002063Y-23994714D01*
X57002063Y-23994714D02*
X56954444Y-24042333D01*
X56954444Y-24042333D02*
X56906825Y-23994714D01*
X56906825Y-23994714D02*
X56954444Y-23947094D01*
X56954444Y-23947094D02*
X56954444Y-24042333D01*
X57383015Y-23137571D02*
X57430634Y-23089952D01*
X57430634Y-23089952D02*
X57525872Y-23042333D01*
X57525872Y-23042333D02*
X57763967Y-23042333D01*
X57763967Y-23042333D02*
X57859205Y-23089952D01*
X57859205Y-23089952D02*
X57906824Y-23137571D01*
X57906824Y-23137571D02*
X57954443Y-23232809D01*
X57954443Y-23232809D02*
X57954443Y-23328047D01*
X57954443Y-23328047D02*
X57906824Y-23470904D01*
X57906824Y-23470904D02*
X57335396Y-24042333D01*
X57335396Y-24042333D02*
X57954443Y-24042333D01*
X59144920Y-24042333D02*
X59144920Y-23375666D01*
X59144920Y-23470904D02*
X59192539Y-23423285D01*
X59192539Y-23423285D02*
X59287777Y-23375666D01*
X59287777Y-23375666D02*
X59430634Y-23375666D01*
X59430634Y-23375666D02*
X59525872Y-23423285D01*
X59525872Y-23423285D02*
X59573491Y-23518523D01*
X59573491Y-23518523D02*
X59573491Y-24042333D01*
X59573491Y-23518523D02*
X59621110Y-23423285D01*
X59621110Y-23423285D02*
X59716348Y-23375666D01*
X59716348Y-23375666D02*
X59859205Y-23375666D01*
X59859205Y-23375666D02*
X59954444Y-23423285D01*
X59954444Y-23423285D02*
X60002063Y-23518523D01*
X60002063Y-23518523D02*
X60002063Y-24042333D01*
X60478253Y-24042333D02*
X60478253Y-23375666D01*
X60478253Y-23470904D02*
X60525872Y-23423285D01*
X60525872Y-23423285D02*
X60621110Y-23375666D01*
X60621110Y-23375666D02*
X60763967Y-23375666D01*
X60763967Y-23375666D02*
X60859205Y-23423285D01*
X60859205Y-23423285D02*
X60906824Y-23518523D01*
X60906824Y-23518523D02*
X60906824Y-24042333D01*
X60906824Y-23518523D02*
X60954443Y-23423285D01*
X60954443Y-23423285D02*
X61049681Y-23375666D01*
X61049681Y-23375666D02*
X61192538Y-23375666D01*
X61192538Y-23375666D02*
X61287777Y-23423285D01*
X61287777Y-23423285D02*
X61335396Y-23518523D01*
X61335396Y-23518523D02*
X61335396Y-24042333D01*
X27621107Y-25652277D02*
X27287774Y-25176086D01*
X27049679Y-25652277D02*
X27049679Y-24652277D01*
X27049679Y-24652277D02*
X27430631Y-24652277D01*
X27430631Y-24652277D02*
X27525869Y-24699896D01*
X27525869Y-24699896D02*
X27573488Y-24747515D01*
X27573488Y-24747515D02*
X27621107Y-24842753D01*
X27621107Y-24842753D02*
X27621107Y-24985610D01*
X27621107Y-24985610D02*
X27573488Y-25080848D01*
X27573488Y-25080848D02*
X27525869Y-25128467D01*
X27525869Y-25128467D02*
X27430631Y-25176086D01*
X27430631Y-25176086D02*
X27049679Y-25176086D01*
X28430631Y-25604658D02*
X28335393Y-25652277D01*
X28335393Y-25652277D02*
X28144917Y-25652277D01*
X28144917Y-25652277D02*
X28049679Y-25604658D01*
X28049679Y-25604658D02*
X28002060Y-25509419D01*
X28002060Y-25509419D02*
X28002060Y-25128467D01*
X28002060Y-25128467D02*
X28049679Y-25033229D01*
X28049679Y-25033229D02*
X28144917Y-24985610D01*
X28144917Y-24985610D02*
X28335393Y-24985610D01*
X28335393Y-24985610D02*
X28430631Y-25033229D01*
X28430631Y-25033229D02*
X28478250Y-25128467D01*
X28478250Y-25128467D02*
X28478250Y-25223705D01*
X28478250Y-25223705D02*
X28002060Y-25318943D01*
X29335393Y-24985610D02*
X29335393Y-25985610D01*
X29335393Y-25604658D02*
X29240155Y-25652277D01*
X29240155Y-25652277D02*
X29049679Y-25652277D01*
X29049679Y-25652277D02*
X28954441Y-25604658D01*
X28954441Y-25604658D02*
X28906822Y-25557038D01*
X28906822Y-25557038D02*
X28859203Y-25461800D01*
X28859203Y-25461800D02*
X28859203Y-25176086D01*
X28859203Y-25176086D02*
X28906822Y-25080848D01*
X28906822Y-25080848D02*
X28954441Y-25033229D01*
X28954441Y-25033229D02*
X29049679Y-24985610D01*
X29049679Y-24985610D02*
X29240155Y-24985610D01*
X29240155Y-24985610D02*
X29335393Y-25033229D01*
X30240155Y-24985610D02*
X30240155Y-25652277D01*
X29811584Y-24985610D02*
X29811584Y-25509419D01*
X29811584Y-25509419D02*
X29859203Y-25604658D01*
X29859203Y-25604658D02*
X29954441Y-25652277D01*
X29954441Y-25652277D02*
X30097298Y-25652277D01*
X30097298Y-25652277D02*
X30192536Y-25604658D01*
X30192536Y-25604658D02*
X30240155Y-25557038D01*
X30716346Y-25652277D02*
X30716346Y-24985610D01*
X30716346Y-24652277D02*
X30668727Y-24699896D01*
X30668727Y-24699896D02*
X30716346Y-24747515D01*
X30716346Y-24747515D02*
X30763965Y-24699896D01*
X30763965Y-24699896D02*
X30716346Y-24652277D01*
X30716346Y-24652277D02*
X30716346Y-24747515D01*
X31192536Y-25652277D02*
X31192536Y-24985610D01*
X31192536Y-25176086D02*
X31240155Y-25080848D01*
X31240155Y-25080848D02*
X31287774Y-25033229D01*
X31287774Y-25033229D02*
X31383012Y-24985610D01*
X31383012Y-24985610D02*
X31478250Y-24985610D01*
X32192536Y-25604658D02*
X32097298Y-25652277D01*
X32097298Y-25652277D02*
X31906822Y-25652277D01*
X31906822Y-25652277D02*
X31811584Y-25604658D01*
X31811584Y-25604658D02*
X31763965Y-25509419D01*
X31763965Y-25509419D02*
X31763965Y-25128467D01*
X31763965Y-25128467D02*
X31811584Y-25033229D01*
X31811584Y-25033229D02*
X31906822Y-24985610D01*
X31906822Y-24985610D02*
X32097298Y-24985610D01*
X32097298Y-24985610D02*
X32192536Y-25033229D01*
X32192536Y-25033229D02*
X32240155Y-25128467D01*
X32240155Y-25128467D02*
X32240155Y-25223705D01*
X32240155Y-25223705D02*
X31763965Y-25318943D01*
X33097298Y-25652277D02*
X33097298Y-24652277D01*
X33097298Y-25604658D02*
X33002060Y-25652277D01*
X33002060Y-25652277D02*
X32811584Y-25652277D01*
X32811584Y-25652277D02*
X32716346Y-25604658D01*
X32716346Y-25604658D02*
X32668727Y-25557038D01*
X32668727Y-25557038D02*
X32621108Y-25461800D01*
X32621108Y-25461800D02*
X32621108Y-25176086D01*
X32621108Y-25176086D02*
X32668727Y-25080848D01*
X32668727Y-25080848D02*
X32716346Y-25033229D01*
X32716346Y-25033229D02*
X32811584Y-24985610D01*
X32811584Y-24985610D02*
X33002060Y-24985610D01*
X33002060Y-24985610D02*
X33097298Y-25033229D01*
X34192537Y-24985610D02*
X34573489Y-24985610D01*
X34335394Y-25652277D02*
X34335394Y-24795134D01*
X34335394Y-24795134D02*
X34383013Y-24699896D01*
X34383013Y-24699896D02*
X34478251Y-24652277D01*
X34478251Y-24652277D02*
X34573489Y-24652277D01*
X34906823Y-25652277D02*
X34906823Y-24985610D01*
X34906823Y-24652277D02*
X34859204Y-24699896D01*
X34859204Y-24699896D02*
X34906823Y-24747515D01*
X34906823Y-24747515D02*
X34954442Y-24699896D01*
X34954442Y-24699896D02*
X34906823Y-24652277D01*
X34906823Y-24652277D02*
X34906823Y-24747515D01*
X35383013Y-24985610D02*
X35383013Y-25652277D01*
X35383013Y-25080848D02*
X35430632Y-25033229D01*
X35430632Y-25033229D02*
X35525870Y-24985610D01*
X35525870Y-24985610D02*
X35668727Y-24985610D01*
X35668727Y-24985610D02*
X35763965Y-25033229D01*
X35763965Y-25033229D02*
X35811584Y-25128467D01*
X35811584Y-25128467D02*
X35811584Y-25652277D01*
X36716346Y-25652277D02*
X36716346Y-25128467D01*
X36716346Y-25128467D02*
X36668727Y-25033229D01*
X36668727Y-25033229D02*
X36573489Y-24985610D01*
X36573489Y-24985610D02*
X36383013Y-24985610D01*
X36383013Y-24985610D02*
X36287775Y-25033229D01*
X36716346Y-25604658D02*
X36621108Y-25652277D01*
X36621108Y-25652277D02*
X36383013Y-25652277D01*
X36383013Y-25652277D02*
X36287775Y-25604658D01*
X36287775Y-25604658D02*
X36240156Y-25509419D01*
X36240156Y-25509419D02*
X36240156Y-25414181D01*
X36240156Y-25414181D02*
X36287775Y-25318943D01*
X36287775Y-25318943D02*
X36383013Y-25271324D01*
X36383013Y-25271324D02*
X36621108Y-25271324D01*
X36621108Y-25271324D02*
X36716346Y-25223705D01*
X37335394Y-25652277D02*
X37240156Y-25604658D01*
X37240156Y-25604658D02*
X37192537Y-25509419D01*
X37192537Y-25509419D02*
X37192537Y-24652277D01*
X38478252Y-25652277D02*
X38478252Y-24985610D01*
X38478252Y-24652277D02*
X38430633Y-24699896D01*
X38430633Y-24699896D02*
X38478252Y-24747515D01*
X38478252Y-24747515D02*
X38525871Y-24699896D01*
X38525871Y-24699896D02*
X38478252Y-24652277D01*
X38478252Y-24652277D02*
X38478252Y-24747515D01*
X38954442Y-24985610D02*
X38954442Y-25652277D01*
X38954442Y-25080848D02*
X39002061Y-25033229D01*
X39002061Y-25033229D02*
X39097299Y-24985610D01*
X39097299Y-24985610D02*
X39240156Y-24985610D01*
X39240156Y-24985610D02*
X39335394Y-25033229D01*
X39335394Y-25033229D02*
X39383013Y-25128467D01*
X39383013Y-25128467D02*
X39383013Y-25652277D01*
X39811585Y-25604658D02*
X39906823Y-25652277D01*
X39906823Y-25652277D02*
X40097299Y-25652277D01*
X40097299Y-25652277D02*
X40192537Y-25604658D01*
X40192537Y-25604658D02*
X40240156Y-25509419D01*
X40240156Y-25509419D02*
X40240156Y-25461800D01*
X40240156Y-25461800D02*
X40192537Y-25366562D01*
X40192537Y-25366562D02*
X40097299Y-25318943D01*
X40097299Y-25318943D02*
X39954442Y-25318943D01*
X39954442Y-25318943D02*
X39859204Y-25271324D01*
X39859204Y-25271324D02*
X39811585Y-25176086D01*
X39811585Y-25176086D02*
X39811585Y-25128467D01*
X39811585Y-25128467D02*
X39859204Y-25033229D01*
X39859204Y-25033229D02*
X39954442Y-24985610D01*
X39954442Y-24985610D02*
X40097299Y-24985610D01*
X40097299Y-24985610D02*
X40192537Y-25033229D01*
X41049680Y-25604658D02*
X40954442Y-25652277D01*
X40954442Y-25652277D02*
X40763966Y-25652277D01*
X40763966Y-25652277D02*
X40668728Y-25604658D01*
X40668728Y-25604658D02*
X40621109Y-25509419D01*
X40621109Y-25509419D02*
X40621109Y-25128467D01*
X40621109Y-25128467D02*
X40668728Y-25033229D01*
X40668728Y-25033229D02*
X40763966Y-24985610D01*
X40763966Y-24985610D02*
X40954442Y-24985610D01*
X40954442Y-24985610D02*
X41049680Y-25033229D01*
X41049680Y-25033229D02*
X41097299Y-25128467D01*
X41097299Y-25128467D02*
X41097299Y-25223705D01*
X41097299Y-25223705D02*
X40621109Y-25318943D01*
X41525871Y-25652277D02*
X41525871Y-24985610D01*
X41525871Y-25176086D02*
X41573490Y-25080848D01*
X41573490Y-25080848D02*
X41621109Y-25033229D01*
X41621109Y-25033229D02*
X41716347Y-24985610D01*
X41716347Y-24985610D02*
X41811585Y-24985610D01*
X42002062Y-24985610D02*
X42383014Y-24985610D01*
X42144919Y-24652277D02*
X42144919Y-25509419D01*
X42144919Y-25509419D02*
X42192538Y-25604658D01*
X42192538Y-25604658D02*
X42287776Y-25652277D01*
X42287776Y-25652277D02*
X42383014Y-25652277D01*
X42716348Y-25652277D02*
X42716348Y-24985610D01*
X42716348Y-24652277D02*
X42668729Y-24699896D01*
X42668729Y-24699896D02*
X42716348Y-24747515D01*
X42716348Y-24747515D02*
X42763967Y-24699896D01*
X42763967Y-24699896D02*
X42716348Y-24652277D01*
X42716348Y-24652277D02*
X42716348Y-24747515D01*
X43335395Y-25652277D02*
X43240157Y-25604658D01*
X43240157Y-25604658D02*
X43192538Y-25557038D01*
X43192538Y-25557038D02*
X43144919Y-25461800D01*
X43144919Y-25461800D02*
X43144919Y-25176086D01*
X43144919Y-25176086D02*
X43192538Y-25080848D01*
X43192538Y-25080848D02*
X43240157Y-25033229D01*
X43240157Y-25033229D02*
X43335395Y-24985610D01*
X43335395Y-24985610D02*
X43478252Y-24985610D01*
X43478252Y-24985610D02*
X43573490Y-25033229D01*
X43573490Y-25033229D02*
X43621109Y-25080848D01*
X43621109Y-25080848D02*
X43668728Y-25176086D01*
X43668728Y-25176086D02*
X43668728Y-25461800D01*
X43668728Y-25461800D02*
X43621109Y-25557038D01*
X43621109Y-25557038D02*
X43573490Y-25604658D01*
X43573490Y-25604658D02*
X43478252Y-25652277D01*
X43478252Y-25652277D02*
X43335395Y-25652277D01*
X44097300Y-24985610D02*
X44097300Y-25652277D01*
X44097300Y-25080848D02*
X44144919Y-25033229D01*
X44144919Y-25033229D02*
X44240157Y-24985610D01*
X44240157Y-24985610D02*
X44383014Y-24985610D01*
X44383014Y-24985610D02*
X44478252Y-25033229D01*
X44478252Y-25033229D02*
X44525871Y-25128467D01*
X44525871Y-25128467D02*
X44525871Y-25652277D01*
X45621110Y-24985610D02*
X46002062Y-24985610D01*
X45763967Y-24652277D02*
X45763967Y-25509419D01*
X45763967Y-25509419D02*
X45811586Y-25604658D01*
X45811586Y-25604658D02*
X45906824Y-25652277D01*
X45906824Y-25652277D02*
X46002062Y-25652277D01*
X46335396Y-25652277D02*
X46335396Y-24652277D01*
X46763967Y-25652277D02*
X46763967Y-25128467D01*
X46763967Y-25128467D02*
X46716348Y-25033229D01*
X46716348Y-25033229D02*
X46621110Y-24985610D01*
X46621110Y-24985610D02*
X46478253Y-24985610D01*
X46478253Y-24985610D02*
X46383015Y-25033229D01*
X46383015Y-25033229D02*
X46335396Y-25080848D01*
X47240158Y-25652277D02*
X47240158Y-24985610D01*
X47240158Y-24652277D02*
X47192539Y-24699896D01*
X47192539Y-24699896D02*
X47240158Y-24747515D01*
X47240158Y-24747515D02*
X47287777Y-24699896D01*
X47287777Y-24699896D02*
X47240158Y-24652277D01*
X47240158Y-24652277D02*
X47240158Y-24747515D01*
X48144919Y-25604658D02*
X48049681Y-25652277D01*
X48049681Y-25652277D02*
X47859205Y-25652277D01*
X47859205Y-25652277D02*
X47763967Y-25604658D01*
X47763967Y-25604658D02*
X47716348Y-25557038D01*
X47716348Y-25557038D02*
X47668729Y-25461800D01*
X47668729Y-25461800D02*
X47668729Y-25176086D01*
X47668729Y-25176086D02*
X47716348Y-25080848D01*
X47716348Y-25080848D02*
X47763967Y-25033229D01*
X47763967Y-25033229D02*
X47859205Y-24985610D01*
X47859205Y-24985610D02*
X48049681Y-24985610D01*
X48049681Y-24985610D02*
X48144919Y-25033229D01*
X48573491Y-25652277D02*
X48573491Y-24652277D01*
X48668729Y-25271324D02*
X48954443Y-25652277D01*
X48954443Y-24985610D02*
X48573491Y-25366562D01*
X49383015Y-24985610D02*
X49383015Y-25652277D01*
X49383015Y-25080848D02*
X49430634Y-25033229D01*
X49430634Y-25033229D02*
X49525872Y-24985610D01*
X49525872Y-24985610D02*
X49668729Y-24985610D01*
X49668729Y-24985610D02*
X49763967Y-25033229D01*
X49763967Y-25033229D02*
X49811586Y-25128467D01*
X49811586Y-25128467D02*
X49811586Y-25652277D01*
X50668729Y-25604658D02*
X50573491Y-25652277D01*
X50573491Y-25652277D02*
X50383015Y-25652277D01*
X50383015Y-25652277D02*
X50287777Y-25604658D01*
X50287777Y-25604658D02*
X50240158Y-25509419D01*
X50240158Y-25509419D02*
X50240158Y-25128467D01*
X50240158Y-25128467D02*
X50287777Y-25033229D01*
X50287777Y-25033229D02*
X50383015Y-24985610D01*
X50383015Y-24985610D02*
X50573491Y-24985610D01*
X50573491Y-24985610D02*
X50668729Y-25033229D01*
X50668729Y-25033229D02*
X50716348Y-25128467D01*
X50716348Y-25128467D02*
X50716348Y-25223705D01*
X50716348Y-25223705D02*
X50240158Y-25318943D01*
X51097301Y-25604658D02*
X51192539Y-25652277D01*
X51192539Y-25652277D02*
X51383015Y-25652277D01*
X51383015Y-25652277D02*
X51478253Y-25604658D01*
X51478253Y-25604658D02*
X51525872Y-25509419D01*
X51525872Y-25509419D02*
X51525872Y-25461800D01*
X51525872Y-25461800D02*
X51478253Y-25366562D01*
X51478253Y-25366562D02*
X51383015Y-25318943D01*
X51383015Y-25318943D02*
X51240158Y-25318943D01*
X51240158Y-25318943D02*
X51144920Y-25271324D01*
X51144920Y-25271324D02*
X51097301Y-25176086D01*
X51097301Y-25176086D02*
X51097301Y-25128467D01*
X51097301Y-25128467D02*
X51144920Y-25033229D01*
X51144920Y-25033229D02*
X51240158Y-24985610D01*
X51240158Y-24985610D02*
X51383015Y-24985610D01*
X51383015Y-24985610D02*
X51478253Y-25033229D01*
X51906825Y-25604658D02*
X52002063Y-25652277D01*
X52002063Y-25652277D02*
X52192539Y-25652277D01*
X52192539Y-25652277D02*
X52287777Y-25604658D01*
X52287777Y-25604658D02*
X52335396Y-25509419D01*
X52335396Y-25509419D02*
X52335396Y-25461800D01*
X52335396Y-25461800D02*
X52287777Y-25366562D01*
X52287777Y-25366562D02*
X52192539Y-25318943D01*
X52192539Y-25318943D02*
X52049682Y-25318943D01*
X52049682Y-25318943D02*
X51954444Y-25271324D01*
X51954444Y-25271324D02*
X51906825Y-25176086D01*
X51906825Y-25176086D02*
X51906825Y-25128467D01*
X51906825Y-25128467D02*
X51954444Y-25033229D01*
X51954444Y-25033229D02*
X52049682Y-24985610D01*
X52049682Y-24985610D02*
X52192539Y-24985610D01*
X52192539Y-24985610D02*
X52287777Y-25033229D01*
X52763968Y-25557038D02*
X52811587Y-25604658D01*
X52811587Y-25604658D02*
X52763968Y-25652277D01*
X52763968Y-25652277D02*
X52716349Y-25604658D01*
X52716349Y-25604658D02*
X52763968Y-25557038D01*
X52763968Y-25557038D02*
X52763968Y-25652277D01*
X52763968Y-25033229D02*
X52811587Y-25080848D01*
X52811587Y-25080848D02*
X52763968Y-25128467D01*
X52763968Y-25128467D02*
X52716349Y-25080848D01*
X52716349Y-25080848D02*
X52763968Y-25033229D01*
X52763968Y-25033229D02*
X52763968Y-25128467D01*
X54192539Y-24652277D02*
X54287777Y-24652277D01*
X54287777Y-24652277D02*
X54383015Y-24699896D01*
X54383015Y-24699896D02*
X54430634Y-24747515D01*
X54430634Y-24747515D02*
X54478253Y-24842753D01*
X54478253Y-24842753D02*
X54525872Y-25033229D01*
X54525872Y-25033229D02*
X54525872Y-25271324D01*
X54525872Y-25271324D02*
X54478253Y-25461800D01*
X54478253Y-25461800D02*
X54430634Y-25557038D01*
X54430634Y-25557038D02*
X54383015Y-25604658D01*
X54383015Y-25604658D02*
X54287777Y-25652277D01*
X54287777Y-25652277D02*
X54192539Y-25652277D01*
X54192539Y-25652277D02*
X54097301Y-25604658D01*
X54097301Y-25604658D02*
X54049682Y-25557038D01*
X54049682Y-25557038D02*
X54002063Y-25461800D01*
X54002063Y-25461800D02*
X53954444Y-25271324D01*
X53954444Y-25271324D02*
X53954444Y-25033229D01*
X53954444Y-25033229D02*
X54002063Y-24842753D01*
X54002063Y-24842753D02*
X54049682Y-24747515D01*
X54049682Y-24747515D02*
X54097301Y-24699896D01*
X54097301Y-24699896D02*
X54192539Y-24652277D01*
X54954444Y-25557038D02*
X55002063Y-25604658D01*
X55002063Y-25604658D02*
X54954444Y-25652277D01*
X54954444Y-25652277D02*
X54906825Y-25604658D01*
X54906825Y-25604658D02*
X54954444Y-25557038D01*
X54954444Y-25557038D02*
X54954444Y-25652277D01*
X55335396Y-24652277D02*
X55954443Y-24652277D01*
X55954443Y-24652277D02*
X55621110Y-25033229D01*
X55621110Y-25033229D02*
X55763967Y-25033229D01*
X55763967Y-25033229D02*
X55859205Y-25080848D01*
X55859205Y-25080848D02*
X55906824Y-25128467D01*
X55906824Y-25128467D02*
X55954443Y-25223705D01*
X55954443Y-25223705D02*
X55954443Y-25461800D01*
X55954443Y-25461800D02*
X55906824Y-25557038D01*
X55906824Y-25557038D02*
X55859205Y-25604658D01*
X55859205Y-25604658D02*
X55763967Y-25652277D01*
X55763967Y-25652277D02*
X55478253Y-25652277D01*
X55478253Y-25652277D02*
X55383015Y-25604658D01*
X55383015Y-25604658D02*
X55335396Y-25557038D01*
X56573491Y-24652277D02*
X56668729Y-24652277D01*
X56668729Y-24652277D02*
X56763967Y-24699896D01*
X56763967Y-24699896D02*
X56811586Y-24747515D01*
X56811586Y-24747515D02*
X56859205Y-24842753D01*
X56859205Y-24842753D02*
X56906824Y-25033229D01*
X56906824Y-25033229D02*
X56906824Y-25271324D01*
X56906824Y-25271324D02*
X56859205Y-25461800D01*
X56859205Y-25461800D02*
X56811586Y-25557038D01*
X56811586Y-25557038D02*
X56763967Y-25604658D01*
X56763967Y-25604658D02*
X56668729Y-25652277D01*
X56668729Y-25652277D02*
X56573491Y-25652277D01*
X56573491Y-25652277D02*
X56478253Y-25604658D01*
X56478253Y-25604658D02*
X56430634Y-25557038D01*
X56430634Y-25557038D02*
X56383015Y-25461800D01*
X56383015Y-25461800D02*
X56335396Y-25271324D01*
X56335396Y-25271324D02*
X56335396Y-25033229D01*
X56335396Y-25033229D02*
X56383015Y-24842753D01*
X56383015Y-24842753D02*
X56430634Y-24747515D01*
X56430634Y-24747515D02*
X56478253Y-24699896D01*
X56478253Y-24699896D02*
X56573491Y-24652277D01*
X58097301Y-25652277D02*
X58097301Y-24985610D01*
X58097301Y-25080848D02*
X58144920Y-25033229D01*
X58144920Y-25033229D02*
X58240158Y-24985610D01*
X58240158Y-24985610D02*
X58383015Y-24985610D01*
X58383015Y-24985610D02*
X58478253Y-25033229D01*
X58478253Y-25033229D02*
X58525872Y-25128467D01*
X58525872Y-25128467D02*
X58525872Y-25652277D01*
X58525872Y-25128467D02*
X58573491Y-25033229D01*
X58573491Y-25033229D02*
X58668729Y-24985610D01*
X58668729Y-24985610D02*
X58811586Y-24985610D01*
X58811586Y-24985610D02*
X58906825Y-25033229D01*
X58906825Y-25033229D02*
X58954444Y-25128467D01*
X58954444Y-25128467D02*
X58954444Y-25652277D01*
X59430634Y-25652277D02*
X59430634Y-24985610D01*
X59430634Y-25080848D02*
X59478253Y-25033229D01*
X59478253Y-25033229D02*
X59573491Y-24985610D01*
X59573491Y-24985610D02*
X59716348Y-24985610D01*
X59716348Y-24985610D02*
X59811586Y-25033229D01*
X59811586Y-25033229D02*
X59859205Y-25128467D01*
X59859205Y-25128467D02*
X59859205Y-25652277D01*
X59859205Y-25128467D02*
X59906824Y-25033229D01*
X59906824Y-25033229D02*
X60002062Y-24985610D01*
X60002062Y-24985610D02*
X60144919Y-24985610D01*
X60144919Y-24985610D02*
X60240158Y-25033229D01*
X60240158Y-25033229D02*
X60287777Y-25128467D01*
X60287777Y-25128467D02*
X60287777Y-25652277D01*
X27383012Y-26738411D02*
X27525869Y-26786030D01*
X27525869Y-26786030D02*
X27573488Y-26833649D01*
X27573488Y-26833649D02*
X27621107Y-26928887D01*
X27621107Y-26928887D02*
X27621107Y-27071744D01*
X27621107Y-27071744D02*
X27573488Y-27166982D01*
X27573488Y-27166982D02*
X27525869Y-27214602D01*
X27525869Y-27214602D02*
X27430631Y-27262221D01*
X27430631Y-27262221D02*
X27049679Y-27262221D01*
X27049679Y-27262221D02*
X27049679Y-26262221D01*
X27049679Y-26262221D02*
X27383012Y-26262221D01*
X27383012Y-26262221D02*
X27478250Y-26309840D01*
X27478250Y-26309840D02*
X27525869Y-26357459D01*
X27525869Y-26357459D02*
X27573488Y-26452697D01*
X27573488Y-26452697D02*
X27573488Y-26547935D01*
X27573488Y-26547935D02*
X27525869Y-26643173D01*
X27525869Y-26643173D02*
X27478250Y-26690792D01*
X27478250Y-26690792D02*
X27383012Y-26738411D01*
X27383012Y-26738411D02*
X27049679Y-26738411D01*
X28240155Y-26262221D02*
X28430631Y-26262221D01*
X28430631Y-26262221D02*
X28525869Y-26309840D01*
X28525869Y-26309840D02*
X28621107Y-26405078D01*
X28621107Y-26405078D02*
X28668726Y-26595554D01*
X28668726Y-26595554D02*
X28668726Y-26928887D01*
X28668726Y-26928887D02*
X28621107Y-27119363D01*
X28621107Y-27119363D02*
X28525869Y-27214602D01*
X28525869Y-27214602D02*
X28430631Y-27262221D01*
X28430631Y-27262221D02*
X28240155Y-27262221D01*
X28240155Y-27262221D02*
X28144917Y-27214602D01*
X28144917Y-27214602D02*
X28049679Y-27119363D01*
X28049679Y-27119363D02*
X28002060Y-26928887D01*
X28002060Y-26928887D02*
X28002060Y-26595554D01*
X28002060Y-26595554D02*
X28049679Y-26405078D01*
X28049679Y-26405078D02*
X28144917Y-26309840D01*
X28144917Y-26309840D02*
X28240155Y-26262221D01*
X28954441Y-26262221D02*
X29525869Y-26262221D01*
X29240155Y-27262221D02*
X29240155Y-26262221D01*
X29716346Y-26262221D02*
X30287774Y-26262221D01*
X30002060Y-27262221D02*
X30002060Y-26262221D01*
X30811584Y-26262221D02*
X31002060Y-26262221D01*
X31002060Y-26262221D02*
X31097298Y-26309840D01*
X31097298Y-26309840D02*
X31192536Y-26405078D01*
X31192536Y-26405078D02*
X31240155Y-26595554D01*
X31240155Y-26595554D02*
X31240155Y-26928887D01*
X31240155Y-26928887D02*
X31192536Y-27119363D01*
X31192536Y-27119363D02*
X31097298Y-27214602D01*
X31097298Y-27214602D02*
X31002060Y-27262221D01*
X31002060Y-27262221D02*
X30811584Y-27262221D01*
X30811584Y-27262221D02*
X30716346Y-27214602D01*
X30716346Y-27214602D02*
X30621108Y-27119363D01*
X30621108Y-27119363D02*
X30573489Y-26928887D01*
X30573489Y-26928887D02*
X30573489Y-26595554D01*
X30573489Y-26595554D02*
X30621108Y-26405078D01*
X30621108Y-26405078D02*
X30716346Y-26309840D01*
X30716346Y-26309840D02*
X30811584Y-26262221D01*
X31668727Y-27262221D02*
X31668727Y-26262221D01*
X31668727Y-26262221D02*
X32002060Y-26976506D01*
X32002060Y-26976506D02*
X32335393Y-26262221D01*
X32335393Y-26262221D02*
X32335393Y-27262221D01*
X33525870Y-27214602D02*
X33668727Y-27262221D01*
X33668727Y-27262221D02*
X33906822Y-27262221D01*
X33906822Y-27262221D02*
X34002060Y-27214602D01*
X34002060Y-27214602D02*
X34049679Y-27166982D01*
X34049679Y-27166982D02*
X34097298Y-27071744D01*
X34097298Y-27071744D02*
X34097298Y-26976506D01*
X34097298Y-26976506D02*
X34049679Y-26881268D01*
X34049679Y-26881268D02*
X34002060Y-26833649D01*
X34002060Y-26833649D02*
X33906822Y-26786030D01*
X33906822Y-26786030D02*
X33716346Y-26738411D01*
X33716346Y-26738411D02*
X33621108Y-26690792D01*
X33621108Y-26690792D02*
X33573489Y-26643173D01*
X33573489Y-26643173D02*
X33525870Y-26547935D01*
X33525870Y-26547935D02*
X33525870Y-26452697D01*
X33525870Y-26452697D02*
X33573489Y-26357459D01*
X33573489Y-26357459D02*
X33621108Y-26309840D01*
X33621108Y-26309840D02*
X33716346Y-26262221D01*
X33716346Y-26262221D02*
X33954441Y-26262221D01*
X33954441Y-26262221D02*
X34097298Y-26309840D01*
X34525870Y-27262221D02*
X34525870Y-26262221D01*
X35002060Y-27262221D02*
X35002060Y-26262221D01*
X35002060Y-26262221D02*
X35240155Y-26262221D01*
X35240155Y-26262221D02*
X35383012Y-26309840D01*
X35383012Y-26309840D02*
X35478250Y-26405078D01*
X35478250Y-26405078D02*
X35525869Y-26500316D01*
X35525869Y-26500316D02*
X35573488Y-26690792D01*
X35573488Y-26690792D02*
X35573488Y-26833649D01*
X35573488Y-26833649D02*
X35525869Y-27024125D01*
X35525869Y-27024125D02*
X35478250Y-27119363D01*
X35478250Y-27119363D02*
X35383012Y-27214602D01*
X35383012Y-27214602D02*
X35240155Y-27262221D01*
X35240155Y-27262221D02*
X35002060Y-27262221D01*
X36002060Y-26738411D02*
X36335393Y-26738411D01*
X36478250Y-27262221D02*
X36002060Y-27262221D01*
X36002060Y-27262221D02*
X36002060Y-26262221D01*
X36002060Y-26262221D02*
X36478250Y-26262221D01*
G36*
X82359700Y-20490432D02*
G01*
X82395664Y-20539932D01*
X82400509Y-20570525D01*
X82400509Y-26633692D01*
X82381602Y-26691883D01*
X82371537Y-26703671D01*
X82232800Y-26842504D01*
X82178293Y-26870301D01*
X82162772Y-26871525D01*
X71295895Y-26871525D01*
X71237704Y-26852618D01*
X71225843Y-26842480D01*
X70808439Y-26424495D01*
X70780699Y-26369959D01*
X70779491Y-26354540D01*
X70779491Y-20570525D01*
X70798398Y-20512334D01*
X70847898Y-20476370D01*
X70878491Y-20471525D01*
X82301509Y-20471525D01*
X82359700Y-20490432D01*
G37*
G36*
X96495356Y-74018336D02*
G01*
X96503135Y-74028470D01*
X97302410Y-75411837D01*
X97308983Y-75436351D01*
X97308983Y-78760997D01*
X97294631Y-78795645D01*
X97259983Y-78809997D01*
X97259982Y-78809997D01*
X94950892Y-78809941D01*
X94949759Y-78809928D01*
X94908978Y-78808984D01*
X92097646Y-78808984D01*
X92068275Y-78809849D01*
X92066832Y-78809870D01*
X88637290Y-78809786D01*
X88636112Y-78809772D01*
X88603361Y-78808984D01*
X88322502Y-78808984D01*
X88271452Y-78809770D01*
X88270697Y-78809776D01*
X84838245Y-78809693D01*
X84837034Y-78809678D01*
X84808988Y-78808984D01*
X84504675Y-78808984D01*
X84474564Y-78809670D01*
X84473447Y-78809683D01*
X81030169Y-78809599D01*
X81028959Y-78809584D01*
X81004691Y-78808984D01*
X80908972Y-78808984D01*
X80884632Y-78809579D01*
X80883434Y-78809594D01*
X72527335Y-78809390D01*
X72526139Y-78809375D01*
X72509070Y-78808958D01*
X72308995Y-78808958D01*
X72291951Y-78809369D01*
X72290769Y-78809383D01*
X68827448Y-78809299D01*
X68826314Y-78809286D01*
X68813275Y-78808984D01*
X68504119Y-78808984D01*
X68492237Y-78809275D01*
X68491036Y-78809290D01*
X65027575Y-78809205D01*
X65026473Y-78809193D01*
X65009725Y-78808816D01*
X64714581Y-78808816D01*
X64699628Y-78809181D01*
X64698431Y-78809196D01*
X61214952Y-78809112D01*
X61213771Y-78809098D01*
X61209045Y-78808984D01*
X58408966Y-78808984D01*
X58406916Y-78809029D01*
X58405840Y-78809041D01*
X56058983Y-78808985D01*
X56024335Y-78794632D01*
X56009984Y-78760000D01*
X56008989Y-75609559D01*
X56015557Y-75585038D01*
X56914540Y-74028478D01*
X56944297Y-74005652D01*
X56956972Y-74003984D01*
X96460708Y-74003984D01*
X96495356Y-74018336D01*
G37*
G36*
X58709592Y-87413488D02*
G01*
X58812839Y-87416025D01*
X58821197Y-87416952D01*
X59024328Y-87457368D01*
X59033519Y-87460156D01*
X59224309Y-87539190D01*
X59232779Y-87543718D01*
X59404480Y-87658445D01*
X59411905Y-87664538D01*
X59557932Y-87810560D01*
X59564025Y-87817984D01*
X59678761Y-87989684D01*
X59683289Y-87998154D01*
X59762329Y-88188937D01*
X59765118Y-88198128D01*
X59805540Y-88401248D01*
X59806468Y-88409626D01*
X59808942Y-88511818D01*
X59808956Y-88513003D01*
X59808983Y-90439663D01*
X59808983Y-92512926D01*
X59808970Y-92514042D01*
X59806617Y-92617313D01*
X59805689Y-92625752D01*
X59765301Y-92828888D01*
X59762513Y-92838082D01*
X59683483Y-93028911D01*
X59678955Y-93037384D01*
X59564206Y-93209130D01*
X59558111Y-93216556D01*
X59412065Y-93362604D01*
X59404639Y-93368699D01*
X59232893Y-93483449D01*
X59224420Y-93487977D01*
X59033593Y-93567010D01*
X59024399Y-93569798D01*
X58821263Y-93610187D01*
X58812820Y-93611115D01*
X58709567Y-93613459D01*
X58708455Y-93613472D01*
X56709079Y-93613473D01*
X54709532Y-93613474D01*
X54708414Y-93613461D01*
X54605147Y-93611105D01*
X54596708Y-93610177D01*
X54393578Y-93569783D01*
X54384385Y-93566995D01*
X54193560Y-93487959D01*
X54185087Y-93483430D01*
X54013356Y-93368685D01*
X54005930Y-93362591D01*
X53859882Y-93216537D01*
X53853788Y-93209110D01*
X53739049Y-93037375D01*
X53734521Y-93028903D01*
X53655493Y-92838077D01*
X53652705Y-92828883D01*
X53612317Y-92625746D01*
X53611389Y-92617326D01*
X53608996Y-92514063D01*
X53608983Y-92512928D01*
X53608983Y-88514069D01*
X53608998Y-88512863D01*
X53611539Y-88409617D01*
X53612466Y-88401260D01*
X53652888Y-88198133D01*
X53655677Y-88188942D01*
X53734713Y-87998166D01*
X53739241Y-87989696D01*
X53853973Y-87818000D01*
X53860066Y-87810576D01*
X54006084Y-87664559D01*
X54013508Y-87658466D01*
X54185204Y-87543736D01*
X54193674Y-87539208D01*
X54384452Y-87460174D01*
X54393643Y-87457385D01*
X54596771Y-87416964D01*
X54605125Y-87416037D01*
X54708369Y-87413488D01*
X54709578Y-87413473D01*
X58708388Y-87413473D01*
X58709592Y-87413488D01*
G37*
G36*
X53474593Y-104730942D02*
G01*
X53665342Y-104768898D01*
X53674532Y-104771687D01*
X53865313Y-104850721D01*
X53873784Y-104855249D01*
X54045482Y-104969980D01*
X54052906Y-104976073D01*
X54198926Y-105122092D01*
X54205019Y-105129516D01*
X54319750Y-105301214D01*
X54324278Y-105309685D01*
X54403312Y-105500466D01*
X54406101Y-105509656D01*
X54446520Y-105712786D01*
X54447447Y-105721145D01*
X54449162Y-105790916D01*
X54449177Y-105792119D01*
X54449231Y-109858107D01*
X54449218Y-109859224D01*
X54447632Y-109928835D01*
X54446704Y-109937275D01*
X54406312Y-110140410D01*
X54403524Y-110149603D01*
X54324492Y-110340429D01*
X54319964Y-110348902D01*
X54205214Y-110520646D01*
X54199119Y-110528072D01*
X54053075Y-110674118D01*
X54045649Y-110680213D01*
X53873905Y-110794963D01*
X53865433Y-110799491D01*
X53674607Y-110878524D01*
X53665413Y-110881312D01*
X53462278Y-110921704D01*
X53453838Y-110922632D01*
X53350570Y-110924985D01*
X53349454Y-110924998D01*
X49350547Y-110924999D01*
X49349430Y-110924986D01*
X49246161Y-110922632D01*
X49237722Y-110921704D01*
X49034588Y-110881312D01*
X49025395Y-110878524D01*
X48834569Y-110799492D01*
X48826096Y-110794964D01*
X48654352Y-110680214D01*
X48646926Y-110674119D01*
X48500881Y-110528074D01*
X48494786Y-110520648D01*
X48380036Y-110348905D01*
X48375508Y-110340432D01*
X48296476Y-110149606D01*
X48293688Y-110140413D01*
X48253295Y-109937279D01*
X48252367Y-109928840D01*
X48250013Y-109825571D01*
X48250000Y-109824454D01*
X48250000Y-105825591D01*
X48250015Y-105824387D01*
X48252553Y-105721143D01*
X48253480Y-105712784D01*
X48293900Y-105509655D01*
X48296689Y-105500465D01*
X48375723Y-105309684D01*
X48380251Y-105301213D01*
X48494981Y-105129516D01*
X48501074Y-105122092D01*
X48647093Y-104976073D01*
X48654517Y-104969980D01*
X48826215Y-104855250D01*
X48834686Y-104850722D01*
X49025467Y-104771688D01*
X49034657Y-104768899D01*
X49225413Y-104730942D01*
X49234976Y-104730000D01*
X53465030Y-104730000D01*
X53474593Y-104730942D01*
G37*
G36*
X58836146Y-122060942D02*
G01*
X59024325Y-122098383D01*
X59033516Y-122101172D01*
X59224305Y-122180207D01*
X59232775Y-122184734D01*
X59404474Y-122299462D01*
X59411899Y-122305555D01*
X59557927Y-122451579D01*
X59564020Y-122459004D01*
X59678752Y-122630701D01*
X59683280Y-122639171D01*
X59762317Y-122829953D01*
X59765106Y-122839144D01*
X59801472Y-123021890D01*
X59802414Y-123031452D01*
X59802470Y-127278112D01*
X59801529Y-127287669D01*
X59765296Y-127469902D01*
X59762508Y-127479095D01*
X59683476Y-127669920D01*
X59678948Y-127678393D01*
X59564199Y-127850137D01*
X59558104Y-127857563D01*
X59412058Y-128003608D01*
X59404632Y-128009703D01*
X59232888Y-128124451D01*
X59224415Y-128128979D01*
X59033589Y-128208010D01*
X59024395Y-128210798D01*
X58821258Y-128251187D01*
X58812823Y-128252115D01*
X58709550Y-128254476D01*
X58708430Y-128254489D01*
X54709531Y-128254490D01*
X54708413Y-128254477D01*
X54605146Y-128252121D01*
X54596707Y-128251193D01*
X54393575Y-128210799D01*
X54384382Y-128208011D01*
X54193554Y-128128974D01*
X54185082Y-128124445D01*
X54013354Y-128009703D01*
X54005927Y-128003609D01*
X53859877Y-127857556D01*
X53853783Y-127850129D01*
X53739039Y-127678389D01*
X53734511Y-127669917D01*
X53655481Y-127479094D01*
X53652693Y-127469901D01*
X53612303Y-127266764D01*
X53611375Y-127258337D01*
X53608995Y-127155056D01*
X53608982Y-127153927D01*
X53608982Y-123155084D01*
X53608997Y-123153879D01*
X53611536Y-123050633D01*
X53612463Y-123042275D01*
X53652884Y-122839146D01*
X53655673Y-122829956D01*
X53734707Y-122639175D01*
X53739235Y-122630704D01*
X53853966Y-122459007D01*
X53860059Y-122451583D01*
X54006077Y-122305563D01*
X54013501Y-122299470D01*
X54185198Y-122184738D01*
X54193668Y-122180210D01*
X54384448Y-122101175D01*
X54393639Y-122098386D01*
X54581803Y-122060942D01*
X54591366Y-122060000D01*
X58826584Y-122060000D01*
X58836146Y-122060942D01*
G37*
G36*
X78207382Y-130080941D02*
G01*
X78210723Y-130081605D01*
X78308990Y-130083975D01*
X78708387Y-130083975D01*
X78709591Y-130083990D01*
X78812838Y-130086527D01*
X78821196Y-130087454D01*
X79024327Y-130127869D01*
X79033518Y-130130658D01*
X79224308Y-130209693D01*
X79232778Y-130214220D01*
X79404479Y-130328947D01*
X79411904Y-130335040D01*
X79557931Y-130481062D01*
X79564024Y-130488486D01*
X79678761Y-130660187D01*
X79683289Y-130668658D01*
X79762327Y-130859438D01*
X79765116Y-130868628D01*
X79802918Y-131058579D01*
X79803860Y-131068142D01*
X79803916Y-135300335D01*
X79802975Y-135309891D01*
X79765300Y-135499389D01*
X79762512Y-135508583D01*
X79683481Y-135699412D01*
X79678953Y-135707885D01*
X79564204Y-135879631D01*
X79558109Y-135887057D01*
X79412063Y-136033104D01*
X79404637Y-136039199D01*
X79232892Y-136153949D01*
X79224419Y-136158477D01*
X79033591Y-136237509D01*
X79024398Y-136240297D01*
X78829457Y-136279057D01*
X78819901Y-136279998D01*
X74598122Y-136280000D01*
X74588565Y-136279059D01*
X74393576Y-136240285D01*
X74384383Y-136237497D01*
X74193559Y-136158461D01*
X74185086Y-136153932D01*
X74013355Y-136039186D01*
X74005929Y-136033092D01*
X73859881Y-135887039D01*
X73853787Y-135879612D01*
X73739048Y-135707877D01*
X73734520Y-135699405D01*
X73655491Y-135508579D01*
X73652703Y-135499385D01*
X73612315Y-135296248D01*
X73611387Y-135287827D01*
X73608995Y-135184538D01*
X73608982Y-135183404D01*
X73608982Y-131184570D01*
X73608997Y-131183365D01*
X73611537Y-131080121D01*
X73612464Y-131071762D01*
X73652887Y-130868633D01*
X73655676Y-130859443D01*
X73734711Y-130668667D01*
X73739239Y-130660197D01*
X73853971Y-130488501D01*
X73860064Y-130481077D01*
X74006082Y-130335059D01*
X74013506Y-130328966D01*
X74185202Y-130214236D01*
X74193672Y-130209708D01*
X74384451Y-130130674D01*
X74393642Y-130127885D01*
X74596770Y-130087463D01*
X74605125Y-130086536D01*
X74708373Y-130083990D01*
X74709581Y-130083975D01*
X75008991Y-130083975D01*
X75107248Y-130081728D01*
X75107250Y-130081728D01*
X75111209Y-130080941D01*
X75120770Y-130079999D01*
X78197820Y-130079999D01*
X78207382Y-130080941D01*
G37*
G36*
X98836102Y-122060934D02*
G01*
X99024336Y-122098387D01*
X99033527Y-122101176D01*
X99224303Y-122180207D01*
X99232774Y-122184734D01*
X99404480Y-122299468D01*
X99411904Y-122305561D01*
X99557928Y-122451582D01*
X99564021Y-122459007D01*
X99678753Y-122630704D01*
X99683281Y-122639174D01*
X99762317Y-122829955D01*
X99765106Y-122839146D01*
X99805527Y-123042275D01*
X99806454Y-123050642D01*
X99808975Y-123153878D01*
X99808990Y-123155074D01*
X99808990Y-127153942D01*
X99808977Y-127155059D01*
X99806623Y-127258328D01*
X99805695Y-127266767D01*
X99765304Y-127469903D01*
X99762516Y-127479096D01*
X99683484Y-127669922D01*
X99678956Y-127678395D01*
X99564207Y-127850140D01*
X99558112Y-127857566D01*
X99412067Y-128003611D01*
X99404641Y-128009706D01*
X99232896Y-128124456D01*
X99224423Y-128128984D01*
X99033597Y-128208016D01*
X99024404Y-128210804D01*
X98821268Y-128251195D01*
X98812829Y-128252123D01*
X98709560Y-128254477D01*
X98708443Y-128254490D01*
X94709539Y-128254491D01*
X94708422Y-128254478D01*
X94605153Y-128252123D01*
X94596713Y-128251195D01*
X94393581Y-128210802D01*
X94384388Y-128208014D01*
X94193558Y-128128978D01*
X94185086Y-128124449D01*
X94013357Y-128009707D01*
X94005930Y-128003613D01*
X93859879Y-127857559D01*
X93853785Y-127850133D01*
X93739039Y-127678393D01*
X93734511Y-127669920D01*
X93655481Y-127479097D01*
X93652693Y-127469904D01*
X93620930Y-127310162D01*
X93619989Y-127300606D01*
X93619989Y-123009323D01*
X93620931Y-122999760D01*
X93652891Y-122839147D01*
X93655680Y-122829956D01*
X93734715Y-122639177D01*
X93739243Y-122630707D01*
X93853974Y-122459010D01*
X93860067Y-122451586D01*
X94006086Y-122305567D01*
X94013510Y-122299474D01*
X94185207Y-122184743D01*
X94193677Y-122180215D01*
X94384456Y-122101180D01*
X94393647Y-122098391D01*
X94581885Y-122060934D01*
X94591448Y-122059992D01*
X98826540Y-122059992D01*
X98836102Y-122060934D01*
G37*
G36*
X78838666Y-104740934D02*
G01*
X79024327Y-104777874D01*
X79033518Y-104780662D01*
X79224309Y-104859697D01*
X79232779Y-104864225D01*
X79404479Y-104978952D01*
X79411904Y-104985045D01*
X79557930Y-105131067D01*
X79564023Y-105138492D01*
X79678759Y-105310193D01*
X79683287Y-105318663D01*
X79762325Y-105509442D01*
X79765114Y-105518633D01*
X79805535Y-105721755D01*
X79806463Y-105730129D01*
X79808970Y-105833405D01*
X79808984Y-105834594D01*
X79808984Y-109833432D01*
X79808971Y-109834548D01*
X79806618Y-109937819D01*
X79805690Y-109946259D01*
X79765301Y-110149393D01*
X79762513Y-110158586D01*
X79683482Y-110349415D01*
X79678954Y-110357888D01*
X79564204Y-110529633D01*
X79558109Y-110537059D01*
X79412064Y-110683106D01*
X79404638Y-110689201D01*
X79232893Y-110803951D01*
X79224420Y-110808479D01*
X79033593Y-110887511D01*
X79024399Y-110890299D01*
X78821263Y-110930688D01*
X78812823Y-110931616D01*
X78709556Y-110933966D01*
X78708441Y-110933979D01*
X74709533Y-110933980D01*
X74708415Y-110933967D01*
X74605148Y-110931611D01*
X74596709Y-110930683D01*
X74393577Y-110890289D01*
X74384384Y-110887501D01*
X74193560Y-110808466D01*
X74185087Y-110803937D01*
X74013355Y-110689191D01*
X74005929Y-110683097D01*
X73859880Y-110537044D01*
X73853786Y-110529617D01*
X73739046Y-110357882D01*
X73734518Y-110349410D01*
X73655488Y-110158583D01*
X73652700Y-110149389D01*
X73620930Y-109989602D01*
X73619989Y-109980047D01*
X73619989Y-105688791D01*
X73620931Y-105679228D01*
X73652888Y-105518637D01*
X73655677Y-105509446D01*
X73734712Y-105318670D01*
X73739240Y-105310200D01*
X73853971Y-105138503D01*
X73860064Y-105131079D01*
X74006083Y-104985061D01*
X74013507Y-104978968D01*
X74185203Y-104864238D01*
X74193673Y-104859710D01*
X74384452Y-104780676D01*
X74393643Y-104777887D01*
X74579343Y-104740934D01*
X74588906Y-104739992D01*
X78829104Y-104739992D01*
X78838666Y-104740934D01*
G37*
G36*
X98209051Y-87410935D02*
G01*
X98210713Y-87411265D01*
X98309001Y-87413475D01*
X98708390Y-87413475D01*
X98709594Y-87413490D01*
X98812842Y-87416028D01*
X98821200Y-87416955D01*
X99024330Y-87457370D01*
X99033521Y-87460159D01*
X99224311Y-87539194D01*
X99232781Y-87543721D01*
X99404480Y-87658448D01*
X99411905Y-87664541D01*
X99557932Y-87810564D01*
X99564025Y-87817988D01*
X99678762Y-87989689D01*
X99683290Y-87998159D01*
X99762328Y-88188937D01*
X99765117Y-88198128D01*
X99799020Y-88368489D01*
X99799962Y-88378052D01*
X99800019Y-92649459D01*
X99799078Y-92659015D01*
X99765304Y-92828890D01*
X99762516Y-92838084D01*
X99683485Y-93028912D01*
X99678957Y-93037385D01*
X99564208Y-93209132D01*
X99558113Y-93216558D01*
X99412067Y-93362605D01*
X99404641Y-93368700D01*
X99232896Y-93483451D01*
X99224423Y-93487979D01*
X99033596Y-93567012D01*
X99024403Y-93569800D01*
X98827001Y-93609050D01*
X98817445Y-93609991D01*
X94600605Y-93609993D01*
X94591048Y-93609052D01*
X94393579Y-93569785D01*
X94384386Y-93566997D01*
X94193562Y-93487962D01*
X94185089Y-93483433D01*
X94013357Y-93368688D01*
X94005931Y-93362594D01*
X93859882Y-93216540D01*
X93853788Y-93209113D01*
X93739048Y-93037378D01*
X93734520Y-93028906D01*
X93655491Y-92838079D01*
X93652703Y-92828885D01*
X93612315Y-92625749D01*
X93611387Y-92617327D01*
X93608999Y-92514040D01*
X93608986Y-92512907D01*
X93608986Y-88514070D01*
X93609001Y-88512865D01*
X93611541Y-88409621D01*
X93612468Y-88401262D01*
X93652891Y-88198134D01*
X93655680Y-88188944D01*
X93734716Y-87998168D01*
X93739244Y-87989698D01*
X93853975Y-87818002D01*
X93860068Y-87810578D01*
X94006086Y-87664561D01*
X94013510Y-87658468D01*
X94185206Y-87543738D01*
X94193677Y-87539210D01*
X94384456Y-87460177D01*
X94393646Y-87457388D01*
X94596775Y-87416966D01*
X94605129Y-87416039D01*
X94708379Y-87413490D01*
X94709588Y-87413475D01*
X95008995Y-87413475D01*
X95107251Y-87411228D01*
X95108733Y-87410934D01*
X95118296Y-87409992D01*
X98199483Y-87409992D01*
X98209051Y-87410935D01*
G37*
G36*
X103561238Y-104720934D02*
G01*
X103569721Y-104722621D01*
X103667987Y-104724989D01*
X104067384Y-104724989D01*
X104068588Y-104725004D01*
X104171835Y-104727541D01*
X104180193Y-104728468D01*
X104383323Y-104768883D01*
X104392514Y-104771671D01*
X104583304Y-104850705D01*
X104591774Y-104855233D01*
X104763473Y-104969961D01*
X104770898Y-104976054D01*
X104916927Y-105122078D01*
X104923020Y-105129503D01*
X105037752Y-105301200D01*
X105042280Y-105309670D01*
X105121317Y-105500452D01*
X105124106Y-105509643D01*
X105164526Y-105712765D01*
X105165454Y-105721137D01*
X105167965Y-105824416D01*
X105167979Y-105825607D01*
X105167979Y-109824441D01*
X105167966Y-109825558D01*
X105165612Y-109928827D01*
X105164684Y-109937266D01*
X105124293Y-110140401D01*
X105121505Y-110149594D01*
X105042473Y-110340420D01*
X105037945Y-110348893D01*
X104923196Y-110520636D01*
X104917101Y-110528062D01*
X104771055Y-110674106D01*
X104763629Y-110680201D01*
X104591885Y-110794950D01*
X104583412Y-110799478D01*
X104392585Y-110878508D01*
X104383391Y-110881296D01*
X104193507Y-110919050D01*
X104183952Y-110919991D01*
X99951985Y-110919993D01*
X99942428Y-110919052D01*
X99752573Y-110881298D01*
X99743380Y-110878510D01*
X99552555Y-110799474D01*
X99544082Y-110794945D01*
X99372350Y-110680200D01*
X99364924Y-110674106D01*
X99218876Y-110528055D01*
X99212782Y-110520628D01*
X99098038Y-110348888D01*
X99093510Y-110340416D01*
X99014481Y-110149594D01*
X99011693Y-110140401D01*
X98971302Y-109937263D01*
X98970374Y-109928839D01*
X98970002Y-109912746D01*
X98969989Y-109911614D01*
X98969989Y-105743841D01*
X98970004Y-105742636D01*
X98970533Y-105721133D01*
X98971460Y-105712775D01*
X99011881Y-105509645D01*
X99014670Y-105500454D01*
X99093704Y-105309674D01*
X99098232Y-105301204D01*
X99212963Y-105129506D01*
X99219056Y-105122082D01*
X99365074Y-104976062D01*
X99372498Y-104969969D01*
X99544196Y-104855237D01*
X99552666Y-104850709D01*
X99743445Y-104771672D01*
X99752636Y-104768883D01*
X99955763Y-104728461D01*
X99964126Y-104727534D01*
X100067367Y-104725004D01*
X100068567Y-104724989D01*
X100367988Y-104724989D01*
X100466245Y-104722743D01*
X100466250Y-104722743D01*
X100475345Y-104720934D01*
X100484905Y-104719992D01*
X103551676Y-104719992D01*
X103561238Y-104720934D01*
G37*
M02*
