%TF.GenerationSoftware,KiCad,Pcbnew,10.0.3*%
%TF.CreationDate,2026-07-01T11:37:50+01:00*%
%TF.ProjectId,ACC,4143432e-6b69-4636-9164-5f7063625858,2.2*%
%TF.SameCoordinates,Original*%
%TF.FileFunction,Soldermask,Top*%
%TF.FilePolarity,Negative*%
%FSLAX46Y46*%
G04 Gerber Fmt 4.6, Leading zero omitted, Abs format (unit mm)*
G04 Created by KiCad (PCBNEW 10.0.3) date 2026-07-01 11:37:50*
%MOMM*%
%LPD*%
G01*
G04 APERTURE LIST*
G04 APERTURE END LIST*
G36*
X76137251Y-133161595D02*
G01*
X76169694Y-133183272D01*
X76183414Y-133203806D01*
X76234552Y-133203806D01*
X76248272Y-133183272D01*
X76280715Y-133161595D01*
X76318983Y-133153983D01*
X76598983Y-133153983D01*
X76637251Y-133161595D01*
X76669694Y-133183272D01*
X76683414Y-133203806D01*
X76734552Y-133203806D01*
X76748272Y-133183272D01*
X76780715Y-133161595D01*
X76818983Y-133153983D01*
X77098983Y-133153983D01*
X77137251Y-133161595D01*
X77169694Y-133183272D01*
X77183414Y-133203806D01*
X77234552Y-133203806D01*
X77248272Y-133183272D01*
X77280715Y-133161595D01*
X77318983Y-133153983D01*
X77598983Y-133153983D01*
X77637251Y-133161595D01*
X77669694Y-133183272D01*
X77691371Y-133215715D01*
X77698983Y-133253983D01*
X77698983Y-133753983D01*
X77691371Y-133792251D01*
X77669694Y-133824694D01*
X77667603Y-133826090D01*
X77657559Y-133841123D01*
X77685812Y-133893983D01*
X77838983Y-133893983D01*
X77877251Y-133901595D01*
X77909694Y-133923272D01*
X77931371Y-133955715D01*
X77938983Y-133993983D01*
X77938983Y-134273983D01*
X77931371Y-134312251D01*
X77909694Y-134344694D01*
X77889159Y-134358414D01*
X77889159Y-134409551D01*
X77909694Y-134423272D01*
X77931371Y-134455715D01*
X77938983Y-134493983D01*
X77938983Y-134773983D01*
X77931371Y-134812251D01*
X77909694Y-134844694D01*
X77877251Y-134866371D01*
X77838983Y-134873983D01*
X77685812Y-134873983D01*
X77657559Y-134926842D01*
X77667604Y-134941876D01*
X77669694Y-134943272D01*
X77691371Y-134975715D01*
X77698983Y-135013983D01*
X77698983Y-135513983D01*
X77691371Y-135552251D01*
X77669694Y-135584694D01*
X77637251Y-135606371D01*
X77598983Y-135613983D01*
X77318983Y-135613983D01*
X77280715Y-135606371D01*
X77248272Y-135584694D01*
X77234551Y-135564159D01*
X77183415Y-135564159D01*
X77169694Y-135584694D01*
X77137251Y-135606371D01*
X77098983Y-135613983D01*
X76818983Y-135613983D01*
X76780715Y-135606371D01*
X76748272Y-135584694D01*
X76734551Y-135564159D01*
X76683415Y-135564159D01*
X76669694Y-135584694D01*
X76637251Y-135606371D01*
X76598983Y-135613983D01*
X76318983Y-135613983D01*
X76280715Y-135606371D01*
X76248272Y-135584694D01*
X76234551Y-135564159D01*
X76183415Y-135564159D01*
X76169694Y-135584694D01*
X76137251Y-135606371D01*
X76098983Y-135613983D01*
X75818983Y-135613983D01*
X75780715Y-135606371D01*
X75748272Y-135584694D01*
X75726595Y-135552251D01*
X75718983Y-135513983D01*
X75718983Y-135013983D01*
X75726595Y-134975715D01*
X75748272Y-134943272D01*
X75750358Y-134941877D01*
X75760406Y-134926841D01*
X75732153Y-134873983D01*
X75578983Y-134873983D01*
X75540715Y-134866371D01*
X75508272Y-134844694D01*
X75486595Y-134812251D01*
X75478983Y-134773983D01*
X75478983Y-134493983D01*
X75486595Y-134455715D01*
X75508272Y-134423272D01*
X75528806Y-134409552D01*
X75528806Y-134358413D01*
X75508272Y-134344694D01*
X75486595Y-134312251D01*
X75478983Y-134273983D01*
X75478983Y-133993983D01*
X75486595Y-133955715D01*
X75508272Y-133923272D01*
X75533774Y-133906233D01*
X76124193Y-133906233D01*
X76149694Y-133923272D01*
X76171371Y-133955715D01*
X76178983Y-133993983D01*
X76178983Y-134273983D01*
X76171371Y-134312251D01*
X76149694Y-134344694D01*
X76129159Y-134358414D01*
X76129159Y-134409551D01*
X76149694Y-134423272D01*
X76171371Y-134455715D01*
X76178983Y-134493983D01*
X76178983Y-134773983D01*
X76171371Y-134812251D01*
X76149694Y-134844694D01*
X76124194Y-134861731D01*
X76124194Y-134914026D01*
X76134789Y-134921105D01*
X76137251Y-134921595D01*
X76169694Y-134943272D01*
X76183414Y-134963806D01*
X76234552Y-134963806D01*
X76248272Y-134943272D01*
X76280715Y-134921595D01*
X76318983Y-134913983D01*
X76598983Y-134913983D01*
X76637251Y-134921595D01*
X76669694Y-134943272D01*
X76683414Y-134963806D01*
X76734552Y-134963806D01*
X76748272Y-134943272D01*
X76780715Y-134921595D01*
X76818983Y-134913983D01*
X77098983Y-134913983D01*
X77137251Y-134921595D01*
X77169694Y-134943272D01*
X77183414Y-134963806D01*
X77234552Y-134963806D01*
X77248272Y-134943272D01*
X77280715Y-134921595D01*
X77283174Y-134921105D01*
X77293771Y-134914025D01*
X77293771Y-134861731D01*
X77268272Y-134844694D01*
X77246595Y-134812251D01*
X77238983Y-134773983D01*
X77238983Y-134493983D01*
X77246595Y-134455715D01*
X77268272Y-134423272D01*
X77288806Y-134409552D01*
X77288806Y-134358413D01*
X77268272Y-134344694D01*
X77246595Y-134312251D01*
X77238983Y-134273983D01*
X77238983Y-133993983D01*
X77246595Y-133955715D01*
X77268272Y-133923272D01*
X77293771Y-133906234D01*
X77293770Y-133853938D01*
X77283178Y-133846861D01*
X77280715Y-133846371D01*
X77248272Y-133824694D01*
X77234551Y-133804159D01*
X77183415Y-133804159D01*
X77169694Y-133824694D01*
X77137251Y-133846371D01*
X77098983Y-133853983D01*
X76818983Y-133853983D01*
X76780715Y-133846371D01*
X76748272Y-133824694D01*
X76734551Y-133804159D01*
X76683415Y-133804159D01*
X76669694Y-133824694D01*
X76637251Y-133846371D01*
X76598983Y-133853983D01*
X76318983Y-133853983D01*
X76280715Y-133846371D01*
X76248272Y-133824694D01*
X76234551Y-133804159D01*
X76183415Y-133804159D01*
X76169694Y-133824694D01*
X76137251Y-133846371D01*
X76134786Y-133846861D01*
X76124195Y-133853938D01*
X76124193Y-133906233D01*
X75533774Y-133906233D01*
X75540715Y-133901595D01*
X75578983Y-133893983D01*
X75732153Y-133893983D01*
X75760406Y-133841124D01*
X75750360Y-133826089D01*
X75748272Y-133824694D01*
X75726595Y-133792251D01*
X75718983Y-133753983D01*
X75718983Y-133253983D01*
X75726595Y-133215715D01*
X75748272Y-133183272D01*
X75780715Y-133161595D01*
X75818983Y-133153983D01*
X76098983Y-133153983D01*
X76137251Y-133161595D01*
G37*
G36*
X74759046Y-134480804D02*
G01*
X74811553Y-134486896D01*
X74829494Y-134494818D01*
X74852584Y-134499411D01*
X74877304Y-134515928D01*
X74898619Y-134525340D01*
X74913176Y-134539897D01*
X74935312Y-134554688D01*
X74950102Y-134576823D01*
X74964659Y-134591380D01*
X74974069Y-134612693D01*
X74990589Y-134637416D01*
X74995182Y-134660507D01*
X75003103Y-134678446D01*
X75009192Y-134730942D01*
X75010000Y-134735000D01*
X75010000Y-135160000D01*
X75009192Y-135164058D01*
X75003103Y-135216553D01*
X74995182Y-135234490D01*
X74990589Y-135257584D01*
X74974068Y-135282308D01*
X74964659Y-135303619D01*
X74950104Y-135318173D01*
X74935312Y-135340312D01*
X74913173Y-135355104D01*
X74898619Y-135369659D01*
X74877308Y-135379068D01*
X74852584Y-135395589D01*
X74829490Y-135400182D01*
X74811553Y-135408103D01*
X74759058Y-135414192D01*
X74755000Y-135415000D01*
X74445000Y-135415000D01*
X74440942Y-135414192D01*
X74388446Y-135408103D01*
X74370507Y-135400182D01*
X74347416Y-135395589D01*
X74322693Y-135379069D01*
X74301380Y-135369659D01*
X74286823Y-135355102D01*
X74264688Y-135340312D01*
X74249897Y-135318176D01*
X74235340Y-135303619D01*
X74225928Y-135282304D01*
X74209411Y-135257584D01*
X74204818Y-135234494D01*
X74196896Y-135216553D01*
X74190804Y-135164046D01*
X74190000Y-135160000D01*
X74190000Y-134735000D01*
X74190804Y-134730954D01*
X74196896Y-134678446D01*
X74204818Y-134660503D01*
X74209411Y-134637416D01*
X74225927Y-134612697D01*
X74235340Y-134591380D01*
X74249899Y-134576820D01*
X74264688Y-134554688D01*
X74286820Y-134539899D01*
X74301380Y-134525340D01*
X74322697Y-134515927D01*
X74347416Y-134499411D01*
X74370503Y-134494818D01*
X74388446Y-134486896D01*
X74440954Y-134480804D01*
X74445000Y-134480000D01*
X74755000Y-134480000D01*
X74759046Y-134480804D01*
G37*
G36*
X79038030Y-134474785D02*
G01*
X79090537Y-134480877D01*
X79108478Y-134488799D01*
X79131568Y-134493392D01*
X79156288Y-134509909D01*
X79177603Y-134519321D01*
X79192160Y-134533878D01*
X79214296Y-134548669D01*
X79229086Y-134570804D01*
X79243643Y-134585361D01*
X79253053Y-134606674D01*
X79269573Y-134631397D01*
X79274166Y-134654488D01*
X79282087Y-134672427D01*
X79288176Y-134724923D01*
X79288984Y-134728981D01*
X79288984Y-135153981D01*
X79288176Y-135158039D01*
X79282087Y-135210534D01*
X79274166Y-135228471D01*
X79269573Y-135251565D01*
X79253052Y-135276289D01*
X79243643Y-135297600D01*
X79229088Y-135312154D01*
X79214296Y-135334293D01*
X79192157Y-135349085D01*
X79177603Y-135363640D01*
X79156292Y-135373049D01*
X79131568Y-135389570D01*
X79108474Y-135394163D01*
X79090537Y-135402084D01*
X79038042Y-135408173D01*
X79033984Y-135408981D01*
X78723984Y-135408981D01*
X78719926Y-135408173D01*
X78667430Y-135402084D01*
X78649491Y-135394163D01*
X78626400Y-135389570D01*
X78601677Y-135373050D01*
X78580364Y-135363640D01*
X78565807Y-135349083D01*
X78543672Y-135334293D01*
X78528881Y-135312157D01*
X78514324Y-135297600D01*
X78504912Y-135276285D01*
X78488395Y-135251565D01*
X78483802Y-135228475D01*
X78475880Y-135210534D01*
X78469788Y-135158027D01*
X78468984Y-135153981D01*
X78468984Y-134728981D01*
X78469788Y-134724935D01*
X78475880Y-134672427D01*
X78483802Y-134654484D01*
X78488395Y-134631397D01*
X78504911Y-134606678D01*
X78514324Y-134585361D01*
X78528883Y-134570801D01*
X78543672Y-134548669D01*
X78565804Y-134533880D01*
X78580364Y-134519321D01*
X78601681Y-134509908D01*
X78626400Y-134493392D01*
X78649487Y-134488799D01*
X78667430Y-134480877D01*
X78719938Y-134474785D01*
X78723984Y-134473981D01*
X79033984Y-134473981D01*
X79038030Y-134474785D01*
G37*
G36*
X74759046Y-133345804D02*
G01*
X74811553Y-133351896D01*
X74829494Y-133359818D01*
X74852584Y-133364411D01*
X74877304Y-133380928D01*
X74898619Y-133390340D01*
X74913176Y-133404897D01*
X74935312Y-133419688D01*
X74950102Y-133441823D01*
X74964659Y-133456380D01*
X74974069Y-133477693D01*
X74990589Y-133502416D01*
X74995182Y-133525507D01*
X75003103Y-133543446D01*
X75009192Y-133595942D01*
X75010000Y-133600000D01*
X75010000Y-134025000D01*
X75009192Y-134029058D01*
X75003103Y-134081553D01*
X74995182Y-134099490D01*
X74990589Y-134122584D01*
X74974068Y-134147308D01*
X74964659Y-134168619D01*
X74950104Y-134183173D01*
X74935312Y-134205312D01*
X74913173Y-134220104D01*
X74898619Y-134234659D01*
X74877308Y-134244068D01*
X74852584Y-134260589D01*
X74829490Y-134265182D01*
X74811553Y-134273103D01*
X74759058Y-134279192D01*
X74755000Y-134280000D01*
X74445000Y-134280000D01*
X74440942Y-134279192D01*
X74388446Y-134273103D01*
X74370507Y-134265182D01*
X74347416Y-134260589D01*
X74322693Y-134244069D01*
X74301380Y-134234659D01*
X74286823Y-134220102D01*
X74264688Y-134205312D01*
X74249897Y-134183176D01*
X74235340Y-134168619D01*
X74225928Y-134147304D01*
X74209411Y-134122584D01*
X74204818Y-134099494D01*
X74196896Y-134081553D01*
X74190804Y-134029046D01*
X74190000Y-134025000D01*
X74190000Y-133600000D01*
X74190804Y-133595954D01*
X74196896Y-133543446D01*
X74204818Y-133525503D01*
X74209411Y-133502416D01*
X74225927Y-133477697D01*
X74235340Y-133456380D01*
X74249899Y-133441820D01*
X74264688Y-133419688D01*
X74286820Y-133404899D01*
X74301380Y-133390340D01*
X74322697Y-133380927D01*
X74347416Y-133364411D01*
X74370503Y-133359818D01*
X74388446Y-133351896D01*
X74440954Y-133345804D01*
X74445000Y-133345000D01*
X74755000Y-133345000D01*
X74759046Y-133345804D01*
G37*
G36*
X79038030Y-133339785D02*
G01*
X79090537Y-133345877D01*
X79108478Y-133353799D01*
X79131568Y-133358392D01*
X79156288Y-133374909D01*
X79177603Y-133384321D01*
X79192160Y-133398878D01*
X79214296Y-133413669D01*
X79229086Y-133435804D01*
X79243643Y-133450361D01*
X79253053Y-133471674D01*
X79269573Y-133496397D01*
X79274166Y-133519488D01*
X79282087Y-133537427D01*
X79288176Y-133589923D01*
X79288984Y-133593981D01*
X79288984Y-134018981D01*
X79288176Y-134023039D01*
X79282087Y-134075534D01*
X79274166Y-134093471D01*
X79269573Y-134116565D01*
X79253052Y-134141289D01*
X79243643Y-134162600D01*
X79229088Y-134177154D01*
X79214296Y-134199293D01*
X79192157Y-134214085D01*
X79177603Y-134228640D01*
X79156292Y-134238049D01*
X79131568Y-134254570D01*
X79108474Y-134259163D01*
X79090537Y-134267084D01*
X79038042Y-134273173D01*
X79033984Y-134273981D01*
X78723984Y-134273981D01*
X78719926Y-134273173D01*
X78667430Y-134267084D01*
X78649491Y-134259163D01*
X78626400Y-134254570D01*
X78601677Y-134238050D01*
X78580364Y-134228640D01*
X78565807Y-134214083D01*
X78543672Y-134199293D01*
X78528881Y-134177157D01*
X78514324Y-134162600D01*
X78504912Y-134141285D01*
X78488395Y-134116565D01*
X78483802Y-134093475D01*
X78475880Y-134075534D01*
X78469788Y-134023027D01*
X78468984Y-134018981D01*
X78468984Y-133593981D01*
X78469788Y-133589935D01*
X78475880Y-133537427D01*
X78483802Y-133519484D01*
X78488395Y-133496397D01*
X78504911Y-133471678D01*
X78514324Y-133450361D01*
X78528883Y-133435801D01*
X78543672Y-133413669D01*
X78565804Y-133398880D01*
X78580364Y-133384321D01*
X78601681Y-133374908D01*
X78626400Y-133358392D01*
X78649487Y-133353799D01*
X78667430Y-133345877D01*
X78719938Y-133339785D01*
X78723984Y-133338981D01*
X79033984Y-133338981D01*
X79038030Y-133339785D01*
G37*
G36*
X76407251Y-132081592D02*
G01*
X76439694Y-132103269D01*
X76461371Y-132135712D01*
X76468983Y-132173980D01*
X76468983Y-132493980D01*
X76461371Y-132532248D01*
X76439694Y-132564691D01*
X76407251Y-132586368D01*
X76368983Y-132593980D01*
X75528983Y-132593980D01*
X75490715Y-132586368D01*
X75458272Y-132564691D01*
X75436595Y-132532248D01*
X75428983Y-132493980D01*
X75428983Y-132173980D01*
X75436595Y-132135712D01*
X75458272Y-132103269D01*
X75490715Y-132081592D01*
X75528983Y-132073980D01*
X76368983Y-132073980D01*
X76407251Y-132081592D01*
G37*
G36*
X78087251Y-132081592D02*
G01*
X78119694Y-132103269D01*
X78141371Y-132135712D01*
X78148983Y-132173980D01*
X78148983Y-132493980D01*
X78141371Y-132532248D01*
X78119694Y-132564691D01*
X78087251Y-132586368D01*
X78048983Y-132593980D01*
X77208983Y-132593980D01*
X77170715Y-132586368D01*
X77138272Y-132564691D01*
X77116595Y-132532248D01*
X77108983Y-132493980D01*
X77108983Y-132173980D01*
X77116595Y-132135712D01*
X77138272Y-132103269D01*
X77170715Y-132081592D01*
X77208983Y-132073980D01*
X78048983Y-132073980D01*
X78087251Y-132081592D01*
G37*
G36*
X78087251Y-131431592D02*
G01*
X78119694Y-131453269D01*
X78141371Y-131485712D01*
X78148983Y-131523980D01*
X78148983Y-131843980D01*
X78141371Y-131882248D01*
X78119694Y-131914691D01*
X78087251Y-131936368D01*
X78048983Y-131943980D01*
X77208983Y-131943980D01*
X77170715Y-131936368D01*
X77138272Y-131914691D01*
X77116595Y-131882248D01*
X77108983Y-131843980D01*
X77108983Y-131523980D01*
X77116595Y-131485712D01*
X77138272Y-131453269D01*
X77170715Y-131431592D01*
X77208983Y-131423980D01*
X78048983Y-131423980D01*
X78087251Y-131431592D01*
G37*
G36*
X76407251Y-130781592D02*
G01*
X76439694Y-130803269D01*
X76461371Y-130835712D01*
X76468983Y-130873980D01*
X76468983Y-131193980D01*
X76461371Y-131232248D01*
X76439694Y-131264691D01*
X76407251Y-131286368D01*
X76368983Y-131293980D01*
X75528983Y-131293980D01*
X75490715Y-131286368D01*
X75458272Y-131264691D01*
X75436595Y-131232248D01*
X75428983Y-131193980D01*
X75428983Y-130873980D01*
X75436595Y-130835712D01*
X75458272Y-130803269D01*
X75490715Y-130781592D01*
X75528983Y-130773980D01*
X76368983Y-130773980D01*
X76407251Y-130781592D01*
G37*
G36*
X78087251Y-130781592D02*
G01*
X78119694Y-130803269D01*
X78141371Y-130835712D01*
X78148983Y-130873980D01*
X78148983Y-131193980D01*
X78141371Y-131232248D01*
X78119694Y-131264691D01*
X78087251Y-131286368D01*
X78048983Y-131293980D01*
X77208983Y-131293980D01*
X77170715Y-131286368D01*
X77138272Y-131264691D01*
X77116595Y-131232248D01*
X77108983Y-131193980D01*
X77108983Y-130873980D01*
X77116595Y-130835712D01*
X77138272Y-130803269D01*
X77170715Y-130781592D01*
X77208983Y-130773980D01*
X78048983Y-130773980D01*
X78087251Y-130781592D01*
G37*
G36*
X96137250Y-125132102D02*
G01*
X96169693Y-125153779D01*
X96183413Y-125174313D01*
X96234551Y-125174313D01*
X96248271Y-125153779D01*
X96280714Y-125132102D01*
X96318982Y-125124490D01*
X96598982Y-125124490D01*
X96637250Y-125132102D01*
X96669693Y-125153779D01*
X96683413Y-125174313D01*
X96734551Y-125174313D01*
X96748271Y-125153779D01*
X96780714Y-125132102D01*
X96818982Y-125124490D01*
X97098982Y-125124490D01*
X97137250Y-125132102D01*
X97169693Y-125153779D01*
X97183413Y-125174313D01*
X97234551Y-125174313D01*
X97248271Y-125153779D01*
X97280714Y-125132102D01*
X97318982Y-125124490D01*
X97598982Y-125124490D01*
X97637250Y-125132102D01*
X97669693Y-125153779D01*
X97691370Y-125186222D01*
X97698982Y-125224490D01*
X97698982Y-125724490D01*
X97691370Y-125762758D01*
X97669693Y-125795201D01*
X97667602Y-125796597D01*
X97657558Y-125811630D01*
X97685811Y-125864490D01*
X97838982Y-125864490D01*
X97877250Y-125872102D01*
X97909693Y-125893779D01*
X97931370Y-125926222D01*
X97938982Y-125964490D01*
X97938982Y-126244490D01*
X97931370Y-126282758D01*
X97909693Y-126315201D01*
X97889158Y-126328921D01*
X97889158Y-126380058D01*
X97909693Y-126393779D01*
X97931370Y-126426222D01*
X97938982Y-126464490D01*
X97938982Y-126744490D01*
X97931370Y-126782758D01*
X97909693Y-126815201D01*
X97877250Y-126836878D01*
X97838982Y-126844490D01*
X97685811Y-126844490D01*
X97657558Y-126897349D01*
X97667603Y-126912383D01*
X97669693Y-126913779D01*
X97691370Y-126946222D01*
X97698982Y-126984490D01*
X97698982Y-127484490D01*
X97691370Y-127522758D01*
X97669693Y-127555201D01*
X97637250Y-127576878D01*
X97598982Y-127584490D01*
X97318982Y-127584490D01*
X97280714Y-127576878D01*
X97248271Y-127555201D01*
X97234550Y-127534666D01*
X97183414Y-127534666D01*
X97169693Y-127555201D01*
X97137250Y-127576878D01*
X97098982Y-127584490D01*
X96818982Y-127584490D01*
X96780714Y-127576878D01*
X96748271Y-127555201D01*
X96734550Y-127534666D01*
X96683414Y-127534666D01*
X96669693Y-127555201D01*
X96637250Y-127576878D01*
X96598982Y-127584490D01*
X96318982Y-127584490D01*
X96280714Y-127576878D01*
X96248271Y-127555201D01*
X96234550Y-127534666D01*
X96183414Y-127534666D01*
X96169693Y-127555201D01*
X96137250Y-127576878D01*
X96098982Y-127584490D01*
X95818982Y-127584490D01*
X95780714Y-127576878D01*
X95748271Y-127555201D01*
X95726594Y-127522758D01*
X95718982Y-127484490D01*
X95718982Y-126984490D01*
X95726594Y-126946222D01*
X95748271Y-126913779D01*
X95750357Y-126912384D01*
X95760405Y-126897348D01*
X95732152Y-126844490D01*
X95578982Y-126844490D01*
X95540714Y-126836878D01*
X95508271Y-126815201D01*
X95486594Y-126782758D01*
X95478982Y-126744490D01*
X95478982Y-126464490D01*
X95486594Y-126426222D01*
X95508271Y-126393779D01*
X95528805Y-126380059D01*
X95528805Y-126328920D01*
X95508271Y-126315201D01*
X95486594Y-126282758D01*
X95478982Y-126244490D01*
X95478982Y-125964490D01*
X95486594Y-125926222D01*
X95508271Y-125893779D01*
X95533773Y-125876740D01*
X96124192Y-125876740D01*
X96149693Y-125893779D01*
X96171370Y-125926222D01*
X96178982Y-125964490D01*
X96178982Y-126244490D01*
X96171370Y-126282758D01*
X96149693Y-126315201D01*
X96129158Y-126328921D01*
X96129158Y-126380058D01*
X96149693Y-126393779D01*
X96171370Y-126426222D01*
X96178982Y-126464490D01*
X96178982Y-126744490D01*
X96171370Y-126782758D01*
X96149693Y-126815201D01*
X96124193Y-126832238D01*
X96124193Y-126884533D01*
X96134788Y-126891612D01*
X96137250Y-126892102D01*
X96169693Y-126913779D01*
X96183413Y-126934313D01*
X96234551Y-126934313D01*
X96248271Y-126913779D01*
X96280714Y-126892102D01*
X96318982Y-126884490D01*
X96598982Y-126884490D01*
X96637250Y-126892102D01*
X96669693Y-126913779D01*
X96683413Y-126934313D01*
X96734551Y-126934313D01*
X96748271Y-126913779D01*
X96780714Y-126892102D01*
X96818982Y-126884490D01*
X97098982Y-126884490D01*
X97137250Y-126892102D01*
X97169693Y-126913779D01*
X97183413Y-126934313D01*
X97234551Y-126934313D01*
X97248271Y-126913779D01*
X97280714Y-126892102D01*
X97283173Y-126891612D01*
X97293770Y-126884532D01*
X97293770Y-126832238D01*
X97268271Y-126815201D01*
X97246594Y-126782758D01*
X97238982Y-126744490D01*
X97238982Y-126464490D01*
X97246594Y-126426222D01*
X97268271Y-126393779D01*
X97288805Y-126380059D01*
X97288805Y-126328920D01*
X97268271Y-126315201D01*
X97246594Y-126282758D01*
X97238982Y-126244490D01*
X97238982Y-125964490D01*
X97246594Y-125926222D01*
X97268271Y-125893779D01*
X97293770Y-125876741D01*
X97293769Y-125824445D01*
X97283177Y-125817368D01*
X97280714Y-125816878D01*
X97248271Y-125795201D01*
X97234550Y-125774666D01*
X97183414Y-125774666D01*
X97169693Y-125795201D01*
X97137250Y-125816878D01*
X97098982Y-125824490D01*
X96818982Y-125824490D01*
X96780714Y-125816878D01*
X96748271Y-125795201D01*
X96734550Y-125774666D01*
X96683414Y-125774666D01*
X96669693Y-125795201D01*
X96637250Y-125816878D01*
X96598982Y-125824490D01*
X96318982Y-125824490D01*
X96280714Y-125816878D01*
X96248271Y-125795201D01*
X96234550Y-125774666D01*
X96183414Y-125774666D01*
X96169693Y-125795201D01*
X96137250Y-125816878D01*
X96134785Y-125817368D01*
X96124194Y-125824445D01*
X96124192Y-125876740D01*
X95533773Y-125876740D01*
X95540714Y-125872102D01*
X95578982Y-125864490D01*
X95732152Y-125864490D01*
X95760405Y-125811631D01*
X95750359Y-125796596D01*
X95748271Y-125795201D01*
X95726594Y-125762758D01*
X95718982Y-125724490D01*
X95718982Y-125224490D01*
X95726594Y-125186222D01*
X95748271Y-125153779D01*
X95780714Y-125132102D01*
X95818982Y-125124490D01*
X96098982Y-125124490D01*
X96137250Y-125132102D01*
G37*
G36*
X56137250Y-125132101D02*
G01*
X56169693Y-125153778D01*
X56183413Y-125174312D01*
X56234551Y-125174312D01*
X56248271Y-125153778D01*
X56280714Y-125132101D01*
X56318982Y-125124489D01*
X56598982Y-125124489D01*
X56637250Y-125132101D01*
X56669693Y-125153778D01*
X56683413Y-125174312D01*
X56734551Y-125174312D01*
X56748271Y-125153778D01*
X56780714Y-125132101D01*
X56818982Y-125124489D01*
X57098982Y-125124489D01*
X57137250Y-125132101D01*
X57169693Y-125153778D01*
X57183413Y-125174312D01*
X57234551Y-125174312D01*
X57248271Y-125153778D01*
X57280714Y-125132101D01*
X57318982Y-125124489D01*
X57598982Y-125124489D01*
X57637250Y-125132101D01*
X57669693Y-125153778D01*
X57691370Y-125186221D01*
X57698982Y-125224489D01*
X57698982Y-125724489D01*
X57691370Y-125762757D01*
X57669693Y-125795200D01*
X57667602Y-125796596D01*
X57657558Y-125811629D01*
X57685811Y-125864489D01*
X57838982Y-125864489D01*
X57877250Y-125872101D01*
X57909693Y-125893778D01*
X57931370Y-125926221D01*
X57938982Y-125964489D01*
X57938982Y-126244489D01*
X57931370Y-126282757D01*
X57909693Y-126315200D01*
X57889158Y-126328920D01*
X57889158Y-126380057D01*
X57909693Y-126393778D01*
X57931370Y-126426221D01*
X57938982Y-126464489D01*
X57938982Y-126744489D01*
X57931370Y-126782757D01*
X57909693Y-126815200D01*
X57877250Y-126836877D01*
X57838982Y-126844489D01*
X57685811Y-126844489D01*
X57657558Y-126897348D01*
X57667603Y-126912382D01*
X57669693Y-126913778D01*
X57691370Y-126946221D01*
X57698982Y-126984489D01*
X57698982Y-127484489D01*
X57691370Y-127522757D01*
X57669693Y-127555200D01*
X57637250Y-127576877D01*
X57598982Y-127584489D01*
X57318982Y-127584489D01*
X57280714Y-127576877D01*
X57248271Y-127555200D01*
X57234550Y-127534665D01*
X57183414Y-127534665D01*
X57169693Y-127555200D01*
X57137250Y-127576877D01*
X57098982Y-127584489D01*
X56818982Y-127584489D01*
X56780714Y-127576877D01*
X56748271Y-127555200D01*
X56734550Y-127534665D01*
X56683414Y-127534665D01*
X56669693Y-127555200D01*
X56637250Y-127576877D01*
X56598982Y-127584489D01*
X56318982Y-127584489D01*
X56280714Y-127576877D01*
X56248271Y-127555200D01*
X56234550Y-127534665D01*
X56183414Y-127534665D01*
X56169693Y-127555200D01*
X56137250Y-127576877D01*
X56098982Y-127584489D01*
X55818982Y-127584489D01*
X55780714Y-127576877D01*
X55748271Y-127555200D01*
X55726594Y-127522757D01*
X55718982Y-127484489D01*
X55718982Y-126984489D01*
X55726594Y-126946221D01*
X55748271Y-126913778D01*
X55750357Y-126912383D01*
X55760405Y-126897347D01*
X55732152Y-126844489D01*
X55578982Y-126844489D01*
X55540714Y-126836877D01*
X55508271Y-126815200D01*
X55486594Y-126782757D01*
X55478982Y-126744489D01*
X55478982Y-126464489D01*
X55486594Y-126426221D01*
X55508271Y-126393778D01*
X55528805Y-126380058D01*
X55528805Y-126328919D01*
X55508271Y-126315200D01*
X55486594Y-126282757D01*
X55478982Y-126244489D01*
X55478982Y-125964489D01*
X55486594Y-125926221D01*
X55508271Y-125893778D01*
X55533773Y-125876739D01*
X56124192Y-125876739D01*
X56149693Y-125893778D01*
X56171370Y-125926221D01*
X56178982Y-125964489D01*
X56178982Y-126244489D01*
X56171370Y-126282757D01*
X56149693Y-126315200D01*
X56129158Y-126328920D01*
X56129158Y-126380057D01*
X56149693Y-126393778D01*
X56171370Y-126426221D01*
X56178982Y-126464489D01*
X56178982Y-126744489D01*
X56171370Y-126782757D01*
X56149693Y-126815200D01*
X56124193Y-126832237D01*
X56124193Y-126884532D01*
X56134788Y-126891611D01*
X56137250Y-126892101D01*
X56169693Y-126913778D01*
X56183413Y-126934312D01*
X56234551Y-126934312D01*
X56248271Y-126913778D01*
X56280714Y-126892101D01*
X56318982Y-126884489D01*
X56598982Y-126884489D01*
X56637250Y-126892101D01*
X56669693Y-126913778D01*
X56683413Y-126934312D01*
X56734551Y-126934312D01*
X56748271Y-126913778D01*
X56780714Y-126892101D01*
X56818982Y-126884489D01*
X57098982Y-126884489D01*
X57137250Y-126892101D01*
X57169693Y-126913778D01*
X57183413Y-126934312D01*
X57234551Y-126934312D01*
X57248271Y-126913778D01*
X57280714Y-126892101D01*
X57283173Y-126891611D01*
X57293770Y-126884531D01*
X57293770Y-126832237D01*
X57268271Y-126815200D01*
X57246594Y-126782757D01*
X57238982Y-126744489D01*
X57238982Y-126464489D01*
X57246594Y-126426221D01*
X57268271Y-126393778D01*
X57288805Y-126380058D01*
X57288805Y-126328919D01*
X57268271Y-126315200D01*
X57246594Y-126282757D01*
X57238982Y-126244489D01*
X57238982Y-125964489D01*
X57246594Y-125926221D01*
X57268271Y-125893778D01*
X57293770Y-125876740D01*
X57293769Y-125824444D01*
X57283177Y-125817367D01*
X57280714Y-125816877D01*
X57248271Y-125795200D01*
X57234550Y-125774665D01*
X57183414Y-125774665D01*
X57169693Y-125795200D01*
X57137250Y-125816877D01*
X57098982Y-125824489D01*
X56818982Y-125824489D01*
X56780714Y-125816877D01*
X56748271Y-125795200D01*
X56734550Y-125774665D01*
X56683414Y-125774665D01*
X56669693Y-125795200D01*
X56637250Y-125816877D01*
X56598982Y-125824489D01*
X56318982Y-125824489D01*
X56280714Y-125816877D01*
X56248271Y-125795200D01*
X56234550Y-125774665D01*
X56183414Y-125774665D01*
X56169693Y-125795200D01*
X56137250Y-125816877D01*
X56134785Y-125817367D01*
X56124194Y-125824444D01*
X56124192Y-125876739D01*
X55533773Y-125876739D01*
X55540714Y-125872101D01*
X55578982Y-125864489D01*
X55732152Y-125864489D01*
X55760405Y-125811630D01*
X55750359Y-125796595D01*
X55748271Y-125795200D01*
X55726594Y-125762757D01*
X55718982Y-125724489D01*
X55718982Y-125224489D01*
X55726594Y-125186221D01*
X55748271Y-125153778D01*
X55780714Y-125132101D01*
X55818982Y-125124489D01*
X56098982Y-125124489D01*
X56137250Y-125132101D01*
G37*
G36*
X54759046Y-126455295D02*
G01*
X54811553Y-126461387D01*
X54829494Y-126469309D01*
X54852584Y-126473902D01*
X54877304Y-126490419D01*
X54898619Y-126499831D01*
X54913176Y-126514388D01*
X54935312Y-126529179D01*
X54950102Y-126551314D01*
X54964659Y-126565871D01*
X54974069Y-126587184D01*
X54990589Y-126611907D01*
X54995182Y-126634998D01*
X55003103Y-126652937D01*
X55009192Y-126705433D01*
X55010000Y-126709491D01*
X55010000Y-127134491D01*
X55009192Y-127138549D01*
X55003103Y-127191044D01*
X54995182Y-127208981D01*
X54990589Y-127232075D01*
X54974068Y-127256799D01*
X54964659Y-127278110D01*
X54950104Y-127292664D01*
X54935312Y-127314803D01*
X54913173Y-127329595D01*
X54898619Y-127344150D01*
X54877308Y-127353559D01*
X54852584Y-127370080D01*
X54829490Y-127374673D01*
X54811553Y-127382594D01*
X54759058Y-127388683D01*
X54755000Y-127389491D01*
X54445000Y-127389491D01*
X54440942Y-127388683D01*
X54388446Y-127382594D01*
X54370507Y-127374673D01*
X54347416Y-127370080D01*
X54322693Y-127353560D01*
X54301380Y-127344150D01*
X54286823Y-127329593D01*
X54264688Y-127314803D01*
X54249897Y-127292667D01*
X54235340Y-127278110D01*
X54225928Y-127256795D01*
X54209411Y-127232075D01*
X54204818Y-127208985D01*
X54196896Y-127191044D01*
X54190804Y-127138537D01*
X54190000Y-127134491D01*
X54190000Y-126709491D01*
X54190804Y-126705445D01*
X54196896Y-126652937D01*
X54204818Y-126634994D01*
X54209411Y-126611907D01*
X54225927Y-126587188D01*
X54235340Y-126565871D01*
X54249899Y-126551311D01*
X54264688Y-126529179D01*
X54286820Y-126514390D01*
X54301380Y-126499831D01*
X54322697Y-126490418D01*
X54347416Y-126473902D01*
X54370503Y-126469309D01*
X54388446Y-126461387D01*
X54440954Y-126455295D01*
X54445000Y-126454491D01*
X54755000Y-126454491D01*
X54759046Y-126455295D01*
G37*
G36*
X94759046Y-126450804D02*
G01*
X94811553Y-126456896D01*
X94829494Y-126464818D01*
X94852584Y-126469411D01*
X94877304Y-126485928D01*
X94898619Y-126495340D01*
X94913176Y-126509897D01*
X94935312Y-126524688D01*
X94950102Y-126546823D01*
X94964659Y-126561380D01*
X94974069Y-126582693D01*
X94990589Y-126607416D01*
X94995182Y-126630507D01*
X95003103Y-126648446D01*
X95009192Y-126700942D01*
X95010000Y-126705000D01*
X95010000Y-127130000D01*
X95009192Y-127134058D01*
X95003103Y-127186553D01*
X94995182Y-127204490D01*
X94990589Y-127227584D01*
X94974068Y-127252308D01*
X94964659Y-127273619D01*
X94950104Y-127288173D01*
X94935312Y-127310312D01*
X94913173Y-127325104D01*
X94898619Y-127339659D01*
X94877308Y-127349068D01*
X94852584Y-127365589D01*
X94829490Y-127370182D01*
X94811553Y-127378103D01*
X94759058Y-127384192D01*
X94755000Y-127385000D01*
X94445000Y-127385000D01*
X94440942Y-127384192D01*
X94388446Y-127378103D01*
X94370507Y-127370182D01*
X94347416Y-127365589D01*
X94322693Y-127349069D01*
X94301380Y-127339659D01*
X94286823Y-127325102D01*
X94264688Y-127310312D01*
X94249897Y-127288176D01*
X94235340Y-127273619D01*
X94225928Y-127252304D01*
X94209411Y-127227584D01*
X94204818Y-127204494D01*
X94196896Y-127186553D01*
X94190804Y-127134046D01*
X94190000Y-127130000D01*
X94190000Y-126705000D01*
X94190804Y-126700954D01*
X94196896Y-126648446D01*
X94204818Y-126630503D01*
X94209411Y-126607416D01*
X94225927Y-126582697D01*
X94235340Y-126561380D01*
X94249899Y-126546820D01*
X94264688Y-126524688D01*
X94286820Y-126509899D01*
X94301380Y-126495340D01*
X94322697Y-126485927D01*
X94347416Y-126469411D01*
X94370503Y-126464818D01*
X94388446Y-126456896D01*
X94440954Y-126450804D01*
X94445000Y-126450000D01*
X94755000Y-126450000D01*
X94759046Y-126450804D01*
G37*
G36*
X59038028Y-126445296D02*
G01*
X59090535Y-126451388D01*
X59108476Y-126459310D01*
X59131566Y-126463903D01*
X59156286Y-126480420D01*
X59177601Y-126489832D01*
X59192158Y-126504389D01*
X59214294Y-126519180D01*
X59229084Y-126541315D01*
X59243641Y-126555872D01*
X59253051Y-126577185D01*
X59269571Y-126601908D01*
X59274164Y-126624999D01*
X59282085Y-126642938D01*
X59288174Y-126695434D01*
X59288982Y-126699492D01*
X59288982Y-127124492D01*
X59288174Y-127128550D01*
X59282085Y-127181045D01*
X59274164Y-127198982D01*
X59269571Y-127222076D01*
X59253050Y-127246800D01*
X59243641Y-127268111D01*
X59229086Y-127282665D01*
X59214294Y-127304804D01*
X59192155Y-127319596D01*
X59177601Y-127334151D01*
X59156290Y-127343560D01*
X59131566Y-127360081D01*
X59108472Y-127364674D01*
X59090535Y-127372595D01*
X59038040Y-127378684D01*
X59033982Y-127379492D01*
X58723982Y-127379492D01*
X58719924Y-127378684D01*
X58667428Y-127372595D01*
X58649489Y-127364674D01*
X58626398Y-127360081D01*
X58601675Y-127343561D01*
X58580362Y-127334151D01*
X58565805Y-127319594D01*
X58543670Y-127304804D01*
X58528879Y-127282668D01*
X58514322Y-127268111D01*
X58504910Y-127246796D01*
X58488393Y-127222076D01*
X58483800Y-127198986D01*
X58475878Y-127181045D01*
X58469786Y-127128538D01*
X58468982Y-127124492D01*
X58468982Y-126699492D01*
X58469786Y-126695446D01*
X58475878Y-126642938D01*
X58483800Y-126624995D01*
X58488393Y-126601908D01*
X58504909Y-126577189D01*
X58514322Y-126555872D01*
X58528881Y-126541312D01*
X58543670Y-126519180D01*
X58565802Y-126504391D01*
X58580362Y-126489832D01*
X58601679Y-126480419D01*
X58626398Y-126463903D01*
X58649485Y-126459310D01*
X58667428Y-126451388D01*
X58719936Y-126445296D01*
X58723982Y-126444492D01*
X59033982Y-126444492D01*
X59038028Y-126445296D01*
G37*
G36*
X99038028Y-126445296D02*
G01*
X99090535Y-126451388D01*
X99108476Y-126459310D01*
X99131566Y-126463903D01*
X99156286Y-126480420D01*
X99177601Y-126489832D01*
X99192158Y-126504389D01*
X99214294Y-126519180D01*
X99229084Y-126541315D01*
X99243641Y-126555872D01*
X99253051Y-126577185D01*
X99269571Y-126601908D01*
X99274164Y-126624999D01*
X99282085Y-126642938D01*
X99288174Y-126695434D01*
X99288982Y-126699492D01*
X99288982Y-127124492D01*
X99288174Y-127128550D01*
X99282085Y-127181045D01*
X99274164Y-127198982D01*
X99269571Y-127222076D01*
X99253050Y-127246800D01*
X99243641Y-127268111D01*
X99229086Y-127282665D01*
X99214294Y-127304804D01*
X99192155Y-127319596D01*
X99177601Y-127334151D01*
X99156290Y-127343560D01*
X99131566Y-127360081D01*
X99108472Y-127364674D01*
X99090535Y-127372595D01*
X99038040Y-127378684D01*
X99033982Y-127379492D01*
X98723982Y-127379492D01*
X98719924Y-127378684D01*
X98667428Y-127372595D01*
X98649489Y-127364674D01*
X98626398Y-127360081D01*
X98601675Y-127343561D01*
X98580362Y-127334151D01*
X98565805Y-127319594D01*
X98543670Y-127304804D01*
X98528879Y-127282668D01*
X98514322Y-127268111D01*
X98504910Y-127246796D01*
X98488393Y-127222076D01*
X98483800Y-127198986D01*
X98475878Y-127181045D01*
X98469786Y-127128538D01*
X98468982Y-127124492D01*
X98468982Y-126699492D01*
X98469786Y-126695446D01*
X98475878Y-126642938D01*
X98483800Y-126624995D01*
X98488393Y-126601908D01*
X98504909Y-126577189D01*
X98514322Y-126555872D01*
X98528881Y-126541312D01*
X98543670Y-126519180D01*
X98565802Y-126504391D01*
X98580362Y-126489832D01*
X98601679Y-126480419D01*
X98626398Y-126463903D01*
X98649485Y-126459310D01*
X98667428Y-126451388D01*
X98719936Y-126445296D01*
X98723982Y-126444492D01*
X99033982Y-126444492D01*
X99038028Y-126445296D01*
G37*
G36*
X54759046Y-125320295D02*
G01*
X54811553Y-125326387D01*
X54829494Y-125334309D01*
X54852584Y-125338902D01*
X54877304Y-125355419D01*
X54898619Y-125364831D01*
X54913176Y-125379388D01*
X54935312Y-125394179D01*
X54950102Y-125416314D01*
X54964659Y-125430871D01*
X54974069Y-125452184D01*
X54990589Y-125476907D01*
X54995182Y-125499998D01*
X55003103Y-125517937D01*
X55009192Y-125570433D01*
X55010000Y-125574491D01*
X55010000Y-125999491D01*
X55009192Y-126003549D01*
X55003103Y-126056044D01*
X54995182Y-126073981D01*
X54990589Y-126097075D01*
X54974068Y-126121799D01*
X54964659Y-126143110D01*
X54950104Y-126157664D01*
X54935312Y-126179803D01*
X54913173Y-126194595D01*
X54898619Y-126209150D01*
X54877308Y-126218559D01*
X54852584Y-126235080D01*
X54829490Y-126239673D01*
X54811553Y-126247594D01*
X54759058Y-126253683D01*
X54755000Y-126254491D01*
X54445000Y-126254491D01*
X54440942Y-126253683D01*
X54388446Y-126247594D01*
X54370507Y-126239673D01*
X54347416Y-126235080D01*
X54322693Y-126218560D01*
X54301380Y-126209150D01*
X54286823Y-126194593D01*
X54264688Y-126179803D01*
X54249897Y-126157667D01*
X54235340Y-126143110D01*
X54225928Y-126121795D01*
X54209411Y-126097075D01*
X54204818Y-126073985D01*
X54196896Y-126056044D01*
X54190804Y-126003537D01*
X54190000Y-125999491D01*
X54190000Y-125574491D01*
X54190804Y-125570445D01*
X54196896Y-125517937D01*
X54204818Y-125499994D01*
X54209411Y-125476907D01*
X54225927Y-125452188D01*
X54235340Y-125430871D01*
X54249899Y-125416311D01*
X54264688Y-125394179D01*
X54286820Y-125379390D01*
X54301380Y-125364831D01*
X54322697Y-125355418D01*
X54347416Y-125338902D01*
X54370503Y-125334309D01*
X54388446Y-125326387D01*
X54440954Y-125320295D01*
X54445000Y-125319491D01*
X54755000Y-125319491D01*
X54759046Y-125320295D01*
G37*
G36*
X94759046Y-125315804D02*
G01*
X94811553Y-125321896D01*
X94829494Y-125329818D01*
X94852584Y-125334411D01*
X94877304Y-125350928D01*
X94898619Y-125360340D01*
X94913176Y-125374897D01*
X94935312Y-125389688D01*
X94950102Y-125411823D01*
X94964659Y-125426380D01*
X94974069Y-125447693D01*
X94990589Y-125472416D01*
X94995182Y-125495507D01*
X95003103Y-125513446D01*
X95009192Y-125565942D01*
X95010000Y-125570000D01*
X95010000Y-125995000D01*
X95009192Y-125999058D01*
X95003103Y-126051553D01*
X94995182Y-126069490D01*
X94990589Y-126092584D01*
X94974068Y-126117308D01*
X94964659Y-126138619D01*
X94950104Y-126153173D01*
X94935312Y-126175312D01*
X94913173Y-126190104D01*
X94898619Y-126204659D01*
X94877308Y-126214068D01*
X94852584Y-126230589D01*
X94829490Y-126235182D01*
X94811553Y-126243103D01*
X94759058Y-126249192D01*
X94755000Y-126250000D01*
X94445000Y-126250000D01*
X94440942Y-126249192D01*
X94388446Y-126243103D01*
X94370507Y-126235182D01*
X94347416Y-126230589D01*
X94322693Y-126214069D01*
X94301380Y-126204659D01*
X94286823Y-126190102D01*
X94264688Y-126175312D01*
X94249897Y-126153176D01*
X94235340Y-126138619D01*
X94225928Y-126117304D01*
X94209411Y-126092584D01*
X94204818Y-126069494D01*
X94196896Y-126051553D01*
X94190804Y-125999046D01*
X94190000Y-125995000D01*
X94190000Y-125570000D01*
X94190804Y-125565954D01*
X94196896Y-125513446D01*
X94204818Y-125495503D01*
X94209411Y-125472416D01*
X94225927Y-125447697D01*
X94235340Y-125426380D01*
X94249899Y-125411820D01*
X94264688Y-125389688D01*
X94286820Y-125374899D01*
X94301380Y-125360340D01*
X94322697Y-125350927D01*
X94347416Y-125334411D01*
X94370503Y-125329818D01*
X94388446Y-125321896D01*
X94440954Y-125315804D01*
X94445000Y-125315000D01*
X94755000Y-125315000D01*
X94759046Y-125315804D01*
G37*
G36*
X59038028Y-125310296D02*
G01*
X59090535Y-125316388D01*
X59108476Y-125324310D01*
X59131566Y-125328903D01*
X59156286Y-125345420D01*
X59177601Y-125354832D01*
X59192158Y-125369389D01*
X59214294Y-125384180D01*
X59229084Y-125406315D01*
X59243641Y-125420872D01*
X59253051Y-125442185D01*
X59269571Y-125466908D01*
X59274164Y-125489999D01*
X59282085Y-125507938D01*
X59288174Y-125560434D01*
X59288982Y-125564492D01*
X59288982Y-125989492D01*
X59288174Y-125993550D01*
X59282085Y-126046045D01*
X59274164Y-126063982D01*
X59269571Y-126087076D01*
X59253050Y-126111800D01*
X59243641Y-126133111D01*
X59229086Y-126147665D01*
X59214294Y-126169804D01*
X59192155Y-126184596D01*
X59177601Y-126199151D01*
X59156290Y-126208560D01*
X59131566Y-126225081D01*
X59108472Y-126229674D01*
X59090535Y-126237595D01*
X59038040Y-126243684D01*
X59033982Y-126244492D01*
X58723982Y-126244492D01*
X58719924Y-126243684D01*
X58667428Y-126237595D01*
X58649489Y-126229674D01*
X58626398Y-126225081D01*
X58601675Y-126208561D01*
X58580362Y-126199151D01*
X58565805Y-126184594D01*
X58543670Y-126169804D01*
X58528879Y-126147668D01*
X58514322Y-126133111D01*
X58504910Y-126111796D01*
X58488393Y-126087076D01*
X58483800Y-126063986D01*
X58475878Y-126046045D01*
X58469786Y-125993538D01*
X58468982Y-125989492D01*
X58468982Y-125564492D01*
X58469786Y-125560446D01*
X58475878Y-125507938D01*
X58483800Y-125489995D01*
X58488393Y-125466908D01*
X58504909Y-125442189D01*
X58514322Y-125420872D01*
X58528881Y-125406312D01*
X58543670Y-125384180D01*
X58565802Y-125369391D01*
X58580362Y-125354832D01*
X58601679Y-125345419D01*
X58626398Y-125328903D01*
X58649485Y-125324310D01*
X58667428Y-125316388D01*
X58719936Y-125310296D01*
X58723982Y-125309492D01*
X59033982Y-125309492D01*
X59038028Y-125310296D01*
G37*
G36*
X99038028Y-125310296D02*
G01*
X99090535Y-125316388D01*
X99108476Y-125324310D01*
X99131566Y-125328903D01*
X99156286Y-125345420D01*
X99177601Y-125354832D01*
X99192158Y-125369389D01*
X99214294Y-125384180D01*
X99229084Y-125406315D01*
X99243641Y-125420872D01*
X99253051Y-125442185D01*
X99269571Y-125466908D01*
X99274164Y-125489999D01*
X99282085Y-125507938D01*
X99288174Y-125560434D01*
X99288982Y-125564492D01*
X99288982Y-125989492D01*
X99288174Y-125993550D01*
X99282085Y-126046045D01*
X99274164Y-126063982D01*
X99269571Y-126087076D01*
X99253050Y-126111800D01*
X99243641Y-126133111D01*
X99229086Y-126147665D01*
X99214294Y-126169804D01*
X99192155Y-126184596D01*
X99177601Y-126199151D01*
X99156290Y-126208560D01*
X99131566Y-126225081D01*
X99108472Y-126229674D01*
X99090535Y-126237595D01*
X99038040Y-126243684D01*
X99033982Y-126244492D01*
X98723982Y-126244492D01*
X98719924Y-126243684D01*
X98667428Y-126237595D01*
X98649489Y-126229674D01*
X98626398Y-126225081D01*
X98601675Y-126208561D01*
X98580362Y-126199151D01*
X98565805Y-126184594D01*
X98543670Y-126169804D01*
X98528879Y-126147668D01*
X98514322Y-126133111D01*
X98504910Y-126111796D01*
X98488393Y-126087076D01*
X98483800Y-126063986D01*
X98475878Y-126046045D01*
X98469786Y-125993538D01*
X98468982Y-125989492D01*
X98468982Y-125564492D01*
X98469786Y-125560446D01*
X98475878Y-125507938D01*
X98483800Y-125489995D01*
X98488393Y-125466908D01*
X98504909Y-125442189D01*
X98514322Y-125420872D01*
X98528881Y-125406312D01*
X98543670Y-125384180D01*
X98565802Y-125369391D01*
X98580362Y-125354832D01*
X98601679Y-125345419D01*
X98626398Y-125328903D01*
X98649485Y-125324310D01*
X98667428Y-125316388D01*
X98719936Y-125310296D01*
X98723982Y-125309492D01*
X99033982Y-125309492D01*
X99038028Y-125310296D01*
G37*
G36*
X56407251Y-124052105D02*
G01*
X56439694Y-124073782D01*
X56461371Y-124106225D01*
X56468983Y-124144493D01*
X56468983Y-124464493D01*
X56461371Y-124502761D01*
X56439694Y-124535204D01*
X56407251Y-124556881D01*
X56368983Y-124564493D01*
X55528983Y-124564493D01*
X55490715Y-124556881D01*
X55458272Y-124535204D01*
X55436595Y-124502761D01*
X55428983Y-124464493D01*
X55428983Y-124144493D01*
X55436595Y-124106225D01*
X55458272Y-124073782D01*
X55490715Y-124052105D01*
X55528983Y-124044493D01*
X56368983Y-124044493D01*
X56407251Y-124052105D01*
G37*
G36*
X58087251Y-124052105D02*
G01*
X58119694Y-124073782D01*
X58141371Y-124106225D01*
X58148983Y-124144493D01*
X58148983Y-124464493D01*
X58141371Y-124502761D01*
X58119694Y-124535204D01*
X58087251Y-124556881D01*
X58048983Y-124564493D01*
X57208983Y-124564493D01*
X57170715Y-124556881D01*
X57138272Y-124535204D01*
X57116595Y-124502761D01*
X57108983Y-124464493D01*
X57108983Y-124144493D01*
X57116595Y-124106225D01*
X57138272Y-124073782D01*
X57170715Y-124052105D01*
X57208983Y-124044493D01*
X58048983Y-124044493D01*
X58087251Y-124052105D01*
G37*
G36*
X96407252Y-124052101D02*
G01*
X96439695Y-124073778D01*
X96461372Y-124106221D01*
X96468984Y-124144489D01*
X96468984Y-124464489D01*
X96461372Y-124502757D01*
X96439695Y-124535200D01*
X96407252Y-124556877D01*
X96368984Y-124564489D01*
X95528984Y-124564489D01*
X95490716Y-124556877D01*
X95458273Y-124535200D01*
X95436596Y-124502757D01*
X95428984Y-124464489D01*
X95428984Y-124144489D01*
X95436596Y-124106221D01*
X95458273Y-124073778D01*
X95490716Y-124052101D01*
X95528984Y-124044489D01*
X96368984Y-124044489D01*
X96407252Y-124052101D01*
G37*
G36*
X98087252Y-124052101D02*
G01*
X98119695Y-124073778D01*
X98141372Y-124106221D01*
X98148984Y-124144489D01*
X98148984Y-124464489D01*
X98141372Y-124502757D01*
X98119695Y-124535200D01*
X98087252Y-124556877D01*
X98048984Y-124564489D01*
X97208984Y-124564489D01*
X97170716Y-124556877D01*
X97138273Y-124535200D01*
X97116596Y-124502757D01*
X97108984Y-124464489D01*
X97108984Y-124144489D01*
X97116596Y-124106221D01*
X97138273Y-124073778D01*
X97170716Y-124052101D01*
X97208984Y-124044489D01*
X98048984Y-124044489D01*
X98087252Y-124052101D01*
G37*
G36*
X58087251Y-123402105D02*
G01*
X58119694Y-123423782D01*
X58141371Y-123456225D01*
X58148983Y-123494493D01*
X58148983Y-123814493D01*
X58141371Y-123852761D01*
X58119694Y-123885204D01*
X58087251Y-123906881D01*
X58048983Y-123914493D01*
X57208983Y-123914493D01*
X57170715Y-123906881D01*
X57138272Y-123885204D01*
X57116595Y-123852761D01*
X57108983Y-123814493D01*
X57108983Y-123494493D01*
X57116595Y-123456225D01*
X57138272Y-123423782D01*
X57170715Y-123402105D01*
X57208983Y-123394493D01*
X58048983Y-123394493D01*
X58087251Y-123402105D01*
G37*
G36*
X98087252Y-123402101D02*
G01*
X98119695Y-123423778D01*
X98141372Y-123456221D01*
X98148984Y-123494489D01*
X98148984Y-123814489D01*
X98141372Y-123852757D01*
X98119695Y-123885200D01*
X98087252Y-123906877D01*
X98048984Y-123914489D01*
X97208984Y-123914489D01*
X97170716Y-123906877D01*
X97138273Y-123885200D01*
X97116596Y-123852757D01*
X97108984Y-123814489D01*
X97108984Y-123494489D01*
X97116596Y-123456221D01*
X97138273Y-123423778D01*
X97170716Y-123402101D01*
X97208984Y-123394489D01*
X98048984Y-123394489D01*
X98087252Y-123402101D01*
G37*
G36*
X56407251Y-122752105D02*
G01*
X56439694Y-122773782D01*
X56461371Y-122806225D01*
X56468983Y-122844493D01*
X56468983Y-123164493D01*
X56461371Y-123202761D01*
X56439694Y-123235204D01*
X56407251Y-123256881D01*
X56368983Y-123264493D01*
X55528983Y-123264493D01*
X55490715Y-123256881D01*
X55458272Y-123235204D01*
X55436595Y-123202761D01*
X55428983Y-123164493D01*
X55428983Y-122844493D01*
X55436595Y-122806225D01*
X55458272Y-122773782D01*
X55490715Y-122752105D01*
X55528983Y-122744493D01*
X56368983Y-122744493D01*
X56407251Y-122752105D01*
G37*
G36*
X58087251Y-122752105D02*
G01*
X58119694Y-122773782D01*
X58141371Y-122806225D01*
X58148983Y-122844493D01*
X58148983Y-123164493D01*
X58141371Y-123202761D01*
X58119694Y-123235204D01*
X58087251Y-123256881D01*
X58048983Y-123264493D01*
X57208983Y-123264493D01*
X57170715Y-123256881D01*
X57138272Y-123235204D01*
X57116595Y-123202761D01*
X57108983Y-123164493D01*
X57108983Y-122844493D01*
X57116595Y-122806225D01*
X57138272Y-122773782D01*
X57170715Y-122752105D01*
X57208983Y-122744493D01*
X58048983Y-122744493D01*
X58087251Y-122752105D01*
G37*
G36*
X96407252Y-122752101D02*
G01*
X96439695Y-122773778D01*
X96461372Y-122806221D01*
X96468984Y-122844489D01*
X96468984Y-123164489D01*
X96461372Y-123202757D01*
X96439695Y-123235200D01*
X96407252Y-123256877D01*
X96368984Y-123264489D01*
X95528984Y-123264489D01*
X95490716Y-123256877D01*
X95458273Y-123235200D01*
X95436596Y-123202757D01*
X95428984Y-123164489D01*
X95428984Y-122844489D01*
X95436596Y-122806221D01*
X95458273Y-122773778D01*
X95490716Y-122752101D01*
X95528984Y-122744489D01*
X96368984Y-122744489D01*
X96407252Y-122752101D01*
G37*
G36*
X98087252Y-122752101D02*
G01*
X98119695Y-122773778D01*
X98141372Y-122806221D01*
X98148984Y-122844489D01*
X98148984Y-123164489D01*
X98141372Y-123202757D01*
X98119695Y-123235200D01*
X98087252Y-123256877D01*
X98048984Y-123264489D01*
X97208984Y-123264489D01*
X97170716Y-123256877D01*
X97138273Y-123235200D01*
X97116596Y-123202757D01*
X97108984Y-123164489D01*
X97108984Y-122844489D01*
X97116596Y-122806221D01*
X97138273Y-122773778D01*
X97170716Y-122752101D01*
X97208984Y-122744489D01*
X98048984Y-122744489D01*
X98087252Y-122752101D01*
G37*
G36*
X76137248Y-107811592D02*
G01*
X76169691Y-107833269D01*
X76183411Y-107853803D01*
X76234549Y-107853803D01*
X76248269Y-107833269D01*
X76280712Y-107811592D01*
X76318980Y-107803980D01*
X76598980Y-107803980D01*
X76637248Y-107811592D01*
X76669691Y-107833269D01*
X76683411Y-107853803D01*
X76734549Y-107853803D01*
X76748269Y-107833269D01*
X76780712Y-107811592D01*
X76818980Y-107803980D01*
X77098980Y-107803980D01*
X77137248Y-107811592D01*
X77169691Y-107833269D01*
X77183411Y-107853803D01*
X77234549Y-107853803D01*
X77248269Y-107833269D01*
X77280712Y-107811592D01*
X77318980Y-107803980D01*
X77598980Y-107803980D01*
X77637248Y-107811592D01*
X77669691Y-107833269D01*
X77691368Y-107865712D01*
X77698980Y-107903980D01*
X77698980Y-108403980D01*
X77691368Y-108442248D01*
X77669691Y-108474691D01*
X77667600Y-108476087D01*
X77657556Y-108491120D01*
X77685809Y-108543980D01*
X77838980Y-108543980D01*
X77877248Y-108551592D01*
X77909691Y-108573269D01*
X77931368Y-108605712D01*
X77938980Y-108643980D01*
X77938980Y-108923980D01*
X77931368Y-108962248D01*
X77909691Y-108994691D01*
X77889156Y-109008411D01*
X77889156Y-109059548D01*
X77909691Y-109073269D01*
X77931368Y-109105712D01*
X77938980Y-109143980D01*
X77938980Y-109423980D01*
X77931368Y-109462248D01*
X77909691Y-109494691D01*
X77877248Y-109516368D01*
X77838980Y-109523980D01*
X77685809Y-109523980D01*
X77657556Y-109576839D01*
X77667601Y-109591873D01*
X77669691Y-109593269D01*
X77691368Y-109625712D01*
X77698980Y-109663980D01*
X77698980Y-110163980D01*
X77691368Y-110202248D01*
X77669691Y-110234691D01*
X77637248Y-110256368D01*
X77598980Y-110263980D01*
X77318980Y-110263980D01*
X77280712Y-110256368D01*
X77248269Y-110234691D01*
X77234548Y-110214156D01*
X77183412Y-110214156D01*
X77169691Y-110234691D01*
X77137248Y-110256368D01*
X77098980Y-110263980D01*
X76818980Y-110263980D01*
X76780712Y-110256368D01*
X76748269Y-110234691D01*
X76734548Y-110214156D01*
X76683412Y-110214156D01*
X76669691Y-110234691D01*
X76637248Y-110256368D01*
X76598980Y-110263980D01*
X76318980Y-110263980D01*
X76280712Y-110256368D01*
X76248269Y-110234691D01*
X76234548Y-110214156D01*
X76183412Y-110214156D01*
X76169691Y-110234691D01*
X76137248Y-110256368D01*
X76098980Y-110263980D01*
X75818980Y-110263980D01*
X75780712Y-110256368D01*
X75748269Y-110234691D01*
X75726592Y-110202248D01*
X75718980Y-110163980D01*
X75718980Y-109663980D01*
X75726592Y-109625712D01*
X75748269Y-109593269D01*
X75750355Y-109591874D01*
X75760403Y-109576838D01*
X75732150Y-109523980D01*
X75578980Y-109523980D01*
X75540712Y-109516368D01*
X75508269Y-109494691D01*
X75486592Y-109462248D01*
X75478980Y-109423980D01*
X75478980Y-109143980D01*
X75486592Y-109105712D01*
X75508269Y-109073269D01*
X75528803Y-109059549D01*
X75528803Y-109008410D01*
X75508269Y-108994691D01*
X75486592Y-108962248D01*
X75478980Y-108923980D01*
X75478980Y-108643980D01*
X75486592Y-108605712D01*
X75508269Y-108573269D01*
X75533771Y-108556230D01*
X76124190Y-108556230D01*
X76149691Y-108573269D01*
X76171368Y-108605712D01*
X76178980Y-108643980D01*
X76178980Y-108923980D01*
X76171368Y-108962248D01*
X76149691Y-108994691D01*
X76129156Y-109008411D01*
X76129156Y-109059548D01*
X76149691Y-109073269D01*
X76171368Y-109105712D01*
X76178980Y-109143980D01*
X76178980Y-109423980D01*
X76171368Y-109462248D01*
X76149691Y-109494691D01*
X76124191Y-109511728D01*
X76124191Y-109564023D01*
X76134786Y-109571102D01*
X76137248Y-109571592D01*
X76169691Y-109593269D01*
X76183411Y-109613803D01*
X76234549Y-109613803D01*
X76248269Y-109593269D01*
X76280712Y-109571592D01*
X76318980Y-109563980D01*
X76598980Y-109563980D01*
X76637248Y-109571592D01*
X76669691Y-109593269D01*
X76683411Y-109613803D01*
X76734549Y-109613803D01*
X76748269Y-109593269D01*
X76780712Y-109571592D01*
X76818980Y-109563980D01*
X77098980Y-109563980D01*
X77137248Y-109571592D01*
X77169691Y-109593269D01*
X77183411Y-109613803D01*
X77234549Y-109613803D01*
X77248269Y-109593269D01*
X77280712Y-109571592D01*
X77283171Y-109571102D01*
X77293768Y-109564022D01*
X77293768Y-109511728D01*
X77268269Y-109494691D01*
X77246592Y-109462248D01*
X77238980Y-109423980D01*
X77238980Y-109143980D01*
X77246592Y-109105712D01*
X77268269Y-109073269D01*
X77288803Y-109059549D01*
X77288803Y-109008410D01*
X77268269Y-108994691D01*
X77246592Y-108962248D01*
X77238980Y-108923980D01*
X77238980Y-108643980D01*
X77246592Y-108605712D01*
X77268269Y-108573269D01*
X77293768Y-108556231D01*
X77293767Y-108503935D01*
X77283175Y-108496858D01*
X77280712Y-108496368D01*
X77248269Y-108474691D01*
X77234548Y-108454156D01*
X77183412Y-108454156D01*
X77169691Y-108474691D01*
X77137248Y-108496368D01*
X77098980Y-108503980D01*
X76818980Y-108503980D01*
X76780712Y-108496368D01*
X76748269Y-108474691D01*
X76734548Y-108454156D01*
X76683412Y-108454156D01*
X76669691Y-108474691D01*
X76637248Y-108496368D01*
X76598980Y-108503980D01*
X76318980Y-108503980D01*
X76280712Y-108496368D01*
X76248269Y-108474691D01*
X76234548Y-108454156D01*
X76183412Y-108454156D01*
X76169691Y-108474691D01*
X76137248Y-108496368D01*
X76134783Y-108496858D01*
X76124192Y-108503935D01*
X76124190Y-108556230D01*
X75533771Y-108556230D01*
X75540712Y-108551592D01*
X75578980Y-108543980D01*
X75732150Y-108543980D01*
X75760403Y-108491121D01*
X75750357Y-108476086D01*
X75748269Y-108474691D01*
X75726592Y-108442248D01*
X75718980Y-108403980D01*
X75718980Y-107903980D01*
X75726592Y-107865712D01*
X75748269Y-107833269D01*
X75780712Y-107811592D01*
X75818980Y-107803980D01*
X76098980Y-107803980D01*
X76137248Y-107811592D01*
G37*
G36*
X50778267Y-107802611D02*
G01*
X50810710Y-107824288D01*
X50824430Y-107844822D01*
X50875568Y-107844822D01*
X50889288Y-107824288D01*
X50921731Y-107802611D01*
X50959999Y-107794999D01*
X51239999Y-107794999D01*
X51278267Y-107802611D01*
X51310710Y-107824288D01*
X51324430Y-107844822D01*
X51375568Y-107844822D01*
X51389288Y-107824288D01*
X51421731Y-107802611D01*
X51459999Y-107794999D01*
X51739999Y-107794999D01*
X51778267Y-107802611D01*
X51810710Y-107824288D01*
X51824430Y-107844822D01*
X51875568Y-107844822D01*
X51889288Y-107824288D01*
X51921731Y-107802611D01*
X51959999Y-107794999D01*
X52239999Y-107794999D01*
X52278267Y-107802611D01*
X52310710Y-107824288D01*
X52332387Y-107856731D01*
X52339999Y-107894999D01*
X52339999Y-108394999D01*
X52332387Y-108433267D01*
X52310710Y-108465710D01*
X52308619Y-108467106D01*
X52298575Y-108482139D01*
X52326828Y-108534999D01*
X52479999Y-108534999D01*
X52518267Y-108542611D01*
X52550710Y-108564288D01*
X52572387Y-108596731D01*
X52579999Y-108634999D01*
X52579999Y-108914999D01*
X52572387Y-108953267D01*
X52550710Y-108985710D01*
X52530175Y-108999430D01*
X52530175Y-109050567D01*
X52550710Y-109064288D01*
X52572387Y-109096731D01*
X52579999Y-109134999D01*
X52579999Y-109414999D01*
X52572387Y-109453267D01*
X52550710Y-109485710D01*
X52518267Y-109507387D01*
X52479999Y-109514999D01*
X52326828Y-109514999D01*
X52298575Y-109567858D01*
X52308620Y-109582892D01*
X52310710Y-109584288D01*
X52332387Y-109616731D01*
X52339999Y-109654999D01*
X52339999Y-110154999D01*
X52332387Y-110193267D01*
X52310710Y-110225710D01*
X52278267Y-110247387D01*
X52239999Y-110254999D01*
X51959999Y-110254999D01*
X51921731Y-110247387D01*
X51889288Y-110225710D01*
X51875567Y-110205175D01*
X51824431Y-110205175D01*
X51810710Y-110225710D01*
X51778267Y-110247387D01*
X51739999Y-110254999D01*
X51459999Y-110254999D01*
X51421731Y-110247387D01*
X51389288Y-110225710D01*
X51375567Y-110205175D01*
X51324431Y-110205175D01*
X51310710Y-110225710D01*
X51278267Y-110247387D01*
X51239999Y-110254999D01*
X50959999Y-110254999D01*
X50921731Y-110247387D01*
X50889288Y-110225710D01*
X50875567Y-110205175D01*
X50824431Y-110205175D01*
X50810710Y-110225710D01*
X50778267Y-110247387D01*
X50739999Y-110254999D01*
X50459999Y-110254999D01*
X50421731Y-110247387D01*
X50389288Y-110225710D01*
X50367611Y-110193267D01*
X50359999Y-110154999D01*
X50359999Y-109654999D01*
X50367611Y-109616731D01*
X50389288Y-109584288D01*
X50391374Y-109582893D01*
X50401422Y-109567857D01*
X50373169Y-109514999D01*
X50219999Y-109514999D01*
X50181731Y-109507387D01*
X50149288Y-109485710D01*
X50127611Y-109453267D01*
X50119999Y-109414999D01*
X50119999Y-109134999D01*
X50127611Y-109096731D01*
X50149288Y-109064288D01*
X50169822Y-109050568D01*
X50169822Y-108999429D01*
X50149288Y-108985710D01*
X50127611Y-108953267D01*
X50119999Y-108914999D01*
X50119999Y-108634999D01*
X50127611Y-108596731D01*
X50149288Y-108564288D01*
X50174790Y-108547249D01*
X50765209Y-108547249D01*
X50790710Y-108564288D01*
X50812387Y-108596731D01*
X50819999Y-108634999D01*
X50819999Y-108914999D01*
X50812387Y-108953267D01*
X50790710Y-108985710D01*
X50770175Y-108999430D01*
X50770175Y-109050567D01*
X50790710Y-109064288D01*
X50812387Y-109096731D01*
X50819999Y-109134999D01*
X50819999Y-109414999D01*
X50812387Y-109453267D01*
X50790710Y-109485710D01*
X50765210Y-109502747D01*
X50765210Y-109555042D01*
X50775805Y-109562121D01*
X50778267Y-109562611D01*
X50810710Y-109584288D01*
X50824430Y-109604822D01*
X50875568Y-109604822D01*
X50889288Y-109584288D01*
X50921731Y-109562611D01*
X50959999Y-109554999D01*
X51239999Y-109554999D01*
X51278267Y-109562611D01*
X51310710Y-109584288D01*
X51324430Y-109604822D01*
X51375568Y-109604822D01*
X51389288Y-109584288D01*
X51421731Y-109562611D01*
X51459999Y-109554999D01*
X51739999Y-109554999D01*
X51778267Y-109562611D01*
X51810710Y-109584288D01*
X51824430Y-109604822D01*
X51875568Y-109604822D01*
X51889288Y-109584288D01*
X51921731Y-109562611D01*
X51924190Y-109562121D01*
X51934787Y-109555041D01*
X51934787Y-109502747D01*
X51909288Y-109485710D01*
X51887611Y-109453267D01*
X51879999Y-109414999D01*
X51879999Y-109134999D01*
X51887611Y-109096731D01*
X51909288Y-109064288D01*
X51929822Y-109050568D01*
X51929822Y-108999429D01*
X51909288Y-108985710D01*
X51887611Y-108953267D01*
X51879999Y-108914999D01*
X51879999Y-108634999D01*
X51887611Y-108596731D01*
X51909288Y-108564288D01*
X51934787Y-108547250D01*
X51934786Y-108494954D01*
X51924194Y-108487877D01*
X51921731Y-108487387D01*
X51889288Y-108465710D01*
X51875567Y-108445175D01*
X51824431Y-108445175D01*
X51810710Y-108465710D01*
X51778267Y-108487387D01*
X51739999Y-108494999D01*
X51459999Y-108494999D01*
X51421731Y-108487387D01*
X51389288Y-108465710D01*
X51375567Y-108445175D01*
X51324431Y-108445175D01*
X51310710Y-108465710D01*
X51278267Y-108487387D01*
X51239999Y-108494999D01*
X50959999Y-108494999D01*
X50921731Y-108487387D01*
X50889288Y-108465710D01*
X50875567Y-108445175D01*
X50824431Y-108445175D01*
X50810710Y-108465710D01*
X50778267Y-108487387D01*
X50775802Y-108487877D01*
X50765211Y-108494954D01*
X50765209Y-108547249D01*
X50174790Y-108547249D01*
X50181731Y-108542611D01*
X50219999Y-108534999D01*
X50373169Y-108534999D01*
X50401422Y-108482140D01*
X50391376Y-108467105D01*
X50389288Y-108465710D01*
X50367611Y-108433267D01*
X50359999Y-108394999D01*
X50359999Y-107894999D01*
X50367611Y-107856731D01*
X50389288Y-107824288D01*
X50421731Y-107802611D01*
X50459999Y-107794999D01*
X50739999Y-107794999D01*
X50778267Y-107802611D01*
G37*
G36*
X101496237Y-107802609D02*
G01*
X101528680Y-107824286D01*
X101542400Y-107844820D01*
X101593538Y-107844820D01*
X101607258Y-107824286D01*
X101639701Y-107802609D01*
X101677969Y-107794997D01*
X101957969Y-107794997D01*
X101996237Y-107802609D01*
X102028680Y-107824286D01*
X102042400Y-107844820D01*
X102093538Y-107844820D01*
X102107258Y-107824286D01*
X102139701Y-107802609D01*
X102177969Y-107794997D01*
X102457969Y-107794997D01*
X102496237Y-107802609D01*
X102528680Y-107824286D01*
X102542400Y-107844820D01*
X102593538Y-107844820D01*
X102607258Y-107824286D01*
X102639701Y-107802609D01*
X102677969Y-107794997D01*
X102957969Y-107794997D01*
X102996237Y-107802609D01*
X103028680Y-107824286D01*
X103050357Y-107856729D01*
X103057969Y-107894997D01*
X103057969Y-108394997D01*
X103050357Y-108433265D01*
X103028680Y-108465708D01*
X103026589Y-108467104D01*
X103016545Y-108482137D01*
X103044798Y-108534997D01*
X103197969Y-108534997D01*
X103236237Y-108542609D01*
X103268680Y-108564286D01*
X103290357Y-108596729D01*
X103297969Y-108634997D01*
X103297969Y-108914997D01*
X103290357Y-108953265D01*
X103268680Y-108985708D01*
X103248145Y-108999428D01*
X103248145Y-109050565D01*
X103268680Y-109064286D01*
X103290357Y-109096729D01*
X103297969Y-109134997D01*
X103297969Y-109414997D01*
X103290357Y-109453265D01*
X103268680Y-109485708D01*
X103236237Y-109507385D01*
X103197969Y-109514997D01*
X103044798Y-109514997D01*
X103016545Y-109567856D01*
X103026590Y-109582890D01*
X103028680Y-109584286D01*
X103050357Y-109616729D01*
X103057969Y-109654997D01*
X103057969Y-110154997D01*
X103050357Y-110193265D01*
X103028680Y-110225708D01*
X102996237Y-110247385D01*
X102957969Y-110254997D01*
X102677969Y-110254997D01*
X102639701Y-110247385D01*
X102607258Y-110225708D01*
X102593537Y-110205173D01*
X102542401Y-110205173D01*
X102528680Y-110225708D01*
X102496237Y-110247385D01*
X102457969Y-110254997D01*
X102177969Y-110254997D01*
X102139701Y-110247385D01*
X102107258Y-110225708D01*
X102093537Y-110205173D01*
X102042401Y-110205173D01*
X102028680Y-110225708D01*
X101996237Y-110247385D01*
X101957969Y-110254997D01*
X101677969Y-110254997D01*
X101639701Y-110247385D01*
X101607258Y-110225708D01*
X101593537Y-110205173D01*
X101542401Y-110205173D01*
X101528680Y-110225708D01*
X101496237Y-110247385D01*
X101457969Y-110254997D01*
X101177969Y-110254997D01*
X101139701Y-110247385D01*
X101107258Y-110225708D01*
X101085581Y-110193265D01*
X101077969Y-110154997D01*
X101077969Y-109654997D01*
X101085581Y-109616729D01*
X101107258Y-109584286D01*
X101109344Y-109582891D01*
X101119392Y-109567855D01*
X101091139Y-109514997D01*
X100937969Y-109514997D01*
X100899701Y-109507385D01*
X100867258Y-109485708D01*
X100845581Y-109453265D01*
X100837969Y-109414997D01*
X100837969Y-109134997D01*
X100845581Y-109096729D01*
X100867258Y-109064286D01*
X100887792Y-109050566D01*
X100887792Y-108999427D01*
X100867258Y-108985708D01*
X100845581Y-108953265D01*
X100837969Y-108914997D01*
X100837969Y-108634997D01*
X100845581Y-108596729D01*
X100867258Y-108564286D01*
X100892760Y-108547247D01*
X101483179Y-108547247D01*
X101508680Y-108564286D01*
X101530357Y-108596729D01*
X101537969Y-108634997D01*
X101537969Y-108914997D01*
X101530357Y-108953265D01*
X101508680Y-108985708D01*
X101488145Y-108999428D01*
X101488145Y-109050565D01*
X101508680Y-109064286D01*
X101530357Y-109096729D01*
X101537969Y-109134997D01*
X101537969Y-109414997D01*
X101530357Y-109453265D01*
X101508680Y-109485708D01*
X101483180Y-109502745D01*
X101483180Y-109555040D01*
X101493775Y-109562119D01*
X101496237Y-109562609D01*
X101528680Y-109584286D01*
X101542400Y-109604820D01*
X101593538Y-109604820D01*
X101607258Y-109584286D01*
X101639701Y-109562609D01*
X101677969Y-109554997D01*
X101957969Y-109554997D01*
X101996237Y-109562609D01*
X102028680Y-109584286D01*
X102042400Y-109604820D01*
X102093538Y-109604820D01*
X102107258Y-109584286D01*
X102139701Y-109562609D01*
X102177969Y-109554997D01*
X102457969Y-109554997D01*
X102496237Y-109562609D01*
X102528680Y-109584286D01*
X102542400Y-109604820D01*
X102593538Y-109604820D01*
X102607258Y-109584286D01*
X102639701Y-109562609D01*
X102642160Y-109562119D01*
X102652757Y-109555039D01*
X102652757Y-109502745D01*
X102627258Y-109485708D01*
X102605581Y-109453265D01*
X102597969Y-109414997D01*
X102597969Y-109134997D01*
X102605581Y-109096729D01*
X102627258Y-109064286D01*
X102647792Y-109050566D01*
X102647792Y-108999427D01*
X102627258Y-108985708D01*
X102605581Y-108953265D01*
X102597969Y-108914997D01*
X102597969Y-108634997D01*
X102605581Y-108596729D01*
X102627258Y-108564286D01*
X102652757Y-108547248D01*
X102652756Y-108494952D01*
X102642164Y-108487875D01*
X102639701Y-108487385D01*
X102607258Y-108465708D01*
X102593537Y-108445173D01*
X102542401Y-108445173D01*
X102528680Y-108465708D01*
X102496237Y-108487385D01*
X102457969Y-108494997D01*
X102177969Y-108494997D01*
X102139701Y-108487385D01*
X102107258Y-108465708D01*
X102093537Y-108445173D01*
X102042401Y-108445173D01*
X102028680Y-108465708D01*
X101996237Y-108487385D01*
X101957969Y-108494997D01*
X101677969Y-108494997D01*
X101639701Y-108487385D01*
X101607258Y-108465708D01*
X101593537Y-108445173D01*
X101542401Y-108445173D01*
X101528680Y-108465708D01*
X101496237Y-108487385D01*
X101493772Y-108487875D01*
X101483181Y-108494952D01*
X101483179Y-108547247D01*
X100892760Y-108547247D01*
X100899701Y-108542609D01*
X100937969Y-108534997D01*
X101091139Y-108534997D01*
X101119392Y-108482138D01*
X101109346Y-108467103D01*
X101107258Y-108465708D01*
X101085581Y-108433265D01*
X101077969Y-108394997D01*
X101077969Y-107894997D01*
X101085581Y-107856729D01*
X101107258Y-107824286D01*
X101139701Y-107802609D01*
X101177969Y-107794997D01*
X101457969Y-107794997D01*
X101496237Y-107802609D01*
G37*
G36*
X74759046Y-109134787D02*
G01*
X74811553Y-109140879D01*
X74829494Y-109148801D01*
X74852584Y-109153394D01*
X74877304Y-109169911D01*
X74898619Y-109179323D01*
X74913176Y-109193880D01*
X74935312Y-109208671D01*
X74950102Y-109230806D01*
X74964659Y-109245363D01*
X74974069Y-109266676D01*
X74990589Y-109291399D01*
X74995182Y-109314490D01*
X75003103Y-109332429D01*
X75009192Y-109384925D01*
X75010000Y-109388983D01*
X75010000Y-109813983D01*
X75009192Y-109818041D01*
X75003103Y-109870536D01*
X74995182Y-109888473D01*
X74990589Y-109911567D01*
X74974068Y-109936291D01*
X74964659Y-109957602D01*
X74950104Y-109972156D01*
X74935312Y-109994295D01*
X74913173Y-110009087D01*
X74898619Y-110023642D01*
X74877308Y-110033051D01*
X74852584Y-110049572D01*
X74829490Y-110054165D01*
X74811553Y-110062086D01*
X74759058Y-110068175D01*
X74755000Y-110068983D01*
X74445000Y-110068983D01*
X74440942Y-110068175D01*
X74388446Y-110062086D01*
X74370507Y-110054165D01*
X74347416Y-110049572D01*
X74322693Y-110033052D01*
X74301380Y-110023642D01*
X74286823Y-110009085D01*
X74264688Y-109994295D01*
X74249897Y-109972159D01*
X74235340Y-109957602D01*
X74225928Y-109936287D01*
X74209411Y-109911567D01*
X74204818Y-109888477D01*
X74196896Y-109870536D01*
X74190804Y-109818029D01*
X74190000Y-109813983D01*
X74190000Y-109388983D01*
X74190804Y-109384937D01*
X74196896Y-109332429D01*
X74204818Y-109314486D01*
X74209411Y-109291399D01*
X74225927Y-109266680D01*
X74235340Y-109245363D01*
X74249899Y-109230803D01*
X74264688Y-109208671D01*
X74286820Y-109193882D01*
X74301380Y-109179323D01*
X74322697Y-109169910D01*
X74347416Y-109153394D01*
X74370503Y-109148801D01*
X74388446Y-109140879D01*
X74440954Y-109134787D01*
X74445000Y-109133983D01*
X74755000Y-109133983D01*
X74759046Y-109134787D01*
G37*
G36*
X49399046Y-109125803D02*
G01*
X49451553Y-109131895D01*
X49469494Y-109139817D01*
X49492584Y-109144410D01*
X49517304Y-109160927D01*
X49538619Y-109170339D01*
X49553176Y-109184896D01*
X49575312Y-109199687D01*
X49590102Y-109221822D01*
X49604659Y-109236379D01*
X49614069Y-109257692D01*
X49630589Y-109282415D01*
X49635182Y-109305506D01*
X49643103Y-109323445D01*
X49649192Y-109375941D01*
X49650000Y-109379999D01*
X49650000Y-109804999D01*
X49649192Y-109809057D01*
X49643103Y-109861552D01*
X49635182Y-109879489D01*
X49630589Y-109902583D01*
X49614068Y-109927307D01*
X49604659Y-109948618D01*
X49590104Y-109963172D01*
X49575312Y-109985311D01*
X49553173Y-110000103D01*
X49538619Y-110014658D01*
X49517308Y-110024067D01*
X49492584Y-110040588D01*
X49469490Y-110045181D01*
X49451553Y-110053102D01*
X49399058Y-110059191D01*
X49395000Y-110059999D01*
X49085000Y-110059999D01*
X49080942Y-110059191D01*
X49028446Y-110053102D01*
X49010507Y-110045181D01*
X48987416Y-110040588D01*
X48962693Y-110024068D01*
X48941380Y-110014658D01*
X48926823Y-110000101D01*
X48904688Y-109985311D01*
X48889897Y-109963175D01*
X48875340Y-109948618D01*
X48865928Y-109927303D01*
X48849411Y-109902583D01*
X48844818Y-109879493D01*
X48836896Y-109861552D01*
X48830804Y-109809045D01*
X48830000Y-109804999D01*
X48830000Y-109379999D01*
X48830804Y-109375953D01*
X48836896Y-109323445D01*
X48844818Y-109305502D01*
X48849411Y-109282415D01*
X48865927Y-109257696D01*
X48875340Y-109236379D01*
X48889899Y-109221819D01*
X48904688Y-109199687D01*
X48926820Y-109184898D01*
X48941380Y-109170339D01*
X48962697Y-109160926D01*
X48987416Y-109144410D01*
X49010503Y-109139817D01*
X49028446Y-109131895D01*
X49080954Y-109125803D01*
X49085000Y-109124999D01*
X49395000Y-109124999D01*
X49399046Y-109125803D01*
G37*
G36*
X100119046Y-109125801D02*
G01*
X100171553Y-109131893D01*
X100189494Y-109139815D01*
X100212584Y-109144408D01*
X100237304Y-109160925D01*
X100258619Y-109170337D01*
X100273176Y-109184894D01*
X100295312Y-109199685D01*
X100310102Y-109221820D01*
X100324659Y-109236377D01*
X100334069Y-109257690D01*
X100350589Y-109282413D01*
X100355182Y-109305504D01*
X100363103Y-109323443D01*
X100369192Y-109375939D01*
X100370000Y-109379997D01*
X100370000Y-109804997D01*
X100369192Y-109809055D01*
X100363103Y-109861550D01*
X100355182Y-109879487D01*
X100350589Y-109902581D01*
X100334068Y-109927305D01*
X100324659Y-109948616D01*
X100310104Y-109963170D01*
X100295312Y-109985309D01*
X100273173Y-110000101D01*
X100258619Y-110014656D01*
X100237308Y-110024065D01*
X100212584Y-110040586D01*
X100189490Y-110045179D01*
X100171553Y-110053100D01*
X100119058Y-110059189D01*
X100115000Y-110059997D01*
X99805000Y-110059997D01*
X99800942Y-110059189D01*
X99748446Y-110053100D01*
X99730507Y-110045179D01*
X99707416Y-110040586D01*
X99682693Y-110024066D01*
X99661380Y-110014656D01*
X99646823Y-110000099D01*
X99624688Y-109985309D01*
X99609897Y-109963173D01*
X99595340Y-109948616D01*
X99585928Y-109927301D01*
X99569411Y-109902581D01*
X99564818Y-109879491D01*
X99556896Y-109861550D01*
X99550804Y-109809043D01*
X99550000Y-109804997D01*
X99550000Y-109379997D01*
X99550804Y-109375951D01*
X99556896Y-109323443D01*
X99564818Y-109305500D01*
X99569411Y-109282413D01*
X99585927Y-109257694D01*
X99595340Y-109236377D01*
X99609899Y-109221817D01*
X99624688Y-109199685D01*
X99646820Y-109184896D01*
X99661380Y-109170337D01*
X99682697Y-109160924D01*
X99707416Y-109144408D01*
X99730503Y-109139815D01*
X99748446Y-109131893D01*
X99800954Y-109125801D01*
X99805000Y-109124997D01*
X100115000Y-109124997D01*
X100119046Y-109125801D01*
G37*
G36*
X79038025Y-109124784D02*
G01*
X79090532Y-109130876D01*
X79108473Y-109138798D01*
X79131563Y-109143391D01*
X79156283Y-109159908D01*
X79177598Y-109169320D01*
X79192155Y-109183877D01*
X79214291Y-109198668D01*
X79229081Y-109220803D01*
X79243638Y-109235360D01*
X79253048Y-109256673D01*
X79269568Y-109281396D01*
X79274161Y-109304487D01*
X79282082Y-109322426D01*
X79288171Y-109374922D01*
X79288979Y-109378980D01*
X79288979Y-109803980D01*
X79288171Y-109808038D01*
X79282082Y-109860533D01*
X79274161Y-109878470D01*
X79269568Y-109901564D01*
X79253047Y-109926288D01*
X79243638Y-109947599D01*
X79229083Y-109962153D01*
X79214291Y-109984292D01*
X79192152Y-109999084D01*
X79177598Y-110013639D01*
X79156287Y-110023048D01*
X79131563Y-110039569D01*
X79108469Y-110044162D01*
X79090532Y-110052083D01*
X79038037Y-110058172D01*
X79033979Y-110058980D01*
X78723979Y-110058980D01*
X78719921Y-110058172D01*
X78667425Y-110052083D01*
X78649486Y-110044162D01*
X78626395Y-110039569D01*
X78601672Y-110023049D01*
X78580359Y-110013639D01*
X78565802Y-109999082D01*
X78543667Y-109984292D01*
X78528876Y-109962156D01*
X78514319Y-109947599D01*
X78504907Y-109926284D01*
X78488390Y-109901564D01*
X78483797Y-109878474D01*
X78475875Y-109860533D01*
X78469783Y-109808026D01*
X78468979Y-109803980D01*
X78468979Y-109378980D01*
X78469783Y-109374934D01*
X78475875Y-109322426D01*
X78483797Y-109304483D01*
X78488390Y-109281396D01*
X78504906Y-109256677D01*
X78514319Y-109235360D01*
X78528878Y-109220800D01*
X78543667Y-109198668D01*
X78565799Y-109183879D01*
X78580359Y-109169320D01*
X78601676Y-109159907D01*
X78626395Y-109143391D01*
X78649482Y-109138798D01*
X78667425Y-109130876D01*
X78719933Y-109124784D01*
X78723979Y-109123980D01*
X79033979Y-109123980D01*
X79038025Y-109124784D01*
G37*
G36*
X53679044Y-109115803D02*
G01*
X53731551Y-109121895D01*
X53749492Y-109129817D01*
X53772582Y-109134410D01*
X53797302Y-109150927D01*
X53818617Y-109160339D01*
X53833174Y-109174896D01*
X53855310Y-109189687D01*
X53870100Y-109211822D01*
X53884657Y-109226379D01*
X53894067Y-109247692D01*
X53910587Y-109272415D01*
X53915180Y-109295506D01*
X53923101Y-109313445D01*
X53929190Y-109365941D01*
X53929998Y-109369999D01*
X53929998Y-109794999D01*
X53929190Y-109799057D01*
X53923101Y-109851552D01*
X53915180Y-109869489D01*
X53910587Y-109892583D01*
X53894066Y-109917307D01*
X53884657Y-109938618D01*
X53870102Y-109953172D01*
X53855310Y-109975311D01*
X53833171Y-109990103D01*
X53818617Y-110004658D01*
X53797306Y-110014067D01*
X53772582Y-110030588D01*
X53749488Y-110035181D01*
X53731551Y-110043102D01*
X53679056Y-110049191D01*
X53674998Y-110049999D01*
X53364998Y-110049999D01*
X53360940Y-110049191D01*
X53308444Y-110043102D01*
X53290505Y-110035181D01*
X53267414Y-110030588D01*
X53242691Y-110014068D01*
X53221378Y-110004658D01*
X53206821Y-109990101D01*
X53184686Y-109975311D01*
X53169895Y-109953175D01*
X53155338Y-109938618D01*
X53145926Y-109917303D01*
X53129409Y-109892583D01*
X53124816Y-109869493D01*
X53116894Y-109851552D01*
X53110802Y-109799045D01*
X53109998Y-109794999D01*
X53109998Y-109369999D01*
X53110802Y-109365953D01*
X53116894Y-109313445D01*
X53124816Y-109295502D01*
X53129409Y-109272415D01*
X53145925Y-109247696D01*
X53155338Y-109226379D01*
X53169897Y-109211819D01*
X53184686Y-109189687D01*
X53206818Y-109174898D01*
X53221378Y-109160339D01*
X53242695Y-109150926D01*
X53267414Y-109134410D01*
X53290501Y-109129817D01*
X53308444Y-109121895D01*
X53360952Y-109115803D01*
X53364998Y-109114999D01*
X53674998Y-109114999D01*
X53679044Y-109115803D01*
G37*
G36*
X104397013Y-109115803D02*
G01*
X104449520Y-109121895D01*
X104467461Y-109129817D01*
X104490551Y-109134410D01*
X104515271Y-109150927D01*
X104536586Y-109160339D01*
X104551143Y-109174896D01*
X104573279Y-109189687D01*
X104588069Y-109211822D01*
X104602626Y-109226379D01*
X104612036Y-109247692D01*
X104628556Y-109272415D01*
X104633149Y-109295506D01*
X104641070Y-109313445D01*
X104647159Y-109365941D01*
X104647967Y-109369999D01*
X104647967Y-109794999D01*
X104647159Y-109799057D01*
X104641070Y-109851552D01*
X104633149Y-109869489D01*
X104628556Y-109892583D01*
X104612035Y-109917307D01*
X104602626Y-109938618D01*
X104588071Y-109953172D01*
X104573279Y-109975311D01*
X104551140Y-109990103D01*
X104536586Y-110004658D01*
X104515275Y-110014067D01*
X104490551Y-110030588D01*
X104467457Y-110035181D01*
X104449520Y-110043102D01*
X104397025Y-110049191D01*
X104392967Y-110049999D01*
X104082967Y-110049999D01*
X104078909Y-110049191D01*
X104026413Y-110043102D01*
X104008474Y-110035181D01*
X103985383Y-110030588D01*
X103960660Y-110014068D01*
X103939347Y-110004658D01*
X103924790Y-109990101D01*
X103902655Y-109975311D01*
X103887864Y-109953175D01*
X103873307Y-109938618D01*
X103863895Y-109917303D01*
X103847378Y-109892583D01*
X103842785Y-109869493D01*
X103834863Y-109851552D01*
X103828771Y-109799045D01*
X103827967Y-109794999D01*
X103827967Y-109369999D01*
X103828771Y-109365953D01*
X103834863Y-109313445D01*
X103842785Y-109295502D01*
X103847378Y-109272415D01*
X103863894Y-109247696D01*
X103873307Y-109226379D01*
X103887866Y-109211819D01*
X103902655Y-109189687D01*
X103924787Y-109174898D01*
X103939347Y-109160339D01*
X103960664Y-109150926D01*
X103985383Y-109134410D01*
X104008470Y-109129817D01*
X104026413Y-109121895D01*
X104078921Y-109115803D01*
X104082967Y-109114999D01*
X104392967Y-109114999D01*
X104397013Y-109115803D01*
G37*
G36*
X74759046Y-107999787D02*
G01*
X74811553Y-108005879D01*
X74829494Y-108013801D01*
X74852584Y-108018394D01*
X74877304Y-108034911D01*
X74898619Y-108044323D01*
X74913176Y-108058880D01*
X74935312Y-108073671D01*
X74950102Y-108095806D01*
X74964659Y-108110363D01*
X74974069Y-108131676D01*
X74990589Y-108156399D01*
X74995182Y-108179490D01*
X75003103Y-108197429D01*
X75009192Y-108249925D01*
X75010000Y-108253983D01*
X75010000Y-108678983D01*
X75009192Y-108683041D01*
X75003103Y-108735536D01*
X74995182Y-108753473D01*
X74990589Y-108776567D01*
X74974068Y-108801291D01*
X74964659Y-108822602D01*
X74950104Y-108837156D01*
X74935312Y-108859295D01*
X74913173Y-108874087D01*
X74898619Y-108888642D01*
X74877308Y-108898051D01*
X74852584Y-108914572D01*
X74829490Y-108919165D01*
X74811553Y-108927086D01*
X74759058Y-108933175D01*
X74755000Y-108933983D01*
X74445000Y-108933983D01*
X74440942Y-108933175D01*
X74388446Y-108927086D01*
X74370507Y-108919165D01*
X74347416Y-108914572D01*
X74322693Y-108898052D01*
X74301380Y-108888642D01*
X74286823Y-108874085D01*
X74264688Y-108859295D01*
X74249897Y-108837159D01*
X74235340Y-108822602D01*
X74225928Y-108801287D01*
X74209411Y-108776567D01*
X74204818Y-108753477D01*
X74196896Y-108735536D01*
X74190804Y-108683029D01*
X74190000Y-108678983D01*
X74190000Y-108253983D01*
X74190804Y-108249937D01*
X74196896Y-108197429D01*
X74204818Y-108179486D01*
X74209411Y-108156399D01*
X74225927Y-108131680D01*
X74235340Y-108110363D01*
X74249899Y-108095803D01*
X74264688Y-108073671D01*
X74286820Y-108058882D01*
X74301380Y-108044323D01*
X74322697Y-108034910D01*
X74347416Y-108018394D01*
X74370503Y-108013801D01*
X74388446Y-108005879D01*
X74440954Y-107999787D01*
X74445000Y-107998983D01*
X74755000Y-107998983D01*
X74759046Y-107999787D01*
G37*
G36*
X49399046Y-107990803D02*
G01*
X49451553Y-107996895D01*
X49469494Y-108004817D01*
X49492584Y-108009410D01*
X49517304Y-108025927D01*
X49538619Y-108035339D01*
X49553176Y-108049896D01*
X49575312Y-108064687D01*
X49590102Y-108086822D01*
X49604659Y-108101379D01*
X49614069Y-108122692D01*
X49630589Y-108147415D01*
X49635182Y-108170506D01*
X49643103Y-108188445D01*
X49649192Y-108240941D01*
X49650000Y-108244999D01*
X49650000Y-108669999D01*
X49649192Y-108674057D01*
X49643103Y-108726552D01*
X49635182Y-108744489D01*
X49630589Y-108767583D01*
X49614068Y-108792307D01*
X49604659Y-108813618D01*
X49590104Y-108828172D01*
X49575312Y-108850311D01*
X49553173Y-108865103D01*
X49538619Y-108879658D01*
X49517308Y-108889067D01*
X49492584Y-108905588D01*
X49469490Y-108910181D01*
X49451553Y-108918102D01*
X49399058Y-108924191D01*
X49395000Y-108924999D01*
X49085000Y-108924999D01*
X49080942Y-108924191D01*
X49028446Y-108918102D01*
X49010507Y-108910181D01*
X48987416Y-108905588D01*
X48962693Y-108889068D01*
X48941380Y-108879658D01*
X48926823Y-108865101D01*
X48904688Y-108850311D01*
X48889897Y-108828175D01*
X48875340Y-108813618D01*
X48865928Y-108792303D01*
X48849411Y-108767583D01*
X48844818Y-108744493D01*
X48836896Y-108726552D01*
X48830804Y-108674045D01*
X48830000Y-108669999D01*
X48830000Y-108244999D01*
X48830804Y-108240953D01*
X48836896Y-108188445D01*
X48844818Y-108170502D01*
X48849411Y-108147415D01*
X48865927Y-108122696D01*
X48875340Y-108101379D01*
X48889899Y-108086819D01*
X48904688Y-108064687D01*
X48926820Y-108049898D01*
X48941380Y-108035339D01*
X48962697Y-108025926D01*
X48987416Y-108009410D01*
X49010503Y-108004817D01*
X49028446Y-107996895D01*
X49080954Y-107990803D01*
X49085000Y-107989999D01*
X49395000Y-107989999D01*
X49399046Y-107990803D01*
G37*
G36*
X100119046Y-107990801D02*
G01*
X100171553Y-107996893D01*
X100189494Y-108004815D01*
X100212584Y-108009408D01*
X100237304Y-108025925D01*
X100258619Y-108035337D01*
X100273176Y-108049894D01*
X100295312Y-108064685D01*
X100310102Y-108086820D01*
X100324659Y-108101377D01*
X100334069Y-108122690D01*
X100350589Y-108147413D01*
X100355182Y-108170504D01*
X100363103Y-108188443D01*
X100369192Y-108240939D01*
X100370000Y-108244997D01*
X100370000Y-108669997D01*
X100369192Y-108674055D01*
X100363103Y-108726550D01*
X100355182Y-108744487D01*
X100350589Y-108767581D01*
X100334068Y-108792305D01*
X100324659Y-108813616D01*
X100310104Y-108828170D01*
X100295312Y-108850309D01*
X100273173Y-108865101D01*
X100258619Y-108879656D01*
X100237308Y-108889065D01*
X100212584Y-108905586D01*
X100189490Y-108910179D01*
X100171553Y-108918100D01*
X100119058Y-108924189D01*
X100115000Y-108924997D01*
X99805000Y-108924997D01*
X99800942Y-108924189D01*
X99748446Y-108918100D01*
X99730507Y-108910179D01*
X99707416Y-108905586D01*
X99682693Y-108889066D01*
X99661380Y-108879656D01*
X99646823Y-108865099D01*
X99624688Y-108850309D01*
X99609897Y-108828173D01*
X99595340Y-108813616D01*
X99585928Y-108792301D01*
X99569411Y-108767581D01*
X99564818Y-108744491D01*
X99556896Y-108726550D01*
X99550804Y-108674043D01*
X99550000Y-108669997D01*
X99550000Y-108244997D01*
X99550804Y-108240951D01*
X99556896Y-108188443D01*
X99564818Y-108170500D01*
X99569411Y-108147413D01*
X99585927Y-108122694D01*
X99595340Y-108101377D01*
X99609899Y-108086817D01*
X99624688Y-108064685D01*
X99646820Y-108049896D01*
X99661380Y-108035337D01*
X99682697Y-108025924D01*
X99707416Y-108009408D01*
X99730503Y-108004815D01*
X99748446Y-107996893D01*
X99800954Y-107990801D01*
X99805000Y-107989997D01*
X100115000Y-107989997D01*
X100119046Y-107990801D01*
G37*
G36*
X79038025Y-107989784D02*
G01*
X79090532Y-107995876D01*
X79108473Y-108003798D01*
X79131563Y-108008391D01*
X79156283Y-108024908D01*
X79177598Y-108034320D01*
X79192155Y-108048877D01*
X79214291Y-108063668D01*
X79229081Y-108085803D01*
X79243638Y-108100360D01*
X79253048Y-108121673D01*
X79269568Y-108146396D01*
X79274161Y-108169487D01*
X79282082Y-108187426D01*
X79288171Y-108239922D01*
X79288979Y-108243980D01*
X79288979Y-108668980D01*
X79288171Y-108673038D01*
X79282082Y-108725533D01*
X79274161Y-108743470D01*
X79269568Y-108766564D01*
X79253047Y-108791288D01*
X79243638Y-108812599D01*
X79229083Y-108827153D01*
X79214291Y-108849292D01*
X79192152Y-108864084D01*
X79177598Y-108878639D01*
X79156287Y-108888048D01*
X79131563Y-108904569D01*
X79108469Y-108909162D01*
X79090532Y-108917083D01*
X79038037Y-108923172D01*
X79033979Y-108923980D01*
X78723979Y-108923980D01*
X78719921Y-108923172D01*
X78667425Y-108917083D01*
X78649486Y-108909162D01*
X78626395Y-108904569D01*
X78601672Y-108888049D01*
X78580359Y-108878639D01*
X78565802Y-108864082D01*
X78543667Y-108849292D01*
X78528876Y-108827156D01*
X78514319Y-108812599D01*
X78504907Y-108791284D01*
X78488390Y-108766564D01*
X78483797Y-108743474D01*
X78475875Y-108725533D01*
X78469783Y-108673026D01*
X78468979Y-108668980D01*
X78468979Y-108243980D01*
X78469783Y-108239934D01*
X78475875Y-108187426D01*
X78483797Y-108169483D01*
X78488390Y-108146396D01*
X78504906Y-108121677D01*
X78514319Y-108100360D01*
X78528878Y-108085800D01*
X78543667Y-108063668D01*
X78565799Y-108048879D01*
X78580359Y-108034320D01*
X78601676Y-108024907D01*
X78626395Y-108008391D01*
X78649482Y-108003798D01*
X78667425Y-107995876D01*
X78719933Y-107989784D01*
X78723979Y-107988980D01*
X79033979Y-107988980D01*
X79038025Y-107989784D01*
G37*
G36*
X53679044Y-107980803D02*
G01*
X53731551Y-107986895D01*
X53749492Y-107994817D01*
X53772582Y-107999410D01*
X53797302Y-108015927D01*
X53818617Y-108025339D01*
X53833174Y-108039896D01*
X53855310Y-108054687D01*
X53870100Y-108076822D01*
X53884657Y-108091379D01*
X53894067Y-108112692D01*
X53910587Y-108137415D01*
X53915180Y-108160506D01*
X53923101Y-108178445D01*
X53929190Y-108230941D01*
X53929998Y-108234999D01*
X53929998Y-108659999D01*
X53929190Y-108664057D01*
X53923101Y-108716552D01*
X53915180Y-108734489D01*
X53910587Y-108757583D01*
X53894066Y-108782307D01*
X53884657Y-108803618D01*
X53870102Y-108818172D01*
X53855310Y-108840311D01*
X53833171Y-108855103D01*
X53818617Y-108869658D01*
X53797306Y-108879067D01*
X53772582Y-108895588D01*
X53749488Y-108900181D01*
X53731551Y-108908102D01*
X53679056Y-108914191D01*
X53674998Y-108914999D01*
X53364998Y-108914999D01*
X53360940Y-108914191D01*
X53308444Y-108908102D01*
X53290505Y-108900181D01*
X53267414Y-108895588D01*
X53242691Y-108879068D01*
X53221378Y-108869658D01*
X53206821Y-108855101D01*
X53184686Y-108840311D01*
X53169895Y-108818175D01*
X53155338Y-108803618D01*
X53145926Y-108782303D01*
X53129409Y-108757583D01*
X53124816Y-108734493D01*
X53116894Y-108716552D01*
X53110802Y-108664045D01*
X53109998Y-108659999D01*
X53109998Y-108234999D01*
X53110802Y-108230953D01*
X53116894Y-108178445D01*
X53124816Y-108160502D01*
X53129409Y-108137415D01*
X53145925Y-108112696D01*
X53155338Y-108091379D01*
X53169897Y-108076819D01*
X53184686Y-108054687D01*
X53206818Y-108039898D01*
X53221378Y-108025339D01*
X53242695Y-108015926D01*
X53267414Y-107999410D01*
X53290501Y-107994817D01*
X53308444Y-107986895D01*
X53360952Y-107980803D01*
X53364998Y-107979999D01*
X53674998Y-107979999D01*
X53679044Y-107980803D01*
G37*
G36*
X104397013Y-107980803D02*
G01*
X104449520Y-107986895D01*
X104467461Y-107994817D01*
X104490551Y-107999410D01*
X104515271Y-108015927D01*
X104536586Y-108025339D01*
X104551143Y-108039896D01*
X104573279Y-108054687D01*
X104588069Y-108076822D01*
X104602626Y-108091379D01*
X104612036Y-108112692D01*
X104628556Y-108137415D01*
X104633149Y-108160506D01*
X104641070Y-108178445D01*
X104647159Y-108230941D01*
X104647967Y-108234999D01*
X104647967Y-108659999D01*
X104647159Y-108664057D01*
X104641070Y-108716552D01*
X104633149Y-108734489D01*
X104628556Y-108757583D01*
X104612035Y-108782307D01*
X104602626Y-108803618D01*
X104588071Y-108818172D01*
X104573279Y-108840311D01*
X104551140Y-108855103D01*
X104536586Y-108869658D01*
X104515275Y-108879067D01*
X104490551Y-108895588D01*
X104467457Y-108900181D01*
X104449520Y-108908102D01*
X104397025Y-108914191D01*
X104392967Y-108914999D01*
X104082967Y-108914999D01*
X104078909Y-108914191D01*
X104026413Y-108908102D01*
X104008474Y-108900181D01*
X103985383Y-108895588D01*
X103960660Y-108879068D01*
X103939347Y-108869658D01*
X103924790Y-108855101D01*
X103902655Y-108840311D01*
X103887864Y-108818175D01*
X103873307Y-108803618D01*
X103863895Y-108782303D01*
X103847378Y-108757583D01*
X103842785Y-108734493D01*
X103834863Y-108716552D01*
X103828771Y-108664045D01*
X103827967Y-108659999D01*
X103827967Y-108234999D01*
X103828771Y-108230953D01*
X103834863Y-108178445D01*
X103842785Y-108160502D01*
X103847378Y-108137415D01*
X103863894Y-108112696D01*
X103873307Y-108091379D01*
X103887866Y-108076819D01*
X103902655Y-108054687D01*
X103924787Y-108039898D01*
X103939347Y-108025339D01*
X103960664Y-108015926D01*
X103985383Y-107999410D01*
X104008470Y-107994817D01*
X104026413Y-107986895D01*
X104078921Y-107980803D01*
X104082967Y-107979999D01*
X104392967Y-107979999D01*
X104397013Y-107980803D01*
G37*
G36*
X76407251Y-106731596D02*
G01*
X76439694Y-106753273D01*
X76461371Y-106785716D01*
X76468983Y-106823984D01*
X76468983Y-107143984D01*
X76461371Y-107182252D01*
X76439694Y-107214695D01*
X76407251Y-107236372D01*
X76368983Y-107243984D01*
X75528983Y-107243984D01*
X75490715Y-107236372D01*
X75458272Y-107214695D01*
X75436595Y-107182252D01*
X75428983Y-107143984D01*
X75428983Y-106823984D01*
X75436595Y-106785716D01*
X75458272Y-106753273D01*
X75490715Y-106731596D01*
X75528983Y-106723984D01*
X76368983Y-106723984D01*
X76407251Y-106731596D01*
G37*
G36*
X78087251Y-106731596D02*
G01*
X78119694Y-106753273D01*
X78141371Y-106785716D01*
X78148983Y-106823984D01*
X78148983Y-107143984D01*
X78141371Y-107182252D01*
X78119694Y-107214695D01*
X78087251Y-107236372D01*
X78048983Y-107243984D01*
X77208983Y-107243984D01*
X77170715Y-107236372D01*
X77138272Y-107214695D01*
X77116595Y-107182252D01*
X77108983Y-107143984D01*
X77108983Y-106823984D01*
X77116595Y-106785716D01*
X77138272Y-106753273D01*
X77170715Y-106731596D01*
X77208983Y-106723984D01*
X78048983Y-106723984D01*
X78087251Y-106731596D01*
G37*
G36*
X51048267Y-106722607D02*
G01*
X51080710Y-106744284D01*
X51102387Y-106776727D01*
X51109999Y-106814995D01*
X51109999Y-107134995D01*
X51102387Y-107173263D01*
X51080710Y-107205706D01*
X51048267Y-107227383D01*
X51009999Y-107234995D01*
X50169999Y-107234995D01*
X50131731Y-107227383D01*
X50099288Y-107205706D01*
X50077611Y-107173263D01*
X50069999Y-107134995D01*
X50069999Y-106814995D01*
X50077611Y-106776727D01*
X50099288Y-106744284D01*
X50131731Y-106722607D01*
X50169999Y-106714995D01*
X51009999Y-106714995D01*
X51048267Y-106722607D01*
G37*
G36*
X52728267Y-106722607D02*
G01*
X52760710Y-106744284D01*
X52782387Y-106776727D01*
X52789999Y-106814995D01*
X52789999Y-107134995D01*
X52782387Y-107173263D01*
X52760710Y-107205706D01*
X52728267Y-107227383D01*
X52689999Y-107234995D01*
X51849999Y-107234995D01*
X51811731Y-107227383D01*
X51779288Y-107205706D01*
X51757611Y-107173263D01*
X51749999Y-107134995D01*
X51749999Y-106814995D01*
X51757611Y-106776727D01*
X51779288Y-106744284D01*
X51811731Y-106722607D01*
X51849999Y-106714995D01*
X52689999Y-106714995D01*
X52728267Y-106722607D01*
G37*
G36*
X101766234Y-106722607D02*
G01*
X101798677Y-106744284D01*
X101820354Y-106776727D01*
X101827966Y-106814995D01*
X101827966Y-107134995D01*
X101820354Y-107173263D01*
X101798677Y-107205706D01*
X101766234Y-107227383D01*
X101727966Y-107234995D01*
X100887966Y-107234995D01*
X100849698Y-107227383D01*
X100817255Y-107205706D01*
X100795578Y-107173263D01*
X100787966Y-107134995D01*
X100787966Y-106814995D01*
X100795578Y-106776727D01*
X100817255Y-106744284D01*
X100849698Y-106722607D01*
X100887966Y-106714995D01*
X101727966Y-106714995D01*
X101766234Y-106722607D01*
G37*
G36*
X103446234Y-106722607D02*
G01*
X103478677Y-106744284D01*
X103500354Y-106776727D01*
X103507966Y-106814995D01*
X103507966Y-107134995D01*
X103500354Y-107173263D01*
X103478677Y-107205706D01*
X103446234Y-107227383D01*
X103407966Y-107234995D01*
X102567966Y-107234995D01*
X102529698Y-107227383D01*
X102497255Y-107205706D01*
X102475578Y-107173263D01*
X102467966Y-107134995D01*
X102467966Y-106814995D01*
X102475578Y-106776727D01*
X102497255Y-106744284D01*
X102529698Y-106722607D01*
X102567966Y-106714995D01*
X103407966Y-106714995D01*
X103446234Y-106722607D01*
G37*
G36*
X78087251Y-106081596D02*
G01*
X78119694Y-106103273D01*
X78141371Y-106135716D01*
X78148983Y-106173984D01*
X78148983Y-106493984D01*
X78141371Y-106532252D01*
X78119694Y-106564695D01*
X78087251Y-106586372D01*
X78048983Y-106593984D01*
X77208983Y-106593984D01*
X77170715Y-106586372D01*
X77138272Y-106564695D01*
X77116595Y-106532252D01*
X77108983Y-106493984D01*
X77108983Y-106173984D01*
X77116595Y-106135716D01*
X77138272Y-106103273D01*
X77170715Y-106081596D01*
X77208983Y-106073984D01*
X78048983Y-106073984D01*
X78087251Y-106081596D01*
G37*
G36*
X52728267Y-106072607D02*
G01*
X52760710Y-106094284D01*
X52782387Y-106126727D01*
X52789999Y-106164995D01*
X52789999Y-106484995D01*
X52782387Y-106523263D01*
X52760710Y-106555706D01*
X52728267Y-106577383D01*
X52689999Y-106584995D01*
X51849999Y-106584995D01*
X51811731Y-106577383D01*
X51779288Y-106555706D01*
X51757611Y-106523263D01*
X51749999Y-106484995D01*
X51749999Y-106164995D01*
X51757611Y-106126727D01*
X51779288Y-106094284D01*
X51811731Y-106072607D01*
X51849999Y-106064995D01*
X52689999Y-106064995D01*
X52728267Y-106072607D01*
G37*
G36*
X103446234Y-106072607D02*
G01*
X103478677Y-106094284D01*
X103500354Y-106126727D01*
X103507966Y-106164995D01*
X103507966Y-106484995D01*
X103500354Y-106523263D01*
X103478677Y-106555706D01*
X103446234Y-106577383D01*
X103407966Y-106584995D01*
X102567966Y-106584995D01*
X102529698Y-106577383D01*
X102497255Y-106555706D01*
X102475578Y-106523263D01*
X102467966Y-106484995D01*
X102467966Y-106164995D01*
X102475578Y-106126727D01*
X102497255Y-106094284D01*
X102529698Y-106072607D01*
X102567966Y-106064995D01*
X103407966Y-106064995D01*
X103446234Y-106072607D01*
G37*
G36*
X76407251Y-105431596D02*
G01*
X76439694Y-105453273D01*
X76461371Y-105485716D01*
X76468983Y-105523984D01*
X76468983Y-105843984D01*
X76461371Y-105882252D01*
X76439694Y-105914695D01*
X76407251Y-105936372D01*
X76368983Y-105943984D01*
X75528983Y-105943984D01*
X75490715Y-105936372D01*
X75458272Y-105914695D01*
X75436595Y-105882252D01*
X75428983Y-105843984D01*
X75428983Y-105523984D01*
X75436595Y-105485716D01*
X75458272Y-105453273D01*
X75490715Y-105431596D01*
X75528983Y-105423984D01*
X76368983Y-105423984D01*
X76407251Y-105431596D01*
G37*
G36*
X78087251Y-105431596D02*
G01*
X78119694Y-105453273D01*
X78141371Y-105485716D01*
X78148983Y-105523984D01*
X78148983Y-105843984D01*
X78141371Y-105882252D01*
X78119694Y-105914695D01*
X78087251Y-105936372D01*
X78048983Y-105943984D01*
X77208983Y-105943984D01*
X77170715Y-105936372D01*
X77138272Y-105914695D01*
X77116595Y-105882252D01*
X77108983Y-105843984D01*
X77108983Y-105523984D01*
X77116595Y-105485716D01*
X77138272Y-105453273D01*
X77170715Y-105431596D01*
X77208983Y-105423984D01*
X78048983Y-105423984D01*
X78087251Y-105431596D01*
G37*
G36*
X51048267Y-105422607D02*
G01*
X51080710Y-105444284D01*
X51102387Y-105476727D01*
X51109999Y-105514995D01*
X51109999Y-105834995D01*
X51102387Y-105873263D01*
X51080710Y-105905706D01*
X51048267Y-105927383D01*
X51009999Y-105934995D01*
X50169999Y-105934995D01*
X50131731Y-105927383D01*
X50099288Y-105905706D01*
X50077611Y-105873263D01*
X50069999Y-105834995D01*
X50069999Y-105514995D01*
X50077611Y-105476727D01*
X50099288Y-105444284D01*
X50131731Y-105422607D01*
X50169999Y-105414995D01*
X51009999Y-105414995D01*
X51048267Y-105422607D01*
G37*
G36*
X52728267Y-105422607D02*
G01*
X52760710Y-105444284D01*
X52782387Y-105476727D01*
X52789999Y-105514995D01*
X52789999Y-105834995D01*
X52782387Y-105873263D01*
X52760710Y-105905706D01*
X52728267Y-105927383D01*
X52689999Y-105934995D01*
X51849999Y-105934995D01*
X51811731Y-105927383D01*
X51779288Y-105905706D01*
X51757611Y-105873263D01*
X51749999Y-105834995D01*
X51749999Y-105514995D01*
X51757611Y-105476727D01*
X51779288Y-105444284D01*
X51811731Y-105422607D01*
X51849999Y-105414995D01*
X52689999Y-105414995D01*
X52728267Y-105422607D01*
G37*
G36*
X101766234Y-105422607D02*
G01*
X101798677Y-105444284D01*
X101820354Y-105476727D01*
X101827966Y-105514995D01*
X101827966Y-105834995D01*
X101820354Y-105873263D01*
X101798677Y-105905706D01*
X101766234Y-105927383D01*
X101727966Y-105934995D01*
X100887966Y-105934995D01*
X100849698Y-105927383D01*
X100817255Y-105905706D01*
X100795578Y-105873263D01*
X100787966Y-105834995D01*
X100787966Y-105514995D01*
X100795578Y-105476727D01*
X100817255Y-105444284D01*
X100849698Y-105422607D01*
X100887966Y-105414995D01*
X101727966Y-105414995D01*
X101766234Y-105422607D01*
G37*
G36*
X103446234Y-105422607D02*
G01*
X103478677Y-105444284D01*
X103500354Y-105476727D01*
X103507966Y-105514995D01*
X103507966Y-105834995D01*
X103500354Y-105873263D01*
X103478677Y-105905706D01*
X103446234Y-105927383D01*
X103407966Y-105934995D01*
X102567966Y-105934995D01*
X102529698Y-105927383D01*
X102497255Y-105905706D01*
X102475578Y-105873263D01*
X102467966Y-105834995D01*
X102467966Y-105514995D01*
X102475578Y-105476727D01*
X102497255Y-105444284D01*
X102529698Y-105422607D01*
X102567966Y-105414995D01*
X103407966Y-105414995D01*
X103446234Y-105422607D01*
G37*
G36*
X56137251Y-90491086D02*
G01*
X56169694Y-90512763D01*
X56183414Y-90533297D01*
X56234552Y-90533297D01*
X56248272Y-90512763D01*
X56280715Y-90491086D01*
X56318983Y-90483474D01*
X56598983Y-90483474D01*
X56637251Y-90491086D01*
X56669694Y-90512763D01*
X56683414Y-90533297D01*
X56734552Y-90533297D01*
X56748272Y-90512763D01*
X56780715Y-90491086D01*
X56818983Y-90483474D01*
X57098983Y-90483474D01*
X57137251Y-90491086D01*
X57169694Y-90512763D01*
X57183414Y-90533297D01*
X57234552Y-90533297D01*
X57248272Y-90512763D01*
X57280715Y-90491086D01*
X57318983Y-90483474D01*
X57598983Y-90483474D01*
X57637251Y-90491086D01*
X57669694Y-90512763D01*
X57691371Y-90545206D01*
X57698983Y-90583474D01*
X57698983Y-91083474D01*
X57691371Y-91121742D01*
X57669694Y-91154185D01*
X57667603Y-91155581D01*
X57657559Y-91170614D01*
X57685812Y-91223474D01*
X57838983Y-91223474D01*
X57877251Y-91231086D01*
X57909694Y-91252763D01*
X57931371Y-91285206D01*
X57938983Y-91323474D01*
X57938983Y-91603474D01*
X57931371Y-91641742D01*
X57909694Y-91674185D01*
X57889159Y-91687905D01*
X57889159Y-91739042D01*
X57909694Y-91752763D01*
X57931371Y-91785206D01*
X57938983Y-91823474D01*
X57938983Y-92103474D01*
X57931371Y-92141742D01*
X57909694Y-92174185D01*
X57877251Y-92195862D01*
X57838983Y-92203474D01*
X57685812Y-92203474D01*
X57657559Y-92256333D01*
X57667604Y-92271367D01*
X57669694Y-92272763D01*
X57691371Y-92305206D01*
X57698983Y-92343474D01*
X57698983Y-92843474D01*
X57691371Y-92881742D01*
X57669694Y-92914185D01*
X57637251Y-92935862D01*
X57598983Y-92943474D01*
X57318983Y-92943474D01*
X57280715Y-92935862D01*
X57248272Y-92914185D01*
X57234551Y-92893650D01*
X57183415Y-92893650D01*
X57169694Y-92914185D01*
X57137251Y-92935862D01*
X57098983Y-92943474D01*
X56818983Y-92943474D01*
X56780715Y-92935862D01*
X56748272Y-92914185D01*
X56734551Y-92893650D01*
X56683415Y-92893650D01*
X56669694Y-92914185D01*
X56637251Y-92935862D01*
X56598983Y-92943474D01*
X56318983Y-92943474D01*
X56280715Y-92935862D01*
X56248272Y-92914185D01*
X56234551Y-92893650D01*
X56183415Y-92893650D01*
X56169694Y-92914185D01*
X56137251Y-92935862D01*
X56098983Y-92943474D01*
X55818983Y-92943474D01*
X55780715Y-92935862D01*
X55748272Y-92914185D01*
X55726595Y-92881742D01*
X55718983Y-92843474D01*
X55718983Y-92343474D01*
X55726595Y-92305206D01*
X55748272Y-92272763D01*
X55750358Y-92271368D01*
X55760406Y-92256332D01*
X55732153Y-92203474D01*
X55578983Y-92203474D01*
X55540715Y-92195862D01*
X55508272Y-92174185D01*
X55486595Y-92141742D01*
X55478983Y-92103474D01*
X55478983Y-91823474D01*
X55486595Y-91785206D01*
X55508272Y-91752763D01*
X55528806Y-91739043D01*
X55528806Y-91687904D01*
X55508272Y-91674185D01*
X55486595Y-91641742D01*
X55478983Y-91603474D01*
X55478983Y-91323474D01*
X55486595Y-91285206D01*
X55508272Y-91252763D01*
X55533774Y-91235724D01*
X56124193Y-91235724D01*
X56149694Y-91252763D01*
X56171371Y-91285206D01*
X56178983Y-91323474D01*
X56178983Y-91603474D01*
X56171371Y-91641742D01*
X56149694Y-91674185D01*
X56129159Y-91687905D01*
X56129159Y-91739042D01*
X56149694Y-91752763D01*
X56171371Y-91785206D01*
X56178983Y-91823474D01*
X56178983Y-92103474D01*
X56171371Y-92141742D01*
X56149694Y-92174185D01*
X56124194Y-92191222D01*
X56124194Y-92243517D01*
X56134789Y-92250596D01*
X56137251Y-92251086D01*
X56169694Y-92272763D01*
X56183414Y-92293297D01*
X56234552Y-92293297D01*
X56248272Y-92272763D01*
X56280715Y-92251086D01*
X56318983Y-92243474D01*
X56598983Y-92243474D01*
X56637251Y-92251086D01*
X56669694Y-92272763D01*
X56683414Y-92293297D01*
X56734552Y-92293297D01*
X56748272Y-92272763D01*
X56780715Y-92251086D01*
X56818983Y-92243474D01*
X57098983Y-92243474D01*
X57137251Y-92251086D01*
X57169694Y-92272763D01*
X57183414Y-92293297D01*
X57234552Y-92293297D01*
X57248272Y-92272763D01*
X57280715Y-92251086D01*
X57283174Y-92250596D01*
X57293771Y-92243516D01*
X57293771Y-92191222D01*
X57268272Y-92174185D01*
X57246595Y-92141742D01*
X57238983Y-92103474D01*
X57238983Y-91823474D01*
X57246595Y-91785206D01*
X57268272Y-91752763D01*
X57288806Y-91739043D01*
X57288806Y-91687904D01*
X57268272Y-91674185D01*
X57246595Y-91641742D01*
X57238983Y-91603474D01*
X57238983Y-91323474D01*
X57246595Y-91285206D01*
X57268272Y-91252763D01*
X57293771Y-91235725D01*
X57293770Y-91183429D01*
X57283178Y-91176352D01*
X57280715Y-91175862D01*
X57248272Y-91154185D01*
X57234551Y-91133650D01*
X57183415Y-91133650D01*
X57169694Y-91154185D01*
X57137251Y-91175862D01*
X57098983Y-91183474D01*
X56818983Y-91183474D01*
X56780715Y-91175862D01*
X56748272Y-91154185D01*
X56734551Y-91133650D01*
X56683415Y-91133650D01*
X56669694Y-91154185D01*
X56637251Y-91175862D01*
X56598983Y-91183474D01*
X56318983Y-91183474D01*
X56280715Y-91175862D01*
X56248272Y-91154185D01*
X56234551Y-91133650D01*
X56183415Y-91133650D01*
X56169694Y-91154185D01*
X56137251Y-91175862D01*
X56134786Y-91176352D01*
X56124195Y-91183429D01*
X56124193Y-91235724D01*
X55533774Y-91235724D01*
X55540715Y-91231086D01*
X55578983Y-91223474D01*
X55732153Y-91223474D01*
X55760406Y-91170615D01*
X55750360Y-91155580D01*
X55748272Y-91154185D01*
X55726595Y-91121742D01*
X55718983Y-91083474D01*
X55718983Y-90583474D01*
X55726595Y-90545206D01*
X55748272Y-90512763D01*
X55780715Y-90491086D01*
X55818983Y-90483474D01*
X56098983Y-90483474D01*
X56137251Y-90491086D01*
G37*
G36*
X96137248Y-90491083D02*
G01*
X96169691Y-90512760D01*
X96183411Y-90533294D01*
X96234549Y-90533294D01*
X96248269Y-90512760D01*
X96280712Y-90491083D01*
X96318980Y-90483471D01*
X96598980Y-90483471D01*
X96637248Y-90491083D01*
X96669691Y-90512760D01*
X96683411Y-90533294D01*
X96734549Y-90533294D01*
X96748269Y-90512760D01*
X96780712Y-90491083D01*
X96818980Y-90483471D01*
X97098980Y-90483471D01*
X97137248Y-90491083D01*
X97169691Y-90512760D01*
X97183411Y-90533294D01*
X97234549Y-90533294D01*
X97248269Y-90512760D01*
X97280712Y-90491083D01*
X97318980Y-90483471D01*
X97598980Y-90483471D01*
X97637248Y-90491083D01*
X97669691Y-90512760D01*
X97691368Y-90545203D01*
X97698980Y-90583471D01*
X97698980Y-91083471D01*
X97691368Y-91121739D01*
X97669691Y-91154182D01*
X97667600Y-91155578D01*
X97657556Y-91170611D01*
X97685809Y-91223471D01*
X97838980Y-91223471D01*
X97877248Y-91231083D01*
X97909691Y-91252760D01*
X97931368Y-91285203D01*
X97938980Y-91323471D01*
X97938980Y-91603471D01*
X97931368Y-91641739D01*
X97909691Y-91674182D01*
X97889156Y-91687902D01*
X97889156Y-91739039D01*
X97909691Y-91752760D01*
X97931368Y-91785203D01*
X97938980Y-91823471D01*
X97938980Y-92103471D01*
X97931368Y-92141739D01*
X97909691Y-92174182D01*
X97877248Y-92195859D01*
X97838980Y-92203471D01*
X97685809Y-92203471D01*
X97657556Y-92256330D01*
X97667601Y-92271364D01*
X97669691Y-92272760D01*
X97691368Y-92305203D01*
X97698980Y-92343471D01*
X97698980Y-92843471D01*
X97691368Y-92881739D01*
X97669691Y-92914182D01*
X97637248Y-92935859D01*
X97598980Y-92943471D01*
X97318980Y-92943471D01*
X97280712Y-92935859D01*
X97248269Y-92914182D01*
X97234548Y-92893647D01*
X97183412Y-92893647D01*
X97169691Y-92914182D01*
X97137248Y-92935859D01*
X97098980Y-92943471D01*
X96818980Y-92943471D01*
X96780712Y-92935859D01*
X96748269Y-92914182D01*
X96734548Y-92893647D01*
X96683412Y-92893647D01*
X96669691Y-92914182D01*
X96637248Y-92935859D01*
X96598980Y-92943471D01*
X96318980Y-92943471D01*
X96280712Y-92935859D01*
X96248269Y-92914182D01*
X96234548Y-92893647D01*
X96183412Y-92893647D01*
X96169691Y-92914182D01*
X96137248Y-92935859D01*
X96098980Y-92943471D01*
X95818980Y-92943471D01*
X95780712Y-92935859D01*
X95748269Y-92914182D01*
X95726592Y-92881739D01*
X95718980Y-92843471D01*
X95718980Y-92343471D01*
X95726592Y-92305203D01*
X95748269Y-92272760D01*
X95750355Y-92271365D01*
X95760403Y-92256329D01*
X95732150Y-92203471D01*
X95578980Y-92203471D01*
X95540712Y-92195859D01*
X95508269Y-92174182D01*
X95486592Y-92141739D01*
X95478980Y-92103471D01*
X95478980Y-91823471D01*
X95486592Y-91785203D01*
X95508269Y-91752760D01*
X95528803Y-91739040D01*
X95528803Y-91687901D01*
X95508269Y-91674182D01*
X95486592Y-91641739D01*
X95478980Y-91603471D01*
X95478980Y-91323471D01*
X95486592Y-91285203D01*
X95508269Y-91252760D01*
X95533771Y-91235721D01*
X96124190Y-91235721D01*
X96149691Y-91252760D01*
X96171368Y-91285203D01*
X96178980Y-91323471D01*
X96178980Y-91603471D01*
X96171368Y-91641739D01*
X96149691Y-91674182D01*
X96129156Y-91687902D01*
X96129156Y-91739039D01*
X96149691Y-91752760D01*
X96171368Y-91785203D01*
X96178980Y-91823471D01*
X96178980Y-92103471D01*
X96171368Y-92141739D01*
X96149691Y-92174182D01*
X96124191Y-92191219D01*
X96124191Y-92243514D01*
X96134786Y-92250593D01*
X96137248Y-92251083D01*
X96169691Y-92272760D01*
X96183411Y-92293294D01*
X96234549Y-92293294D01*
X96248269Y-92272760D01*
X96280712Y-92251083D01*
X96318980Y-92243471D01*
X96598980Y-92243471D01*
X96637248Y-92251083D01*
X96669691Y-92272760D01*
X96683411Y-92293294D01*
X96734549Y-92293294D01*
X96748269Y-92272760D01*
X96780712Y-92251083D01*
X96818980Y-92243471D01*
X97098980Y-92243471D01*
X97137248Y-92251083D01*
X97169691Y-92272760D01*
X97183411Y-92293294D01*
X97234549Y-92293294D01*
X97248269Y-92272760D01*
X97280712Y-92251083D01*
X97283171Y-92250593D01*
X97293768Y-92243513D01*
X97293768Y-92191219D01*
X97268269Y-92174182D01*
X97246592Y-92141739D01*
X97238980Y-92103471D01*
X97238980Y-91823471D01*
X97246592Y-91785203D01*
X97268269Y-91752760D01*
X97288803Y-91739040D01*
X97288803Y-91687901D01*
X97268269Y-91674182D01*
X97246592Y-91641739D01*
X97238980Y-91603471D01*
X97238980Y-91323471D01*
X97246592Y-91285203D01*
X97268269Y-91252760D01*
X97293768Y-91235722D01*
X97293767Y-91183426D01*
X97283175Y-91176349D01*
X97280712Y-91175859D01*
X97248269Y-91154182D01*
X97234548Y-91133647D01*
X97183412Y-91133647D01*
X97169691Y-91154182D01*
X97137248Y-91175859D01*
X97098980Y-91183471D01*
X96818980Y-91183471D01*
X96780712Y-91175859D01*
X96748269Y-91154182D01*
X96734548Y-91133647D01*
X96683412Y-91133647D01*
X96669691Y-91154182D01*
X96637248Y-91175859D01*
X96598980Y-91183471D01*
X96318980Y-91183471D01*
X96280712Y-91175859D01*
X96248269Y-91154182D01*
X96234548Y-91133647D01*
X96183412Y-91133647D01*
X96169691Y-91154182D01*
X96137248Y-91175859D01*
X96134783Y-91176349D01*
X96124192Y-91183426D01*
X96124190Y-91235721D01*
X95533771Y-91235721D01*
X95540712Y-91231083D01*
X95578980Y-91223471D01*
X95732150Y-91223471D01*
X95760403Y-91170612D01*
X95750357Y-91155577D01*
X95748269Y-91154182D01*
X95726592Y-91121739D01*
X95718980Y-91083471D01*
X95718980Y-90583471D01*
X95726592Y-90545203D01*
X95748269Y-90512760D01*
X95780712Y-90491083D01*
X95818980Y-90483471D01*
X96098980Y-90483471D01*
X96137248Y-90491083D01*
G37*
G36*
X54738028Y-91814281D02*
G01*
X54790535Y-91820373D01*
X54808476Y-91828295D01*
X54831566Y-91832888D01*
X54856286Y-91849405D01*
X54877601Y-91858817D01*
X54892158Y-91873374D01*
X54914294Y-91888165D01*
X54929084Y-91910300D01*
X54943641Y-91924857D01*
X54953051Y-91946170D01*
X54969571Y-91970893D01*
X54974164Y-91993984D01*
X54982085Y-92011923D01*
X54988174Y-92064419D01*
X54988982Y-92068477D01*
X54988982Y-92493477D01*
X54988174Y-92497535D01*
X54982085Y-92550030D01*
X54974164Y-92567967D01*
X54969571Y-92591061D01*
X54953050Y-92615785D01*
X54943641Y-92637096D01*
X54929086Y-92651650D01*
X54914294Y-92673789D01*
X54892155Y-92688581D01*
X54877601Y-92703136D01*
X54856290Y-92712545D01*
X54831566Y-92729066D01*
X54808472Y-92733659D01*
X54790535Y-92741580D01*
X54738040Y-92747669D01*
X54733982Y-92748477D01*
X54423982Y-92748477D01*
X54419924Y-92747669D01*
X54367428Y-92741580D01*
X54349489Y-92733659D01*
X54326398Y-92729066D01*
X54301675Y-92712546D01*
X54280362Y-92703136D01*
X54265805Y-92688579D01*
X54243670Y-92673789D01*
X54228879Y-92651653D01*
X54214322Y-92637096D01*
X54204910Y-92615781D01*
X54188393Y-92591061D01*
X54183800Y-92567971D01*
X54175878Y-92550030D01*
X54169786Y-92497523D01*
X54168982Y-92493477D01*
X54168982Y-92068477D01*
X54169786Y-92064431D01*
X54175878Y-92011923D01*
X54183800Y-91993980D01*
X54188393Y-91970893D01*
X54204909Y-91946174D01*
X54214322Y-91924857D01*
X54228881Y-91910297D01*
X54243670Y-91888165D01*
X54265802Y-91873376D01*
X54280362Y-91858817D01*
X54301679Y-91849404D01*
X54326398Y-91832888D01*
X54349485Y-91828295D01*
X54367428Y-91820373D01*
X54419936Y-91814281D01*
X54423982Y-91813477D01*
X54733982Y-91813477D01*
X54738028Y-91814281D01*
G37*
G36*
X94759046Y-91810804D02*
G01*
X94811553Y-91816896D01*
X94829494Y-91824818D01*
X94852584Y-91829411D01*
X94877304Y-91845928D01*
X94898619Y-91855340D01*
X94913176Y-91869897D01*
X94935312Y-91884688D01*
X94950102Y-91906823D01*
X94964659Y-91921380D01*
X94974069Y-91942693D01*
X94990589Y-91967416D01*
X94995182Y-91990507D01*
X95003103Y-92008446D01*
X95009192Y-92060942D01*
X95010000Y-92065000D01*
X95010000Y-92490000D01*
X95009192Y-92494058D01*
X95003103Y-92546553D01*
X94995182Y-92564490D01*
X94990589Y-92587584D01*
X94974068Y-92612308D01*
X94964659Y-92633619D01*
X94950104Y-92648173D01*
X94935312Y-92670312D01*
X94913173Y-92685104D01*
X94898619Y-92699659D01*
X94877308Y-92709068D01*
X94852584Y-92725589D01*
X94829490Y-92730182D01*
X94811553Y-92738103D01*
X94759058Y-92744192D01*
X94755000Y-92745000D01*
X94445000Y-92745000D01*
X94440942Y-92744192D01*
X94388446Y-92738103D01*
X94370507Y-92730182D01*
X94347416Y-92725589D01*
X94322693Y-92709069D01*
X94301380Y-92699659D01*
X94286823Y-92685102D01*
X94264688Y-92670312D01*
X94249897Y-92648176D01*
X94235340Y-92633619D01*
X94225928Y-92612304D01*
X94209411Y-92587584D01*
X94204818Y-92564494D01*
X94196896Y-92546553D01*
X94190804Y-92494046D01*
X94190000Y-92490000D01*
X94190000Y-92065000D01*
X94190804Y-92060954D01*
X94196896Y-92008446D01*
X94204818Y-91990503D01*
X94209411Y-91967416D01*
X94225927Y-91942697D01*
X94235340Y-91921380D01*
X94249899Y-91906820D01*
X94264688Y-91884688D01*
X94286820Y-91869899D01*
X94301380Y-91855340D01*
X94322697Y-91845927D01*
X94347416Y-91829411D01*
X94370503Y-91824818D01*
X94388446Y-91816896D01*
X94440954Y-91810804D01*
X94445000Y-91810000D01*
X94755000Y-91810000D01*
X94759046Y-91810804D01*
G37*
G36*
X59038028Y-91804277D02*
G01*
X59090535Y-91810369D01*
X59108476Y-91818291D01*
X59131566Y-91822884D01*
X59156286Y-91839401D01*
X59177601Y-91848813D01*
X59192158Y-91863370D01*
X59214294Y-91878161D01*
X59229084Y-91900296D01*
X59243641Y-91914853D01*
X59253051Y-91936166D01*
X59269571Y-91960889D01*
X59274164Y-91983980D01*
X59282085Y-92001919D01*
X59288174Y-92054415D01*
X59288982Y-92058473D01*
X59288982Y-92483473D01*
X59288174Y-92487531D01*
X59282085Y-92540026D01*
X59274164Y-92557963D01*
X59269571Y-92581057D01*
X59253050Y-92605781D01*
X59243641Y-92627092D01*
X59229086Y-92641646D01*
X59214294Y-92663785D01*
X59192155Y-92678577D01*
X59177601Y-92693132D01*
X59156290Y-92702541D01*
X59131566Y-92719062D01*
X59108472Y-92723655D01*
X59090535Y-92731576D01*
X59038040Y-92737665D01*
X59033982Y-92738473D01*
X58723982Y-92738473D01*
X58719924Y-92737665D01*
X58667428Y-92731576D01*
X58649489Y-92723655D01*
X58626398Y-92719062D01*
X58601675Y-92702542D01*
X58580362Y-92693132D01*
X58565805Y-92678575D01*
X58543670Y-92663785D01*
X58528879Y-92641649D01*
X58514322Y-92627092D01*
X58504910Y-92605777D01*
X58488393Y-92581057D01*
X58483800Y-92557967D01*
X58475878Y-92540026D01*
X58469786Y-92487519D01*
X58468982Y-92483473D01*
X58468982Y-92058473D01*
X58469786Y-92054427D01*
X58475878Y-92001919D01*
X58483800Y-91983976D01*
X58488393Y-91960889D01*
X58504909Y-91936170D01*
X58514322Y-91914853D01*
X58528881Y-91900293D01*
X58543670Y-91878161D01*
X58565802Y-91863372D01*
X58580362Y-91848813D01*
X58601679Y-91839400D01*
X58626398Y-91822884D01*
X58649485Y-91818291D01*
X58667428Y-91810369D01*
X58719936Y-91804277D01*
X58723982Y-91803473D01*
X59033982Y-91803473D01*
X59038028Y-91804277D01*
G37*
G36*
X99038027Y-91804277D02*
G01*
X99090534Y-91810369D01*
X99108475Y-91818291D01*
X99131565Y-91822884D01*
X99156285Y-91839401D01*
X99177600Y-91848813D01*
X99192157Y-91863370D01*
X99214293Y-91878161D01*
X99229083Y-91900296D01*
X99243640Y-91914853D01*
X99253050Y-91936166D01*
X99269570Y-91960889D01*
X99274163Y-91983980D01*
X99282084Y-92001919D01*
X99288173Y-92054415D01*
X99288981Y-92058473D01*
X99288981Y-92483473D01*
X99288173Y-92487531D01*
X99282084Y-92540026D01*
X99274163Y-92557963D01*
X99269570Y-92581057D01*
X99253049Y-92605781D01*
X99243640Y-92627092D01*
X99229085Y-92641646D01*
X99214293Y-92663785D01*
X99192154Y-92678577D01*
X99177600Y-92693132D01*
X99156289Y-92702541D01*
X99131565Y-92719062D01*
X99108471Y-92723655D01*
X99090534Y-92731576D01*
X99038039Y-92737665D01*
X99033981Y-92738473D01*
X98723981Y-92738473D01*
X98719923Y-92737665D01*
X98667427Y-92731576D01*
X98649488Y-92723655D01*
X98626397Y-92719062D01*
X98601674Y-92702542D01*
X98580361Y-92693132D01*
X98565804Y-92678575D01*
X98543669Y-92663785D01*
X98528878Y-92641649D01*
X98514321Y-92627092D01*
X98504909Y-92605777D01*
X98488392Y-92581057D01*
X98483799Y-92557967D01*
X98475877Y-92540026D01*
X98469785Y-92487519D01*
X98468981Y-92483473D01*
X98468981Y-92058473D01*
X98469785Y-92054427D01*
X98475877Y-92001919D01*
X98483799Y-91983976D01*
X98488392Y-91960889D01*
X98504908Y-91936170D01*
X98514321Y-91914853D01*
X98528880Y-91900293D01*
X98543669Y-91878161D01*
X98565801Y-91863372D01*
X98580361Y-91848813D01*
X98601678Y-91839400D01*
X98626397Y-91822884D01*
X98649484Y-91818291D01*
X98667427Y-91810369D01*
X98719935Y-91804277D01*
X98723981Y-91803473D01*
X99033981Y-91803473D01*
X99038027Y-91804277D01*
G37*
G36*
X54738028Y-90679281D02*
G01*
X54790535Y-90685373D01*
X54808476Y-90693295D01*
X54831566Y-90697888D01*
X54856286Y-90714405D01*
X54877601Y-90723817D01*
X54892158Y-90738374D01*
X54914294Y-90753165D01*
X54929084Y-90775300D01*
X54943641Y-90789857D01*
X54953051Y-90811170D01*
X54969571Y-90835893D01*
X54974164Y-90858984D01*
X54982085Y-90876923D01*
X54988174Y-90929419D01*
X54988982Y-90933477D01*
X54988982Y-91358477D01*
X54988174Y-91362535D01*
X54982085Y-91415030D01*
X54974164Y-91432967D01*
X54969571Y-91456061D01*
X54953050Y-91480785D01*
X54943641Y-91502096D01*
X54929086Y-91516650D01*
X54914294Y-91538789D01*
X54892155Y-91553581D01*
X54877601Y-91568136D01*
X54856290Y-91577545D01*
X54831566Y-91594066D01*
X54808472Y-91598659D01*
X54790535Y-91606580D01*
X54738040Y-91612669D01*
X54733982Y-91613477D01*
X54423982Y-91613477D01*
X54419924Y-91612669D01*
X54367428Y-91606580D01*
X54349489Y-91598659D01*
X54326398Y-91594066D01*
X54301675Y-91577546D01*
X54280362Y-91568136D01*
X54265805Y-91553579D01*
X54243670Y-91538789D01*
X54228879Y-91516653D01*
X54214322Y-91502096D01*
X54204910Y-91480781D01*
X54188393Y-91456061D01*
X54183800Y-91432971D01*
X54175878Y-91415030D01*
X54169786Y-91362523D01*
X54168982Y-91358477D01*
X54168982Y-90933477D01*
X54169786Y-90929431D01*
X54175878Y-90876923D01*
X54183800Y-90858980D01*
X54188393Y-90835893D01*
X54204909Y-90811174D01*
X54214322Y-90789857D01*
X54228881Y-90775297D01*
X54243670Y-90753165D01*
X54265802Y-90738376D01*
X54280362Y-90723817D01*
X54301679Y-90714404D01*
X54326398Y-90697888D01*
X54349485Y-90693295D01*
X54367428Y-90685373D01*
X54419936Y-90679281D01*
X54423982Y-90678477D01*
X54733982Y-90678477D01*
X54738028Y-90679281D01*
G37*
G36*
X94759046Y-90675804D02*
G01*
X94811553Y-90681896D01*
X94829494Y-90689818D01*
X94852584Y-90694411D01*
X94877304Y-90710928D01*
X94898619Y-90720340D01*
X94913176Y-90734897D01*
X94935312Y-90749688D01*
X94950102Y-90771823D01*
X94964659Y-90786380D01*
X94974069Y-90807693D01*
X94990589Y-90832416D01*
X94995182Y-90855507D01*
X95003103Y-90873446D01*
X95009192Y-90925942D01*
X95010000Y-90930000D01*
X95010000Y-91355000D01*
X95009192Y-91359058D01*
X95003103Y-91411553D01*
X94995182Y-91429490D01*
X94990589Y-91452584D01*
X94974068Y-91477308D01*
X94964659Y-91498619D01*
X94950104Y-91513173D01*
X94935312Y-91535312D01*
X94913173Y-91550104D01*
X94898619Y-91564659D01*
X94877308Y-91574068D01*
X94852584Y-91590589D01*
X94829490Y-91595182D01*
X94811553Y-91603103D01*
X94759058Y-91609192D01*
X94755000Y-91610000D01*
X94445000Y-91610000D01*
X94440942Y-91609192D01*
X94388446Y-91603103D01*
X94370507Y-91595182D01*
X94347416Y-91590589D01*
X94322693Y-91574069D01*
X94301380Y-91564659D01*
X94286823Y-91550102D01*
X94264688Y-91535312D01*
X94249897Y-91513176D01*
X94235340Y-91498619D01*
X94225928Y-91477304D01*
X94209411Y-91452584D01*
X94204818Y-91429494D01*
X94196896Y-91411553D01*
X94190804Y-91359046D01*
X94190000Y-91355000D01*
X94190000Y-90930000D01*
X94190804Y-90925954D01*
X94196896Y-90873446D01*
X94204818Y-90855503D01*
X94209411Y-90832416D01*
X94225927Y-90807697D01*
X94235340Y-90786380D01*
X94249899Y-90771820D01*
X94264688Y-90749688D01*
X94286820Y-90734899D01*
X94301380Y-90720340D01*
X94322697Y-90710927D01*
X94347416Y-90694411D01*
X94370503Y-90689818D01*
X94388446Y-90681896D01*
X94440954Y-90675804D01*
X94445000Y-90675000D01*
X94755000Y-90675000D01*
X94759046Y-90675804D01*
G37*
G36*
X59038028Y-90669277D02*
G01*
X59090535Y-90675369D01*
X59108476Y-90683291D01*
X59131566Y-90687884D01*
X59156286Y-90704401D01*
X59177601Y-90713813D01*
X59192158Y-90728370D01*
X59214294Y-90743161D01*
X59229084Y-90765296D01*
X59243641Y-90779853D01*
X59253051Y-90801166D01*
X59269571Y-90825889D01*
X59274164Y-90848980D01*
X59282085Y-90866919D01*
X59288174Y-90919415D01*
X59288982Y-90923473D01*
X59288982Y-91348473D01*
X59288174Y-91352531D01*
X59282085Y-91405026D01*
X59274164Y-91422963D01*
X59269571Y-91446057D01*
X59253050Y-91470781D01*
X59243641Y-91492092D01*
X59229086Y-91506646D01*
X59214294Y-91528785D01*
X59192155Y-91543577D01*
X59177601Y-91558132D01*
X59156290Y-91567541D01*
X59131566Y-91584062D01*
X59108472Y-91588655D01*
X59090535Y-91596576D01*
X59038040Y-91602665D01*
X59033982Y-91603473D01*
X58723982Y-91603473D01*
X58719924Y-91602665D01*
X58667428Y-91596576D01*
X58649489Y-91588655D01*
X58626398Y-91584062D01*
X58601675Y-91567542D01*
X58580362Y-91558132D01*
X58565805Y-91543575D01*
X58543670Y-91528785D01*
X58528879Y-91506649D01*
X58514322Y-91492092D01*
X58504910Y-91470777D01*
X58488393Y-91446057D01*
X58483800Y-91422967D01*
X58475878Y-91405026D01*
X58469786Y-91352519D01*
X58468982Y-91348473D01*
X58468982Y-90923473D01*
X58469786Y-90919427D01*
X58475878Y-90866919D01*
X58483800Y-90848976D01*
X58488393Y-90825889D01*
X58504909Y-90801170D01*
X58514322Y-90779853D01*
X58528881Y-90765293D01*
X58543670Y-90743161D01*
X58565802Y-90728372D01*
X58580362Y-90713813D01*
X58601679Y-90704400D01*
X58626398Y-90687884D01*
X58649485Y-90683291D01*
X58667428Y-90675369D01*
X58719936Y-90669277D01*
X58723982Y-90668473D01*
X59033982Y-90668473D01*
X59038028Y-90669277D01*
G37*
G36*
X99038027Y-90669277D02*
G01*
X99090534Y-90675369D01*
X99108475Y-90683291D01*
X99131565Y-90687884D01*
X99156285Y-90704401D01*
X99177600Y-90713813D01*
X99192157Y-90728370D01*
X99214293Y-90743161D01*
X99229083Y-90765296D01*
X99243640Y-90779853D01*
X99253050Y-90801166D01*
X99269570Y-90825889D01*
X99274163Y-90848980D01*
X99282084Y-90866919D01*
X99288173Y-90919415D01*
X99288981Y-90923473D01*
X99288981Y-91348473D01*
X99288173Y-91352531D01*
X99282084Y-91405026D01*
X99274163Y-91422963D01*
X99269570Y-91446057D01*
X99253049Y-91470781D01*
X99243640Y-91492092D01*
X99229085Y-91506646D01*
X99214293Y-91528785D01*
X99192154Y-91543577D01*
X99177600Y-91558132D01*
X99156289Y-91567541D01*
X99131565Y-91584062D01*
X99108471Y-91588655D01*
X99090534Y-91596576D01*
X99038039Y-91602665D01*
X99033981Y-91603473D01*
X98723981Y-91603473D01*
X98719923Y-91602665D01*
X98667427Y-91596576D01*
X98649488Y-91588655D01*
X98626397Y-91584062D01*
X98601674Y-91567542D01*
X98580361Y-91558132D01*
X98565804Y-91543575D01*
X98543669Y-91528785D01*
X98528878Y-91506649D01*
X98514321Y-91492092D01*
X98504909Y-91470777D01*
X98488392Y-91446057D01*
X98483799Y-91422967D01*
X98475877Y-91405026D01*
X98469785Y-91352519D01*
X98468981Y-91348473D01*
X98468981Y-90923473D01*
X98469785Y-90919427D01*
X98475877Y-90866919D01*
X98483799Y-90848976D01*
X98488392Y-90825889D01*
X98504908Y-90801170D01*
X98514321Y-90779853D01*
X98528880Y-90765293D01*
X98543669Y-90743161D01*
X98565801Y-90728372D01*
X98580361Y-90713813D01*
X98601678Y-90704400D01*
X98626397Y-90687884D01*
X98649484Y-90683291D01*
X98667427Y-90675369D01*
X98719935Y-90669277D01*
X98723981Y-90668473D01*
X99033981Y-90668473D01*
X99038027Y-90669277D01*
G37*
G36*
X96407251Y-89411088D02*
G01*
X96439694Y-89432765D01*
X96461371Y-89465208D01*
X96468983Y-89503476D01*
X96468983Y-89823476D01*
X96461371Y-89861744D01*
X96439694Y-89894187D01*
X96407251Y-89915864D01*
X96368983Y-89923476D01*
X95528983Y-89923476D01*
X95490715Y-89915864D01*
X95458272Y-89894187D01*
X95436595Y-89861744D01*
X95428983Y-89823476D01*
X95428983Y-89503476D01*
X95436595Y-89465208D01*
X95458272Y-89432765D01*
X95490715Y-89411088D01*
X95528983Y-89403476D01*
X96368983Y-89403476D01*
X96407251Y-89411088D01*
G37*
G36*
X98087251Y-89411088D02*
G01*
X98119694Y-89432765D01*
X98141371Y-89465208D01*
X98148983Y-89503476D01*
X98148983Y-89823476D01*
X98141371Y-89861744D01*
X98119694Y-89894187D01*
X98087251Y-89915864D01*
X98048983Y-89923476D01*
X97208983Y-89923476D01*
X97170715Y-89915864D01*
X97138272Y-89894187D01*
X97116595Y-89861744D01*
X97108983Y-89823476D01*
X97108983Y-89503476D01*
X97116595Y-89465208D01*
X97138272Y-89432765D01*
X97170715Y-89411088D01*
X97208983Y-89403476D01*
X98048983Y-89403476D01*
X98087251Y-89411088D01*
G37*
G36*
X56407249Y-89411083D02*
G01*
X56439692Y-89432760D01*
X56461369Y-89465203D01*
X56468981Y-89503471D01*
X56468981Y-89823471D01*
X56461369Y-89861739D01*
X56439692Y-89894182D01*
X56407249Y-89915859D01*
X56368981Y-89923471D01*
X55528981Y-89923471D01*
X55490713Y-89915859D01*
X55458270Y-89894182D01*
X55436593Y-89861739D01*
X55428981Y-89823471D01*
X55428981Y-89503471D01*
X55436593Y-89465203D01*
X55458270Y-89432760D01*
X55490713Y-89411083D01*
X55528981Y-89403471D01*
X56368981Y-89403471D01*
X56407249Y-89411083D01*
G37*
G36*
X58087249Y-89411083D02*
G01*
X58119692Y-89432760D01*
X58141369Y-89465203D01*
X58148981Y-89503471D01*
X58148981Y-89823471D01*
X58141369Y-89861739D01*
X58119692Y-89894182D01*
X58087249Y-89915859D01*
X58048981Y-89923471D01*
X57208981Y-89923471D01*
X57170713Y-89915859D01*
X57138270Y-89894182D01*
X57116593Y-89861739D01*
X57108981Y-89823471D01*
X57108981Y-89503471D01*
X57116593Y-89465203D01*
X57138270Y-89432760D01*
X57170713Y-89411083D01*
X57208981Y-89403471D01*
X58048981Y-89403471D01*
X58087249Y-89411083D01*
G37*
G36*
X98087251Y-88761088D02*
G01*
X98119694Y-88782765D01*
X98141371Y-88815208D01*
X98148983Y-88853476D01*
X98148983Y-89173476D01*
X98141371Y-89211744D01*
X98119694Y-89244187D01*
X98087251Y-89265864D01*
X98048983Y-89273476D01*
X97208983Y-89273476D01*
X97170715Y-89265864D01*
X97138272Y-89244187D01*
X97116595Y-89211744D01*
X97108983Y-89173476D01*
X97108983Y-88853476D01*
X97116595Y-88815208D01*
X97138272Y-88782765D01*
X97170715Y-88761088D01*
X97208983Y-88753476D01*
X98048983Y-88753476D01*
X98087251Y-88761088D01*
G37*
G36*
X58087249Y-88761083D02*
G01*
X58119692Y-88782760D01*
X58141369Y-88815203D01*
X58148981Y-88853471D01*
X58148981Y-89173471D01*
X58141369Y-89211739D01*
X58119692Y-89244182D01*
X58087249Y-89265859D01*
X58048981Y-89273471D01*
X57208981Y-89273471D01*
X57170713Y-89265859D01*
X57138270Y-89244182D01*
X57116593Y-89211739D01*
X57108981Y-89173471D01*
X57108981Y-88853471D01*
X57116593Y-88815203D01*
X57138270Y-88782760D01*
X57170713Y-88761083D01*
X57208981Y-88753471D01*
X58048981Y-88753471D01*
X58087249Y-88761083D01*
G37*
G36*
X96407251Y-88111088D02*
G01*
X96439694Y-88132765D01*
X96461371Y-88165208D01*
X96468983Y-88203476D01*
X96468983Y-88523476D01*
X96461371Y-88561744D01*
X96439694Y-88594187D01*
X96407251Y-88615864D01*
X96368983Y-88623476D01*
X95528983Y-88623476D01*
X95490715Y-88615864D01*
X95458272Y-88594187D01*
X95436595Y-88561744D01*
X95428983Y-88523476D01*
X95428983Y-88203476D01*
X95436595Y-88165208D01*
X95458272Y-88132765D01*
X95490715Y-88111088D01*
X95528983Y-88103476D01*
X96368983Y-88103476D01*
X96407251Y-88111088D01*
G37*
G36*
X98087251Y-88111088D02*
G01*
X98119694Y-88132765D01*
X98141371Y-88165208D01*
X98148983Y-88203476D01*
X98148983Y-88523476D01*
X98141371Y-88561744D01*
X98119694Y-88594187D01*
X98087251Y-88615864D01*
X98048983Y-88623476D01*
X97208983Y-88623476D01*
X97170715Y-88615864D01*
X97138272Y-88594187D01*
X97116595Y-88561744D01*
X97108983Y-88523476D01*
X97108983Y-88203476D01*
X97116595Y-88165208D01*
X97138272Y-88132765D01*
X97170715Y-88111088D01*
X97208983Y-88103476D01*
X98048983Y-88103476D01*
X98087251Y-88111088D01*
G37*
G36*
X56407249Y-88111083D02*
G01*
X56439692Y-88132760D01*
X56461369Y-88165203D01*
X56468981Y-88203471D01*
X56468981Y-88523471D01*
X56461369Y-88561739D01*
X56439692Y-88594182D01*
X56407249Y-88615859D01*
X56368981Y-88623471D01*
X55528981Y-88623471D01*
X55490713Y-88615859D01*
X55458270Y-88594182D01*
X55436593Y-88561739D01*
X55428981Y-88523471D01*
X55428981Y-88203471D01*
X55436593Y-88165203D01*
X55458270Y-88132760D01*
X55490713Y-88111083D01*
X55528981Y-88103471D01*
X56368981Y-88103471D01*
X56407249Y-88111083D01*
G37*
G36*
X58087249Y-88111083D02*
G01*
X58119692Y-88132760D01*
X58141369Y-88165203D01*
X58148981Y-88203471D01*
X58148981Y-88523471D01*
X58141369Y-88561739D01*
X58119692Y-88594182D01*
X58087249Y-88615859D01*
X58048981Y-88623471D01*
X57208981Y-88623471D01*
X57170713Y-88615859D01*
X57138270Y-88594182D01*
X57116593Y-88561739D01*
X57108981Y-88523471D01*
X57108981Y-88203471D01*
X57116593Y-88165203D01*
X57138270Y-88132760D01*
X57170713Y-88111083D01*
X57208981Y-88103471D01*
X58048981Y-88103471D01*
X58087249Y-88111083D01*
G37*
G36*
X76137253Y-82443628D02*
G01*
X76169696Y-82465305D01*
X76183416Y-82485839D01*
X76234554Y-82485839D01*
X76248274Y-82465305D01*
X76280717Y-82443628D01*
X76318985Y-82436016D01*
X76598985Y-82436016D01*
X76637253Y-82443628D01*
X76669696Y-82465305D01*
X76683416Y-82485839D01*
X76734554Y-82485839D01*
X76748274Y-82465305D01*
X76780717Y-82443628D01*
X76818985Y-82436016D01*
X77098985Y-82436016D01*
X77137253Y-82443628D01*
X77169696Y-82465305D01*
X77183416Y-82485839D01*
X77234554Y-82485839D01*
X77248274Y-82465305D01*
X77280717Y-82443628D01*
X77318985Y-82436016D01*
X77598985Y-82436016D01*
X77637253Y-82443628D01*
X77669696Y-82465305D01*
X77691373Y-82497748D01*
X77698985Y-82536016D01*
X77698985Y-83036016D01*
X77691373Y-83074284D01*
X77669696Y-83106727D01*
X77667605Y-83108123D01*
X77657561Y-83123156D01*
X77685814Y-83176016D01*
X77838985Y-83176016D01*
X77877253Y-83183628D01*
X77909696Y-83205305D01*
X77931373Y-83237748D01*
X77938985Y-83276016D01*
X77938985Y-83556016D01*
X77931373Y-83594284D01*
X77909696Y-83626727D01*
X77889161Y-83640447D01*
X77889161Y-83691584D01*
X77909696Y-83705305D01*
X77931373Y-83737748D01*
X77938985Y-83776016D01*
X77938985Y-84056016D01*
X77931373Y-84094284D01*
X77909696Y-84126727D01*
X77877253Y-84148404D01*
X77838985Y-84156016D01*
X77685814Y-84156016D01*
X77657561Y-84208875D01*
X77667606Y-84223909D01*
X77669696Y-84225305D01*
X77691373Y-84257748D01*
X77698985Y-84296016D01*
X77698985Y-84796016D01*
X77691373Y-84834284D01*
X77669696Y-84866727D01*
X77637253Y-84888404D01*
X77598985Y-84896016D01*
X77318985Y-84896016D01*
X77280717Y-84888404D01*
X77248274Y-84866727D01*
X77234553Y-84846192D01*
X77183417Y-84846192D01*
X77169696Y-84866727D01*
X77137253Y-84888404D01*
X77098985Y-84896016D01*
X76818985Y-84896016D01*
X76780717Y-84888404D01*
X76748274Y-84866727D01*
X76734553Y-84846192D01*
X76683417Y-84846192D01*
X76669696Y-84866727D01*
X76637253Y-84888404D01*
X76598985Y-84896016D01*
X76318985Y-84896016D01*
X76280717Y-84888404D01*
X76248274Y-84866727D01*
X76234553Y-84846192D01*
X76183417Y-84846192D01*
X76169696Y-84866727D01*
X76137253Y-84888404D01*
X76098985Y-84896016D01*
X75818985Y-84896016D01*
X75780717Y-84888404D01*
X75748274Y-84866727D01*
X75726597Y-84834284D01*
X75718985Y-84796016D01*
X75718985Y-84296016D01*
X75726597Y-84257748D01*
X75748274Y-84225305D01*
X75750360Y-84223910D01*
X75760408Y-84208874D01*
X75732155Y-84156016D01*
X75578985Y-84156016D01*
X75540717Y-84148404D01*
X75508274Y-84126727D01*
X75486597Y-84094284D01*
X75478985Y-84056016D01*
X75478985Y-83776016D01*
X75486597Y-83737748D01*
X75508274Y-83705305D01*
X75528808Y-83691585D01*
X75528808Y-83640446D01*
X75508274Y-83626727D01*
X75486597Y-83594284D01*
X75478985Y-83556016D01*
X75478985Y-83276016D01*
X75486597Y-83237748D01*
X75508274Y-83205305D01*
X75533776Y-83188266D01*
X76124195Y-83188266D01*
X76149696Y-83205305D01*
X76171373Y-83237748D01*
X76178985Y-83276016D01*
X76178985Y-83556016D01*
X76171373Y-83594284D01*
X76149696Y-83626727D01*
X76129161Y-83640447D01*
X76129161Y-83691584D01*
X76149696Y-83705305D01*
X76171373Y-83737748D01*
X76178985Y-83776016D01*
X76178985Y-84056016D01*
X76171373Y-84094284D01*
X76149696Y-84126727D01*
X76124196Y-84143764D01*
X76124196Y-84196059D01*
X76134791Y-84203138D01*
X76137253Y-84203628D01*
X76169696Y-84225305D01*
X76183416Y-84245839D01*
X76234554Y-84245839D01*
X76248274Y-84225305D01*
X76280717Y-84203628D01*
X76318985Y-84196016D01*
X76598985Y-84196016D01*
X76637253Y-84203628D01*
X76669696Y-84225305D01*
X76683416Y-84245839D01*
X76734554Y-84245839D01*
X76748274Y-84225305D01*
X76780717Y-84203628D01*
X76818985Y-84196016D01*
X77098985Y-84196016D01*
X77137253Y-84203628D01*
X77169696Y-84225305D01*
X77183416Y-84245839D01*
X77234554Y-84245839D01*
X77248274Y-84225305D01*
X77280717Y-84203628D01*
X77283176Y-84203138D01*
X77293773Y-84196058D01*
X77293773Y-84143764D01*
X77268274Y-84126727D01*
X77246597Y-84094284D01*
X77238985Y-84056016D01*
X77238985Y-83776016D01*
X77246597Y-83737748D01*
X77268274Y-83705305D01*
X77288808Y-83691585D01*
X77288808Y-83640446D01*
X77268274Y-83626727D01*
X77246597Y-83594284D01*
X77238985Y-83556016D01*
X77238985Y-83276016D01*
X77246597Y-83237748D01*
X77268274Y-83205305D01*
X77293773Y-83188267D01*
X77293772Y-83135971D01*
X77283180Y-83128894D01*
X77280717Y-83128404D01*
X77248274Y-83106727D01*
X77234553Y-83086192D01*
X77183417Y-83086192D01*
X77169696Y-83106727D01*
X77137253Y-83128404D01*
X77098985Y-83136016D01*
X76818985Y-83136016D01*
X76780717Y-83128404D01*
X76748274Y-83106727D01*
X76734553Y-83086192D01*
X76683417Y-83086192D01*
X76669696Y-83106727D01*
X76637253Y-83128404D01*
X76598985Y-83136016D01*
X76318985Y-83136016D01*
X76280717Y-83128404D01*
X76248274Y-83106727D01*
X76234553Y-83086192D01*
X76183417Y-83086192D01*
X76169696Y-83106727D01*
X76137253Y-83128404D01*
X76134788Y-83128894D01*
X76124197Y-83135971D01*
X76124195Y-83188266D01*
X75533776Y-83188266D01*
X75540717Y-83183628D01*
X75578985Y-83176016D01*
X75732155Y-83176016D01*
X75760408Y-83123157D01*
X75750362Y-83108122D01*
X75748274Y-83106727D01*
X75726597Y-83074284D01*
X75718985Y-83036016D01*
X75718985Y-82536016D01*
X75726597Y-82497748D01*
X75748274Y-82465305D01*
X75780717Y-82443628D01*
X75818985Y-82436016D01*
X76098985Y-82436016D01*
X76137253Y-82443628D01*
G37*
G36*
X74759046Y-83760804D02*
G01*
X74811553Y-83766896D01*
X74829494Y-83774818D01*
X74852584Y-83779411D01*
X74877304Y-83795928D01*
X74898619Y-83805340D01*
X74913176Y-83819897D01*
X74935312Y-83834688D01*
X74950102Y-83856823D01*
X74964659Y-83871380D01*
X74974069Y-83892693D01*
X74990589Y-83917416D01*
X74995182Y-83940507D01*
X75003103Y-83958446D01*
X75009192Y-84010942D01*
X75010000Y-84015000D01*
X75010000Y-84440000D01*
X75009192Y-84444058D01*
X75003103Y-84496553D01*
X74995182Y-84514490D01*
X74990589Y-84537584D01*
X74974068Y-84562308D01*
X74964659Y-84583619D01*
X74950104Y-84598173D01*
X74935312Y-84620312D01*
X74913173Y-84635104D01*
X74898619Y-84649659D01*
X74877308Y-84659068D01*
X74852584Y-84675589D01*
X74829490Y-84680182D01*
X74811553Y-84688103D01*
X74759058Y-84694192D01*
X74755000Y-84695000D01*
X74445000Y-84695000D01*
X74440942Y-84694192D01*
X74388446Y-84688103D01*
X74370507Y-84680182D01*
X74347416Y-84675589D01*
X74322693Y-84659069D01*
X74301380Y-84649659D01*
X74286823Y-84635102D01*
X74264688Y-84620312D01*
X74249897Y-84598176D01*
X74235340Y-84583619D01*
X74225928Y-84562304D01*
X74209411Y-84537584D01*
X74204818Y-84514494D01*
X74196896Y-84496553D01*
X74190804Y-84444046D01*
X74190000Y-84440000D01*
X74190000Y-84015000D01*
X74190804Y-84010954D01*
X74196896Y-83958446D01*
X74204818Y-83940503D01*
X74209411Y-83917416D01*
X74225927Y-83892697D01*
X74235340Y-83871380D01*
X74249899Y-83856820D01*
X74264688Y-83834688D01*
X74286820Y-83819899D01*
X74301380Y-83805340D01*
X74322697Y-83795927D01*
X74347416Y-83779411D01*
X74370503Y-83774818D01*
X74388446Y-83766896D01*
X74440954Y-83760804D01*
X74445000Y-83760000D01*
X74755000Y-83760000D01*
X74759046Y-83760804D01*
G37*
G36*
X79038030Y-83756820D02*
G01*
X79090537Y-83762912D01*
X79108478Y-83770834D01*
X79131568Y-83775427D01*
X79156288Y-83791944D01*
X79177603Y-83801356D01*
X79192160Y-83815913D01*
X79214296Y-83830704D01*
X79229086Y-83852839D01*
X79243643Y-83867396D01*
X79253053Y-83888709D01*
X79269573Y-83913432D01*
X79274166Y-83936523D01*
X79282087Y-83954462D01*
X79288176Y-84006958D01*
X79288984Y-84011016D01*
X79288984Y-84436016D01*
X79288176Y-84440074D01*
X79282087Y-84492569D01*
X79274166Y-84510506D01*
X79269573Y-84533600D01*
X79253052Y-84558324D01*
X79243643Y-84579635D01*
X79229088Y-84594189D01*
X79214296Y-84616328D01*
X79192157Y-84631120D01*
X79177603Y-84645675D01*
X79156292Y-84655084D01*
X79131568Y-84671605D01*
X79108474Y-84676198D01*
X79090537Y-84684119D01*
X79038042Y-84690208D01*
X79033984Y-84691016D01*
X78723984Y-84691016D01*
X78719926Y-84690208D01*
X78667430Y-84684119D01*
X78649491Y-84676198D01*
X78626400Y-84671605D01*
X78601677Y-84655085D01*
X78580364Y-84645675D01*
X78565807Y-84631118D01*
X78543672Y-84616328D01*
X78528881Y-84594192D01*
X78514324Y-84579635D01*
X78504912Y-84558320D01*
X78488395Y-84533600D01*
X78483802Y-84510510D01*
X78475880Y-84492569D01*
X78469788Y-84440062D01*
X78468984Y-84436016D01*
X78468984Y-84011016D01*
X78469788Y-84006970D01*
X78475880Y-83954462D01*
X78483802Y-83936519D01*
X78488395Y-83913432D01*
X78504911Y-83888713D01*
X78514324Y-83867396D01*
X78528883Y-83852836D01*
X78543672Y-83830704D01*
X78565804Y-83815915D01*
X78580364Y-83801356D01*
X78601681Y-83791943D01*
X78626400Y-83775427D01*
X78649487Y-83770834D01*
X78667430Y-83762912D01*
X78719938Y-83756820D01*
X78723984Y-83756016D01*
X79033984Y-83756016D01*
X79038030Y-83756820D01*
G37*
G36*
X74759046Y-82625804D02*
G01*
X74811553Y-82631896D01*
X74829494Y-82639818D01*
X74852584Y-82644411D01*
X74877304Y-82660928D01*
X74898619Y-82670340D01*
X74913176Y-82684897D01*
X74935312Y-82699688D01*
X74950102Y-82721823D01*
X74964659Y-82736380D01*
X74974069Y-82757693D01*
X74990589Y-82782416D01*
X74995182Y-82805507D01*
X75003103Y-82823446D01*
X75009192Y-82875942D01*
X75010000Y-82880000D01*
X75010000Y-83305000D01*
X75009192Y-83309058D01*
X75003103Y-83361553D01*
X74995182Y-83379490D01*
X74990589Y-83402584D01*
X74974068Y-83427308D01*
X74964659Y-83448619D01*
X74950104Y-83463173D01*
X74935312Y-83485312D01*
X74913173Y-83500104D01*
X74898619Y-83514659D01*
X74877308Y-83524068D01*
X74852584Y-83540589D01*
X74829490Y-83545182D01*
X74811553Y-83553103D01*
X74759058Y-83559192D01*
X74755000Y-83560000D01*
X74445000Y-83560000D01*
X74440942Y-83559192D01*
X74388446Y-83553103D01*
X74370507Y-83545182D01*
X74347416Y-83540589D01*
X74322693Y-83524069D01*
X74301380Y-83514659D01*
X74286823Y-83500102D01*
X74264688Y-83485312D01*
X74249897Y-83463176D01*
X74235340Y-83448619D01*
X74225928Y-83427304D01*
X74209411Y-83402584D01*
X74204818Y-83379494D01*
X74196896Y-83361553D01*
X74190804Y-83309046D01*
X74190000Y-83305000D01*
X74190000Y-82880000D01*
X74190804Y-82875954D01*
X74196896Y-82823446D01*
X74204818Y-82805503D01*
X74209411Y-82782416D01*
X74225927Y-82757697D01*
X74235340Y-82736380D01*
X74249899Y-82721820D01*
X74264688Y-82699688D01*
X74286820Y-82684899D01*
X74301380Y-82670340D01*
X74322697Y-82660927D01*
X74347416Y-82644411D01*
X74370503Y-82639818D01*
X74388446Y-82631896D01*
X74440954Y-82625804D01*
X74445000Y-82625000D01*
X74755000Y-82625000D01*
X74759046Y-82625804D01*
G37*
G36*
X79038030Y-82621820D02*
G01*
X79090537Y-82627912D01*
X79108478Y-82635834D01*
X79131568Y-82640427D01*
X79156288Y-82656944D01*
X79177603Y-82666356D01*
X79192160Y-82680913D01*
X79214296Y-82695704D01*
X79229086Y-82717839D01*
X79243643Y-82732396D01*
X79253053Y-82753709D01*
X79269573Y-82778432D01*
X79274166Y-82801523D01*
X79282087Y-82819462D01*
X79288176Y-82871958D01*
X79288984Y-82876016D01*
X79288984Y-83301016D01*
X79288176Y-83305074D01*
X79282087Y-83357569D01*
X79274166Y-83375506D01*
X79269573Y-83398600D01*
X79253052Y-83423324D01*
X79243643Y-83444635D01*
X79229088Y-83459189D01*
X79214296Y-83481328D01*
X79192157Y-83496120D01*
X79177603Y-83510675D01*
X79156292Y-83520084D01*
X79131568Y-83536605D01*
X79108474Y-83541198D01*
X79090537Y-83549119D01*
X79038042Y-83555208D01*
X79033984Y-83556016D01*
X78723984Y-83556016D01*
X78719926Y-83555208D01*
X78667430Y-83549119D01*
X78649491Y-83541198D01*
X78626400Y-83536605D01*
X78601677Y-83520085D01*
X78580364Y-83510675D01*
X78565807Y-83496118D01*
X78543672Y-83481328D01*
X78528881Y-83459192D01*
X78514324Y-83444635D01*
X78504912Y-83423320D01*
X78488395Y-83398600D01*
X78483802Y-83375510D01*
X78475880Y-83357569D01*
X78469788Y-83305062D01*
X78468984Y-83301016D01*
X78468984Y-82876016D01*
X78469788Y-82871970D01*
X78475880Y-82819462D01*
X78483802Y-82801519D01*
X78488395Y-82778432D01*
X78504911Y-82753713D01*
X78514324Y-82732396D01*
X78528883Y-82717836D01*
X78543672Y-82695704D01*
X78565804Y-82680915D01*
X78580364Y-82666356D01*
X78601681Y-82656943D01*
X78626400Y-82640427D01*
X78649487Y-82635834D01*
X78667430Y-82627912D01*
X78719938Y-82621820D01*
X78723984Y-82621016D01*
X79033984Y-82621016D01*
X79038030Y-82621820D01*
G37*
G36*
X76407252Y-81363627D02*
G01*
X76439695Y-81385304D01*
X76461372Y-81417747D01*
X76468984Y-81456015D01*
X76468984Y-81776015D01*
X76461372Y-81814283D01*
X76439695Y-81846726D01*
X76407252Y-81868403D01*
X76368984Y-81876015D01*
X75528984Y-81876015D01*
X75490716Y-81868403D01*
X75458273Y-81846726D01*
X75436596Y-81814283D01*
X75428984Y-81776015D01*
X75428984Y-81456015D01*
X75436596Y-81417747D01*
X75458273Y-81385304D01*
X75490716Y-81363627D01*
X75528984Y-81356015D01*
X76368984Y-81356015D01*
X76407252Y-81363627D01*
G37*
G36*
X78087252Y-81363627D02*
G01*
X78119695Y-81385304D01*
X78141372Y-81417747D01*
X78148984Y-81456015D01*
X78148984Y-81776015D01*
X78141372Y-81814283D01*
X78119695Y-81846726D01*
X78087252Y-81868403D01*
X78048984Y-81876015D01*
X77208984Y-81876015D01*
X77170716Y-81868403D01*
X77138273Y-81846726D01*
X77116596Y-81814283D01*
X77108984Y-81776015D01*
X77108984Y-81456015D01*
X77116596Y-81417747D01*
X77138273Y-81385304D01*
X77170716Y-81363627D01*
X77208984Y-81356015D01*
X78048984Y-81356015D01*
X78087252Y-81363627D01*
G37*
G36*
X78087252Y-80713627D02*
G01*
X78119695Y-80735304D01*
X78141372Y-80767747D01*
X78148984Y-80806015D01*
X78148984Y-81126015D01*
X78141372Y-81164283D01*
X78119695Y-81196726D01*
X78087252Y-81218403D01*
X78048984Y-81226015D01*
X77208984Y-81226015D01*
X77170716Y-81218403D01*
X77138273Y-81196726D01*
X77116596Y-81164283D01*
X77108984Y-81126015D01*
X77108984Y-80806015D01*
X77116596Y-80767747D01*
X77138273Y-80735304D01*
X77170716Y-80713627D01*
X77208984Y-80706015D01*
X78048984Y-80706015D01*
X78087252Y-80713627D01*
G37*
G36*
X76407252Y-80063627D02*
G01*
X76439695Y-80085304D01*
X76461372Y-80117747D01*
X76468984Y-80156015D01*
X76468984Y-80476015D01*
X76461372Y-80514283D01*
X76439695Y-80546726D01*
X76407252Y-80568403D01*
X76368984Y-80576015D01*
X75528984Y-80576015D01*
X75490716Y-80568403D01*
X75458273Y-80546726D01*
X75436596Y-80514283D01*
X75428984Y-80476015D01*
X75428984Y-80156015D01*
X75436596Y-80117747D01*
X75458273Y-80085304D01*
X75490716Y-80063627D01*
X75528984Y-80056015D01*
X76368984Y-80056015D01*
X76407252Y-80063627D01*
G37*
G36*
X78087252Y-80063627D02*
G01*
X78119695Y-80085304D01*
X78141372Y-80117747D01*
X78148984Y-80156015D01*
X78148984Y-80476015D01*
X78141372Y-80514283D01*
X78119695Y-80546726D01*
X78087252Y-80568403D01*
X78048984Y-80576015D01*
X77208984Y-80576015D01*
X77170716Y-80568403D01*
X77138273Y-80546726D01*
X77116596Y-80514283D01*
X77108984Y-80476015D01*
X77108984Y-80156015D01*
X77116596Y-80117747D01*
X77138273Y-80085304D01*
X77170716Y-80063627D01*
X77208984Y-80056015D01*
X78048984Y-80056015D01*
X78087252Y-80063627D01*
G37*
M02*
