%TF.GenerationSoftware,KiCad,Pcbnew,10.0.3*%
%TF.CreationDate,2026-07-01T11:37:50+01:00*%
%TF.ProjectId,ACC,4143432e-6b69-4636-9164-5f7063625858,2.2*%
%TF.SameCoordinates,Original*%
%TF.FileFunction,Soldermask,Bot*%
%TF.FilePolarity,Negative*%
%FSLAX46Y46*%
G04 Gerber Fmt 4.6, Leading zero omitted, Abs format (unit mm)*
G04 Created by KiCad (PCBNEW 10.0.3) date 2026-07-01 11:37:50*
%MOMM*%
%LPD*%
G01*
G04 APERTURE LIST*
G04 APERTURE END LIST*
G36*
X82481558Y-19995593D02*
G01*
X82501405Y-19996422D01*
X82535159Y-20003872D01*
X82573653Y-20019816D01*
X82605773Y-20041277D01*
X82633720Y-20069224D01*
X82655181Y-20101344D01*
X82671125Y-20139838D01*
X82678573Y-20173583D01*
X82679404Y-20193444D01*
X82679491Y-20197583D01*
X82679491Y-23096507D01*
X82660584Y-23154698D01*
X82611084Y-23190662D01*
X82580491Y-23195507D01*
X82580489Y-23195507D01*
X82283780Y-23195507D01*
X82254491Y-23224796D01*
X82254491Y-24360507D01*
X82244215Y-24412169D01*
X82214950Y-24455966D01*
X82171153Y-24485231D01*
X82119491Y-24495507D01*
X81839491Y-24495507D01*
X81787829Y-24485231D01*
X81744032Y-24455966D01*
X81743540Y-24455229D01*
X81715442Y-24455229D01*
X81714950Y-24455966D01*
X81671153Y-24485231D01*
X81619491Y-24495507D01*
X81339491Y-24495507D01*
X81287829Y-24485231D01*
X81244032Y-24455966D01*
X81243540Y-24455229D01*
X81215442Y-24455229D01*
X81214950Y-24455966D01*
X81171153Y-24485231D01*
X81119491Y-24495507D01*
X80839491Y-24495507D01*
X80787829Y-24485231D01*
X80744032Y-24455966D01*
X80743540Y-24455229D01*
X80715442Y-24455229D01*
X80714950Y-24455966D01*
X80671153Y-24485231D01*
X80619491Y-24495507D01*
X80339491Y-24495507D01*
X80287829Y-24485231D01*
X80244032Y-24455966D01*
X80243540Y-24455229D01*
X80215442Y-24455229D01*
X80214950Y-24455966D01*
X80171153Y-24485231D01*
X80119491Y-24495507D01*
X79839491Y-24495507D01*
X79787829Y-24485231D01*
X79744032Y-24455966D01*
X79743540Y-24455229D01*
X79715442Y-24455229D01*
X79714950Y-24455966D01*
X79671153Y-24485231D01*
X79619491Y-24495507D01*
X79339491Y-24495507D01*
X79287829Y-24485231D01*
X79244032Y-24455966D01*
X79243540Y-24455229D01*
X79215442Y-24455229D01*
X79214950Y-24455966D01*
X79171153Y-24485231D01*
X79119491Y-24495507D01*
X78839491Y-24495507D01*
X78787829Y-24485231D01*
X78744032Y-24455966D01*
X78743540Y-24455229D01*
X78715442Y-24455229D01*
X78714950Y-24455966D01*
X78671153Y-24485231D01*
X78619491Y-24495507D01*
X78339491Y-24495507D01*
X78287829Y-24485231D01*
X78244032Y-24455966D01*
X78243540Y-24455229D01*
X78215442Y-24455229D01*
X78214950Y-24455966D01*
X78171153Y-24485231D01*
X78119491Y-24495507D01*
X77839491Y-24495507D01*
X77787829Y-24485231D01*
X77744032Y-24455966D01*
X77743540Y-24455229D01*
X77715442Y-24455229D01*
X77714950Y-24455966D01*
X77671153Y-24485231D01*
X77619491Y-24495507D01*
X77339491Y-24495507D01*
X77287829Y-24485231D01*
X77244032Y-24455966D01*
X77243540Y-24455229D01*
X77215442Y-24455229D01*
X77214950Y-24455966D01*
X77171153Y-24485231D01*
X77119491Y-24495507D01*
X76839491Y-24495507D01*
X76787829Y-24485231D01*
X76744032Y-24455966D01*
X76743540Y-24455229D01*
X76715442Y-24455229D01*
X76714950Y-24455966D01*
X76671153Y-24485231D01*
X76619491Y-24495507D01*
X76339491Y-24495507D01*
X76287829Y-24485231D01*
X76244032Y-24455966D01*
X76243540Y-24455229D01*
X76215442Y-24455229D01*
X76214950Y-24455966D01*
X76171153Y-24485231D01*
X76119491Y-24495507D01*
X75839491Y-24495507D01*
X75787829Y-24485231D01*
X75744032Y-24455966D01*
X75743540Y-24455229D01*
X75715442Y-24455229D01*
X75714950Y-24455966D01*
X75671153Y-24485231D01*
X75619491Y-24495507D01*
X75339491Y-24495507D01*
X75287829Y-24485231D01*
X75244032Y-24455966D01*
X75243540Y-24455229D01*
X75215442Y-24455229D01*
X75214950Y-24455966D01*
X75171153Y-24485231D01*
X75119491Y-24495507D01*
X74839491Y-24495507D01*
X74787829Y-24485231D01*
X74744032Y-24455966D01*
X74743540Y-24455229D01*
X74715442Y-24455229D01*
X74714950Y-24455966D01*
X74671153Y-24485231D01*
X74619491Y-24495507D01*
X74339491Y-24495507D01*
X74287829Y-24485231D01*
X74244032Y-24455966D01*
X74243540Y-24455229D01*
X74215442Y-24455229D01*
X74214950Y-24455966D01*
X74171153Y-24485231D01*
X74119491Y-24495507D01*
X73839491Y-24495507D01*
X73787829Y-24485231D01*
X73744032Y-24455966D01*
X73743540Y-24455229D01*
X73715442Y-24455229D01*
X73714950Y-24455966D01*
X73671153Y-24485231D01*
X73619491Y-24495507D01*
X73339491Y-24495507D01*
X73287829Y-24485231D01*
X73244032Y-24455966D01*
X73243540Y-24455229D01*
X73215442Y-24455229D01*
X73214950Y-24455966D01*
X73171153Y-24485231D01*
X73119491Y-24495507D01*
X72839491Y-24495507D01*
X72787829Y-24485231D01*
X72744032Y-24455966D01*
X72743540Y-24455229D01*
X72715442Y-24455229D01*
X72714950Y-24455966D01*
X72671153Y-24485231D01*
X72619491Y-24495507D01*
X72339491Y-24495507D01*
X72287829Y-24485231D01*
X72244032Y-24455966D01*
X72243540Y-24455229D01*
X72215442Y-24455229D01*
X72214950Y-24455966D01*
X72171153Y-24485231D01*
X72119491Y-24495507D01*
X71839491Y-24495507D01*
X71787829Y-24485231D01*
X71744032Y-24455966D01*
X71743540Y-24455229D01*
X71715442Y-24455229D01*
X71714950Y-24455966D01*
X71671153Y-24485231D01*
X71619491Y-24495507D01*
X71339491Y-24495507D01*
X71287829Y-24485231D01*
X71244032Y-24455966D01*
X71214767Y-24412169D01*
X71204491Y-24360507D01*
X71204491Y-23224795D01*
X71175203Y-23195507D01*
X70878494Y-23195507D01*
X70878491Y-23195507D01*
X70878488Y-23195506D01*
X70878487Y-23195506D01*
X70820300Y-23176600D01*
X70784336Y-23127100D01*
X70779491Y-23096507D01*
X70779491Y-20197923D01*
X70779499Y-20197583D01*
X70779607Y-20193122D01*
X70780574Y-20173284D01*
X70780574Y-20173280D01*
X70787990Y-20140219D01*
X70804029Y-20101493D01*
X70804129Y-20101344D01*
X70825490Y-20069372D01*
X70825494Y-20069366D01*
X70853362Y-20041497D01*
X70885478Y-20020037D01*
X70924182Y-20004002D01*
X70957289Y-19996581D01*
X70957293Y-19996580D01*
X70977126Y-19995621D01*
X70981864Y-19995507D01*
X82477414Y-19995507D01*
X82481558Y-19995593D01*
G37*
M02*
